<?xml version="1.0" encoding="utf-8"?>
<!-- Generator: Adobe Illustrator 26.0.3, SVG Export Plug-In . SVG Version: 6.00 Build 0)  -->
<svg version="1.1" id="Layer_1" xmlns="http://www.w3.org/2000/svg" xmlns:xlink="http://www.w3.org/1999/xlink" x="0px" y="0px"
	 viewBox="0 0 340.5 422.2" style="enable-background:new 0 0 340.5 422.2;" xml:space="preserve">
<style type="text/css">
	.st0{fill:#DBA184;}
	.st1{fill:#FABB95;}
	.st2{fill:#F1E1C9;}
	.st3{fill:#FFFFFF;}
	.st4{fill:#FDFBF9;}
	.st5{fill:#046857;}
	.st6{fill:#074C42;}
	.st7{fill:#6A90BD;}
</style>
<path class="st0" d="M168.7,102c0,0.6-0.6,0.9-1,1.2c-5.4,4.6-11.1,9-16.8,13.3c-1.5,1.1-3,2.2-4.5,3.2c-0.8,0.6-1.7,1.2-2.4,1.7
	c-1.5,1.1-3,2.1-4.5,3.2c-0.1,0.1-0.3,0.2-0.4,0.3c-0.4,0.3-0.8,0.5-1.2,0.8c-0.3,0.2-0.5,0.3-0.8,0.5l0,0c-0.2,0.1-0.3,0.2-0.5,0.3
	c-1,0.6-1.9,1.3-2.9,1.9c-0.3,0.2-0.6,0.4-0.9,0.6c-0.1,0.1-0.3,0.2-0.4,0.3c-1.7,1.1-3.4,2.1-5.1,3.2c-0.8,0.5-1.5,1-2.2,1.4
	c-4.4,2.7-8.6,5.5-12.9,8.2c-1,0.6-2.1,1.3-3.1,1.9c-0.4,0.3-0.8,0.5-1.2,0.7c-0.4,0.3-0.8,0.5-1.2,0.7c-0.5,0.3-1.1,0.7-1.7,1
	c-2.6,1.5-5.2,3.1-7.8,4.5c-0.6,0.4-1.3,0.7-2,1.1c-1.8,1-3.6,2-5.4,2.9c-1.1,0.6-2.1,1.2-3.3,1.7c-1.1,0.6-2.3,1.2-3.5,1.8
	c-0.6,0.3-1.1,0.6-1.7,0.9c-4.3,2.3-8.7,4.2-13,6.2c-0.8,1.1,0.2,1.3,0.6,1.8c1.9,3.1,4.6,5.6,7.5,7.8c1.4,1.2,3.1,2.1,4.5,3.2l0,0
	c0.2,0.2,0.4,0.3,0.6,0.4l0,0c1.5,0.7,3.1,0.3,4.6-0.7c1.3-0.9,2.6-1.8,3.9-2.6c5.5-3.4,11-6.8,16.6-10.2c0.1-0.1,0.3-0.2,0.4-0.3
	c0.1,0,0.4-0.3,0.8-0.5l0.6-0.4c0.7-0.4,1.4-0.9,1.4-0.9c1.8-1.1,3.6-2.3,5.4-3.4l0.3-0.2c1.6-1,3.2-2,4.9-3.1
	c3.4-2.2,6.9-4.4,10.3-6.5c2.5-1.6,5-3.3,7.7-4.9c1.6-0.9,2.8-2.2,4.6-2.8c0.1,0,0.1,0,0.1-0.1c0.1,0,0.1-0.1,0.2-0.1
	c0.1-0.1,0.2-0.1,0.3-0.3c0.2-0.1,0.4-0.3,0.7-0.4c0.5-0.5,1.1-0.8,1.8-1l0,0c0.8-0.6,1.6-1.1,2.4-1.6c1.4-0.9,2.9-1.7,4.2-2.6
	c4-2.6,8.1-5.1,12-7.7c3.3-2.2,6.7-4.4,10.1-6.5c0.2-0.2,0.3-0.4,0.5-0.5c0.4-0.6,0.6-1.2,0.7-1.9c0-0.1,0-0.2,0-0.3
	c0-0.1,0-0.2,0.1-0.2l0,0c0-0.2,0-0.4-0.1-0.5l0,0c-0.2-1.9-0.6-3.9-0.8-5.8c-0.2-1-0.4-2-0.7-3c-0.7-2.7-1.9-5.2-3.3-7.6
	C170.5,101.2,170.2,101.1,168.7,102z M133.8,136.2L133.8,136.2L133.8,136.2L133.8,136.2z"/>
<path class="st1" d="M168.7,102c0,0.6-0.6,0.9-1,1.1c-5.4,4.6-11.1,9-16.8,13.3c-4.3,3.2-8.6,6.2-13.1,9.2
	c-4.2,2.9-8.5,5.6-12.9,8.3c-4.4,2.7-8.6,5.5-12.9,8.2c-5.5,3.6-11.1,6.8-16.8,10c-4.6,2.6-9.2,5-13.9,7.3c-4.3,2.3-8.7,4.2-13,6.2
	c0.1-0.9,1-1.2,1.6-1.6c4-2.6,8.1-5.1,12.1-7.6c2.9-1.8,5.7-3.7,8.5-5.5c3.3-2,6.5-4,9.8-6.1c5.8-3.7,11.6-7.4,17.5-11.2
	c6-3.8,12.1-7.7,18.1-11.5c9.7-6.1,19.2-12.2,28.9-18.3C166.1,103.4,167.2,102.3,168.7,102z"/>
<path class="st2" d="M223,192L223,192C223,192,223.1,191.9,223,192C223.1,191.9,223,192,223,192z M241.7,161.2L241.7,161.2
	L241.7,161.2L241.7,161.2L241.7,161.2z M283.6,213l-0.1,0c-1.5,0.8-3.1,1.3-4.6,1.6c-0.1,0.1-0.3,0.2-0.5,0.3l0,0
	c-3.2,1.8-6,4.1-8.9,6.3c-3.3,2.6-6.8,5.2-10.1,7.8c-3.1,2.4-6.2,4.7-9.3,7.1c-1.6,1.2-3.2,2.4-4.9,3.5c-4.8,3.2-9.3,6.7-14,9.9
	c-2.8,1.9-5.6,3.8-8.4,5.8c-0.5,0.3-0.8,0.6-1.3,0.9c-0.3,0.2-0.6,0.4-0.9,0.7c-0.1,0.1-0.2,0.1-0.3,0.2c-0.3,0.2-0.8,0.5-1.1,0.8
	c-0.2,0.1-0.4,0.3-0.6,0.4c-0.3,0.2-0.6,0.4-1,0.6c-0.3,0.2-0.6,0.4-0.9,0.6c-2,1.4-4.3,2.9-6.5,4.4l-0.1,0c-4.4,3-8.7,5.8-10.8,7.1
	c-0.3,0.2-0.5,0.3-0.8,0.5c-2.9,1.8-5.7,3.7-8.6,5.5c-3.8,2.2-7.9,4.5-11.6,6.8c-0.4,0.3-5.3,3.2-6.4,3.8c-3.7,2.2-8.3,5-12,7.3
	c-2.9,1.8-5.9,3.3-8.8,4.9c-3.9,2.2-7.9,4.4-11.8,6.4c-2.3,1.1-4.4,2.6-6.7,3.8c-2.3,1.2-4.6,2.6-6.9,3.8c-1.6,0.8-3.2,1.6-4.8,2.4
	c-0.3,0.2-0.5,0.3-0.8,0.2c-1.7,0.9-1.8,1.1-0.6,2c0,0.1,0.2,0.1,0.3,0.1l0.1,0c1.2,0.6,3.8,2.3,4.1,2.5c1.3,0.8,2.6,1.6,3.9,2.3
	c0,0.1,0.2,0.1,0.3,0.2c0.4,0.2,1,0.6,1.3,0.7c0.3,0.1,0.6,0.3,0.9,0.5c1,0.5,1.9,1.1,2.9,1.5c0,0,0,0,0,0.1
	c0.7,0.3,1.4,0.6,2.3,0.9c0.6,0.2,0.9,0.9,1.8,0.5c0,0.1,0,0.1,0.2,0.1c1,0.9,2.5,1.2,3.8,1.8c1.5,0.8,3.4,0.9,5.1,1.6
	c2.2,0.8,4.5,1.4,6.9,1.9c2.1,0.5,4.4,0.6,6.5,1c1.7,0.3,3.5,0.4,5.3,0.4c3.8,0.2,7.7,0.1,11.7-0.7c2.9-0.5,5.9-1.1,8.7-2.6
	c4.2-2.1,8.4-4.5,12.4-7c7.8-4.8,15.6-9.8,23.2-14.8c4.1-2.7,8.3-5.1,12.3-7.7c10.3-6.5,20.9-12.7,30.8-19.8c2.6-1.8,5.1-3.8,7-6.2
	c3.2-3.9,5.6-8.1,7.5-12.3c2-4.3,3.3-8.7,4.4-13c0.2-1,0.7-2.1,0.5-3.1c0.1-0.4,0.3-0.9,0.4-1.4c1.1-5.8,1.4-11.3,1.5-16.9
	c0-3.5-0.3-7.1-0.6-10.6c-0.1-1.6-0.3-3.2-0.7-4.7C284.1,213.3,283.9,213,283.6,213z"/>
<path class="st3" d="M119.9,316.3c0.3,0.1,0.5-0.1,0.8-0.2c1.6-0.8,3.2-1.6,4.8-2.4C123.9,314.5,121,315.7,119.9,316.3z
	 M137.1,327.7c-0.9,0.4-1.2-0.3-1.8-0.5c-0.8-0.2-1.6-0.5-2.3-0.9c1.8,0.9,3.6,1.8,4.1,1.5c0,0,0,0,0.1,0
	C137.3,327.8,137.2,327.7,137.1,327.7z M80.9,178.6c0.2,0.2,0.4,0.3,0.6,0.4C81.3,178.9,81.1,178.7,80.9,178.6z M108.5,164.4
	c0.7-0.4,1.4-0.9,1.4-0.9c1.8-1.1,3.6-2.3,5.4-3.4L108.5,164.4z M142.9,142.6c0.1,0,0.1,0,0.1-0.1c0.1,0,0.1-0.1,0.2-0.1
	C143.2,142.4,143.1,142.5,142.9,142.6z M284.8,218.3c-0.1-1.6-0.2-3.2-0.7-4.7C284.6,215.1,284.7,216.7,284.8,218.3z M278.3,214.8
	c0.1-0.1,0.3-0.2,0.5-0.3c1.6-0.3,3.2-0.8,4.6-1.6l0.1,0C282.2,212.2,278.5,214.7,278.3,214.8z"/>
<path class="st4" d="M235.4,131.3c-2.9-1.8-6.1-3.3-9.4-4.7c-3.1-1.3-6.4-2.5-9.7-3.4c-4.3-1.1-8.6-2.1-13-2.7
	c-5.4-0.7-17.5-0.9-19.4-0.7c-1.2,0.2-2.5-0.2-2.9-1.1c-0.6-1.3-1.2-2.4-1.2-4c0-0.5-3.2-0.8-4.1-0.2c0,1.4,0.2,2.8,0.3,4.2l0,0
	c0,0.2,0,0.4,0.1,0.5l0,0c0,0.1,0,0.1-0.1,0.2c0,0.1,0,0.2,0,0.3c-0.1,0.9-0.6,2-1.2,2.5c-3.4,2.1-6.7,4.4-10.1,6.5
	c-4,2.6-8.1,5.1-12.1,7.6c-1.4,0.9-2.8,1.8-4.2,2.6c-0.8,0.5-1.6,1-2.4,1.6l0,0c-0.1,0-1.3,0.8-2.7,1.7c-0.1,0-0.1,0.1-0.2,0.1
	c-0.1,0-0.1,0-0.1,0.1c-1.7,1.1-3.7,2.3-4.6,2.8c-2.6,1.5-5.1,3.2-7.7,4.9c-3.4,2.2-6.9,4.4-10.3,6.5l-4.9,3.1l-0.3,0.2
	c-1.8,1.1-3.6,2.3-5.4,3.4c0,0-0.7,0.4-1.4,0.9l-0.6,0.4l-1.2,0.8c-5.5,3.4-11,6.8-16.5,10.3c-1.3,0.8-2.7,1.7-3.9,2.6
	c-1.7,1.2-3.1,1.6-4.6,0.7l0,0c-0.2-0.1-0.4-0.2-0.6-0.4l0,0c-1.1-0.7-2.3-1.2-3.3-2c-0.5,0.6-1.9,4-1.5,4.3c0.5,0.3,1,0.5,1.4,0.8
	c0.8,0.8,2,1.2,1.6,2.6c-0.4,1.1-4.1,7.9-5.8,11.9c-1.5,3.4-2.7,6.9-3.7,10.3c-1,3.4-1.9,6.9-2.4,10.3c-0.5,3.1-2.2,10.7-2.4,13.7
	c-0.2,3.9-0.5,4.3-0.2,8.1c0.3,3.5,49.6,80.6,51.7,83.6c2.1,2.8,5.9,4.1,9.2,5.8c2.8,1.3,5.4,2.8,8.4,3.8c4.7,1.6,9.5,3,14.5,4
	c5.6,1.1,11.4,1.6,17.3,1.9c1.9,0.1,3.8,0,5.7-0.1c2.3-0.1,4.6-0.3,6.9-0.5c1.7-0.1,3.5-0.2,5.3-0.6c2.5-0.7,4.8-1.9,7.1-3.4
	c3.5-2.4,7.3-4.4,10.8-6.7c3-2,6.1-4,9.2-5.9c9.3-6,18.6-11.8,27.9-17.6c3.6-2.3,7.3-4.6,11-6.9c2.8-1.8,5.7-3.5,8.5-5.3
	c1.4-0.9,2.9-1.7,4.2-2.6c1.7-1.3,3.6-2.3,5.4-3.4c2.4-1.5,4.5-3.2,6.2-5.2c3.4-4.1,5.5-8.6,7.8-13c1.5-2.8,2.6-5.7,3.8-8.6
	c1.9-4.9,3.3-9.9,4.3-14.8c0.7-3.6,1.2-7.2,1.4-10.8c0.4-4.7,0.2-9.3-0.2-13.9C290.5,214,238.7,133.4,235.4,131.3z M241.7,161.2
	L241.7,161.2L241.7,161.2L241.7,161.2L241.7,161.2z M223,192C223,192,223.1,191.9,223,192C223.1,191.9,223,192,223,192L223,192z
	 M284.1,213.5c0.5,1.5,0.5,3.1,0.7,4.7c0.3,3.5,0.6,7,0.6,10.6c-0.1,5.6-0.3,11.1-1.5,16.9c-0.1,0.4-0.3,0.9-0.4,1.4
	c0.2,1-0.2,2-0.5,3.1c-1.1,4.4-2.4,8.7-4.4,13c-2,4.3-4.4,8.5-7.5,12.3c-1.9,2.4-4.4,4.3-7,6.2c-10,7.2-20.5,13.4-30.8,19.8
	c-4.1,2.6-8.3,5.1-12.3,7.7c-7.6,5.1-15.5,10-23.2,14.8c-4.1,2.5-8.1,4.9-12.4,7c-2.9,1.5-5.8,2-8.7,2.6c-4,0.7-8,0.9-11.7,0.7
	c-1.8,0-3.6,0-5.3-0.4c-2.1-0.4-4.3-0.5-6.5-1c-2.3-0.5-4.7-1.1-6.9-1.9c-1.6-0.6-3.5-0.7-5.1-1.6c-1.3-0.6-2.7-1-3.8-1.8
	c0,0,0,0-0.1,0c-0.5,0.2-2.3-0.6-4.1-1.5l0-0.1c-1-0.5-2-1-2.9-1.5c-0.3-0.2-0.6-0.4-0.9-0.5s-0.8-0.4-1.3-0.7
	c-0.2-0.1-0.3-0.1-0.3-0.2c-1.4-0.8-2.6-1.5-3.9-2.3c-0.3-0.1-2.8-1.9-4.1-2.5l-0.1,0c-0.1,0-0.2-0.1-0.3-0.1
	c-1.2-0.9-1.1-1.1,0.6-2c1.1-0.6,4-1.9,5.6-2.7c2.3-1.2,4.6-2.6,6.9-3.8c2.3-1.1,4.4-2.6,6.7-3.8c4-2,7.9-4.2,11.8-6.4
	c2.9-1.6,6-3.1,8.8-4.9c3.6-2.3,8.3-5.1,12-7.3c1.1-0.6,6-3.5,6.4-3.8c3.7-2.3,7.8-4.6,11.6-6.8c2.9-1.8,5.8-3.6,8.6-5.5
	c0.2-0.1,0.5-0.3,0.8-0.5c2.1-1.3,6.4-4.1,10.8-7.1l0.1,0c2.2-1.5,4.5-3,6.5-4.4c0.3-0.2,0.6-0.4,0.9-0.6c0.3-0.2,0.6-0.4,1-0.6
	c0.2-0.1,0.4-0.3,0.6-0.4c0.3-0.2,0.8-0.5,1.1-0.8c0.1-0.1,0.2-0.1,0.3-0.2c0.3-0.2,0.6-0.4,0.9-0.7c0.5-0.3,0.9-0.6,1.3-0.9
	c2.8-2,5.6-3.9,8.4-5.8c4.8-3.1,9.3-6.7,14-9.9c1.7-1.2,3.2-2.3,4.9-3.5c3.1-2.4,6.2-4.7,9.3-7.1c3.4-2.5,6.8-5.2,10.1-7.8
	c2.9-2.2,5.7-4.5,8.9-6.3l0,0c0.2-0.1,3.9-2.6,5.3-1.9C283.9,213,284.1,213.3,284.1,213.5z"/>
<path class="st1" d="M169.6,305.4c1.7-7.5,5.7-18.6,8.8-25.9c3.1-7.2,7.6-14.1,14.1-19.1c7-5.5,15.8-8.3,24.5-9.5
	c12.7-1.8,25.2-0.5,37.6,0.9C247.2,266.3,169.6,305.4,169.6,305.4z"/>
<path class="st5" d="M217.3,177c0.8,4.9,0.3,10.2-2.3,14.9c-4.3,7.7-13.3,12.2-21.5,16.1c-8.2,4-17.1,9-20.5,17.1
	c-4-9.6-8-19.8-5.8-30.5c2.2-10.5,10.1-19.6,18.6-27.2c8.5-7.6,18.1-14.2,25.5-22.7c-2,5.6-0.9,11.4,0.8,16.6
	C213.9,166.5,216.4,171.4,217.3,177z"/>
<path class="st6" d="M188.5,198.1c-5.5,7.3-10.3,15.1-14.3,23.2c2.6-20,25.1-35.4,28.5-55.3c1.3,5.5-0.5,11.6-3.5,17
	C196.3,188.3,192.2,193.1,188.5,198.1z"/>
<path class="st5" d="M156.6,203c-9.9-5.1-22.9-4-34.2,0.4c-11.3,4.4-21.2,12.1-30.1,20.5c5.7-1.7,11.6,0,16.1,2.9
	c4.6,3,8,7,11.8,10.8c3.8,3.7,8.2,7.2,13.7,8.4c7.8,1.7,16.6-1.4,23.5-6.4s12.2-11.7,17.3-18.3C169.8,214.3,164.5,207,156.6,203z"/>
<path class="st6" d="M139.5,220.6c-7.5-2-15-5.8-22.9-3.6c9.5,1,17.8,5.4,26.8,8.1c9,2.7,19.9,3.2,28.1-2.5
	C160.7,223,149.6,223.4,139.5,220.6z"/>
<path class="st5" d="M204.7,259c2.9-3.1,1.5-6.8-0.2-9.6c-4.1-6.7-8.1-13.6-13.4-19.4c-5.3-5.8-12.1-10.8-20.6-13.3
	c-1.2,2.7-0.6,5.4,0.7,7.4c1.4,2,3.4,3.5,5.3,5.1c9.8,8.2,16,19.6,17.8,32.4C197.9,261.8,202.1,261.7,204.7,259z"/>
<path class="st7" d="M285.4,228.9c-0.1,5.6-0.3,11.1-1.5,16.9c-0.1,0.4-0.3,0.9-0.4,1.4c-1.1,2-2.2,4.2-3.4,6.1
	c-2.5,4-5.3,7.7-8.9,11.2c-3.9,3.9-8.1,7.7-12.5,11.1c-6,4.5-12.5,8-19.4,10.9c-4.5,1.9-9.1,3.7-13.7,5.4c-4.9,1.9-9.9,3.9-14.8,6
	c-3.3,1.3-6.4,3-9.6,4.6c-5.7,3.1-11,6.7-16,10.8c-5.7,4.7-10.8,9.7-15.5,15.3c-1.6,2-3.2,4-5.1,5.8c-1.8,0-3.6,0-5.3-0.4
	c-2.1-0.4-4.3-0.5-6.5-1c-2.3-0.5-4.7-1.1-6.9-1.9c-1.6-0.6-3.5-0.7-5.1-1.6c-1.3-0.6-2.7-1-3.8-1.8c0-0.1,0-0.1-0.2-0.1
	c1-1.1,1.7-2.5,2.5-3.7c2.2-3.4,5.1-6.6,7.8-9.6c2.4-2.7,4.9-5.2,7.8-7.5c4.5-3.7,9.3-7,14.2-10.2c4.8-3.3,9.7-6.4,14.9-9.1
	c4.4-2.2,8.9-4.1,13.5-5.9c5.1-2,10.3-3.7,15.5-5.4c4.9-1.6,9.8-3.4,14.7-5.2c4.3-1.6,8.5-3.3,12.7-5.2c3.2-1.5,6.4-3.3,9.5-5
	c2.8-1.7,5.4-3.4,8-5.2c2.6-1.7,4.9-3.8,7.1-5.9c3.7-3.2,6.9-6.8,9.8-10.5c2.7-3.4,5.5-6.7,9-9.7
	C284.6,229.2,284.9,228.9,285.4,228.9z"/>
<path class="st1" d="M283.5,247.1c0.2,1-0.2,2-0.5,3.1c-1.1,4.4-2.4,8.7-4.4,13c-2,4.3-4.4,8.5-7.5,12.3c-1.9,2.4-4.4,4.3-7,6.2
	c-10,7.2-20.5,13.4-30.8,19.8c-4.1,2.6-8.3,5.1-12.3,7.7c-7.6,5.1-15.5,10-23.2,14.8c-4.1,2.5-8.1,4.9-12.4,7
	c-2.9,1.5-5.8,2-8.7,2.6c-4,0.7-8,0.9-11.7,0.7c1.9-1.8,3.5-3.8,5.1-5.8c4.6-5.5,9.8-10.6,15.5-15.3c5-4.1,10.3-7.8,16-10.8
	c3.1-1.7,6.3-3.3,9.6-4.6c4.9-2.1,9.9-4.1,14.8-6c4.6-1.7,9.1-3.5,13.7-5.4c6.8-2.9,13.3-6.3,19.4-10.9c4.5-3.4,8.6-7.2,12.5-11.1
	c3.5-3.5,6.3-7.3,8.9-11.2C281.3,251.3,282.4,249.2,283.5,247.1z"/>
<path class="st1" d="M284.1,213.5c0.5,1.5,0.5,3.1,0.7,4.7c0.3,3.5,0.6,7,0.6,10.6c-0.5,0-0.8,0.3-1.2,0.7c-3.4,2.9-6.3,6.2-9,9.7
	c-2.9,3.8-6,7.3-9.8,10.5c-2.3,2.1-4.6,4.1-7.1,5.9c-2.6,1.8-5.3,3.6-8,5.2c-3.1,1.8-6.2,3.5-9.5,5c-4.1,1.9-8.4,3.7-12.7,5.2
	c-4.9,1.8-9.8,3.5-14.7,5.2c-5.1,1.7-10.4,3.4-15.5,5.4c-4.6,1.7-9.1,3.6-13.5,5.9c-5.2,2.6-10,5.9-14.9,9.1s-9.6,6.6-14.2,10.2
	c-2.9,2.3-5.4,4.9-7.8,7.5c-2.8,3.1-5.6,6.2-7.8,9.6c-0.8,1.2-1.3,2.6-2.4,3.8c0,0,0,0-0.1,0c-0.5,0.2-2.3-0.6-4.1-1.5l0-0.1
	c-1-0.5-2-1.1-2.9-1.5c-0.3-0.2-0.6-0.4-0.9-0.5c-0.3-0.1-0.8-0.4-1.3-0.7c-0.2-0.1-0.3-0.1-0.3-0.2c-1.4-0.8-2.6-1.5-3.9-2.3
	c-0.3-0.1-2.8-1.9-4.1-2.5l-0.1,0c-0.1,0-0.2-0.1-0.3-0.1c-1.2-0.9-1.1-1.1,0.6-2c1.1-0.6,4-1.9,5.6-2.7c2.3-1.2,4.6-2.6,6.9-3.8
	c2.3-1.1,4.4-2.6,6.7-3.8c4-2,7.9-4.2,11.8-6.4c2.9-1.6,6-3.1,8.8-4.9c3.6-2.3,8.3-5.1,12-7.3c1.1-0.6,6-3.5,6.4-3.8
	c3.7-2.3,7.8-4.6,11.6-6.8c2.9-1.8,5.8-3.6,8.6-5.5c0.2-0.1,0.5-0.3,0.8-0.5c2.1-1.3,6.4-4.1,10.8-7.1l0.1,0c2.2-1.5,4.5-3,6.5-4.4
	c0.3-0.2,0.6-0.4,0.9-0.6c0.3-0.2,0.6-0.4,1-0.6c0.2-0.1,0.4-0.3,0.6-0.4c0.3-0.2,0.8-0.5,1.1-0.8c0.1-0.1,0.2-0.1,0.3-0.2
	c0.3-0.2,0.6-0.4,0.9-0.7c0.5-0.3,0.9-0.6,1.3-0.9c2.8-2,5.6-3.9,8.4-5.8c4.8-3.1,9.3-6.7,14-9.9c1.7-1.2,3.2-2.3,4.9-3.5
	c3.1-2.4,6.2-4.7,9.3-7.1c3.4-2.5,6.8-5.2,10.1-7.8c2.9-2.2,5.7-4.5,8.9-6.3l0,0c0.2-0.1,3.9-2.6,5.3-1.9
	C283.8,213.1,284.1,213.3,284.1,213.5z"/>
<path class="st3" d="M49,180.1l5.6-0.4l-2.7,4.9c-0.8,1.5-1.2,3.2-1.1,4.9l2.2,8.5l-6.7-5.6c-1.5-0.8-3.2-1.2-4.9-1.1l-5.5,0.3
	l2.7-4.9c0.8-1.5,1.2-3.2,1.1-4.9l-2.2-8.5l6.7,5.6C45.6,179.8,47.3,180.2,49,180.1z"/>
<path class="st3" d="M279.8,166.4l4.1-0.3l-2,3.5c-0.6,1-0.9,2.3-0.8,3.5l1.6,6.1l-4.8-4c-1-0.6-2.3-0.9-3.5-0.8l-4.1,0.3l2-3.5
	c0.6-1,0.9-2.3,0.8-3.5l-1.6-6.1l4.8,4C277.3,166.3,278.5,166.5,279.8,166.4z"/>
<path class="st3" d="M184.7,307.6l3.7-0.2l-1.8,3.2c-0.5,1-0.8,2.1-0.7,3.2l1.4,5.6l-4.5-3.7c-1-0.5-2.1-0.8-3.2-0.7l-3.7,0.2
	l1.8-3.2c0.5-1,0.8-2.1,0.7-3.2l-1.4-5.6l4.5,3.7C182.4,307.4,183.5,307.6,184.7,307.6z"/>
</svg>
