<?xml version="1.0" encoding="utf-8"?>
<!-- Generator: Adobe Illustrator 26.0.2, SVG Export Plug-In . SVG Version: 6.00 Build 0)  -->
<svg version="1.1" xmlns="http://www.w3.org/2000/svg" xmlns:xlink="http://www.w3.org/1999/xlink" x="0px" y="0px"
	 viewBox="0 0 340.5 422.2" style="enable-background:new 0 0 340.5 422.2;" xml:space="preserve">
<style type="text/css">
	.st0{fill:#EEE8E3;}
	.st1{fill:#F7313B;}
	.st2{fill:#F9ADB5;}
	.st3{fill:#F8A48A;}
	.st4{fill:#FABB95;}
	.st5{fill:#065C51;}
	.st6{fill:#6C90BD;}
	.st7{fill:#7AA5D3;}
	.st8{fill:none;stroke:#136A37;stroke-width:0.6745;stroke-miterlimit:10;}
	.st9{fill:#E62917;}
	.st10{fill:none;stroke:#FFFFFF;stroke-width:0.6745;stroke-miterlimit:10;}
	.st11{fill:none;stroke:#FFFFFF;stroke-width:0.5699;stroke-miterlimit:10;}
	.st12{fill:none;stroke:#FFFFFF;stroke-width:0.6458;stroke-miterlimit:10;}
	.st13{fill:#CF6B4B;}
	.st14{fill:#054C42;}
	.st15{fill-rule:evenodd;clip-rule:evenodd;fill:#E5A1AB;}
	.st16{fill-rule:evenodd;clip-rule:evenodd;fill:#E47F62;}
	.st17{fill-rule:evenodd;clip-rule:evenodd;fill:#065C51;}
	.st18{fill-rule:evenodd;clip-rule:evenodd;fill:#F9ADB5;}
	.st19{fill-rule:evenodd;clip-rule:evenodd;fill:#FFFFFF;}
	.st20{fill-rule:evenodd;clip-rule:evenodd;fill:#6C90BD;}
	.st21{fill-rule:evenodd;clip-rule:evenodd;fill:#7AA5D3;}
	.st22{fill:#FFFFFF;}
	.st23{fill:#FEFEFE;}
	.st24{fill:#C8A38A;}
	.st25{fill:#DBA183;}
	.st26{fill:#D2B8A8;}
	.st27{fill:#E82E41;}
	.st28{fill:#2A372D;}
	.st29{fill:#E5A889;}
	.st30{fill-rule:evenodd;clip-rule:evenodd;fill:#FFC7D2;}
	.st31{fill:#EFA3AE;}
	.st32{fill:#DBA184;}
	.st33{fill:#6A90BD;}
	.st34{fill-rule:evenodd;clip-rule:evenodd;fill:#D6253F;}
	.st35{fill-rule:evenodd;clip-rule:evenodd;fill:#F7313B;}
	.st36{fill-rule:evenodd;clip-rule:evenodd;fill:#DBA184;}
	.st37{fill:#F1E1C9;}
	.st38{fill:#FDFBF9;}
	.st39{fill:#046857;}
	.st40{fill:#074C42;}
	.st41{fill:#8C5A51;}
	.st42{fill:#085C51;}
	.st43{fill:#E57F5D;}
	.st44{fill:#D36B4F;}
	.st45{fill:#1C1C1C;}
	.st46{fill:#E73143;}
	.st47{fill:#F5ABB6;}
	.st48{fill-rule:evenodd;clip-rule:evenodd;fill:#6A90BD;}
	.st49{fill:#D6253F;}
	.st50{fill:#C6A18A;}
	.st51{fill:#29372B;}
	.st52{fill:#012E60;}
	.st53{fill:#78391A;}
	.st54{fill:#F09880;}
	.st55{fill:#1C9697;}
	.st56{fill:#CE2E45;}
	.st57{fill:#ED3550;}
	.st58{fill:#D8013A;}
	.st59{fill:#F3F4F4;}
	.st60{fill:#911C36;}
	.st61{fill:#F42237;}
	.st62{fill:#D8A85D;}
	.st63{fill:#E52033;}
	.st64{fill:#434543;}
	.st65{fill:#E9E9E9;}
	.st66{opacity:0.31;}
	.st67{fill:#C6CAC6;}
	.st68{fill:#FFD2A8;}
	.st69{fill:#E08D77;}
	.st70{fill:#037C65;}
</style>
<g id="bg">
</g>
<g id="GŁOWNE_KOLORY">
</g>
<g id="COLOR_1">
</g>
<g id="COLOR_2">
</g>
<g id="insp">
</g>
<g id="Kosz_kwiatów">
</g>
<g id="Las_w_szkle">
</g>
<g id="Rośliny">
</g>
<g id="Pogrzebowe">
</g>
<g id="Różne">
</g>
<g id="Flower_box">
</g>
<g id="Bukiet">
	<g id="bukiet">
		<path class="st3" d="M197.3,259.3c-2.4,0.3-6.4,1.4-8.9,1.3c-3-0.1-16,2.1-18.9,2.3c-1.7,0.1,6.5-25.7,6.5-26.2
			c0.2,0,6.6-0.9,10.7-2c1.1-0.1,2.2-0.8,3.3-0.9C190.5,234,197,259.3,197.3,259.3z"/>
		<path class="st33" d="M310.5,240.8c-0.6,0.2-1.1,0.3-1.7,0.5c-0.3,0.1-0.7,0.2-1,0.3c-1,0.3-2,0.6-3,0.9c-0.2,0-0.3,0.1-0.5,0.1h0
			c-0.7,0.2-1.4,0.4-2.1,0.6h0c-1,0.3-2,0.6-3.1,0.9c-1,0.3-2,0.6-3,0.9h0c-1.6,0.5-3.2,0.9-4.7,1.4c-1,0.3-2,0.6-3,0.9
			c-1.2,0.3-2.4,0.7-3.6,1c-1.1,0.3-2.2,0.6-3.3,0.9c-1.4,0.4-2.8,0.8-4.2,1.1c-1.1,0.3-2.1,0.6-3.1,0.8c-1.4,0.4-2.9,0.7-4.3,1.1
			c-0.4,0.1-0.7,0.2-1.1,0.3c0,0,0,0,0,0c-0.3,0.1-0.6,0.2-1,0.2c0,0-0.1,0-0.1,0c-0.2,0.1-0.5,0.1-0.7,0.2
			c-1.1,0.2-2.1,0.5-3.1,0.7c-1,0.2-2.1,0.5-3.2,0.7c-1.5,0.3-3.1,0.7-4.6,1c-1.1,0.2-2.1,0.4-3.2,0.6c-1.5,0.3-3,0.6-4.6,0.9
			c-0.9,0.2-1.7,0.3-2.6,0.5c-1.4,0.2-2.7,0.5-4.1,0.7c-0.9,0.1-1.7,0.3-2.6,0.4c-1.5,0.2-3.1,0.4-4.6,0.6c-1,0.1-2,0.3-3.1,0.4
			c-1.5,0.2-2.9,0.3-4.4,0.5c-1,0.1-1.9,0.2-2.9,0.3c-0.9,0.1-1.9,0.2-2.8,0.2c-0.5,0-1,0.1-1.6,0.1c-0.2,0-0.6-0.1-1.2-0.2
			c-1.4-0.2-3.5-0.7-4-0.7c-7,0.5-11.1,1.6-18.6,1.6c-0.2,0-0.8-0.7-0.8-0.7l-0.2-0.8l-6-25.6l-0.1-0.6c0,0,0.2-0.3,0.4-0.3
			c6.3-2.5,12.7-5,19.2-7.4c0.1,0,0.2-0.1,0.3-0.1c0.7-0.2,2.1-0.8,2.6-1c0.1,0,0.1,0,0.2-0.1c1.4-0.5,2.9-1.1,4.4-1.6
			c0.9-0.3,1.8-0.6,2.6-1c1.5-0.5,3-1.1,4.5-1.6c0.9-0.3,1.8-0.6,2.6-1c0.9-0.3,1.7-0.6,2.6-0.9c0.8-0.3,1.5-0.5,2.3-0.8h0
			c1.3-0.5,2.6-0.9,3.9-1.4c0.7-0.2,1.5-0.5,2.2-0.7c1.6-0.5,3.1-1.1,4.7-1.6l2.9-1c1.2-0.4,2.5-0.8,3.7-1.2c1-0.3,1.9-0.6,2.9-0.9
			c1.2-0.4,2.3-0.7,3.5-1.1c1-0.3,2-0.6,3-0.9c1.6-0.5,3.2-1,4.8-1.4c0.9-0.3,1.8-0.5,2.7-0.8c1-0.3,2-0.6,3-0.9h0
			c0.8-0.2,1.6-0.4,2.3-0.6c0,0,0,0,0,0c1.6-0.4,3.1-0.9,4.7-1.2c0.7-0.2,1.5-0.4,2.2-0.6c1.3-0.3,2.6-0.7,3.9-1
			c0.4-0.1,0.7-0.2,1.1-0.3c0.4-0.1,0.7-0.2,1.1-0.3c0,0,0,0,0.1,0c0.3-0.1,0.6-0.1,0.9-0.2c1.5-0.4,3-0.7,4.6-1.1
			c1.1-0.2,2.1-0.5,3.2-0.7c1.6-0.4,3.1-0.7,4.7-1c0.6-0.1,1.2-0.2,1.8-0.4v0c0.5-0.1,1-0.2,1.4-0.3c1.3,2.6,2.6,5.3,3.6,8
			c0.5,1.2,2.5,5.6,3.8,11.7C308.7,225.7,309.9,235.3,310.5,240.8z"/>
		<path class="st7" d="M277.3,250.4c-1.1,0.3-2.1,0.6-3.1,0.8c-0.2-0.5-0.3-1.2-0.3-1.8c0.3-4-0.2-8-0.7-11.9
			c-0.4-3-1.1-6.1-2.1-9.1c-0.8-2.2-1.3-4.5-2.2-6.7c-0.9-2-1.8-4-2.7-6c-1-2.3-2.4-4.5-3.7-6.7c-0.2-0.4-0.3-0.8-0.3-1.2
			c0.9-0.3,1.8-0.5,2.7-0.8c0,0.8,0.7,1.3,1.1,1.9c2.3,3.3,3.7,6.9,5.2,10.4c1.9,4.4,3.1,8.9,4.2,13.5c1,4.6,1.6,9.2,1.9,13.8
			C277.2,247.5,277.3,249,277.3,250.4z"/>
		<path class="st7" d="M269.8,252.3c-0.4,0.1-0.7,0.2-1.1,0.3c0,0,0,0,0,0c-0.3,0.1-0.6,0.2-1,0.2c0,0-0.1,0-0.1,0
			c-0.2,0.1-0.5,0.1-0.7,0.2c-0.3-1.8-0.4-4.1-0.4-5.7c0-1.9-0.1-3.8-0.5-5.6c-0.5-2.1-0.3-4.4-0.9-6.5c-0.7-2.9-1.4-5.7-2.3-8.6
			c-0.6-1.9-1.4-3.6-2.1-5.5c-0.8-2.2-2.3-4.2-3.5-6.2c-0.9-1.6-1.9-3.2-3.1-4.8c1-0.3,2-0.6,3-0.9c1.9,2.6,3.6,5.4,5.1,8.2
			c1.6,3,2.9,6.2,3.8,9.4c1.3,4.4,2.7,8.7,3,13.2c0.2,3.3,0.5,6.6,0.7,9.8C269.9,250.4,269.9,251.4,269.8,252.3z"/>
		<path class="st7" d="M263.7,253.7c-1,0.2-2.1,0.5-3.2,0.7c-0.3-3.4-0.6-7.5-1.4-10.8c-0.9-3.6-2-7.2-2.8-10.8
			c-0.5-2.1-1.2-4.2-1.8-6.3c-0.5-1.7-1.2-3.3-1.9-5c-1.5-3.2-2.9-6.4-4.9-9.4v0c1-0.3,1.9-0.6,2.9-0.9c0.4,0.3,0.6,0.8,0.8,1.2
			c2,3.8,3.9,7.7,5.3,11.8c0.6,1.7,1.1,3.4,1.6,5c0.9,2.7,1.7,5.3,2.3,8.1c0.6,2.8,1.2,5.7,1.8,8.5c0.3,1.5,1,2.9,1,4.5
			C263.6,251.2,263.9,252.6,263.7,253.7z"/>
		<path class="st7" d="M291.4,246.4c-1,0.3-2,0.6-3,0.9c-0.4-0.3-0.5-0.7-0.3-1.3c0.6-2.5-0.5-4.8-0.8-7.2c-0.4-2.8-1-5.6-1.8-8.3
			c-0.8-3-1.8-5.9-2.8-8.7c-0.7-1.9-1.5-3.8-2.3-5.7c-1.1-2.4-2.5-4.7-3.4-7.2c-0.4-1-1.3-1.7-1.7-2.7c-0.3-0.6-0.5-1.2-0.4-1.8
			c0.7-0.2,1.5-0.4,2.2-0.6c1.5,2.1,2.5,4.4,3.8,6.6c1.7,2.9,2.7,6,4.1,8.9c0.9,1.8,1.4,3.8,2.1,5.7c1.6,4.4,2.5,8.9,3.4,13.4
			C291,241,291.1,243.7,291.4,246.4z"/>
		<path class="st7" d="M296.1,245.1c0.4-1.5-0.3-2.9-0.5-4.4c-0.7-4.2-1.5-8.5-2.7-12.7c-0.5-1.8-0.9-3.7-1.6-5.6
			c-0.8-2.5-1.7-4.9-2.9-7.2c-1.8-3.4-3.3-6.8-5.5-10.1c-0.2-0.3-0.5-0.6-0.7-0.8c-0.2-0.2-0.8-0.9-1.3-1.7c0.4-0.1,0.7-0.2,1.1-0.3
			c0.4-0.1,0.7-0.2,1.1-0.3c0,0,0,0,0.1,0c0.3-0.1,0.6-0.1,0.9-0.2c0.4,0.4,0.6,0.8,0.8,1c2.8,3.6,4.4,7.6,6.4,11.5
			c2.6,5.1,3.9,10.4,5.4,15.7c1,3.8,1.5,7.6,2.1,11.4c0.1,0.9,0.3,1.7,0.4,2.5C298.1,244.5,297.1,244.8,296.1,245.1z"/>
		<path class="st7" d="M284.8,248.3c-1.1,0.3-2.2,0.6-3.3,0.9c-0.1-0.8-0.1-1.7,0-2.1c0.4-3.1-0.4-6.1-1-9.1
			c-0.5-2.9-1.2-5.8-2.1-8.7c-0.8-2.5-1.8-5-2.8-7.5c-1-2.4-2.1-4.7-3.1-7.1c-1.2-2.7-4.8-8.6-4.7-8.7h0c0.8-0.2,1.6-0.4,2.3-0.6
			c0,0,0,0,0,0c0.5,0.1,0.9,0.5,1.2,1.1c1.2,2,2.2,4.2,3.3,6.3c1.1,2.2,2.2,4.4,3.2,6.6c0.9,1.9,1.5,3.8,2.3,5.7
			c0.6,1.6,0.8,3.4,1.7,5c0.5,0.8,0.4,1.8,0.6,2.6C283.7,237.3,284.5,243.3,284.8,248.3z"/>
		<path class="st7" d="M304.8,242.5c-0.2,0-0.3,0.1-0.5,0.1h0c-0.7,0.2-1.4,0.4-2.1,0.6h0c-0.5-0.7-0.4-1.5-0.5-2.4
			c-0.2-3.5-0.7-7-1.2-10.6c-0.6-4-1.9-7.9-3.1-11.7c-0.8-2.6-1.8-5.3-3.1-7.9c-0.9-1.7-1.5-3.6-2.7-5.2c-1-1.4-1.7-2.8-2.6-4.2
			c-0.1-0.1-0.2-0.3-0.3-0.4c1.1-0.2,2.1-0.5,3.2-0.7c0.1,0.1,0.1,0.1,0.1,0.2c1.2,1.9,2.5,3.7,3.4,5.6c1.2,2.4,2.5,4.8,3.2,7.4
			c0.5,1.8,1.4,3.5,2.1,5.3c2.6,7.4,3.9,14.9,4.2,22.6C304.7,241.6,304.8,242.1,304.8,242.5z"/>
		<path class="st7" d="M255.9,255.4c-1.1,0.2-2.1,0.4-3.2,0.6c-0.6-2.5,0.8-5,0-7.5c-1.2-4-1.3-8.1-2.3-12c-0.6-2.3-1.5-4.5-2.1-6.7
			c-0.8-2.6-2-5.1-3.3-7.7c-1.1-2.1-2.2-4.2-3.1-6.4c-0.2-0.5-0.8-1-0.9-1.6l2.9-1c0.6,1.9,1.7,3.6,2.6,5.3c1.4,2.8,2.7,5.7,4,8.6
			c1,2.1,1.3,4.3,2.2,6.5c0.8,1.9,1.3,4.1,1.7,6.2C255.4,245,255.5,250.2,255.9,255.4z"/>
		<path class="st7" d="M248.2,256.9c-0.9,0.2-1.7,0.3-2.6,0.5c-0.2-0.4-0.2-1.1-0.3-1.8c-0.1-1.2,0-2.5-0.3-3.7c-1-3.4-1-7-2.1-10.3
			c-0.3-0.8-0.6-1.7-0.7-2.5c-0.6-4.7-2.4-9.2-4-13.7c-0.8-2.1-1.8-4.3-3.2-6.2c-0.6-0.7-0.6-1.6-0.6-2.5c0.7-0.2,1.5-0.5,2.2-0.7
			c1.9,2.5,3.3,5.2,4.3,8c0.7,2,1.5,4,2.1,6c0.7,2.4,1.4,4.8,2.2,7.2c0.3,1,0.3,2,0.6,3c0.9,2.5,1.2,5.2,1.7,7.8
			C247.8,250.5,247.9,254,248.2,256.9z"/>
		<path class="st7" d="M310.5,240.8c-0.6,0.2-1.1,0.3-1.7,0.5c-0.3,0.1-0.7,0.2-1,0.3v-0.1c-0.1-2.8-1.4-13.1-3.5-21.6
			c-1.5-6.4-3.8-11.7-4.1-12.5c-0.9-2.5-2.2-4.9-3.3-7.4c-0.1-0.3-0.3-0.6-0.5-0.8c0.6-0.1,1.2-0.2,1.8-0.4v0c0.5-0.1,1-0.2,1.4-0.3
			c1.3,2.6,2.6,5.3,3.6,8c0.5,1.2,2.5,5.6,3.8,11.7C308.7,225.7,309.9,235.3,310.5,240.8z"/>
		<path class="st7" d="M241.4,258c-0.9,0.1-1.7,0.3-2.6,0.4c-0.1-0.5-0.2-1-0.2-1.4c-0.2-3.4-0.3-6.7-1.1-10.1
			c-1-4.2-1.8-8.4-2.9-12.6c-0.6-2.4-1.7-4.6-2.5-6.9c-0.9-2.4-2.3-4.7-3.5-7.1c-0.2-0.3-0.4-1-0.6-1.8c0.8-0.3,1.5-0.5,2.3-0.8h0
			c0.4,0.6,0.8,1.2,1,1.6c1.2,2,2.3,4.1,3.3,6.2c0.7,1.6,1.4,3.3,2,4.9c0.8,2.6,1.6,5.2,2.3,7.8c1.1,4.2,2.1,8.4,2.3,12.7
			C241.1,253,241.2,255.8,241.4,258z"/>
		<path class="st7" d="M234.1,259.1c-1,0.1-2,0.3-3.1,0.4c-0.2-0.9-0.3-1.9-0.3-2.4c0.1-5.4-1.5-10.6-2.2-15.8
			c-0.4-2.5-1.4-4.9-2.2-7.4c-0.1-0.2-2.8-10.3-3.7-13.2c0.9-0.3,1.8-0.6,2.6-1c1.5,4,3.9,13.1,4.4,14.3c0.5,1.5,0.9,3.1,1.3,4.6
			c0.9,3.7,1.8,7.4,2.4,11.2C233.8,252.4,233.9,256.3,234.1,259.1z"/>
		<path class="st7" d="M226.7,259.9c-1,0.1-1.9,0.2-2.9,0.3c-0.2-0.4-0.3-0.9-0.3-1.2c0-0.8-0.1-1.5-0.2-2.3
			c-0.4-5.8-1.5-11.5-3.2-17.1c-0.2-0.8-4-15-4.6-16.5c0.9-0.3,1.8-0.6,2.6-1c1.6,2.9,5.3,17.6,5.8,19.5c1.2,4.8,2.3,9.7,2.5,14.6
			C226.5,257.2,226.8,258.7,226.7,259.9z"/>
		<path class="st7" d="M221.1,259.6c0,0.3,0,0.6-0.1,0.8c-0.5,0-1,0.1-1.6,0.1c-0.2,0-0.6-0.1-1.2-0.2c-0.1-0.1-0.1-0.3-0.1-0.5
			c-0.5-3.1-1.1-7.2-1.7-10.3c-0.5-2.5-1.1-5.1-2.2-7.6c-0.2-0.5-5.8-15.5-6.2-16.2v0c0.1,0,0.1-0.1,0.3-0.1c0.7-0.2,2.1-0.8,2.6-1
			c0.1,0,0.1-0.1,0.2-0.1v0c0.7,1.9,6.5,17.3,7,19.2c0.7,2.8,1.6,5.7,1.9,8.6C220.3,254.5,221.1,257.5,221.1,259.6z"/>
		<path class="st5" d="M116.1,86l-58.5,64.3l99.7,74.4l73.2-83.6l-11.1-28.2c-6.9,4.4,1.4-16.6,17.7-32.1c1.4-1.4,2.3-4.3,1-4.3
			c-10.6,0-32.7,7.4-36.8,7.5c0,0,7.7-8.6,8.8-9.3c2.9-1.7,3.6-2.7-0.6-2.5c-0.9,0.1-2,0.2-3.3,0.3L116.1,86z"/>
		<path class="st4" d="M251.4,138.4c-6.5,32.5-42.5,61.1-40.5,67.8c2.3,8.2-11.6,10.7-18.7,11.6c-10.1,1.3-8-1.5-13.2,34.8
			c-24,13.4-0.9-23.1-3.9-34.4c-6.6,14.3-22.9,6.1-33.1,11.6c-2.3,0.8-7.5,13.3-15.5,9.9c-4.1-1.3-4.1-0.1-3.2-4.5
			c3-4.2,1.4-8.3,1-11.8c5.8-1.2,6.3-11.7,13.5-9.1c19.2-11.4,38.7-9.5,60.3-7.8c7.5-4.6-0.4-15.9,0.1-21.4
			c6-3.7,8.9-15.6,16.7-27.8C233.7,128,257.5,93.3,251.4,138.4z"/>
		<path class="st50" d="M125.1,230.2c0.3-1.2,0.4-2.4,0.1-3.5C125.7,227.7,125.9,228.9,125.1,230.2z"/>
		<path class="st32" d="M143.3,238.6c-8.7,6.2-27.3,12.7-28.8,24.3c0-0.1-4.7-15.5-5-15.1c-4.4-11.9-5.3-12.8,7.9-17.2
			c0.5-0.2-0.2-0.9,2.7-4.4c4.7-5.6,16.1-11.2,18.8-7.2C141.2,217.4,141,236.7,143.3,238.6z"/>
		<path class="st50" d="M115.1,240.3c-0.4-0.6-0.3-1.7,0-2.7C114.9,238.5,114.8,239.5,115.1,240.3z"/>
		<path class="st50" d="M119.5,241.4c-0.5-0.2-0.9-0.4-1.3-0.6C118.6,240.9,119.1,241,119.5,241.4z"/>
		<path class="st32" d="M126.5,209.9c-6.9,3.7-16.7,31.1-7,31.5c4.1,0.4,5.3-10.9,5.7-14.8c-3-3.7,0.3-3.1,2.4-5.4
			c3-3.1,4.7-9.2,10.2-7c16.5-10,33-7.9,52-5.5c19.1,0.5,15.7-5,9.8-20.6c17.9-15.3,13.3-45.7,43.7-37.3
			c-5.2-12.8-8.8-49.3-24.4-34.3c-2.4,4.5,4.2,9.9-1,19.5c-19.9,18-7.7,14.2-26.9,36.6c-2.5,3.6-1.2,4.4-2.5,2
			c-3.4-5.9-21.5-14.1-19.5-6.6c7.1,25.7-29.8,35.7-37.7,39.1C129.8,207.7,127.6,209.3,126.5,209.9z"/>
		<path class="st26" d="M118.1,240.9c0.5,0,1,0.2,1.3,0.6C119,241.2,118.6,241,118.1,240.9z"/>
		<path class="st4" d="M48.2,108.6c2.2,1.5,32.4,0.7,41.7,14.7l10.1,18c8,12-0.2,47.3,15.4,54.3c28.4-8.6,23.6-14.3,26-14.1
			c4.3-0.3,19.1,3.9,23.6,5c6.1,1.4-2.3,14.2-4.5,14.6c-19,3-32.7,7.4-34,8.9c-0.3,0.3-2.6,4.1-4.9,7.5c-2.9,4.5-2.5,11.2-6.1,15.1
			c-5.5,6-8.7,7.2-8.7,7.4c0-0.1-1.2-6.3-0.2-11.4c0.6-3.1-4.8-8.6-6.7-10.7c-12.3-13.2-11.3-22.8-16.7-30.3
			c-5.4-7.5-36-24.3-37.9-29.6C43.9,153.9,42.4,109,48.2,108.6z"/>
		<path class="st5" d="M188.6,98.6c-5.3-0.6,28.5-39.6,25-46.2c-6.8,5.3-29.1,23-36.1,25.9c-9.6,4.9-11.8,12.6-16.3,11.4"/>
		<path class="st32" d="M177.3,223.9c-1.4,13.2-9.9,38.9-20.4,51.2c-1.7,2-7.9-3.4-10.2-1.9c-8.4,5.5-22.9,2.2-32.6-11.2
			c-2.7-3.8-1.3-6.2-3.8-12.1c-4.1-9.5,11.4-2.2,16.3-10.3c10-16.3,29.5-27.2,27.5-14.9C152.7,232.5,182.9,196.8,177.3,223.9z"/>
		<path class="st5" d="M66.9,71.7c-15.4-31.1,26.5,11,31.3,16.7c-15.1,1.3-17.2,21.6-25.1,29c-12.7,3.1-21.3-13.6-28.6-22.1
			c-1.3-1.8-7.5-5.9-2.7-5.8C62.8,90.3,72.3,104.3,66.9,71.7z"/>
		<path class="st5" d="M164.3,56.6c2.7,8.7,4.4,18.5,6.9,26.9c-2.7,0.9-5.9,0.8-7.5,3.7c-4.9,2.1-25.8,0-29.1-3.4
			c-1.4-8.3,4.5-17,9.8-12c4.1,3.9,9.3-2.4,11.6-11.8c0.6-2.7,4-6.5,3.4-9.3c-1.1-5.1,0.1-7,2.4-0.8
			C162.6,52.3,163.6,55.1,164.3,56.6z"/>
		<path class="st42" d="M216.9,84c-7.7,16.8-22.2,43.1-40.7,25.4C182,96.5,207.9,84.2,216.9,84z"/>
		<path class="st42" d="M180.5,381.9c0,0,3.6,1.3,3.3-1.1c-3.1-25.9-9.5-51.6-14.8-75.8c-0.5-1.9-10.7-33.4-8.1-32.1
			c-0.9-2.3,4.5,16.3,5.8,20c1.5,0.9,11.6,40.4,11.9,41.9c0.6,3.4,2,6.2,2.4,9.9l2.7-0.7c-1.8-4.3-4-17-4.5-18.8
			c-2.1-7.3-6.9-23.6-6.1-23.7c0.2,0,8.9,24.7,9.3,24.8c1.9,0.4,4.8,1.4,3.9-1.1c-3.9-6.4-17.4-52.5-27.9-68.2
			c-0.6-0.9-1.2-1.7-1.8-2.4c0,0-0.1-0.2-0.2-0.2c-4.3-4.9-8-3.5-10,9.8c0,0.1-0.2,1.1-0.2,1.2c-0.7,12.4,1.4,25.9-1.7,37.9
			c0,3.3-1.5,10.9-2.1,12.3c-1-14,1-29.3-1.3-42.7c-2.6,3.8-7.3,5.8-10,9.1c-0.1,0.1-0.7,2.7-0.7,2.8c-4.3,14.1-14,37.2-19.6,51.4
			c1.9,2,1.9-0.7,3.9,3.8c6.1-13.8,10.3-26.8,15.2-40.8c0.3-0.7,2.7-6.6,3.6-8.2c0.5,2-2.8,10.9-3.1,12c0.8-0.4,0.3,0.6,1.1,0.1
			c0,0.5,1-3.1,1-2.6c0,7.9-5.1,16.2-1.2,23.6c3.6-11,3-22.9,6.2-34.4c-0.9,19.7-3.1,38.8-7.9,57.7c-3.1,12.7-4.2,16.7-5.7,29.8
			c-0.2,1.9,2.6,0.5,2.7-1.9c0.3-8.6,1.8-12.4,5.7-27.4c5-19.1,6.5-35.6,7.4-26.7c0.1,1.3-0.1,5.8-0.9,8.6c-0.6,1.9-0.6,1.7,0.9,2.1
			c0.5-1.5,1.6-10.1,2.5-11.8c0.3-0.6-0.7,6.3-0.6,5.6c-0.6,3.2-1.2,6.4-1.7,9.5c-1.4,8.3-3,11.3-2.1,14.7c0.1,0.4,1.9,1.3,2.1-0.1
			c0.8-4.7,1.4-7.6,1.9-9l1-2.2c0.1,1.3-0.3,6.2-0.7,9.6c-0.4,4.5-2.7,18.9-1.4,25.6c0.6,3.1,2.5,0.9,4.6,1.9
			c2.1-21.1,0.8-36.1,4.1-55c0.8-0.2,0.8-0.2,0.8-0.2c0.9,5.8,0.7,16.4,0.5,22c-0.3,5.8-0.4,11-1.8,16.9c-0.2,2-0.1,5.3,1.7,6.1
			c2.1-3.2,2.7-37.8,3.2-47.8c0,0,1.6,0.5,1.6,1.5c-0.1,8.4,3.9,58.2,2.2,64c1.8,0.9,3.5,2.8,3.5,0.8c-0.8-36.1-5.2-72.3-3.5-108.2
			C167.8,310.6,175.6,346,180.5,381.9z M154,311.4c-2.2-17.1-1.6-33.6-2.4-51.1c0.1,0.4,0.3,0.7,0.4,1
			C155,277.1,155,295.4,154,311.4z"/>
		<path class="st5" d="M150.9,67.3c-3.4,8.5-18.8,12.8-26.1,13.2c-10,0.5-10.9-5.8-10.9-11.6c0-4.9-2.6-1.6-2.1-7.7
			c0.3-4.6,2.7-10.9,3.9-13.2c1.3-2.7,2.8-10.8,4.3-10.8c2.6-0.1,2.2,8.4,1.7,13c-0.4,3.3,0,6.9-3.9,11.2c4.8,4.7,3,12.7,6.9,17.1
			c5.8,2.3,7.3-6.5,2.8-9C136.7,66.4,134.4,77.9,150.9,67.3z"/>
		<path class="st4" d="M150.9,72.4c-5.4,3.5-19.2,8.3-24.4,9c-4.5,0.6-7.4-2.8-9.2-4.8c-2.3-2.7-2.2-9.4-1.8-13.3
			c0.4-3.4,6.6-7.6,9.3-10.4C131.6,55.9,157.6,66.2,150.9,72.4z"/>
		<path class="st4" d="M165.5,273.3c-5.5,6.5-36.4,17.7-37.2,0.5c1,0.5,4.6-1.8,9.4-5.3c4-2.9,6.1-12,10.9-15.6
			c3.9-2.9,10.4-0.4,13.8-2.5c7.5-4.6,12.5-5.7,10.1,2.8C171.5,256.4,179.8,258.4,165.5,273.3z"/>
		<path class="st4" d="M144.6,194.3c37.1-13.1,58.2-16.2,22,18.6C159.8,213.4,154,196.3,144.6,194.3z"/>
		<path class="st5" d="M106.2,87.2c-9.4,4.2-24.8-2.5-18.6-8.3c1.3-1.2-0.9-6.2-2.7-12.3c-0.6-2.3-8.6-12.9-8.3-13
			c0.8-0.2,8.7,2.7,11.7,5.4c4.1,3.7,9.5,10.3,10.2,10.1c7-2.8,4.3-31.3,12.5-16.5c1.7,6.8,6.3,10.5,9.5,15.8c0.4,3.9,1,14.5,7,11.6
			c8.5,2-9,6.6-11.9,3.5C111.4,82.2,109.2,85.8,106.2,87.2z"/>
		<path class="st5" d="M225.1,110.7c4.9-34.4-21.7,18.7-24.5,25.6c14.7-3.5-37.9,48.4-28.1,53c13-1,77-52.8,81.3-63.2
			c0.6-2.1,5.3-7.9,0.8-6.4C234.9,127.1,230.2,143.3,225.1,110.7z"/>
		<path class="st4" d="M211.6,110.5c2.7,2.7,8.9,7,9.3,10.4c0.5,3.9,0.6,10.6-1.8,13.3c-1.7,2-4.7,5.4-9.2,4.8
			c-5.2-0.7-19-5.6-24.4-9C186.6,125.1,204.8,113.5,211.6,110.5z"/>
		<path class="st42" d="M182.1,141.6c12.2,5.5,32.2-3.3,24.2-11c-1.7-1.6,1.2-8.1,3.5-16.2c0.8-3,11.2-17.1,10.8-17.2
			c-1-0.3-11.3,3.6-15.2,7.1c-5.4,4.8-12.5,13.7-13.2,13.3C188.5,115.7,186,142.4,182.1,141.6z"/>
		<path class="st5" d="M47.5,121.2c3.5,4.6,9.4,12.3,5.8,17c-6.7-1.2-10.1-12.6-14.6-17.5c-4.7-5-2.6-7.5,3.7-4.3
			C43.8,117.2,45.4,118.9,47.5,121.2z"/>
		<path class="st5" d="M46.4,136.3c4.9,3.1,17.1,12.8,11.3,14c-6.3,1.3-9.9-6.1-15.8-9.3c-11-6.1-19.1-9.6-2.3-7.4
			C41.3,133.8,43.5,134.8,46.4,136.3z"/>
		<path class="st5" d="M55.4,116c1.6,5.6,4.9,19.6-0.9,17.9c-5.9-1.7-3.5-7.4-7.4-16.8c-0.9-2.1-1.5-7.4-1.9-8.6
			c-1.5-4.7,0.5-3.3,7.5,1.9C54,111.3,54.4,113.6,55.4,116z"/>
		<path class="st46" d="M99.4,131.1c-7.7-3.1-12-8.5-15.3-15.5c0-0.9-0.6-0.9-1.3-0.9c-2.3,0.4-2.1-2.4-4-3c0.1-2.1-2.8-1.4-4.1-1.7
			c-0.3-1.2-1.2-1.9-2.3-2.4c0.1-0.9-1.3-0.9-1.1-1.8c1-2.3-0.6-3.8-2.1-5c-0.2-4.1,4-5.8,4.7-9.3c-0.2-4.4,2.7-6.9,6-9
			c3.4-0.9,2.8-5.5,6-6.1C90,75,93.7,73.1,98.2,74c1.3,0.3,2.7,0.6,3.8-0.6c1.9-0.1,3.9,0.9,5.1-1c8.6-4.6,5.8,0.2,11.8,0.7
			c5,0.3,11-3.6,15,0.7c0.4,0.5,1,1.3,1.9,1.2c0,0.1,0.1,0.2,0.2,0.1c0.7,0.9,1.6,1.5,2.5,2c0,0,0,0,0,0c3.6,4,0.9,8.9,2.5,12.2
			c0.9,0.3,1.5-0.1,2-0.8c7.1-7.2,5.5,9.9,5.4,13.3c-4.3,1.8-8.4-1.5-12,0.9c-1.5,1.3-5.2-3.3-7-3.4c-2.3,0-1.8,8.1-3.8,9.1
			c-2.8,1.5-8.1-4.7-9.3-1.5c-1.5,7.1-8.5,11.9-7.6,19.9c0,1.5-0.3,2.9-1.7,3.8c-5.2,5.8-5.3-3.4-6.2-3.3c-0.6-0.1,4.4,4.6,1,3.9
			C101.2,130.5,100.2,131.5,99.4,131.1z"/>
		<path class="st1" d="M63.2,117.3c3.4-4.8,11.4-1.7,14.5-5.5c4.1-5,14.6,5.1,19.1,8.6c0.2,0.2-1,0.5-0.2,0.9
			c4.8,2.3,6.7,6.6,7.7,11.4c1,4.8-0.6,6.7,1.8,10.2c1.1,1.8,3.3,3.2,2.6,5.9c-4.1,9.2-11.2,19.4-22.6,18.4
			c-5.7-1.1-10.2-3.9-14.6-7.6c-6.3-3.8-13.4-6.1-19.5-10.5c-10.7-5.7,2-12.6,2.1-19.9C53.8,123,60.7,121.9,63.2,117.3z"/>
		<path class="st1" d="M192.9,123.6c2,2.1,5.6,3.2,8.6,4.6c0.7,2.2,2.5,2.9,4.6,3.3c0.1,1.4,1.3,0.7,2,0.9c5.3,6.9,9.6-3.9,7,12.4
			c-1.7,1.2-0.6,4.7-1.7,6.6c-6.6,1.1-11.3,8.6-13.7,14.5c-2.1-0.4-3.1,1.9-5.3,1.7c-5,0.6-9-2.4-14.2-2.5c0-3.7-6.2-3.2-6.2-6.2
			c3-3.6,4.1-9.8-1.1-11c0.4-6.3,5.4-9,7.5-14.2c0.9,0,0.7-0.5,0.6-1.1c-0.9-4.1,1.4-6.9,3.8-9.3
			C187.7,123.4,190.3,123.1,192.9,123.6z"/>
		<path class="st46" d="M146,180.2c6.7-9.1-1.3-6.5-1.2-13.4c1.2-6.2-12.1-5.9-6.8-11.8c0.4-1.9-0.8-4.8,1-6.1
			c0.7,0,1.4,0.1,1.8-0.8c1.4,0,1.9,1.6,2.9,1.7c0.4-0.1,1-0.2,0.6-0.9c-1.1-6,6.8-6.5,10.4-9.6c2.6,0.6,5,0.7,7.6-0.2
			c6.1-2.8,8.8,4.7,14.4,5.7c2.2,0.7,1.3,4.7,4.2,4.9c1.1,0.3,1,1.6,2,1.8c1.4,3.1-1.1,11.3,4.3,9.8c3.4,1.5,3.6,2,2.8,6.5
			c-2.3,1.1-1.9,3.4-1.8,5.7c-0.5,0-1,0.1-0.4,0.7c-0.6,2.5-3.7,4-4.4,6.1c-0.4,0.4-1,0.3-0.8,1.1
			C173.7,194.2,155.1,190.3,146,180.2z"/>
		<path class="st1" d="M150,185.1c0,0.2,0,0.4,0,0.7c-1.4,0.6,0.2,1.6-0.6,2.7c-2.4,0.6-0.8,2-1.5,3.4c-1.9,0.1-0.4,2-1.8,2.5
			c-1.2-0.2-1.5,0.3-1.5,1.2c-1-0.2-1.8,0.2-1.9,1.1l-0.1-0.1c-1.3,0.4-2.9,2.2-4.9,2.5c-0.4-0.1-0.8-0.2-0.9,0.3
			c-2.6-0.1-4.4,1.3-6.9,0.6c-4.4-3.4-14.9,2.9-16.4-3.8c-1.6-4.9-10-7.9-9.1-13.8c-0.9-2-2.2-4.1-2.7-6.3c-0.6-1.1,1.2-2.3,0-3.6
			c-1.9-2.7,1.5-6.1,1.4-9.2c0.9-2.2,2.3-3.3,5.1-3.3c2.9,0.4,3.3-2.8,5.9-3.3c4.1-0.8,7.5-0.3,10.8,2.4c1.1-1,3-0.1,4.2-1.1
			c0.9-0.8,2.2-0.9,3.7-0.8c1.1,0.1,2.6,0.7,3.3-0.5c4.8,0.6,13.8,4.2,13.4,9.9c-0.7,1.9,0.2,3.1,1.6,4.4c3.8,4.1,0.3,5.6-2.1,8.2
			c-1-0.1-2-0.1-1.7,1.1c-0.3,1.1-0.4,1.6,1,1.6C149.5,182.8,148,184.5,150,185.1z"/>
		<path class="st46" d="M166.6,77.9c1.1-1.7,4.2-0.5,6-0.6c0.8,1.7,2.7,2.1,4.9,1.1c3.3-0.3,6.4,0.7,9.5,1.1c0.5-0.1,1,1.5,1.5,0
			c1.2-0.2,2,1.4,3.2,0.4c13.1,1.2,0.9,7.5,10.9,8.7c3.8,0.9,0.8,4.3,1.6,6.3c0.1,0.5,0.1,1-0.1,1.5c-1.5,0.6-0.3,2.5-1.7,3.3
			c-1,0.1-0.7,1.5-1.2,2.2c-1.2,0.6-0.6,1.9-1,2.9c-1.7,1.4-2,3.5,0.7,4.5c2.7,2.2,1.8,4.2,0.4,6.9c-5.4,8.9-15.1,10.6-24.7,7.1
			c0-0.4-0.1-0.9,0.1-1.1c1.7-1.6-1.3,1.7,0,0c0.5-0.7-5.3-4.2-5.8-4.8c-1.4-1.4,2.1-2.6,0-3.3c-0.6-0.2-3.4-0.5-3.7-1.1
			c-0.9-2.2-1.2-1.9-2.9-3.4c-1.8-1.5-3.7-4.9-6-5.6c-2.4-0.8,0.5-5.1-1.8-6.6c-0.1-2.4-1.3-4.3-1.6-6.6c1.2-0.1,1.1-1.5,2.2-1.4
			c1.1,0.4,1-0.2,0.9-0.9c-0.2-1.1,0.9-3.1-0.9-3.1c-0.5-2.3,2.2-2.4,2.5-4.6c0.2-0.5,0.7-0.6,1.1-0.7
			C162.8,80.3,166.1,80.6,166.6,77.9z"/>
		<path class="st1" d="M119.2,153.9c0.1,0.4,5.7,2.2,5.7,0.4c0-0.8,0.4-1.4,1.1-1.4c6.5-0.9,2.6-1.3,5.1-4c1.1-0.4,2.5-0.6,3.6,0.8
			c3.1,2,7.8,1,11.4,0.7c-0.6-3.8,3.5-3.6,4.6-6.5c0.4-1.2,1.6-1.2,2.7-1.1c0.7-0.6,1.4-1.3,2.4-1.2c0.2-0.9,0.7-1.3,1.6-1.2
			c0,0,0,0,0,0c4.6-5.6,13.9-8.1,16.1-15.5c1.8-1.7,1.7-4.4,3.2-6.3c1.4-2.7-2.8-5.6-5-6.7c-5.5-8.2-10.5-11.6-20.2-14.2
			c-0.3,0.9-1.1,0.7-1.8,0.7c-4.9-1.9-10-0.9-15.1-0.7c-2.9,0.4-6.1,0-8.4,2.4c-2.9,2.8-7.1,1.4-10.2,4c-6.6,2.7-5.5,9.7-8.8,14.9
			c-4,3.9-2.9,19.2-3.3,14.3c-0.1-0.6-0.1,6,0.4,8.7c0.3,1.6,1.8,2.6,3,3.6c3.5-1.5,3.4,4.8,4.3,2.9c0.6-1,0.7,1.1,1.7,1
			c1,0,1.4,0.5,1.2,1.8c0.2,0,2.5-1.4,1,1c0,0.3,1.8,0.1,1.8,0.3L119.2,153.9z"/>
		<g>
			<path class="st22" d="M234.1,185.1l4.5,2.4l-4.5,2.4c-1.4,0.7-2.5,1.9-3.2,3.2l-2.4,7.6l-2.4-7.6c-0.7-1.4-1.9-2.5-3.2-3.2
				l-4.5-2.4l4.5-2.4c1.4-0.7,2.5-1.9,3.2-3.2l2.4-7.6l2.4,7.6C231.6,183.2,232.7,184.3,234.1,185.1z"/>
		</g>
		<g>
			<path class="st22" d="M57.8,78.6l5.2,2.8l-5.2,2.8c-1.6,0.9-2.9,2.2-3.7,3.7l-2.8,8.8L48.4,88c-0.9-1.6-2.2-2.9-3.7-3.7l-5.2-2.8
				l5.2-2.8c1.6-0.9,2.9-2.2,3.7-3.7l2.8-8.8l2.8,8.8C54.9,76.5,56.2,77.8,57.8,78.6z"/>
		</g>
		<g>
			<path class="st22" d="M115.5,283.2l4.7,2.6l-4.7,2.6c-1.4,0.8-2.6,2-3.4,3.4l-2.6,8.1l-2.6-8.1c-0.8-1.4-2-2.6-3.4-3.4l-4.7-2.6
				l4.7-2.6c1.4-0.8,2.6-2,3.4-3.4l2.6-8.1l2.6,8.1C112.9,281.3,114.1,282.4,115.5,283.2z"/>
		</g>
	</g>
</g>
<g id="Ślubne">
</g>
<g id="Siedząca_z_kwiatami">
</g>
<g id="zadzwoń">
</g>
<g id="zapłać">
</g>
</svg>
