<?xml version="1.0" encoding="utf-8"?>
<!-- Generator: Adobe Illustrator 26.0.2, SVG Export Plug-In . SVG Version: 6.00 Build 0)  -->
<svg version="1.1" xmlns="http://www.w3.org/2000/svg" xmlns:xlink="http://www.w3.org/1999/xlink" x="0px" y="0px"
	 viewBox="0 0 322.9 311.4" style="enable-background:new 0 0 322.9 311.4;" xml:space="preserve">
<style type="text/css">
	.st0{fill:#EEE8E3;}
	.st1{fill:#F7313B;}
	.st2{fill:#F9ADB5;}
	.st3{fill:#F8A48A;}
	.st4{fill:#FABB95;}
	.st5{fill:#065C51;}
	.st6{fill:#6C90BD;}
	.st7{fill:#7AA5D3;}
	.st8{fill:none;stroke:#136A37;stroke-width:0.6745;stroke-miterlimit:10;}
	.st9{fill:#E62917;}
	.st10{fill:none;stroke:#FFFFFF;stroke-width:0.6745;stroke-miterlimit:10;}
	.st11{fill:none;stroke:#FFFFFF;stroke-width:0.5699;stroke-miterlimit:10;}
	.st12{fill:none;stroke:#FFFFFF;stroke-width:0.6458;stroke-miterlimit:10;}
	.st13{fill:#CF6B4B;}
	.st14{fill:#054C42;}
	.st15{fill-rule:evenodd;clip-rule:evenodd;fill:#E5A1AB;}
	.st16{fill-rule:evenodd;clip-rule:evenodd;fill:#E47F62;}
	.st17{fill-rule:evenodd;clip-rule:evenodd;fill:#065C51;}
	.st18{fill-rule:evenodd;clip-rule:evenodd;fill:#F9ADB5;}
	.st19{fill-rule:evenodd;clip-rule:evenodd;fill:#FFFFFF;}
	.st20{fill-rule:evenodd;clip-rule:evenodd;fill:#6C90BD;}
	.st21{fill-rule:evenodd;clip-rule:evenodd;fill:#7AA5D3;}
	.st22{fill:#FFFFFF;}
	.st23{fill:#FEFEFE;}
	.st24{fill:#C8A38A;}
	.st25{fill:#DBA183;}
	.st26{fill:#D2B8A8;}
	.st27{fill:#E82E41;}
	.st28{fill:#2A372D;}
	.st29{fill:#E5A889;}
	.st30{fill-rule:evenodd;clip-rule:evenodd;fill:#FFC7D2;}
	.st31{fill:#EFA3AE;}
	.st32{fill:#DBA184;}
	.st33{fill:#6A90BD;}
	.st34{fill-rule:evenodd;clip-rule:evenodd;fill:#D6253F;}
	.st35{fill-rule:evenodd;clip-rule:evenodd;fill:#F7313B;}
	.st36{fill-rule:evenodd;clip-rule:evenodd;fill:#DBA184;}
	.st37{fill:#F1E1C9;}
	.st38{fill:#FDFBF9;}
	.st39{fill:#046857;}
	.st40{fill:#074C42;}
	.st41{fill:#8C5A51;}
	.st42{fill:#085C51;}
	.st43{fill:#E57F5D;}
	.st44{fill:#D36B4F;}
	.st45{fill:#1C1C1C;}
	.st46{fill:#E73143;}
	.st47{fill:#F5ABB6;}
	.st48{fill-rule:evenodd;clip-rule:evenodd;fill:#6A90BD;}
	.st49{fill:#D6253F;}
	.st50{fill:#C6A18A;}
	.st51{fill:#29372B;}
	.st52{fill:#012E60;}
	.st53{fill:#78391A;}
	.st54{fill:#F09880;}
	.st55{fill:#1C9697;}
	.st56{fill:#CE2E45;}
	.st57{fill:#ED3550;}
	.st58{fill:#D8013A;}
	.st59{fill:#F3F4F4;}
	.st60{fill:#911C36;}
	.st61{fill:#F42237;}
	.st62{fill:#D8A85D;}
	.st63{fill:#E52033;}
	.st64{fill:#434543;}
	.st65{fill:#E9E9E9;}
	.st66{opacity:0.31;}
	.st67{fill:#C6CAC6;}
	.st68{fill:#FFD2A8;}
	.st69{fill:#E08D77;}
	.st70{fill:#037C65;}
</style>
<g id="bg">
</g>
<g id="GŁOWNE_KOLORY">
</g>
<g id="COLOR_1">
</g>
<g id="COLOR_2">
</g>
<g id="insp">
</g>
<g id="Kosz_kwiatów">
</g>
<g id="Las_w_szkle">
	<path class="st32" d="M222.7,33.9c-0.4,0.6-1.2,0.5-1.8,0.6c-8.7,1.2-17.5,2.1-26.3,2.8c-2.3,0.2-4.5,0.3-6.8,0.4
		c-1.2,0.1-2.5,0.1-3.7,0.2c-2.3,0.1-4.5,0.2-6.8,0.3c-0.2,0-0.4,0-0.6,0c-0.6,0-1.2,0-1.8,0.1c-0.4,0-0.8,0-1.2,0c0,0,0,0,0,0
		c-0.3,0-0.5,0-0.8,0c-1.4,0-2.9,0.1-4.3,0.1c-0.4,0-0.9,0-1.3,0c-0.2,0-0.4,0-0.6,0c-2.5,0-4.9,0-7.4,0c-1.1,0-2.2,0-3.2,0
		c-6.3-0.1-12.6,0-18.9,0c-1.5,0-3,0-4.5,0c-0.6,0-1.2,0-1.7,0c-0.6,0-1.1,0-1.7,0c-0.8,0-1.6,0-2.4-0.1c-3.7-0.1-7.4-0.2-11.1-0.4
		c-0.9,0-1.8-0.1-2.8-0.1c-2.5-0.1-5-0.3-7.6-0.5c-1.5-0.1-3-0.2-4.5-0.4c-1.6-0.1-3.2-0.3-4.8-0.4c-0.8-0.1-1.6-0.1-2.4-0.2
		c-6-0.5-11.8-1.4-17.7-2.1c-1.6,0.6-0.6,1.5-0.6,2.3c0,4.5,1.1,8.8,2.7,13.1c0.6,2.2,1.8,4.2,2.6,6.3c0,0,0,0,0,0
		c0.1,0.3,0.2,0.5,0.4,0.8c0,0,0,0,0,0c1.1,1.7,3,2.4,5.2,2.3c1.9-0.1,3.9-0.1,5.8-0.1c8,0.1,16,0.2,24,0.3c0.2,0,0.4,0,0.6,0
		c0.1,0,0.6,0,1.2,0l0.9,0c1,0,2,0,2,0c2.6,0,5.2,0,7.9,0h0.5c2.4,0,4.7,0,7.1,0c5,0,10.1,0,15.1,0c3.7,0,7.4-0.1,11.2,0
		c2.2,0.1,4.4-0.4,6.6,0.1c0.1,0,0.1,0,0.2,0c0.1,0,0.2,0,0.3,0c0.2,0,0.3,0,0.5-0.1c0.3,0,0.6,0,1,0c0.8-0.2,1.7-0.1,2.5,0.1
		c0,0,0,0,0,0c1.2-0.1,2.4-0.1,3.6-0.1c2,0,4.1,0.1,6.1,0c5.9-0.1,11.8,0,17.6-0.1c4.9-0.1,9.9-0.1,14.8-0.1
		c0.3-0.1,0.6-0.2,0.9-0.2c0.8-0.4,1.4-0.9,2-1.5c0.1-0.1,0.1-0.2,0.2-0.3c0.1-0.1,0.1-0.2,0.2-0.2c0,0,0,0,0,0
		c0.1-0.2,0.2-0.4,0.3-0.6c0,0,0,0,0,0c1-2.1,2-4.5,3-6.6c0.4-1.2,0.9-2.4,1.3-3.6c1-3.3,1.4-6.7,1.6-10.1
		C225.2,34.3,224.9,33.9,222.7,33.9z M163.8,46.6C163.8,46.6,163.8,46.6,163.8,46.6C163.8,46.6,163.8,46.6,163.8,46.6L163.8,46.6z"
		/>
	<path class="st4" d="M222.7,33.9c-0.4,0.6-1.2,0.5-1.8,0.5c-8.7,1.2-17.5,2.1-26.3,2.8c-6.6,0.5-13.1,0.8-19.7,1
		c-6.3,0.2-12.6,0.2-18.9,0.2c-6.3-0.1-12.6,0-18.9,0c-8.1,0.1-16.1-0.2-24.1-0.6c-6.5-0.3-12.9-0.9-19.3-1.5
		c-6-0.5-11.8-1.4-17.7-2.1c0.7-0.8,1.8-0.6,2.7-0.6c5.9,0,11.8,0,17.6,0c4.2,0,8.4-0.1,12.5-0.1c4.8,0.1,9.5,0.1,14.3,0.1
		c8.5-0.1,17,0,25.6-0.1c8.8,0,17.7,0,26.5,0c14.1,0,28.1,0,42.2,0C219.1,33.6,221,33.3,222.7,33.9z"/>
	<path class="st37" d="M220.1,163.6L220.1,163.6C220.1,163.6,220.2,163.6,220.1,163.6C220.2,163.6,220.1,163.6,220.1,163.6z
		 M259.9,143.8L259.9,143.8L259.9,143.8C259.9,143.8,259.9,143.8,259.9,143.8L259.9,143.8z M269.4,225.5c0,0-0.1-0.1-0.1-0.1
		c-2.1-0.2-4.1-0.7-5.9-1.4c-0.2,0-0.5,0-0.7,0h0c-4.5-0.2-9,0.3-13.4,0.7c-5.2,0.5-10.5,0.9-15.7,1.4c-4.8,0.4-9.6,0.8-14.4,1.2
		c-2.5,0.2-4.9,0.4-7.4,0.5c-7.1,0.2-14.1,0.9-21.2,1.1c-4.2,0.1-8.4,0.3-12.6,0.5c-0.7,0-1.3,0.1-2,0.1c-0.5,0-0.9,0-1.4,0.1
		c-0.2,0-0.3,0-0.5,0c-0.5,0-1.1,0-1.6,0.1c-0.3,0-0.6,0-0.9,0c-0.5,0-0.9,0-1.4,0c-0.4,0-0.9,0-1.3,0c-3,0.1-6.4,0.2-9.7,0.3
		c0,0-0.1,0-0.1,0c-6.6,0.2-12.9,0.3-16,0.3c-0.4,0-0.7,0-1.1,0c-4.2,0-8.4,0.1-12.6,0c-5.4-0.2-11.2-0.5-16.6-0.5
		c-0.6,0-7.6-0.2-9.2-0.3c-5.3-0.2-12-0.3-17.3-0.3c-4.2,0-8.3-0.5-12.4-0.7c-5.5-0.2-11.1-0.6-16.6-1.1c-3.1-0.3-6.3-0.2-9.5-0.5
		c-3.2-0.3-6.5-0.3-9.7-0.6c-2.2-0.2-4.4-0.4-6.6-0.7c-0.4,0-0.8,0-1-0.3c-2.4-0.2-2.6,0-1.9,1.7c0,0.1,0.1,0.2,0.2,0.3
		c0,0,0.1,0.1,0.1,0.1c0.9,1.4,2.4,4.9,2.6,5.3c0.8,1.7,1.6,3.4,2.5,5c0,0.1,0.1,0.2,0.2,0.4c0.3,0.5,0.7,1.3,0.9,1.6
		c0.2,0.3,0.4,0.7,0.6,1.1c0.7,1.2,1.3,2.4,2,3.5c0,0,0,0,0,0.1c0.5,0.8,1.1,1.6,1.8,2.4c0.5,0.6,0.3,1.5,1.5,1.7
		c0,0.1,0,0.1,0.1,0.2c0.5,1.6,1.8,2.9,2.7,4.4c1.1,1.8,3,3.2,4.3,5c1.8,2.3,3.8,4.4,6,6.5c1.9,1.9,4.2,3.5,6.1,5.3
		c1.6,1.5,3.4,2.7,5.3,3.9c3.9,2.7,8,5.2,12.7,7c3.4,1.4,6.9,2.7,10.8,3.1c5.8,0.6,11.7,0.8,17.6,0.9c11.3,0.1,22.7,0.1,34-0.1
		c6-0.1,12,0.1,17.9,0.1c15.1,0,30.2,0.5,45.2-0.4c3.9-0.2,7.8-0.6,11.4-1.8c5.9-2,11.2-4.7,16-7.9c4.9-3.2,9.2-6.9,13.2-10.7
		c0.9-0.9,2.1-1.7,2.5-2.9c0.4-0.4,0.9-0.8,1.3-1.2c4.9-5.3,8.9-10.9,12.7-16.7c2.3-3.7,4.4-7.6,6.4-11.4c0.9-1.7,1.8-3.5,2.4-5.3
		C269.7,226.1,269.7,225.7,269.4,225.5z"/>
	<path class="st22" d="M30.5,225.3c0.3,0.3,0.6,0.2,1,0.3c2.2,0.2,4.4,0.4,6.6,0.7C35.9,226,32.1,225.4,30.5,225.3z M41,248.5
		c-1.2-0.2-1-1.1-1.5-1.7c-0.7-0.8-1.3-1.6-1.8-2.4c1.3,2.2,2.6,4.2,3.3,4.3c0,0,0,0,0.1,0C41.1,248.7,41,248.6,41,248.5z
		 M80.6,55.9c0.1,0.3,0.2,0.5,0.4,0.8C80.9,56.5,80.8,56.2,80.6,55.9z M118.8,59.3c1,0,2,0,2,0c2.6,0,5.2,0,7.9,0L118.8,59.3z
		 M169.1,59.3c0.1,0,0.1,0,0.2,0c0.1,0,0.2,0,0.3,0C169.5,59.3,169.3,59.3,169.1,59.3z M267.2,231.8c0.9-1.7,1.9-3.5,2.4-5.3
		C269,228.3,268.1,230,267.2,231.8z M262.7,223.9c0.2,0,0.5,0,0.7,0c1.9,0.7,3.8,1.3,5.9,1.4c0,0,0.1,0.1,0.1,0.1
		C268.4,223.7,263,223.9,262.7,223.9z"/>
	<path class="st38" d="M273,108.5c-1.9-3.8-4.2-7.5-6.7-11.1c-2.4-3.4-5-6.8-7.9-10c-3.7-4-7.6-7.8-11.8-11.4
		c-5.1-4.3-17.6-12.5-19.8-13.5c-1.4-0.6-2.5-1.8-2.3-3.1c0.2-1.7,0.4-3.3,1.4-4.9c0.3-0.5-2.8-2.9-4.1-2.9
		c-0.9,1.5-1.6,3.1-2.4,4.6c0,0,0,0,0,0c-0.1,0.2-0.2,0.4-0.3,0.6c0,0,0,0,0,0c0,0.1-0.1,0.1-0.2,0.2c-0.1,0.1-0.1,0.2-0.2,0.3
		c-0.7,0.8-1.9,1.7-2.9,1.8c-4.9,0-9.9,0.1-14.8,0.1c-5.9,0.1-11.8,0-17.6,0c-2,0-4.1,0-6.1,0c-1.2,0-2.4,0-3.6,0.1c0,0,0,0,0,0
		c-0.1,0-1.9,0-4,0c-0.1,0-0.2,0-0.3,0c-0.1,0-0.1,0-0.2,0c-2.5,0-5.4,0-6.6-0.1c-3.7-0.1-7.4,0-11.2,0c-5,0-10.1,0-15.1,0l-7.1,0
		h-0.5c-2.6,0-5.2,0-7.9,0c0,0-1,0-2,0l-0.9,0h-1.8c-8-0.1-16-0.2-24-0.2c-1.9,0-3.9,0-5.8,0.1c-2.5,0.1-4.3-0.4-5.2-2.3
		c0,0,0,0,0,0c-0.2-0.2-0.3-0.5-0.4-0.8c0,0,0,0,0,0c-0.7-1.4-1.6-2.8-2.1-4.2c-0.9,0.3-4.6,3-4.4,3.5c0.3,0.6,0.7,1.2,0.9,1.8
		c0.3,1.3,1.3,2.6-0.1,3.8c-1.2,0.9-9.5,5.6-13.9,8.6c-3.8,2.6-7.4,5.4-10.7,8.3c-3.3,2.9-6.5,5.9-9.3,9.1
		c-2.5,2.9-9.3,9.7-11.5,12.7c-2.8,3.9-3.4,4.2-5.5,8.3c-2,3.9-1.5,116.8-1.2,121.3c0.3,4.3,3.4,8.2,5.8,12.1c2,3.2,3.8,6.5,6.2,9.5
		c3.8,4.8,7.9,9.4,12.5,13.8c5.1,4.8,10.8,9.2,16.8,13.4c1.9,1.3,3.9,2.5,6,3.7c2.5,1.4,5,2.7,7.5,4c1.9,1,3.8,2.1,5.9,2.8
		c3.1,0.9,6.3,1.2,9.7,1.1c5.2-0.2,10.5,0.2,15.7,0.1c4.5-0.1,9-0.1,13.5-0.1c13.6-0.1,27.2,0,40.7,0c5.3,0,10.7,0,16,0.1
		c4.1,0,8.2,0.1,12.4,0.1c2,0,4.1,0.1,6.1,0c2.6-0.2,5.3,0,7.9,0c3.5,0,6.8-0.3,9.9-1.4c6.2-2,11.4-5.3,16.7-8.4
		c3.4-2,6.5-4.2,9.6-6.5c5.2-3.9,10-8.1,14.2-12.6c3.1-3.3,6-6.7,8.6-10.3c3.5-4.7,6.4-9.6,8.9-14.6
		C275.9,231.1,275.1,112.8,273,108.5z M259.9,143.8L259.9,143.8C259.9,143.8,259.9,143.8,259.9,143.8L259.9,143.8L259.9,143.8z
		 M220.1,163.6C220.1,163.6,220.2,163.6,220.1,163.6C220.2,163.6,220.1,163.6,220.1,163.6L220.1,163.6z M269.6,226.4
		c-0.5,1.9-1.5,3.6-2.4,5.3c-2,3.9-4,7.7-6.4,11.4c-3.8,5.8-7.7,11.4-12.7,16.7c-0.4,0.4-0.9,0.8-1.3,1.2c-0.4,1.2-1.5,2-2.5,2.9
		c-4,3.9-8.2,7.5-13.2,10.7c-4.9,3.2-10.2,5.9-16,7.9c-3.6,1.2-7.5,1.6-11.4,1.8c-15.1,0.9-30.2,0.4-45.2,0.4c-6,0-12-0.2-17.9-0.1
		c-11.3,0.3-22.7,0.2-34,0.1c-5.9-0.1-11.7-0.2-17.6-0.9c-4-0.4-7.4-1.7-10.8-3.1c-4.7-1.9-8.9-4.3-12.7-7c-1.9-1.2-3.8-2.4-5.3-3.9
		c-1.9-1.8-4.2-3.4-6.1-5.3c-2.1-2.1-4.2-4.2-6-6.5c-1.3-1.7-3.2-3.1-4.3-5c-0.9-1.5-2.2-2.8-2.7-4.4c0,0,0,0-0.1,0
		c-0.6-0.1-2-2.1-3.3-4.3c0,0,0-0.1,0-0.1c-0.7-1.1-1.4-2.3-2-3.5c-0.2-0.4-0.4-0.8-0.6-1.1c-0.2-0.3-0.6-1-0.9-1.6
		c-0.1-0.2-0.2-0.3-0.2-0.4c-0.9-1.7-1.7-3.3-2.5-5c-0.2-0.3-1.7-3.8-2.6-5.3c0,0-0.1-0.1-0.1-0.1c-0.1-0.1-0.1-0.2-0.2-0.3
		c-0.7-1.7-0.4-1.9,1.9-1.7c1.6,0.1,5.4,0.7,7.6,0.9c3.2,0.3,6.5,0.3,9.7,0.6c3.1,0.3,6.3,0.2,9.5,0.5c5.5,0.5,11,0.8,16.6,1.1
		c4.1,0.2,8.3,0.7,12.4,0.7c5.3,0,12,0.1,17.3,0.3c1.6,0.1,8.6,0.3,9.2,0.3c5.4,0,11.2,0.3,16.6,0.5c4.2,0.1,8.4,0,12.6,0
		c0.3,0,0.7,0,1.1,0c3,0,9.4-0.1,16-0.3c0,0,0.1,0,0.1,0c3.3-0.1,6.7-0.2,9.7-0.3c0.4,0,0.9,0,1.3,0c0.5,0,0.9,0,1.4,0
		c0.3,0,0.6,0,0.9,0c0.5,0,1.1,0,1.6-0.1c0.2,0,0.3,0,0.5,0c0.5,0,0.9,0,1.4-0.1c0.7,0,1.3,0,2-0.1c4.2-0.2,8.4-0.4,12.6-0.5
		c7.1-0.1,14.1-0.9,21.2-1.1c2.5-0.1,4.9-0.3,7.4-0.5c4.8-0.4,9.6-0.8,14.4-1.2c5.2-0.4,10.5-0.9,15.7-1.4c4.5-0.4,8.9-0.9,13.4-0.7
		h0c0.3,0,5.8-0.2,6.8,1.5C269.7,225.7,269.7,226.1,269.6,226.4z"/>
	<g>
		<path class="st4" d="M89.5,246.7c6.7-6.7,18.2-15.7,26.2-21.2c8-5.5,17.3-9.7,27.3-10.6c10.9-1.1,22,1.8,31.8,6.2
			c14.4,6.5,26.6,16.1,38.6,25.7C196.3,257.1,89.5,246.7,89.5,246.7z"/>
		<path class="st39" d="M224,144.2c-2.4,5.6-6.4,10.8-12.2,14c-9.6,5.2-21.9,3.9-33.1,2.6c-11.2-1.3-23.8-1.9-32.6,4.3
			c2.2-12.6,4.7-25.9,14.1-35.6c9.2-9.5,23.4-13.8,37.3-16.1c13.9-2.3,28.2-2.9,41.6-6.8c-5.7,4.5-8.5,11.3-10.1,17.9
			C227.4,131,226.7,137.8,224,144.2z"/>
		<path class="st40" d="M180,147.2c-10.6,4-20.7,9-30.2,14.8c15.9-19.1,49.5-20.4,66.2-38.9c-2.3,6.6-8.2,11.8-14.8,15.4
			C194.6,142.1,187.2,144.5,180,147.2z"/>
		<path class="st39" d="M143.5,131.3c-7-11.8-21.2-19.3-35.9-22.1c-14.7-2.8-30.1-1.3-44.9,1.5c7.1,2,12.1,7.6,14.9,13.7
			c2.8,6.1,3.7,12.6,5.2,19c1.5,6.4,3.8,12.9,8.7,17.8c7,6.9,18.2,9.5,28.7,8.8c10.5-0.7,20.4-4.2,30.1-7.7
			C149.8,151.8,149.1,140.7,143.5,131.3z"/>
		<path class="st40" d="M114.1,138.4c-6.5-7.1-11.8-16-21.5-18.9c9.3,7.3,15,17.4,22.6,26.1c7.6,8.7,18.6,16.5,31,15.9
			C134.6,154.8,122.8,148,114.1,138.4z"/>
		<path class="st39" d="M156.8,221.4c5-1.3,6-6.1,6.1-10.1c0.2-9.7,0.5-19.5-1.2-29.1c-1.7-9.6-5.5-19.2-12.7-27.4
			c-3,2-4.2,5.2-4.1,8.2c0.1,3,1.2,5.9,2.2,8.8c4.8,15,3.8,31-2.8,45.6C147.8,219.8,152.3,222.5,156.8,221.4z"/>
	</g>
	<path class="st33" d="M260.8,243.2c-3.8,5.8-7.7,11.4-12.7,16.7c-0.4,0.4-0.9,0.8-1.3,1.2c-2.5,1.4-5,2.9-7.6,4.1
		c-5.2,2.5-10.6,4.6-16.6,5.8c-6.7,1.5-13.5,2.7-20.4,3.3c-9.2,0.8-18.3,0.1-27.4-1.4c-6-1-11.9-2.1-17.8-3.4
		c-6.4-1.3-12.9-2.4-19.4-3.5c-4.3-0.8-8.7-1.1-13.1-1.5c-8-0.6-15.9-0.3-23.8,0.7c-9,1.1-17.7,3-26.2,5.7c-3,1-6,2.1-9.2,2.7
		c-1.9-1.2-3.8-2.4-5.3-3.9c-1.9-1.8-4.2-3.4-6.1-5.3c-2.1-2.1-4.2-4.2-6-6.5c-1.3-1.7-3.2-3.1-4.3-5c-0.9-1.5-2.2-2.8-2.7-4.4
		c0-0.1,0-0.1-0.1-0.2c1.8-0.5,3.4-1.5,5-2.2c4.6-2.1,9.6-3.5,14.5-4.9c4.3-1.2,8.6-2.2,13.1-2.7c7.1-0.9,14.3-1.2,21.6-1.3
		c7.2-0.2,14.3-0.3,21.5,0.3c6.1,0.6,12,1.6,18,2.8c6.6,1.3,13.2,3,19.7,4.6c6.2,1.6,12.5,2.9,18.8,4.3c5.5,1.2,11,2.2,16.7,2.9
		c4.3,0.5,8.8,0.8,13.2,1c4,0.1,7.9,0,11.8-0.1c3.8-0.1,7.6-0.8,11.3-1.4c6-0.9,11.7-2.5,17.1-4.5c5.1-1.8,10.2-3.4,15.8-4.2
		C259.7,243,260.3,242.9,260.8,243.2z"/>
	<path class="st4" d="M246.8,261c-0.4,1.2-1.5,2-2.5,2.9c-4,3.9-8.2,7.5-13.2,10.7c-4.9,3.2-10.2,5.9-16,7.9
		c-3.6,1.2-7.5,1.6-11.4,1.8c-15.1,0.9-30.2,0.4-45.2,0.4c-6,0-12-0.2-17.9-0.1c-11.3,0.3-22.7,0.2-34,0.1
		c-5.9-0.1-11.7-0.2-17.6-0.9c-4-0.4-7.4-1.7-10.8-3.1c-4.7-1.9-8.9-4.3-12.7-7c3.2-0.6,6.2-1.7,9.2-2.7c8.4-2.7,17.2-4.6,26.2-5.7
		c7.9-1,15.9-1.4,23.8-0.7c4.4,0.3,8.8,0.7,13.1,1.5c6.5,1.1,13,2.2,19.4,3.5c5.9,1.2,11.8,2.4,17.8,3.4c9,1.5,18.1,2.2,27.4,1.4
		c6.9-0.6,13.7-1.9,20.4-3.3c6-1.3,11.4-3.4,16.6-5.8C241.8,263.9,244.3,262.4,246.8,261z"/>
	<path class="st4" d="M269.6,226.4c-0.5,1.9-1.5,3.6-2.4,5.3c-2,3.9-4,7.7-6.4,11.4c-0.5-0.3-1.1-0.2-1.7-0.1
		c-5.5,0.8-10.7,2.3-15.8,4.2c-5.5,2-11.1,3.6-17.1,4.5c-3.8,0.6-7.5,1.2-11.3,1.4c-3.9,0.1-7.9,0.2-11.8,0.1
		c-4.4-0.1-8.8-0.4-13.2-1c-5.6-0.7-11.2-1.7-16.7-2.9c-6.3-1.4-12.6-2.8-18.8-4.3c-6.5-1.6-13.1-3.3-19.7-4.6
		c-5.9-1.2-11.9-2.2-18-2.8c-7.2-0.7-14.3-0.5-21.5-0.3c-7.2,0.2-14.4,0.5-21.6,1.3c-4.5,0.5-8.9,1.5-13.1,2.7
		c-5,1.4-9.9,2.8-14.5,4.9c-1.6,0.7-3.1,1.9-5,2.4c0,0,0,0-0.1,0c-0.6-0.1-2-2.1-3.3-4.3c0,0,0-0.1,0-0.1c-0.7-1.2-1.4-2.5-2-3.5
		c-0.2-0.4-0.4-0.8-0.6-1.1c-0.2-0.3-0.6-1-0.9-1.6c-0.1-0.2-0.2-0.3-0.2-0.4c-0.9-1.7-1.7-3.3-2.5-5c-0.2-0.3-1.7-3.8-2.6-5.3
		c0,0-0.1-0.1-0.1-0.1c-0.1-0.1-0.1-0.2-0.2-0.3c-0.7-1.7-0.4-1.9,1.9-1.7c1.6,0.1,5.4,0.7,7.6,0.9c3.2,0.3,6.5,0.3,9.7,0.6
		c3.1,0.3,6.3,0.2,9.5,0.5c5.5,0.5,11,0.8,16.6,1.1c4.1,0.2,8.3,0.7,12.4,0.7c5.3,0,12,0.1,17.3,0.3c1.6,0.1,8.6,0.3,9.2,0.3
		c5.4,0,11.2,0.3,16.6,0.5c4.2,0.1,8.4,0,12.6,0c0.3,0,0.7,0,1.1,0c3,0,9.4-0.1,16-0.3c0,0,0.1,0,0.1,0c3.3-0.1,6.7-0.2,9.7-0.3
		c0.4,0,0.9,0,1.3,0c0.5,0,0.9,0,1.4,0c0.3,0,0.6,0,0.9,0c0.5,0,1.1,0,1.6-0.1c0.2,0,0.3,0,0.5,0c0.5,0,0.9,0,1.4-0.1
		c0.7,0,1.3,0,2-0.1c4.2-0.2,8.4-0.4,12.6-0.5c7.1-0.1,14.1-0.9,21.2-1.1c2.5-0.1,4.9-0.3,7.4-0.5c4.8-0.4,9.6-0.8,14.4-1.2
		c5.2-0.4,10.5-0.9,15.7-1.4c4.5-0.4,8.9-0.9,13.4-0.7h0c0.3,0,5.8-0.2,6.8,1.5C269.6,225.7,269.7,226.1,269.6,226.4z"/>
	<path class="st22" d="M46.4,36.4l6.1,3.3L46.4,43c-1.8,1-3.4,2.5-4.4,4.4l-3.3,10.3l-3.3-10.3c-1-1.8-2.5-3.4-4.4-4.4L25,39.7
		l6.1-3.3c1.8-1,3.4-2.5,4.4-4.4l3.3-10.3L42.1,32C43.1,33.9,44.6,35.4,46.4,36.4z"/>
	<path class="st22" d="M296.1,174.4l4.4,2.4l-4.4,2.4c-1.3,0.7-2.4,1.8-3.1,3.1l-2.4,7.4l-2.4-7.4c-0.7-1.3-1.8-2.4-3.1-3.1
		l-4.4-2.4l4.4-2.4c1.3-0.7,2.4-1.8,3.1-3.1l2.4-7.4l2.4,7.4C293.7,172.6,294.8,173.6,296.1,174.4z"/>
	<path class="st22" d="M103.8,258.9l4,2.2l-4,2.2c-1.2,0.7-2.2,1.7-2.9,2.9l-2.2,6.8l-2.2-6.8c-0.7-1.2-1.7-2.2-2.9-2.9l-4-2.2
		l4-2.2c1.2-0.7,2.2-1.7,2.9-2.9l2.2-6.8l2.2,6.8C101.6,257.2,102.6,258.2,103.8,258.9z"/>
</g>
<g id="Rośliny">
</g>
<g id="Pogrzebowe">
</g>
<g id="Różne">
</g>
<g id="Flower_box">
</g>
<g id="Bukiet">
</g>
<g id="Ślubne">
</g>
<g id="Siedząca_z_kwiatami">
</g>
<g id="zadzwoń">
</g>
<g id="zapłać">
</g>
</svg>
