<?xml version="1.0" encoding="utf-8"?>
<!-- Generator: Adobe Illustrator 26.0.2, SVG Export Plug-In . SVG Version: 6.00 Build 0)  -->
<svg version="1.1" xmlns="http://www.w3.org/2000/svg" xmlns:xlink="http://www.w3.org/1999/xlink" x="0px" y="0px"
	 viewBox="0 0 247.2 325.3" style="enable-background:new 0 0 247.2 325.3;" xml:space="preserve">
<style type="text/css">
	.st0{fill:#EEE8E3;}
	.st1{fill:#F7313B;}
	.st2{fill:#F9ADB5;}
	.st3{fill:#F8A48A;}
	.st4{fill:#FABB95;}
	.st5{fill:#065C51;}
	.st6{fill:#6C90BD;}
	.st7{fill:#7AA5D3;}
	.st8{fill:none;stroke:#136A37;stroke-width:0.6745;stroke-miterlimit:10;}
	.st9{fill:#E62917;}
	.st10{fill:none;stroke:#FFFFFF;stroke-width:0.6745;stroke-miterlimit:10;}
	.st11{fill:none;stroke:#FFFFFF;stroke-width:0.5699;stroke-miterlimit:10;}
	.st12{fill:none;stroke:#FFFFFF;stroke-width:0.6458;stroke-miterlimit:10;}
	.st13{fill:#CF6B4B;}
	.st14{fill:#054C42;}
	.st15{fill-rule:evenodd;clip-rule:evenodd;fill:#E5A1AB;}
	.st16{fill-rule:evenodd;clip-rule:evenodd;fill:#E47F62;}
	.st17{fill-rule:evenodd;clip-rule:evenodd;fill:#065C51;}
	.st18{fill-rule:evenodd;clip-rule:evenodd;fill:#F9ADB5;}
	.st19{fill-rule:evenodd;clip-rule:evenodd;fill:#FFFFFF;}
	.st20{fill-rule:evenodd;clip-rule:evenodd;fill:#6C90BD;}
	.st21{fill-rule:evenodd;clip-rule:evenodd;fill:#7AA5D3;}
	.st22{fill:#FFFFFF;}
	.st23{fill:#FEFEFE;}
	.st24{fill:#C8A38A;}
	.st25{fill:#DBA183;}
	.st26{fill:#D2B8A8;}
	.st27{fill:#E82E41;}
	.st28{fill:#2A372D;}
	.st29{fill:#E5A889;}
	.st30{fill-rule:evenodd;clip-rule:evenodd;fill:#FFC7D2;}
	.st31{fill:#EFA3AE;}
	.st32{fill:#DBA184;}
	.st33{fill:#6A90BD;}
	.st34{fill-rule:evenodd;clip-rule:evenodd;fill:#D6253F;}
	.st35{fill-rule:evenodd;clip-rule:evenodd;fill:#F7313B;}
	.st36{fill-rule:evenodd;clip-rule:evenodd;fill:#DBA184;}
	.st37{fill:#F1E1C9;}
	.st38{fill:#FDFBF9;}
	.st39{fill:#046857;}
	.st40{fill:#074C42;}
	.st41{fill:#8C5A51;}
	.st42{fill:#085C51;}
	.st43{fill:#E57F5D;}
	.st44{fill:#D36B4F;}
	.st45{fill:#1C1C1C;}
	.st46{fill:#E73143;}
	.st47{fill:#F5ABB6;}
	.st48{fill-rule:evenodd;clip-rule:evenodd;fill:#6A90BD;}
	.st49{fill:#D6253F;}
	.st50{fill:#C6A18A;}
	.st51{fill:#29372B;}
	.st52{fill:#012E60;}
	.st53{fill:#78391A;}
	.st54{fill:#F09880;}
	.st55{fill:#1C9697;}
	.st56{fill:#CE2E45;}
	.st57{fill:#ED3550;}
	.st58{fill:#D8013A;}
	.st59{fill:#F3F4F4;}
	.st60{fill:#911C36;}
	.st61{fill:#F42237;}
	.st62{fill:#D8A85D;}
	.st63{fill:#E52033;}
	.st64{fill:#434543;}
	.st65{fill:#E9E9E9;}
	.st66{opacity:0.31;}
	.st67{fill:#C6CAC6;}
	.st68{fill:#FFD2A8;}
	.st69{fill:#E08D77;}
	.st70{fill:#037C65;}
</style>
<g id="bg">
</g>
<g id="GŁOWNE_KOLORY">
</g>
<g id="COLOR_1">
</g>
<g id="COLOR_2">
</g>
<g id="insp">
</g>
<g id="Kosz_kwiatów">
</g>
<g id="Las_w_szkle">
</g>
<g id="Rośliny">
	<path class="st41" d="M118.5,161.8c-76.4,0-85.4,5.2-85.4,5.2c29.6,8.4,58.2,11.9,85.4,6.8c0.6,7.2,86,0.4,85.4-6.8
		C203.9,166.9,194.9,161.8,118.5,161.8z"/>
	<path class="st40" d="M55,173c0,0-19-19.9-19.7-39c-1.1-27.3,4.1-16.6,8.1-12.6c8.6,8.8,18.4,13.8,20.2,15.4
		c9.5,8.8,28.6,33.5,45.1,40.1s1.4,24.7,1.4,24.7L55,173z"/>
	<path class="st40" d="M82.6,107.8c0,0-10-23.4-8.8-38.8c1.2-15.4,0.9-13.5,0.9-13.5s2.2-13.4,10.8-1.2s6.3,16.1,8.6,19.9
		c2.3,3.8,7.5,9.8,8.9,13.2c1.5,3.4,4.7,18.4,4.5,21.8c-0.1,3.4,33.8,85,33.2,88.6s-32,15.4-32,15.4L82.6,107.8z"/>
	<path class="st42" d="M93.9,83.2c0,0,3.1-21.2,3.7-22.9s4.7-13.6,10.6,0c5.9,13.6,9.3,31.2,9.3,34.5c0,3.4,2,99.3,2,99.3l-21.3,2.3
		L93.9,83.2z"/>
	<path class="st42" d="M70,211.7c0,0,47.6-127.4,49.3-133.6c1.7-6.2,7.2-20.2,7.8-22.8s2.3-13.1,6.9-1.5s6.9,24.7,12,30.8
		c5.1,6,7.6,25,3.8,29.2c-3.7,4.2-28.2,76.5-31.4,72.9S70,211.7,70,211.7z"/>
	<path class="st42" d="M138.6,126.2c0,0,22.7-28.1,26-37.7c3.4-9.7,7.4-15.6,7.9-19c0.5-3.4,2.1-5.8,4.2-0.6s4.9,16.3,2.2,24.4
		c-2.7,8.1-3.5,18-13.6,30.4c-3.9,4.8-37.3,63.9-52.7,77.8c-24.4,22.1-33.3,0.8-33.3,0.8L138.6,126.2z"/>
	<path class="st40" d="M140.8,174.1c0,0,34.2-35.7,40-42c4.1-4.4,8.9-7.5,8.9-7.5s9.2-8.7,5.9,1.5c-3.4,10.2-9.2,24.9-14.4,31.9
		c-5.1,7-16,28.3-20.2,28.7C156.7,187.1,140.8,174.1,140.8,174.1z"/>
	<path class="st40" d="M67,196.4c0,0,61.6-84.6,69.1-93.4s12.7-15.7,14.1-27.7c1.4-12,1.6-26.3,1.4-27.9c-0.2-1.6,5.6-19.2,11-2.3
		c5.2,16.5,7.3,33.4,7.2,34.8c-0.1,1.4-2.8,34.4-4.7,40s-63.8,75.6-63.8,75.6L67,196.4z"/>
	<path class="st42" d="M57.4,71.6c0,0-14.8-37-15.7,2.6c-0.5,21.3,12.4,42.1,24.4,56.8c10.3,12.7,17,43.9,17,43.9l-19.2,16.7
		l70.7,4.8c0,0-8-64.4-35.9-84.1S69,96.3,57.4,71.6"/>
	<path class="st42" d="M93.9,171.1c0,0,75.3-49.5,82.9-61.1c7.7-11.6,6.3-9.4,6.3-9.4s5.7-9.9,4.5,0.2s-4.7,32.9-24,55.8
		s-24.3,32.6-24.3,32.6L93.9,171.1z"/>
	<path class="st43" d="M203.9,166.9c-0.9,26.9-8.7,47.4-13.5,66c-12.1,46.8-38.2,66.6-71.9,66c-33.7,0.7-59.8-19.1-71.9-66
		c-4.8-18.6-12.6-39.1-13.5-66C88.5,176.2,145.5,175.7,203.9,166.9z"/>
	<path class="st22" d="M41.4,40.9l6.1,3.3l-6.1,3.3c-1.8,1-3.4,2.5-4.4,4.4l-3.3,10.3l-3.3-10.3c-1-1.8-2.5-3.4-4.4-4.4l-6.1-3.3
		l6.1-3.3c1.8-1,3.4-2.5,4.4-4.4l3.3-10.3L37,36.5C38,38.4,39.5,39.9,41.4,40.9z"/>
	<path class="st22" d="M222.9,200.3l4.4,2.4l-4.4,2.4c-1.3,0.7-2.4,1.8-3.1,3.1l-2.4,7.4l-2.4-7.4c-0.7-1.3-1.8-2.4-3.1-3.1
		l-4.4-2.4l4.4-2.4c1.3-0.7,2.4-1.8,3.1-3.1l2.4-7.4l2.4,7.4C220.5,198.4,221.6,199.5,222.9,200.3z"/>
	<path class="st22" d="M80.7,285.1l4,2.2l-4,2.2c-1.2,0.7-2.2,1.7-2.9,2.9l-2.2,6.8l-2.2-6.8c-0.7-1.2-1.7-2.2-2.9-2.9l-4-2.2l4-2.2
		c1.2-0.7,2.2-1.7,2.9-2.9l2.2-6.8l2.2,6.8C78.5,283.4,79.5,284.4,80.7,285.1z"/>
	<polygon class="st44" points="36.2,193.3 200.8,193.3 197.7,206.7 37.7,200 	"/>
	<polygon class="st44" points="40.7,211.7 195,216.5 192.4,225.7 42.6,218.7 	"/>
	<polygon class="st44" points="45.2,227.5 190.4,232.9 187.8,242 47.5,236.1 	"/>
</g>
<g id="Pogrzebowe">
</g>
<g id="Różne">
</g>
<g id="Flower_box">
</g>
<g id="Bukiet">
</g>
<g id="Ślubne">
</g>
<g id="Siedząca_z_kwiatami">
</g>
<g id="zadzwoń">
</g>
<g id="zapłać">
</g>
</svg>
