<?xml version="1.0" encoding="utf-8"?>
<!-- Generator: Adobe Illustrator 26.0.2, SVG Export Plug-In . SVG Version: 6.00 Build 0)  -->
<svg version="1.1" id="Layer_1" xmlns="http://www.w3.org/2000/svg" xmlns:xlink="http://www.w3.org/1999/xlink" x="0px" y="0px"
	 viewBox="0 0 354.4 319.2" style="enable-background:new 0 0 354.4 319.2;" xml:space="preserve">
<style type="text/css">
	.st0{fill:#065C51;}
	.st1{fill:#434543;}
	.st2{fill:#F7313B;}
	.st3{fill:#D6253F;}
	.st4{fill:#E9E9E9;}
	.st5{opacity:0.31;}
	.st6{fill:#C6CAC6;}
	.st7{fill:#FFFFFF;}
</style>
<g id="bg">
</g>
<g id="GŁOWNE_KOLORY">
</g>
<g id="COLOR_1">
</g>
<g id="COLOR_2">
</g>
<g id="insp">
</g>
<g id="Kosz_kwiatów">
</g>
<g id="Las_w_szkle">
</g>
<g id="Rośliny">
</g>
<g id="Pogrzebowe">
</g>
<g id="Różne">
</g>
<g id="Flower_box">
</g>
<g id="Bukiet">
</g>
<g id="Ślubne">
</g>
<g id="Siedząca_z_kwiatami">
</g>
<g id="zadzwoń">
	<g>
		<g id="asparagus_00000047739083282718739300000006495803391943845551_">
			<path class="st0" d="M117.1,284.5c2.9,0.3,9.4-2.8,12.6-1.8c3.2,1,7.4,2.7,10.4,3.4c6.4,1.5,8.2,1.4,13.9,2.3
				c7.6,1.3,13.5-1.8,22.8-6.5c9.3-4.7,8.6,17.8,12.8,24.9c0.6,1.1,3.1,0,2.9-1.5c-0.6-5.1-4.2-11.4-5.3-16
				c-3.9-19.7,8.9-20.9,17.3-28.1c3.8-3.1,6.5-7.6,7.1-13.6c0.6-6.3-1.3-14.3-6.9-24.7c-0.2-0.3-0.9-0.4-1.1-0.1
				c-1.7,1.8-1.8,3.8-1,5.3c7.3,14.3-2.4,16.1-10.6,21.8c-6,4.2-10.4,11.5-11.1,20.7c-2.7-5.2-5.4-9-6.3-14.4c-0.3-1.9-2-6.8-1-9.3
				c1.5-3.9,6.3-5.3,7.6-8.2c1.9-3.9,4.2-7.5,6.3-10.4c2.7-4.1,5.5-10.2,5.5-14.9c0-10.8-6.8-20.9-6.5-29.6c0-0.6-0.6-0.9-0.8-0.4
				c-3,5.8,1.3,15-1.9,20.6c-5.8,10.5-0.4,17.8-4.7,20.4c-7.4,4.4-9.8,10.7-11.3,20.3c-6.9-15.5-5.6-23.4-4.3-35.8
				c0.4-3.6,6.3-10,7.6-16.7c1.8-9-1.7-19.2-9.6-29c-1.8-3.3-3-6.7-4-10.2c-0.7-3.2-1.1-6.6-0.8-10.1c0-0.4-0.6-0.3-0.8,0.1
				c-4.6,6.4-4,16.4-1.3,25.4c0.9,3.2,5.3,6.6,5.5,9.3c0.6,8.1-5.5,13.5-7.7,21.2c-2.2,7.6-0.4,17.1,1.8,25.3
				c-14-8.6-8.8-22.9-8.9-36.2c-0.1-6.6-4.6-12.1-7.2-18.1c-2-4.2-1.7-10.2-3.9-14c-2.3-4-6.8-5.8-7.6-10.7c0-0.3-0.5,0.2-0.6,0.6
				c-2.8,8.8,3.3,15.3,7.1,22.5c1.9,5.2-2.7,9.8-3.3,15.2c-0.6,5.8,2.6,12.5,5.3,18.1c0.5,1.1,1.7,4.2-0.7,2.8
				c-15-12.1-11.6-22.4-13.5-34c-0.8-4.9-1.5-12.3-5.4-17.7c-2-2.7-6.7-3.6-10.5-6.5c-2.9-2.2-5.1-6.9-6.5-6.5
				c-3.1,0.9,4.6,15.3,7,22.1c2.8,7.7,8,15,10.1,25.4c-23.1-16-8.5-29.6-36.2-55.3c-1,7.3,6.8,10.2,9,16.4
				c2.4,7.5,3.6,14.6,6.4,22.1c-4.4-3.8-7.6-8-10.8-12.6c-2.5-3.5-6.6-15.9-9.7-19.7c-3.1-4-12.7-12.4-8.2-4.1
				c5,3.6,7.6,20.1,11.5,24.5c1.4,1.6-3.8-1.3-10.9-5.3c-5.9-3.3-10.3-11.9-16.7-15.5c-8.8-5-18.3-4.3-16.9-2.5
				c-1.4-0.4,6.8,3,11.5,7.6c1.9,1.9-2.1,4.3,0.9,6.4c5.5,3.8,18.4,5.3,24.2,8c2.3,1,10.9,6.4,9.8,6.1c-3.4-0.6-10.8-1.5-11.6-1.6
				c-9.3-1.3-16.5,6.5-25.7,4.2c-7.3-0.1,0.4,3.9,3.6,4.2c6.6,0.6,19.4-4.4,25.3-1.6c8.8,5.8,19.9,3.3,27.9,9.8
				c0.5,0.6-4.4-0.7-5.1-0.8c-4.2-0.5-11.8,1.3-12.5,1.1c-9.4-0.5-10.9,5-20.4,2.5c-6-1.7-16.4-5.2-20.9-0.5
				c15.1,5.1,25.8,9.1,34.2,8.2c18.1-1.9,25-13.8,41.7,3.4c-5.4-0.5-13.4,0.4-18,2.8c-6.3,3.2-9,8.2-16.1,6.1
				c-24.2-4.5-8.6,2.7,5.2,5.3c7.5,0.2,14.6,0.9,20-1.1c5.3-2.1,7.2-7.6,11.8-7.8c5-0.2,12.6,5.3,19,14.7c-10.4-3-21.3-1.9-29.4,5.5
				c-5.4,3.3-13.3,2.7-20.6,3c-6.6,0.3-12.7,1.5-15.9,7.1c-0.3,0.5,0.1,1.4,0.5,1.3c9.6-2.5,14.5-4.1,25.8-1.1
				c7.7-0.2,16.8,0.2,24-2.9c12.4-5.4,22.4-13.2,33,5.8c-10.6-4.9-20.9-2.5-29.5,2.1c-4.3,2.4-6.3,8.6-11.4,7.8
				c-3.9-0.3-8.3,0.6-12.3,2.4c-3.3,1.6-6.3,3.9-7.6,6.8c-0.3,0.6,0.3,1.8,0.8,1.7c5-0.3,11-3.8,16.5-4.1
				c11.8,2.1,21.2-4.2,29.4-8.8c10.9-5.9,19.8-8.6,29.1,16.3c-6.6-2.9-12.1-6.4-16.9-5.3c-4.9,1-9.1,6.5-12.9,5.5
				c-3-0.7-16.3,0.5-23.9,2.9c-11.1,3.6-16.3,9.1-8.5,9.1c7.5-4,12.1-0.8,19.8-0.5c2.6,0.1,6.4-2.9,9.8-3.6s6.5,0.8,8.9-0.3
				c18-7.9,27.2-9.4,33.8,13.6c-6.5-3.9-8.9-7.3-15.3-5.9c-2.8,0.6-9.7,4.7-12.4,5.7c-8.3,1.5-23.1,1.8-25,2.1
				C124.8,279,114.3,284.3,117.1,284.5z M96.8,174.4L96.8,174.4L96.8,174.4L96.8,174.4z M180.8,230.2L180.8,230.2
				C180.8,230.2,180.9,230.2,180.8,230.2L180.8,230.2z"/>
		</g>
		<g id="asparagus_00000137832625392399509130000014241339341444500366_">
			<path class="st0" d="M259.8,184.2c-1.9-0.1-16.7,1.8-25.1,1.6c-2.9-0.6-10.3-3.8-13.1-4c-6.5-0.5-8.4,3.3-14.3,8
				c3.2-23.9,12.5-23.7,31.5-18.3c2.6,0.7,5.3-1.3,8.9-1c3.4,0.2,7.6,2.7,10.1,2.2c7.6-1.6,11.7-5.2,19.7-2.4c7.6-1,1.9-5.7-9.7-7.7
				c-7.8-1.4-21-0.7-24.1,0.5c-3.6,1.6-8.8-3.2-13.5-3.6c-5-0.4-9.9,3.6-15.9,7.6c5.6-26,14.7-24.6,26.5-20.3
				c8.9,3.2,19.1,8.2,30.3,4.5c5.3-0.5,11.9,2.1,16.9,1.7c0.5,0,0.9-1.3,0.6-1.8c-1.9-2.7-5.1-4.6-8.6-5.6
				c-4.2-1.3-8.9-1.5-12.5-0.6c-5.1,1.6-7.7-4.4-12.4-6.1c-9-3.3-19.7-4.2-29.5,2.1c7.8-20.4,18.8-14.1,31.9-10.5
				c7.5,2,16.4,0.4,24.1-0.5c10.8-4.5,15.9-3.5,25.7-2.5c0.4,0,0.6-0.8,0.3-1.4c-4-5.2-10.1-5.3-16.8-4.8
				c-7.2,0.6-14.9,2.4-20.7-0.1c-9.2-6.3-20-5.7-29.9-1.3c5-10.2,11.7-16.9,16.7-17.3c4.5-0.5,7.3,4.8,12.7,6.1
				c5.7,1.4,12.6-0.5,20-1.8c13.3-4.7,27.6-14,4.3-6c-6.9,3.1-10.2-1.5-17-3.8c-4.9-1.8-12.9-1.5-18.2-0.2
				c14.1-19.4,22.5-8.6,40.7-9.4c8.3-0.4,18.4-5.8,32.6-13c-5.3-4-14.9,1-20.6,3.5c-9,3.9-11.3-1.4-20.5,0.5
				c-0.7,0.2-8.6-0.5-12.5,0.6c-0.6,0.2-5.3,2.3-4.9,1.7c7-7.5,18.4-6.7,26.3-13.6c5.5-3.8,19-0.6,25.3-2.1
				c3.1-0.7,10.2-5.6,2.9-4.6c-8.9,3.8-17.1-2.9-26-0.4c-0.6,0.2-7.9,2.1-11.1,3.1c-1.1,0.4,6.7-6,8.9-7.5
				c5.3-3.4,17.7-6.9,22.8-11.4c2.7-2.5-1.7-4.2,0-6.5c4.1-5.3,11.6-9.8,10.2-9.2c1.3-2-8.4-1.3-16.4,4.9
				c-5.7,4.4-8.9,13.5-14.3,17.7c-6.5,5.1-11.1,8.5-10,6.8c3.3-5,3.5-21.6,7.9-25.8c3.2-9-5,0.8-7.6,5.2c-2.5,4.2-4.8,17.1-6.7,20.8
				c-2.6,5.1-5.2,9.8-8.9,14.1c1.7-7.8,1.8-15,3.1-22.8c1.4-6.5,8.8-10.4,6.6-17.4c-23.8,29.5-7.4,40.6-27.9,59.9
				c0.6-10.6,4.8-18.5,6.5-26.6c1.5-7,7-22.3,3.8-22.9c-1.5-0.2-2.9,4.7-5.4,7.4c-3.3,3.4-7.8,5-9.5,7.9c-3.2,5.9-2.7,13.3-2.9,18.2
				c-0.4,11.7,4.6,21.6-8.6,35.6c-2.2,1.8-1.6-1.5-1.1-2.6c1.9-5.9,4.2-12.9,2.7-18.7c-1.5-5.3-6.7-9.1-5.4-14.6
				c2.6-7.6,7.7-15.1,3.8-23.2c-0.2-0.5-0.7-0.8-0.7-0.6c-0.2,5.1-4.3,7.5-6,11.8c-1.7,4.1-0.4,10-1.8,14.4
				c-1.8,6.5-5.4,12.4-4.6,19c1.8,13.1,8.9,26.5-3.6,37.1c0.9-8.3,1.4-18.1-1.9-25.2c-3.2-7.2-10.2-11.7-10.7-19.8
				c-0.1-2.7,3.6-6.6,4.2-10c1.5-9.4,0.6-19.4-4.8-25c-0.4-0.4-0.9-0.4-0.8,0c0.8,3.5,0.9,6.9,0.6,10.1c-0.4,3.6-1.3,7.2-2.5,10.7
				c-6.5,10.9-8.4,21.5-5.3,30c2.3,6.5,8.9,11.9,9.9,15.4c3,12,5.4,19.7,0.7,35.9c-2.9-9.3-6.1-15.2-14.1-18.4
				c-4.6-1.9-0.2-10-7.6-19.5c-4-5.2-0.9-14.9-4.8-20.2c-0.4-0.5-0.8-0.1-0.7,0.5c1.6,8.4-3.8,19.5-2.3,30.2
				c0.6,4.6,4.4,10.3,7.6,14c2.5,2.7,5.2,5.9,7.6,9.5c1.9,2.7,6.8,3.5,8.9,7.1c1.3,2.3,0.3,7.4,0.3,9.4c-0.1,5.4-2.3,9.6-4.2,15
				c-1.9-9.1-7.4-15.8-13.9-19.1c-9-4.4-18.9-5-13.5-20.1c0.5-1.8,0.1-3.6-1.8-5.2c-0.2-0.2-0.9,0-1,0.3c-4.2,11-4.7,19.3-3.3,25.3
				c1.5,6,4.9,10,9,12.5c9.4,5.8,22.2,5.3,21.2,25.3c-0.6,4.8-3.2,11.5-3,16.7c0.1,1.5,2.7,2.3,3.1,1c3.1-7.6-0.7-29.9,9.1-26.5
				c9.9,3.4,16.1,5.4,23.4,3.2c5.4-1.8,7.4-1.9,13.4-4.2c2.9-1.1,6.8-3.4,9.8-4.9c3-1.5,10,0.6,12.7,0
				C272.8,187.9,261.6,184.3,259.8,184.2z M274.4,76.8L274.4,76.8L274.4,76.8L274.4,76.8z M199.1,143.9L199.1,143.9L199.1,143.9
				L199.1,143.9z"/>
		</g>
		<polygon class="st1" points="140.1,123 137.6,138.8 219.7,138.8 217.4,123 203,121.7 201.4,131.9 157.8,132 156.2,122 		"/>
		<path class="st2" d="M218.6,138.4l-33.7-1.6c-4.2,0-8.3,0-12.4,0l-33.7,1.6c-2.6,0.1-4.8,1.8-5.8,4.1c-5.3,12.8-23.2,54.5-38,71.3
			c-2,2.3-2.1,5.6-0.3,8.1l18.2,25.3c1.3,1.8,3.2,2.8,5.3,2.8h60.3h60.3c2.1,0,4.2-1,5.3-2.8l18.2-25.3c1.8-2.5,1.8-5.8-0.3-8.1
			c-14.7-16.8-32.6-58.2-38-71.3C223.4,140.1,221.2,138.5,218.6,138.4z"/>
		<path class="st2" d="M81.1,112.9c-0.5,0.4-0.9,0.7-1.5,1.1C80.1,113.7,80.5,113.3,81.1,112.9z"/>
		<path class="st2" d="M276.2,112.9c0.5,0.4,0.9,0.7,1.5,1.1C277.1,113.7,276.7,113.3,276.2,112.9z"/>
		<g>
			<path class="st2" d="M259.9,58.9c0.5,0.3,0.9,0.5,1.4,0.7C260.9,59.5,260.3,59.2,259.9,58.9z"/>
			<path class="st2" d="M65.7,102.5c-0.3,0.4-0.6,0.8-0.8,1.3l0,0C65,103.4,65.3,103,65.7,102.5z"/>
			<path class="st2" d="M282.8,100.8c-0.3,0.4-0.5,0.7-0.8,1c-0.2,0.2-0.4,0.4-0.6,0.6c-0.2,0.2-0.4,0.4-0.6,0.5l-0.1,0.1
				c-0.2,0.1-0.3,0.3-0.5,0.4c-0.5,0.4-0.9,0.6-1.5,0.9c-0.2,0.1-0.5,0.3-0.6,0.4c-0.1,0.1-0.5,0.2-0.7,0.3
				c-0.2,0.1-0.5,0.2-0.7,0.3h-0.1c-0.2,0.1-0.5,0.2-0.7,0.2c-13.9,3.5-37.7,9.2-44,8.8c-0.4,0-0.7-0.1-0.9-0.2
				c-0.2-0.1-0.4-0.1-0.6-0.2l0,0c-0.2-0.1-0.4-0.2-0.5-0.3l0,0c-0.2-0.1-0.4-0.2-0.5-0.4c-0.6-0.5-1.4-1.1-2-2
				c-0.3-0.4-0.6-0.8-0.9-1.4c-0.2-0.2-0.3-0.5-0.5-0.7c-0.3-0.5-0.6-1-0.8-1.7c-0.1-0.2-0.1-0.3-0.2-0.4c-0.1-0.3-0.2-0.5-0.4-0.7
				c-0.2-0.5-0.5-0.9-0.6-1.6c-0.1-0.3-0.3-0.6-0.4-0.9c-0.7-1.9-1.4-4.1-1.9-6.1c-0.1-0.4-0.2-0.6-0.3-1c-0.9-4.4-1.4-8.9-0.9-12.4
				c0.4-3.2-28.4,0.6-54.8,6.5c-26.5,5.7-54.2,14.3-52.5,17.1c0.8,1.4,1.7,2.9,2.2,4.6c0.2,0.4,0.3,0.8,0.5,1.4
				c0.1,0.2,0.2,0.5,0.2,0.6c0.1,0.4,0.3,0.7,0.4,1.3c0,0.1,0.1,0.2,0.1,0.4c0.1,0.4,0.2,0.7,0.3,1.3c0.3,1.1,0.6,2.3,0.7,3.5
				c0,0.1,0,0.2,0.1,0.3c1.5,7.6,1.1,15.6-1.8,18.2c-3.2,2.9-29.4,8.2-44.4,11c-0.9,0.2-1.9,0.2-2.9,0.2c-0.4,0-0.8-0.1-1.3-0.1H67
				c-0.4-0.1-0.7-0.1-1-0.2h-0.1c-0.4-0.1-0.6-0.2-1-0.4h-0.1c-4.3-1.8-7.6-5.8-7.6-10.9c-0.3-10.4,0.8-24.7,7.6-35
				c35.5-33.2,93.8-45,93.8-45s57.9-13.8,104.1,1.7c-0.5-0.3-0.8-0.6-1.4-0.8c11.1,6.4,18.4,19.5,22.8,29.5
				C285.9,93.2,285.1,97.4,282.8,100.8C283,100.8,283,100.8,282.8,100.8z"/>
			<path class="st2" d="M65.7,102.5c0.3-0.4,0.6-0.8,0.9-1.3C66.2,101.7,66,102.1,65.7,102.5z"/>
			<path class="st2" d="M68.6,150.6c0.9,0.1,1.9,0,2.9-0.2C70.6,150.6,69.6,150.6,68.6,150.6z"/>
			<path class="st2" d="M225.1,107.7c0.3,0.6,0.6,1.1,0.8,1.7C225.8,108.7,225.4,108.2,225.1,107.7z"/>
			<path class="st2" d="M226.5,109.9c0.3,0.5,0.6,0.9,0.9,1.4C227.2,110.9,226.8,110.4,226.5,109.9z"/>
			<path class="st2" d="M229.5,113.3c-0.6-0.5-1.4-1.1-2-2C228.1,112.1,228.8,112.8,229.5,113.3z"/>
			<path class="st2" d="M231,114.1c0.3,0.1,0.6,0.1,0.9,0.2C231.6,114.3,231.3,114.2,231,114.1c-0.2-0.1-0.4-0.1-0.6-0.2
				C230.8,114,230.9,114.1,231,114.1z"/>
			<path class="st2" d="M117.7,120.8c-0.2-1.1-0.5-2.4-0.7-3.5C117.2,118.5,117.5,119.6,117.7,120.8z"/>
			<path class="st2" d="M117.8,121.1c0.5,2.4,0.7,4.8,0.7,7.1C118.4,125.9,118.1,123.5,117.8,121.1z"/>
			<path class="st2" d="M115.9,139.4L115.9,139.4c2-1.9,2.8-6.3,2.6-11.1C118.7,133.2,117.9,137.5,115.9,139.4z"/>
		</g>
		<path class="st3" d="M178.7,223.8c-30.6,0-59.5-2.9-84.9-8.1c-0.6,2-0.4,4.2,0.8,6l18.2,25.3c1.3,1.8,3.2,2.8,5.3,2.8h60.3h60.3
			c2.1,0,4.2-1,5.3-2.8l18.2-25.3c1.3-1.8,1.6-4.1,0.8-6C238.2,220.9,209.3,223.8,178.7,223.8z"/>
		<path class="st3" d="M107.4,239.5l5.4,7.6c1.3,1.8,3.2,2.8,5.3,2.8h120.7c2.1,0,4.2-1,5.3-2.8l5.4-7.6H107.4z"/>
		<ellipse class="st4" cx="178.7" cy="178" rx="35.9" ry="32.4"/>
		<path class="st2" d="M194.4,178c0,7.8-7.1,14.3-15.8,14.3c-8.8,0-15.8-6.5-15.8-14.3s7.1-14.3,15.8-14.3
			C187.3,163.7,194.4,170.2,194.4,178z"/>
		<g>
			<g>
				<path class="st1" d="M207.1,165.4c0,2.9-2.6,5.3-5.8,5.3c-3.2,0-5.7-2.3-5.7-5.3c0-2.9,2.6-5.3,5.7-5.3
					C204.4,160.1,207.1,162.5,207.1,165.4z"/>
			</g>
		</g>
		<g>
			<g>
				<path class="st1" d="M195.5,155.4c0,2.9-2.6,5.3-5.7,5.3c-3.1,0-5.8-2.3-5.8-5.3c0-2.9,2.6-5.3,5.8-5.3
					C192.9,150.2,195.5,152.5,195.5,155.4z"/>
			</g>
		</g>
		<g>
			<g>
				<path class="st1" d="M179.6,153.8c0,2.9-2.6,5.3-5.7,5.3c-3.1,0-5.8-2.3-5.8-5.3c0-2.9,2.6-5.3,5.8-5.3
					C177,148.5,179.6,150.9,179.6,153.8z"/>
			</g>
		</g>
		<g>
			<g>
				<path class="st1" d="M164.9,160.1c0,2.9-2.6,5.3-5.7,5.3s-5.8-2.3-5.8-5.3c0-2.9,2.6-5.3,5.8-5.3S164.9,157.2,164.9,160.1z"/>
			</g>
		</g>
		<g>
			<g>
				<path class="st1" d="M157.7,172.9c0,2.9-2.6,5.3-5.7,5.3c-3.1,0-5.8-2.3-5.8-5.3c0-2.9,2.6-5.3,5.8-5.3
					C155.2,167.6,157.7,170.1,157.7,172.9z"/>
			</g>
		</g>
		<g>
			<g>
				<path class="st1" d="M158.9,186.9c0,2.9-2.6,5.3-5.8,5.3c-3.1,0-5.7-2.3-5.7-5.3c0-2.9,2.6-5.3,5.7-5.3
					C156.3,181.7,158.9,184.1,158.9,186.9z"/>
			</g>
		</g>
		<g>
			<g>
				<path class="st1" d="M169,197.9c0,2.9-2.6,5.3-5.7,5.3c-3.1,0-5.7-2.3-5.7-5.3c0-2.9,2.6-5.3,5.7-5.3
					C166.4,192.6,169,195,169,197.9z"/>
			</g>
		</g>
		<g>
			<g>
				<path class="st1" d="M182.7,203.2c0,2.9-2.6,5.3-5.7,5.3c-3.1,0-5.7-2.3-5.7-5.3c0-2.9,2.6-5.3,5.7-5.3
					C180.2,197.9,182.7,200.3,182.7,203.2z"/>
			</g>
		</g>
		<g>
			<g>
				<path class="st1" d="M197.3,199.5c0,2.9-2.6,5.3-5.7,5.3c-3.1,0-5.8-2.3-5.8-5.3c0-2.9,2.6-5.3,5.8-5.3
					C194.8,194.2,197.3,196.6,197.3,199.5z"/>
			</g>
		</g>
		<g>
			<g>
				<path class="st1" d="M208.9,189.5c0,2.9-2.6,5.3-5.8,5.3c-3.2,0-5.7-2.3-5.7-5.3s2.6-5.3,5.7-5.3
					C206.2,184.3,208.9,186.7,208.9,189.5z"/>
			</g>
		</g>
		<path class="st1" d="M204.1,179.9l9.4,6.1c0.7-2.6,1.1-5.3,1.1-8c0-0.5-0.1-1-0.1-1.6l-9.9-0.4L204.1,179.9z"/>
		<g class="st5">
			<g>
				<g>
					<path class="st6" d="M42.9,194c0,0-20.9-15.9-13.5-44.4C29.4,149.6,5.5,179.1,42.9,194z"/>
					<path class="st6" d="M58.8,195.4c0,0-22.8-20.4-15.5-54.7C43.2,140.8,18.9,175.4,58.8,195.4z"/>
				</g>
			</g>
			<g>
				<g>
					<path class="st6" d="M299.6,194c0,0,20.9-15.9,13.5-44.4C313.2,149.6,336.9,179.1,299.6,194z"/>
					<path class="st6" d="M283.8,195.4c0,0,22.8-20.4,15.5-54.7C299.2,140.8,323.5,175.4,283.8,195.4z"/>
				</g>
			</g>
		</g>
		<path class="st7" d="M115.5,42.8l6.5,3.5l-6.5,3.5c-1.9,1-3.5,2.7-4.6,4.6l-3.5,10.9l-3.5-10.9c-1-1.9-2.7-3.5-4.6-4.6l-6.5-3.5
			l6.5-3.5c1.9-1,3.5-2.7,4.6-4.6l3.5-10.9l3.5,10.9C112,40.1,113.6,41.8,115.5,42.8z"/>
		<path class="st7" d="M267.1,158.1l4.6,2.5l-4.6,2.5c-1.5,0.7-2.6,1.9-3.3,3.3l-2.5,7.8l-2.5-7.8c-0.7-1.5-1.9-2.6-3.3-3.3
			l-4.6-2.5l4.6-2.5c1.5-0.7,2.6-1.9,3.3-3.3l2.5-7.8l2.5,7.8C264.6,156.1,265.8,157.2,267.1,158.1z"/>
		<path class="st7" d="M98.2,272.6l4.2,2.3l-4.2,2.3c-1.3,0.6-2.3,1.8-3,3l-2.3,7.2l-2.3-7.2c-0.6-1.3-1.8-2.3-3-3l-4.2-2.3l4.2-2.3
			c1.3-0.6,2.3-1.8,3-3l2.3-7.2l2.3,7.2C95.9,270.8,97,271.9,98.2,272.6z"/>
	</g>
</g>
<g id="zapłać">
</g>
</svg>
