<?xml version="1.0" encoding="utf-8"?>
<!-- Generator: Adobe Illustrator 26.0.3, SVG Export Plug-In . SVG Version: 6.00 Build 0)  -->
<svg version="1.1" id="Layer_1" xmlns="http://www.w3.org/2000/svg" xmlns:xlink="http://www.w3.org/1999/xlink" x="0px" y="0px"
	 viewBox="0 0 340.5 422.2" style="enable-background:new 0 0 340.5 422.2;" xml:space="preserve">
<style type="text/css">
	.st0{fill:#FFFFFF;}
	.st1{fill:#F8A48A;}
	.st2{fill:#FABB95;}
	.st3{fill:#F5ABB6;}
	.st4{fill:#F7313B;}
	.st5{fill:#065C51;}
	.st6{fill:#6A90BD;}
</style>
<g>
	<path class="st0" d="M209.3,218.5c6.3,5.7,12.6,11.4,18.9,17.2c6.4,5.8,12.5,11.7,18.6,17.7c10.8,10.7,21,21.9,30.1,34.2
		c6.3,8.6,12.1,17.5,17.2,26.9c3.3,6,6.2,12.2,9.1,18.5c1.1,2.5,2.1,5.2,3.2,7.7c0.3,0.7-1.1,2.6-1.6,2.7
		c-61,20.4-119.9,40-180.9,60.3c-0.4,0.1-2.8-0.6-2.9-1.2c-0.9-3.4-1.8-6.8-2.5-10.3c-1.1-5-2.1-10.1-2.9-15.2
		c-0.8-5-1.5-10-1.9-15.1c-0.7-7.7-1-15.4-0.9-23.1c0.1-12.6,1.2-25.2,3-37.7c1.9-13.5,4.2-26.9,6.9-40.2c0.7-4,1.5-8,2.2-12
		c1.1-4.4,2.3-8.8,3.3-13.3c0.6-2.5,1.3-4.9,1.1-7.6c0.5-0.7,0.5-1.5,0.5-2.2c0.2-3,0.3-5.9,0.2-8.9c-0.2-8.6-2.9-16.9-7.4-24.1
		c-2.5-3.9-5-7.7-7.5-11.5c-0.7-1-1.2-2.2-2.2-3c-0.2-0.5-0.4-1-0.7-1.5c-3.2-4.8-6.4-9.5-9.9-14.1c-1.5-1.9-3.1-3.9-5.1-5.4
		c-4.4-3.3-9.3-3.3-14.4-2c-0.4-0.1-0.7-0.4-0.9-0.8c-2.2-5.8-2.9-11.5-0.3-17.3c2.2-4.7,5.8-8,10.2-10.6c2.2-1.4,4.7-2.3,7.2-2.9
		c1.3,4.3,3.2,8.3,5.4,12.1c5.2,9,11.6,17.4,18.2,25.4c9.9,12,26.1,42.5,36.5,54.2c0.9,1,1.8,2.2,3.2,1.8c1.4-0.5,1.4-2.1,1.5-3.3
		c0.7-6.4-2.7-70.8-3.3-87.3c-0.3-7.5-1.2-14.9-3.7-22.1c5.6-2.2,11.4-2.8,17.2-1.5s10.1,4.9,12.8,10.3c1,2.1,2,4.2,2.2,6.5
		c-3.8,1.3-7.1,3.5-9.3,6.9c-3.9,6-6.1,12.7-5.9,19.8c0.1,8.4,0.6,16.8,1.2,25.2c0.6,9.5,4.4,18.7,10.8,25.8
		C195.4,208.3,208.7,217.9,209.3,218.5z"/>
</g>
<path class="st1" d="M158.1,108.4c2.9,8.8,4.5,17.9,5.3,27c1.8,20,1.7,39.8,1.8,59.7c0,7.7,0.3,15.5,0,23.2c0,1.6,0.1,3.5-1.3,4
	c-1.4,0.5-2.4-1.1-3.4-2.4C149.1,205,138,189.9,127,174.7c-7.3-10.2-14.4-20.7-20.4-32c-2.6-4.8-4.7-9.8-6.4-15
	c3.7-1.5,7-3.4,9.9-6.4c2.8-2.9,3.5-6.9,3.3-11.4c-0.1-3.1-0.8-6-1.6-9c1.7,0.7,3.3,1.5,5.1,1.7c6.9,0.7,12.1-2,15.6-8.7
	c1.3,3.1,2.7,6.1,4.7,8.8c3.4,4.8,7.6,6.9,12.5,6.8C152.5,109.5,155.3,109.1,158.1,108.4z"/>
<path class="st2" d="M160.7,178.4c-2.1,10.4-7.2,13.8-14.8,11.1c-1.9-0.7-3.9-2.4-5.8-4c-5.3-5.6-8.3-13.2-10.2-22.3
	c-2.6-12.7-4.5-15.9-11.6-20.2c-7.7-4.7-14.7-12.7-20.4-26.2c-4.2-9.8-7.4-19.8-6.8-29c0.3-4.4-0.6-8.2-2.4-12.9
	c-4.3-11.5-5-21.7-2-27.6c1.1-2.1,2.6-3.3,4.4-3.7c1.1-0.3,1.7-1.2,1.8-3.3c1.5-22.9,21.8-22.5,36.5,4.7c2,3.8,3.7,7.9,4.7,12.3
	c1.2,5.2,3.1,8.9,6,12.5c14.9,19,18.5,48.9,13.2,60.3c-0.6,1.3-1.3,2.2-1.9,3.5c-1.2,2.7-1,6.5,0.4,11.1c1.1,3.5,2.3,7,3.8,10.2
	C159.5,163.1,161.4,170.9,160.7,178.4z"/>
<path class="st1" d="M171.4,127.3c-0.1-7.2,16.6-18.9,16.8-8.4c0.2,7.8,10.2,73,11.6,77.3c0.5,1.6,0.6,3.2,1.3,4.7
	c1.4,5.2,2.9,10.3,4.8,15.3c2.9,7.7,5.9,15.5,9.1,23.1c0.6,1.5,1.1,3.2,1.8,4.7c0.5,1.2,0.6,2.5,0.1,3.8c-0.3,0.1-0.6,0.3-0.9,0.3
	c-2.9,0.5-4.6,2.2-5.2,5c-0.1,0.4-0.1,0.8-0.5,0.9c-1.2,0.5-2,1.5-2.9,2.3c-0.5,0-1.1,0.1-1.7,0.1c-2.5,0.1-4.8,0.9-6.2,3.1
	c-0.2-0.4-0.5-0.5-0.8-0.7c-1.1-0.5-1.6-1.3-1.4-2.4c0.1-0.9-0.3-1.4-1.1-1.7c-0.9-0.3-1.4-1-1.4-2c0-0.7-0.4-1.1-1-1.4
	c-1.6-0.9-1.8-1.7-1-3.3c2-4.1,3.8-8.3,5.8-12.3c1.6-3.2-13.7-49.9-17.1-56.6C179.1,174,171.4,127.3,171.4,127.3z"/>
<path class="st1" d="M82.7,155.4c5-1.3,9.9-1.3,14.4,2c2,1.5,3.6,3.4,5.1,5.4c3.5,4.5,6.7,9.3,9.9,14.1c0.3,0.5,0.5,1,0.7,1.5
	c1.3,5,2.7,9.8,4,14.8c0.7,2.7,1.3,5.5,1.9,8.3c0.5,1.9,0.9,3.8,1.6,5.6c1.6,4,3.4,7.9,5,11.7c1.3,3.1,2.6,6.3,3.8,9.4
	c0.2,2.6-0.5,5.1-1.1,7.6c-1,4.4-2.2,8.8-3.3,13.3c-3.9-6.6-7.2-13.4-10.5-20.3c-2.4-4.9-4.8-9.9-6.9-14.9c-1.9-4.4-4.1-8.7-6-13.1
	c-1.7-3.7-3.1-7.5-4.7-11.3c-1.7-4.1-3.5-8.1-5.2-12.2c-0.7-1.6-1.2-3.2-1.9-4.8c-2.2-5.2-4.3-10.5-6.4-15.7
	C82.9,156.3,82.8,155.8,82.7,155.4z"/>
<path class="st3" d="M232.8,260.1c0.1,1.1-0.2,2.2,0.1,3.3c-0.4,0.6-0.4,1.5-1.3,1.6c-2.8,0.3-4.2,2.3-3.5,5
	c0.4,1.3,0.3,2.2-0.5,3.3c-0.4,0.5-0.9,1.1-0.1,1.8c1.5,1.3,2.4,2.9,2.6,5c0,0.5,0.2,0.9,0.8,1c2.2,0.4,3.5,1.8,4.5,3.7
	c0.6,2,0.7,3.9,0.4,5.9c-3.4,4-3.4,4-4.5,8c-1.6,1.2-3.1,2.4-5.1,2.9c-3,0.7-5.9,1.2-8.2-2.5c-0.4-0.7-1-0.6-1.6-0.5
	c-0.7-0.4-1.5-0.7-2.3-1.1c0-0.1,0-0.2,0-0.3c-1-1.7-1.5-3.4-0.6-5.3c0.2-0.3,0-0.5-0.3-0.7c-1.8-0.8-2.5-2.4-3-4.1
	c-0.5-1.1-0.3-2.3-0.6-3.3c0.9-1.8,1.8-3.5,3.7-4.4c0.2-0.1,0.3-0.3,0.4-0.5c0.7-1.9,2.1-3.3,4-4.1c0.8-0.3,0.8-0.8,0.5-1.5
	c-0.7-1.6-1.7-0.8-2.7-0.5c-1.6,0.5-2.9,0.4-4-0.9c-1.1-1.3-1.4-3-0.5-4.5c0.6-1,0.3-1.3-0.6-1.8c-3.1-1.5-4.2-4.2-3.1-7.5
	c0.1-0.5,0.6-0.8,0.3-1.4c1-0.8,1.7-1.8,2.9-2.3c0.4-0.1,0.4-0.6,0.5-0.9c0.6-2.8,2.3-4.5,5.2-5c0.3,0,0.6-0.2,0.9-0.3
	c1.7,0.2,3.5,0.1,5.1,1.1c1,0.6,1.7,1.5,2.1,2.6c0.3,0.8,0.7,1.1,1.6,1.3C230.5,253.4,232.3,255.3,232.8,260.1z"/>
<path class="st4" d="M235.3,284.7c-1-1.9-2.3-3.3-4.5-3.7c-0.6-0.1-0.8-0.4-0.8-1c-0.2-2-1-3.7-2.6-5c-0.9-0.7-0.3-1.3,0.1-1.8
	c0.8-1,0.9-2,0.5-3.3c-0.7-2.7,0.7-4.6,3.5-5c1-0.1,1-1,1.3-1.6c0.6-1,1.5-1.7,2.5-2.2c2.3-0.8,4,0.2,5.7,1.6
	c0.5,0.5,0.9,0.5,1.5,0.2c4.3-2.3,8.2-0.1,9.6,4.3c1.6,4.9,0.8,9-2.9,12.5c-0.8,0.7-0.7,1.8-1.2,2.6l-0.1,0l0,0.1
	c-0.4,0.4-0.9,0.9-1.3,1.3c-2.1,1.2-4.2,2.1-6.7,1.2c-0.5-0.4-0.9-1.1-1.8-0.7C237.4,284.5,236.4,284.5,235.3,284.7z"/>
<path class="st4" d="M213.5,291.8c-1,1.9-0.4,3.6,0.6,5.3c0,0.1,0.1,0.2,0,0.3c-0.4,0.4-0.5,0.8-0.4,1.4c0.9,4.4-0.1,6.4-4.3,8.1
	c-2.6,1.1-5.3,1.4-7.4-1.1c-0.4-0.4-0.9-0.3-1.3-0.2c-4.4,0.8-6.7-0.9-7.2-5.4c-0.1-0.9-0.4-1.7-0.9-2.6c-1.5-2.2-1.2-4.9,0.7-6.7
	c0.5-0.4,0.6-0.9,0.5-1.5c3.2-1.3,5.5-3.4,5.3-7.3c3.8-0.9,6.7,0.3,9.1,3.8c0.5,0.7,0.9,1.3,1.9,1c0.6,1.7,1.3,3.3,3,4.1
	C213.5,291.3,213.7,291.6,213.5,291.8z"/>
<path class="st4" d="M218.1,273.1c-0.7-1.6-1.7-0.8-2.7-0.5c-1.6,0.5-2.9,0.4-4-0.9c-1.1-1.3-1.4-3-0.5-4.5c0.6-1,0.3-1.3-0.6-1.8
	c-3.2-1.5-4.2-4.2-3.1-7.5c0.1-0.5,0.6-0.8,0.3-1.4c-0.5,0-1.1,0.1-1.7,0.1c-2.5,0.1-4.8,0.9-6.2,3.1c-0.5,0.9-0.8,1.9-0.9,2.9
	c-0.2,3.2-0.4,3.7-2.4,6.2c0.2,0.3,0.3,0.6,0.4,0.8c1.3,1.6,1.3,3.2,0.5,5c0.9,0.7,1.6,1.4,1.1,2.7c-0.1,0.2,0,0.5,0.1,0.8
	c0.5,2,2.3,3,5,2.8c0.7,0,1.3,0.1,1.8,0.7c1.2,1.3,2.6,2.3,4.6,2.1c0.9-1.8,1.8-3.4,3.7-4.3c0.2-0.1,0.3-0.4,0.4-0.5
	c0.7-1.9,2.1-3.3,4-4.1C218.4,274.4,218.5,273.9,218.1,273.1z M207.1,273.3L207.1,273.3L207.1,273.3L207.1,273.3L207.1,273.3z"/>
<path class="st5" d="M255.2,291.5c0.9,0.3,1.7,0.8,2.1,1.7c0.9,1.7,0.6,3.3-0.6,4.1c-1.6,1.1-3.8,0.9-5.1-0.6
	c-0.5-0.5-0.9-1.1-1.5-1.7c-0.6,2.4-1.9,3.9-4.4,4.3c-1.5,0.2-2.4-0.4-3.3-1.4c-0.2-0.3-0.4-0.6-0.9-0.5c0.4-1.1-0.3-2.3,0.3-3.3
	c0.7-1.3,0.4-2-0.7-2.7c-1.2-2.1-1.8-4.3-1-6.7c2.4,0.9,4.6,0,6.7-1.2l0.5,1.5c0.2-1,1.2-1.7,0.8-2.8l0-0.1l0.1,0
	c0.4-0.2,0.8-0.3,1.1-0.5c3.4-1.9,6.5-0.4,7,3.5c0.2,1.9,0,3.7-1.4,5.2C254.5,291,254.6,291.3,255.2,291.5z"/>
<path class="st5" d="M196.2,263.4c-0.3,1.3-1,2.4-1.9,3.3c-0.6,0.6-0.6,1,0.3,1.2c0.5,0.2,1.1,0.5,1.6,0.8c0.2,0.3,0.3,0.6,0.4,0.8
	c1.3,1.6,1.3,3.2,0.5,5c-0.6,0.2-1.3,0.4-1.9,0.6c-1.9,0.9-3.4,0.2-4.8-1.1c-0.6-0.6-1-0.9-1.2,0.3c-0.3,1.9-2,2.1-3.4,2.4
	c-1.3,0.2-2.1-0.5-2.6-1.7c-0.5-1.2-1.2-2.4-0.5-3.8c0.4-0.7,1-1,1.9-1.5c-3.4-1.1-4-3.7-3.9-6.6c0-3,2.9-5.2,5.3-4.2
	c1.4,0.6,1.9,2,2.8,3.2c0.4-1.6,1.3-2.6,2.9-3.2c1.5-0.6,2.7-0.2,3.5,0.8C195.9,260.8,196.6,261.9,196.2,263.4z"/>
<path class="st5" d="M232.3,300.3c-0.6,0.3-0.3,0.9-0.4,1.4c0,1.4-0.2,2.7-1.2,3.8c-0.8,0.8-0.6,1.2,0.4,1.5c1.4,0.4,2.3,2,2.3,3.4
	s-0.9,2.2-2.1,2.8c-1.2,0.6-3.8-0.3-4.9-1.6c-0.2-0.3-0.3-0.8-0.8-1c-0.7,2.3-1.9,3.9-4.6,4.1c-3.4,0.2-4.6-3.3-3.6-5.4
	c0.6-1.2,0.8-1.9-0.5-2.7c-2.1-1.2-2.2-4.9-1.1-7.1c0.1-0.4,0.4-0.7,0.5-1.1c0.6-0.1,1.2-0.2,1.6,0.5c2.3,3.7,5.1,3.2,8.2,2.5
	c2-0.5,3.6-1.7,5.1-2.9C231.6,299.1,231.9,299.7,232.3,300.3z"/>
<path class="st6" d="M199.2,282.2c0.2,3.8-2.1,5.9-5.3,7.3c-1.9,0.6-3.8,0.9-5.7,1c-0.3,0-0.8,0.1-0.9-0.1c-0.2-0.3,0.1-0.7,0.3-1
	c0.5-0.9,1-1.8,1.6-2.6c0.5-0.7,0.4-1.1-0.5-1.4c-1.1-0.3-2.3-0.6-3.3-1.3c0.9-0.7,1.8-1.5,2.7-2.1c0.7-0.5,0.7-0.9,0-1.4
	c-0.7-0.5-1.3-1.1-1.9-1.6c-0.5-0.3-0.6-0.7,0.1-0.9c3-0.9,6.1-1.5,9.2-0.6C197.7,278.2,198.8,280,199.2,282.2z"/>
<path class="st6" d="M241.2,262.8c-1.7-1.4-3.4-2.4-5.7-1.6c-2.2-2.7-3-5.9-3.3-9.4c-0.1-1.1,0.2-1.1,1-0.6c0.9,0.5,1.9,1,2.8,1.6
	c0.7,0.5,1.1,0.3,1.3-0.6c0.2-0.8,0.5-1.6,0.7-2.4c0.2-0.8,0.6-1,1.1-0.3c0.5,0.7,1.1,1.3,1.6,1.9c0.5,0.7,0.9,0.7,1.4,0
	c0.3-0.5,0.7-0.9,1.1-1.4c0.3-0.3,0.4-1,1-0.8c0.5,0.1,0.5,0.7,0.6,1.2c0.6,1.7,0.9,3.4,0.9,5.2
	C245.9,259.2,244.6,261.6,241.2,262.8z"/>
<path class="st6" d="M232.3,300.3c-0.3-0.6-0.6-1.2-0.9-1.8c1.1-4.1,1.1-4.1,4.5-8c1.9-0.3,3.6,0.3,5.3,1.1c1.2,0.6,1.5,1.4,0.7,2.7
	c-0.5,0.9,0.1,2.2-0.3,3.3c0.2,1,0.5,1.9,0.8,2.8c0.2,0.6,0,0.9-0.7,0.8c-0.1,0-0.1,0-0.1,0c-2.7,0-2.7,0-2.3,2.8
	c0,0.3,0,0.5,0.1,0.8c0.2,0.9-0.2,1-0.9,0.6C236.1,304,233.8,302.6,232.3,300.3z"/>
<path class="st0" d="M241.2,291.6c-1.7-0.7-3.4-1.3-5.3-1.1c0.3-2,0.1-4-0.5-5.9c1.1-0.1,2.1-0.1,3.1-0.6c0.9-0.4,1.2,0.4,1.8,0.7
	C239.3,287.3,240,289.5,241.2,291.6z"/>
<path class="st0" d="M248.1,282.4c0.4,1.1-0.6,1.8-0.8,2.8c-0.2-0.5-0.3-1-0.5-1.5C247.3,283.3,247.7,282.9,248.1,282.4z"/>
<path class="st0" d="M203.5,167.7l4.7,0.8L205,172c-1,1.1-1.6,2.4-1.9,3.8l0.1,7.4l-4.4-6c-1.1-1-2.4-1.6-3.8-1.9l-4.7-0.8l3.3-3.5
	c1-1.1,1.6-2.4,1.9-3.8l-0.1-7.4l4.4,6C200.8,166.7,202.1,167.4,203.5,167.7z"/>
<path class="st0" d="M111.2,253.8l4.2,0.7l-2.9,3.1c-0.9,0.9-1.4,2.1-1.7,3.4l0.1,6.6l-3.9-5.3c-0.9-0.9-2.1-1.4-3.4-1.7l-4.2-0.7
	l2.9-3.1c0.9-0.9,1.4-2.1,1.7-3.4l-0.1-6.6l3.9,5.3C108.7,252.9,109.9,253.5,111.2,253.8z"/>
<path class="st0" d="M228.7,281.4l2.4,0.5l-1.6,1.8c-0.5,0.5-0.9,1.2-1,1.9l0,3.8l-2.3-3c-0.5-0.5-1.2-0.9-1.9-1l-2.4-0.5l1.6-1.8
	c0.5-0.5,0.9-1.2,1-1.9l0-3.8l2.3,3C227.4,280.9,228,281.2,228.7,281.4z"/>
</svg>
