<?xml version="1.0" encoding="utf-8"?>
<!-- Generator: Adobe Illustrator 26.0.2, SVG Export Plug-In . SVG Version: 6.00 Build 0)  -->
<svg version="1.1" xmlns="http://www.w3.org/2000/svg" xmlns:xlink="http://www.w3.org/1999/xlink" x="0px" y="0px"
	 viewBox="0 0 516.9 436.4" style="enable-background:new 0 0 516.9 436.4;" xml:space="preserve">
<style type="text/css">
	.st0{fill:#EEE8E3;}
	.st1{fill:#F7313B;}
	.st2{fill:#F9ADB5;}
	.st3{fill:#F8A48A;}
	.st4{fill:#FABB95;}
	.st5{fill:#065C51;}
	.st6{fill:#6C90BD;}
	.st7{fill:#7AA5D3;}
	.st8{fill:none;stroke:#136A37;stroke-width:0.6745;stroke-miterlimit:10;}
	.st9{fill:#E62917;}
	.st10{fill:none;stroke:#FFFFFF;stroke-width:0.6745;stroke-miterlimit:10;}
	.st11{fill:none;stroke:#FFFFFF;stroke-width:0.5699;stroke-miterlimit:10;}
	.st12{fill:none;stroke:#FFFFFF;stroke-width:0.6458;stroke-miterlimit:10;}
	.st13{fill:#CF6B4B;}
	.st14{fill:#054C42;}
	.st15{fill-rule:evenodd;clip-rule:evenodd;fill:#E5A1AB;}
	.st16{fill-rule:evenodd;clip-rule:evenodd;fill:#E47F62;}
	.st17{fill-rule:evenodd;clip-rule:evenodd;fill:#065C51;}
	.st18{fill-rule:evenodd;clip-rule:evenodd;fill:#F9ADB5;}
	.st19{fill-rule:evenodd;clip-rule:evenodd;fill:#FFFFFF;}
	.st20{fill-rule:evenodd;clip-rule:evenodd;fill:#6C90BD;}
	.st21{fill-rule:evenodd;clip-rule:evenodd;fill:#7AA5D3;}
	.st22{fill:#FFFFFF;}
	.st23{fill:#FEFEFE;}
	.st24{fill:#C8A38A;}
	.st25{fill:#DBA183;}
	.st26{fill:#D2B8A8;}
	.st27{fill:#E82E41;}
	.st28{fill:#2A372D;}
	.st29{fill:#E5A889;}
	.st30{fill-rule:evenodd;clip-rule:evenodd;fill:#FFC7D2;}
	.st31{fill:#EFA3AE;}
	.st32{fill:#DBA184;}
	.st33{fill:#6A90BD;}
	.st34{fill-rule:evenodd;clip-rule:evenodd;fill:#D6253F;}
	.st35{fill-rule:evenodd;clip-rule:evenodd;fill:#F7313B;}
	.st36{fill-rule:evenodd;clip-rule:evenodd;fill:#DBA184;}
	.st37{fill:#F1E1C9;}
	.st38{fill:#FDFBF9;}
	.st39{fill:#046857;}
	.st40{fill:#074C42;}
	.st41{fill:#8C5A51;}
	.st42{fill:#085C51;}
	.st43{fill:#E57F5D;}
	.st44{fill:#D36B4F;}
	.st45{fill:#1C1C1C;}
	.st46{fill:#E73143;}
	.st47{fill:#F5ABB6;}
	.st48{fill-rule:evenodd;clip-rule:evenodd;fill:#6A90BD;}
	.st49{fill:#D6253F;}
	.st50{fill:#C6A18A;}
	.st51{fill:#29372B;}
	.st52{fill:#012E60;}
	.st53{fill:#78391A;}
	.st54{fill:#F09880;}
	.st55{fill:#1C9697;}
	.st56{fill:#CE2E45;}
	.st57{fill:#ED3550;}
	.st58{fill:#D8013A;}
	.st59{fill:#F3F4F4;}
	.st60{fill:#911C36;}
	.st61{fill:#F42237;}
	.st62{fill:#D8A85D;}
	.st63{fill:#E52033;}
	.st64{fill:#434543;}
	.st65{fill:#E9E9E9;}
	.st66{opacity:0.31;}
	.st67{fill:#C6CAC6;}
	.st68{fill:#FFD2A8;}
	.st69{fill:#E08D77;}
	.st70{fill:#037C65;}
</style>
<g id="bg">
</g>
<g id="GŁOWNE_KOLORY">
</g>
<g id="COLOR_1">
</g>
<g id="COLOR_2">
</g>
<g id="insp">
</g>
<g id="Kosz_kwiatów">
</g>
<g id="Las_w_szkle">
</g>
<g id="Rośliny">
</g>
<g id="Pogrzebowe">
</g>
<g id="Różne">
</g>
<g id="Flower_box">
</g>
<g id="Bukiet">
</g>
<g id="Ślubne">
</g>
<g id="Siedząca_z_kwiatami">
	<path class="st52" d="M394.3,371.1c-1.8,2.4-4,0.9-6,0.4c-4.4-3.5-9.6-5.8-14.7-8c-6.3-2.6-12.8-4.6-18.5-8.6
		c-2.7-1.9-5.9-1-8.9-1.6c-11.6-2.3-22.6-6.4-33.4-11c-6.2-2.6-12.1-5.7-18.4-8.1c-4.1-1.5-7.6-4.1-11.1-6.8
		c-0.9-0.7-1.7-1.3-2.9-0.5c-10,5.9-20.8,10.1-31,15.5c-11.1,5.8-22,12.1-33.3,17.5c-17.8,8.4-35.4,17.3-54.3,23.6
		c-9.4,3.1-18.6,7-28.3,9.5c-6.1,1.6-12.3,1.5-18.4,2.7c-9.7,1.8-19.3,0.8-28.8-1.3c-10.9-2.4-20.6-7.4-27.5-16.7
		c-7.5-10.2-11-21.7-11.5-34.2c-0.3-8.1,0.4-16.2,1.1-24.2c0.2-2.1,0.4-4.1,0-6.2c0.9-1.1,2.1-1,3.3-0.9c17.3,0.4,34.2-2.8,51.3-4.6
		c7.2-0.8,14-3.6,21.1-4.6c4-0.5,7.2-1.6,7.3-6.4c1,0.3,2,0.8,3.1,1c2.8,0.4,5.5,1.7,8.6,0.1c11.6-6.2,23.3-12,34.9-18.2
		c4.4-2.4,9.1-4.2,13.2-7.2c1.5-0.1,2.9-0.3,4.3-0.9c20.5-9.2,41.4-17.6,63.2-23.5c0,0,0,0,0,0c0.7-0.3,1.4-0.6,2.1-0.8
		c6.6-0.7,13.1-2.6,19.8-3.1c12.6-0.9,24.2,0.9,34.5,9.1c11.3,9,22.3,18.2,32.5,28.4c6.3,6.4,11.7,13.5,18,20
		c4.2,4.3,9.7,6.5,14.7,9.5c11.7,7.1,23.6,14,35.4,21c4.1,2.4,8.4,4.4,12.8,6.1c0.4,1.3,1.8,1.2,2.7,1.8c1.1,0.8,2,1.5,1.9,3
		c-4.6,3.5-8.1,8-11.8,12.3c-1.6,1.9-2.9,2.6-4.5,0.2c-0.9-1.3-2.2-1.9-3.8-1.2c-5.8,2.4-11.1,5.5-15.5,10.1
		C395.5,365.8,393.4,367.9,394.3,371.1z"/>
	<path class="st3" d="M161.7,58.6c-0.8-0.2-48.2,20.3-52.1,18.5c-0.4-0.1-1.5-13.1-8.1-13.1S90.8,69.2,90.8,73s2.3,9.4,3.1,9.8
		c1,1.7,1,3.5,0,5.2c-4.8,9-6.2,17.7,2,24.8c1.4,1.2,2.2,3,2.6,4.9c-0.5,0.1-1,0.1-1.5,0.2c-1.1-1.2-3.9-2.5-5.2-3.6
		c-7.8-6.3-19.4-8.5-13.8,2.3l-3.8,0.1c0,0-0.6,2.5-0.8,3.9c-0.3,2-0.4,3.7-1.1,5.6c-0.6,1.7-1.7,1.6-1.7,1.6
		c4.1,1.8,10.4,5.6,15.3,7.3c4.2,1.5,9.9,3,13.2,6.2c0.7,0.7,3.4,3.9,4.7,3.2c-0.2-5.3-0.3-7,0.8-13.2c1.1-6.3,1.9-8.3,4.2-12
		c1.2-2,2.4-2,3.8-0.2c2.6,3.2,6,5.3,10,6.6c5.7,1.9,10.8,1.5,15-3.4c2.3-2.7,4.7-5.3,6.7-8.2c1.1-1.6,2.4-2.5,4.3-2.7
		c3.5-0.4,3.8-0.8,2.9-4.1c-2.3-8.5-0.1-16.2,3.9-23.6c3-5.6,6.4-13.2,6.6-17.8C162.3,61.1,162.4,58.8,161.7,58.6z M136.3,88.5
		c-1.2-1.8-2.3-3.6-3.9-5.1c-0.5-0.5-1-1.1-0.5-1.8c0.4-0.5,1.1-0.3,1.6-0.2c1.4,0.4,2.7,0.9,3,2.5c0.9,4.4,3.6,6.9,8,7.6
		c0.7,0.1,1.6,0.2,1.9,1.6C142.1,93.4,138.6,91.9,136.3,88.5z"/>
	<path class="st53" d="M150.2,131c0-0.7-0.3-1.8,0.7-2c0.3-0.1,0.5-0.4,0.5-0.7c-0.1-0.3-0.1-0.7-0.2-1c-0.1-0.8-0.2-1.6-0.2-2.3
		c0-0.6,0-1.2,0.2-1.8c2.9-9.2,7.4-17.5,12.5-25.5c3.7-5.7,6.2-11.9,7.5-18.5c2.9-13.8-1.1-25.6-11.2-35.2
		c-4.7-4.5-9.6-8.8-14.8-12.7c-5.8-4.3-12.3-7.5-19-10c-3.4-1.3-7.1-1.8-10.6-2.6c-7.4-1.7-14.8-1.2-21.8,1.3
		c-9.4,3.4-17.5,9.1-25,15.4c-9.3,7.7-17.9,16.1-25,26c-3.9,5.4-7.9,10.9-6.6,18.4c0.5,2.8,1.3,5.6,2.1,8.3c0.3,1,0.5,2.4,1.8,2.5
		c1.2,0.1,1-1.6,1.8-2.1c0.1-0.1,0.4,0,0.6,0c2.6,8.2,8.8,13.6,14.8,19.2c4.5,4.3,9.6,7.8,15.8,9.3c0,0,0.1,0,0.1,0
		c1.3,0,2.5,0,3.8-0.1c1.8,0,2.5-0.5,1.1-2.2c-0.8-1-1.6-2-1.5-4.1c2.9,3.1,5.4,5.7,9.3,6.2c1.6,0.2,3.3,0.5,3.5-1.6
		c0-0.4,0.5-0.6,0.9-0.4c2.1,1.2,3.9,2.3,5.8,3.3c3.2,1.3,1.4-2.8-1.1-5.1c-7.4-6.4-5.6-16.2-2-24.8c0.8-1.9,35.3-8.4,41-11.4
		c9.8-5.1,26.3-18.2,26.8-18c0.7,0.2,1.1,0.7,0.6,1.5c0.3,1.4-3.9,17.8-7,23.5c-4,7.4-6.2,15.1-3.9,23.6c0.9,3.3,0.5,3.7-2.9,4.1
		c-1.9,0.2-3.3,1.1-4.3,2.7c-2,2.9-4.3,5.6-6.7,8.3c-4.3,4.9-9.4,5.3-15,3.4c-3.9-1.3-7.4-3.4-10-6.6c-1.5-1.8-2.7-1.8-3.8,0.2
		c-2.2,3.6-4.6,7.1-4.2,11.5c0,0.3,0.2,0.5,0.5,0.5c2.2,0.5,3.4,2.4,5.2,3.6c5.5,3.5,11.4,5.3,17.9,5c1.7-0.1,1.8,0.2,3.5,0.6
		c0.2,0,1.9,0.8,2.1,0.9c2.4,1.4,4.3-0.6,6.2-3.2c0.2-0.2,1.2-4.1,2.6-3.9C144.8,134.7,150.2,133.3,150.2,131z"/>
	<path class="st47" d="M184.3,265.6c0-4.6-0.1-9.3,0-13.9c0.1-2.6-0.8-4.3-3.5-4.9c-6-1.4-11.7-4-17.8-4.7c-0.5-0.1-0.9-0.4-1.1-0.8
		c1.5-0.1,2.5-0.6,1.1-2.2c-1.4-1.6-2.9-3.1-4.4-4.7c1.2-4.1,3.3-7.7,5.1-11.5c0.4,0.2,0.7,0.3,1.1,0.5c1.1,2,3.1,2.1,4.9,2.1
		c2.4,0,3.4,0.9,3.7,3.1c0.3,2.3,1.7,3.7,4,4.1c3,0.5,6.6,1.8,8.5-1.3c1.7-2.6,3.2-2.4,5.6-1.6c5.3,1.7,7.5,0.2,7.6-5.3
		c0-1.6,0.5-2.7,1.9-3.7c3.9-2.5,4.2-4.1,1.4-7.8c-0.8-1.1-1.1-1.9,0.3-2.6c2.4,0.9,5,0.8,7.2-0.4c2.3-1.3,3.4-1.1,3.7,1.6
		c0.1,0.7,0.6,1.3,1.3,1.5c3.1,0.6,5.9-0.6,8.4-2.1c1.8-1,1.8-3.3,1.3-5.1c-0.5-1.9-0.2-3,1.8-3.8c3.2-1.4,3.8-3.9,2.1-7
		c-0.4-0.8-0.6-1.4-0.1-2.2c2.1-3.1,1.4-6.2,0-9.3c1.1-2,1.9-3,3.6-0.3c1.6,2.6,4,4.6,7.4,4.7c0.2,0,0.4,0,0.6,0
		c1.3-0.2,2.1-0.9,2-2.3c1.8,0.4,2.1,1.9,2.5,3.3c3.8,13.2,7.5,26.5,11.3,39.7c1.7,5.9,3.9,11.7,4.8,17.9c-0.7,0.3-1.4,0.6-2.1,0.8
		c0,0,0,0,0,0c-21.8,5.9-42.7,14.3-63.2,23.5c-1.4,0.6-2.8,0.9-4.3,0.9C189.5,269.3,187.9,266.4,184.3,265.6z M242.1,211.8
		c-1.9-6.4-3.7-12.8-6.1-19.1c-0.2-0.5-0.5-1.3-1.2-0.8c-0.7,0.4-0.5,1.2-0.3,1.9c1.3,4.3,2.6,8.6,4,12.9c0.6,1.9,1.3,3.7,2,5.5
		c0.2,0.5,0.5,0.9,1.1,0.8C242.2,212.8,242.2,212.3,242.1,211.8z M251,222.7c-1.7-5.4-3.4-10.7-5.1-15.9c-0.2-0.6-0.6-1.1-1.3-0.8
		c-0.8,0.3-0.8,1.1-0.6,1.8c0.5,1.8,1.1,3.6,1.7,5.4c1.1,3.3,2.2,6.5,3.4,9.7c0.2,0.6,0.6,1.4,1.5,1C251,223.6,251,223.1,251,222.7z
		 M242.4,215.8c-0.7,0.1-1,0.3-1,0.8c0.1,1.7,0.5,3.3,1.2,4.7c0.2,0.4,0.7,0.6,1,0.3c0.7-0.6,0.8-1.6,0.6-2.4
		C243.7,218,243,216.9,242.4,215.8z"/>
	<path class="st54" d="M181.8,247.5l25.5-21c1.7-1.5,4.1-1.9,3.9,0.3c0,0,0,0,0,0c-0.2,2.7-2.3,5.5-4.1,7.5l-5.1,6.2
		c-0.1,0.2,0,0.4,0.2,0.3l27-9.8c0.9-0.3,1.7,0.4,1.6,1.3l-0.4,2.6c-0.2,1.3,0.9,2.5,2.2,2.3l2-0.2c1.6-0.2,2.8,1.5,2,2.9l-1,1.9
		c-0.1,0.2-0.2,0.5-0.2,0.8l-0.3,3.9c0,0.2,0,0.4,0.1,0.7l0.5,2.2c0.2,0.9-0.2,1.9-1.1,2.3l-16.7,8.3c-6.8,3.4-14.3,5.3-21.9,5.5
		l-13.8,0.4L181.8,247.5z"/>
	<path class="st33" d="M131.4,296.5c-0.1,4.8-3.3,5.8-7.3,6.4c-7.1,1-13.9,3.8-21.1,4.6c-17.1,1.8-34,5-51.3,4.6
		c-1.2,0-2.4-0.1-3.3,0.9c-2.6-1-5.4-0.9-8-2.1c-2.1-1-3.4-2.5-3.3-4.8c0.3-5.2-0.9-10.5,0.7-15.6c0.2-0.8,0.1-1.5-0.3-2.2
		c-8.3-15.6-9.5-32.4-8.3-49.7c1-13.9,3.1-27.6,6.6-41c3.1-11.7,6.7-23.3,11.3-34.5c3.6-8.6,7.6-17,12-25.3c1.6-3,3.6-5.9,5.8-8.5
		c1.2-1.5,2.7-2.3,4.6-1.7c1.7,0.5,3.7,1.7,5.2,2.4c4.1,1.8,8.6,2.6,12.5,4.9c3.9,2.3,8.5,3.1,11.8,6.4c0.7,0.7,3.1,1.4,3.4,1.8
		c0.8,1.1,1.6,4.1,2.5,6.8c2.9,8.2,6.7,16.1,10.3,24c1.6,4.7,3.1,9.5,5,14.2c1.2,2.9,1,6.2,2.9,8.9c0.4,4.2,1.2,8.2,3.1,12
		c0.3,3.5,1.2,6.7,3,9.8c0,4.5,1.4,8.7,1.8,13.1c0.6,5.6,0.7,5.6,6.1,5.2c0.5,0,1,0,1.5,0c5.4,0,10.9,0.2,16.3-0.1
		c3.5-0.1,5.9,1,7,4.5c0.3,0.4,0.6,0.8,1.1,0.8c6.2,0.7,11.9,3.2,17.8,4.7c2.7,0.7,3.6,2.3,3.5,4.9c-0.1,4.6,0,9.3,0,13.9
		c-2.1,2.3-5,3.7-7.5,5.6c-6.8,5.3-14.4,9.2-22.6,11.9c-6.1,2-11.8,5.4-18.5,6C131.4,289.5,130.8,291,131.4,296.5z M110.3,296
		c-4.6,0.2-8.7,0.9-12.9,1.1c-6.8,0.3-13.6,0.6-20.3,1.2c-11.5,1.1-22.6,0-33.4-4c-1.5-0.6-3.2-2.7-4.6-1.4
		c-1.3,1.2-0.3,3.6-0.5,5.4c-0.1,1.8,0.5,2.7,2.4,2.9c3.6,0.4,7.2,1.1,10.9,1.1c15.8,0.1,31.5-1.4,47.1-3.2
		C102.7,298.9,106.5,298.1,110.3,296z M95.7,210.3c-1.2,1.3-1.3,2.4-1.4,3.4c-0.3,8.4-2.7,16.5-4.4,24.6c-0.3,1.2-1.1,2.6,0.6,3.3
		c1.6,0.6,3-0.1,3.6-1.6c0.9-2.3,2-4.6,2.2-7C97,225.6,96.5,218.2,95.7,210.3z"/>
	<path class="st42" d="M234.5,169.6c2.8-1.2,4.1-3.7,5.3-6.2c0.8-0.1,1.6-0.1,2.4-0.2c4.7,0,5.8,1.9,3.6,5.9
		c1.1,0.9,2.4,0.4,3.7,0.5c3.4,0.3,5.9,1.9,6.2,4c0.4,2.9-2.2,6.7-4.9,7.7c-3.5,1.3-6.7,1.2-9.8-2.5c0.1,3,1.6,4.9,1.2,7
		c0,1.4-0.7,2.1-2,2.3c-0.2,0-0.4,0-0.6,0c-3.4-0.1-5.8-2.1-7.4-4.7c-1.7-2.8-2.6-1.8-3.6,0.3c-1.7-0.9-4.3-0.2-5.1-2.2
		c-0.7-1.7-1.7-3.3-2.2-5c0.9-1.1,1.7-2.5,3.4-2.7c0.9,1,1.6,2.2,3,2.7c0.1,0.1,0.2,0.2,0.3,0.2c0.2,0.8,0.6,1.2,1.4,1.1
		c1.5,0.3,3,0.9,3.9-1c0.7-0.2,1.1-0.7,0.9-1.5C234.8,173.4,235.1,171.5,234.5,169.6z"/>
	<path class="st42" d="M239.9,162.2c-1.3-1.8-1.5-3.6,0.2-5.3c0.4-0.4,0.8-0.9,1-1.4c1.5-4.2-2.7-10.7-7.2-11.2
		c-1.1-0.1-2.2-0.2-2.3-1.7c0.7-2.2,1.8-4.1,3.5-5.7c1.5-1.4,3.2-2.1,5.1-1.3c2,0.9,2.1,2.9,2.1,4.8c-0.1,1.9-0.2,3.8-0.1,5.7
		c2.3-2.8,3.2-6.3,4.8-9.3c1-1.9,2.4-3.3,4.6-3.8c3.2-0.7,5.7,1.5,5.2,4.8c-0.3,1.9-1,3.6-2.5,4.9c-3,2.7-6,5.4-8.9,8.2
		c-0.4,0.4-1,0.6-0.9,1.6c2.4-0.1,4.2-1.6,6.3-2.3c1.4-0.5,2.6-0.8,3.7,0.6c1.1,1.4,0.8,2.7-0.1,4C251,160,246,162.2,239.9,162.2z"
		/>
	<path class="st42" d="M176.7,129.6c-3.1-0.4-5.5,0.7-7.1,3.5c-0.1,0.3-0.3,0.7-0.5,0.7c-2.6,0.3-4.4,2.1-6.5,3.4
		c-1.1,0.7-2.9,0.3-4.2,1c-3-2.6-5.3-5.7-6.9-9.3c-0.2-0.9-0.3-1.9-0.5-2.8c3.5-3,3.5-3,10.4,1.5c0.2-1.8-0.7-3.3-1.1-4.8
		c-0.8-3.2-2.1-6.4-1.2-9.9c0.4-1.5,1-2.6,2.3-3.2c1.5-0.6,2.6,0.4,3.6,1.4c2.4,2.2,3.2,5.2,3.3,8.3c0.1,3.8,0.4,7.7-0.5,11.5
		c1.8-1.8,1.8-4.4,3.1-6.4c0.9-1.6,1.6-3.8,4-3.2c2.4,0.6,2.4,2.8,2.4,4.8C177.4,127.3,177.4,128.5,176.7,129.6z"/>
	<path class="st42" d="M224.2,137.5c-1.3,0.5-2.7,0.4-3.9,1.2c-1.2,0.8-2-0.2-2.8-0.9c-2.3-2-6.4-2.4-9-0.7c-2.1,1.4-3.7,1.4-5-1
		c-1.6-3-4.7-1.1-6.9-1.9c-0.3-2.3-0.9-4.7-0.7-7.1c0.1-1.4,0.6-2.6,1.9-3.1c1.4-0.6,2.5,0.4,3.3,1.4c1.2,1.6,2.2,3.4,3.6,5.6
		c-0.1-3.3-0.3-6.1-0.4-8.9c0-2.8,1.1-5.2,3.5-6.8c1.5-1.1,3.2-1.5,5-0.5c1.7,0.9,2.4,2.4,2.4,4.4c0,2.4-0.9,4.4-1.9,6.5
		c-0.9,1.9-1.8,3.8-2.3,6.1c1.3-1.2,2.5-2.4,3.8-3.5c1-0.8,2.2-1.5,3.5-1c1.5,0.6,1.5,2,1.4,3.3c-0.1,1.4,0.5,2.4,1.6,3.3
		C222.7,134.7,224.1,135.7,224.2,137.5z"/>
	<path class="st3" d="M394.3,371.1c-1-3.2,1.2-5.3,3-7.2c4.4-4.5,9.7-7.7,15.5-10.1c1.7-0.7,2.9-0.2,3.8,1.2
		c1.7,2.4,2.9,1.7,4.5-0.2c3.7-4.3,7.2-8.9,11.8-12.3c9.4,7.6,18.8,15.3,28.3,22.9c4.2,3.4,8.4,6.9,13.6,8.8
		c1.7,0.7,23.4,6,25.2,6.5c5.5,1.5,4.1,2.8,4.1,5.3c0,2.6-16.3,7.2-19.9,8.1c-4.3,1.3-7.6,1.7-9.9,1.6c-5.3-0.2-10.5,0.1-15.5,1.9
		c-0.7,0.3-1.8,0.2-2,1.1c-0.3,1.1,0.9,1.4,1.6,1.9c4.6,3,9.5,5.2,15,5.8c6.5,2.1,9.9,2.8,9.8,5.7c-0.2,7-6.2,6-13.2,6.6
		c-11.6,1.1-22.6-1.6-33.4-5.3c-3.1-1.1-6.2-2.1-9.5-2.2c-4.7-0.2-9.2-1.3-13.7-2.1c-3.7-0.6-6.5-5.6-7.1-10.6
		c-0.7-6.2-0.2-12.2,0.9-18.2c0.3-1.8-0.2-2.7-1.7-3.6c-2.9-1.6-5.8-3.4-8.7-5.1C396.2,370.9,395.3,370.7,394.3,371.1z"/>
	<path class="st55" d="M258.6,247.6C258.6,247.6,258.7,247.7,258.6,247.6C258.7,247.7,258.6,247.6,258.6,247.6z"/>
	<path class="st42" d="M115.2,173.8c3.1-0.1,5.8,1,8.3,2.8c1.2,0.8,2.2,1.2,3.4,0c1.1-1.2,2.5-0.9,3.9-0.4c0.9,0.3,1.7,1.1,2.9,0.4
		c-0.4-2-2.1-3-3.3-4.4c-1.7-1.9-3.7-3.5-5.1-5.8c-1.4-2.3-1.2-5,0.4-6.2c1.7-1.3,4.1-0.6,5.7,2c1.6,2.6,2.7,5.4,4.1,8.1
		c0.5,0.9,0.9,2.4,2.2,2c1.1-0.3,0.6-1.7,0.8-2.6c0.1-0.8,0.2-1.6,0.4-2.3c0.3-1.1,0.9-2,2.1-2.3c1.2-0.3,2.1,0.4,2.8,1.3
		c1.3,1.5,1.6,3.3,1.8,5.2c0.2,1.2-0.9,2-0.9,3c0,2.4-0.9,3.2-3.4,3.7c-2.5,0.4-4.9,1.8-6.6,4.1c-2.8,3.9-4,8.2-3.4,13
		c-2.8-0.2-5.4,1-8.2,1.4c-1.9-2.7-1.8-6-2.9-8.9C118.3,183.3,116.8,178.5,115.2,173.8z"/>
	<path class="st7" d="M110.3,296c-3.8,2.1-7.6,2.8-11.3,3.3c-15.7,1.8-31.3,3.3-47.1,3.2c-3.7,0-7.2-0.8-10.9-1.1
		c-1.9-0.2-2.6-1.2-2.4-2.9c0.2-1.9-0.8-4.3,0.5-5.4c1.4-1.3,3.1,0.9,4.6,1.4c10.9,4,21.9,5.1,33.4,4c6.7-0.6,13.6-0.9,20.3-1.2
		C101.6,297,105.7,296.3,110.3,296z"/>
	<path class="st42" d="M138.7,212.8c-0.5,0.5-1.1,0.9-1.4,1.4c-1.8,3.4-4.4,5-8.2,4.4c-1.7-3-2.7-6.3-3-9.8c2.1-3.7,6.1-5.5,8.3-9
		c4.1,0.2,4.2,0.2,4,4.1c-0.1,2.4,0.2,4.6,0.8,6.9C138.9,211.4,138.5,212,138.7,212.8z"/>
	<path class="st7" d="M95.7,210.3c0.9,7.9,1.3,15.4,0.7,22.8c-0.2,2.4-1.3,4.7-2.2,7c-0.6,1.6-2.1,2.3-3.6,1.6
		c-1.7-0.7-0.8-2.1-0.6-3.3c1.7-8.2,4-16.2,4.4-24.6C94.3,212.6,94.4,211.6,95.7,210.3z"/>
	<path class="st56" d="M148.9,141.6c0.5,0.2,1,0.3,1.6,0.5c3.1-0.4,1.3-2.9,2-4.4c1.6,0.1,5.3,2.2,5.4,2.2c0.5,0,1.1,0.2,1.4,0
		c2.7-2.2,5-1.9,6.9,1.1c0.9,1.3,2.2,1,3.5,0.7c2-0.5,4-0.4,5.3,1.4c1.3,1.8,0.4,3.4-1,5c-1.5,1.6-0.9,3.1,1.1,3.3
		c2.4,0.3,5,0.3,5.1,3.6c0.1,2.7-3.3,5.7-6.3,6c-1.1,0.1-3.1-0.7-2.6,1.8c0,1.7-0.1,3.4-0.1,5.1c-0.2,2.3-1,4.2-3.5,4.7
		c-1.8,0.4-3.7,0.6-4.6-1.8c0-0.1-0.1-0.3-0.1-0.4c-0.4-0.3-0.8-0.5-1.2-0.8c-0.4,0-0.7,0-1.1,0c-1.4-0.7-1.9,0.6-2.6,1.3
		c-3.3,3.1-7.8,2.2-9.6-1.9c-0.2-0.4-0.7-0.7-1-1c0-0.4,0-0.7,0-1.1c-0.2-0.6-0.1-1.1,0.5-1.5c-0.1-0.1-0.1-0.3,0-0.4
		c0-0.5,0-0.9,0-1.4c-0.9-0.3-1.8-0.7-2.7-1l-0.4-0.1c-2.4-0.1-4.5-1.2-6.4-2.7c-0.2-0.1-0.8-1.1-0.9-1.4c-1.7-2-1.3-4.6,0.5-5.3
		c4.1-1.4,3.4-3.9,2.6-6.8c0.6-2.8,3.5-2.8,5.2-4.4C146.9,142,147.5,139,148.9,141.6"/>
	<path class="st42" d="M140.7,146.4c-3.7-0.7-6-3.1-7.4-6.5c1.7-1.3,3.5-2.6,5.8-2.7c2.3,0.5,4.6,0.6,6.5,2.2
		c0.1,0.9,0.1,1.7,0.2,2.6C144.2,143.6,141.3,143.6,140.7,146.4z"/>
	<path class="st46" d="M200.9,220.9c-1.4,0.9-1.9,2-1.9,3.7c-0.1,5.5-2.3,7-7.6,5.3c-2.3-0.8-3.9-1-5.6,1.6c-2,3-5.5,1.8-8.5,1.3
		c-2.3-0.4-3.7-1.8-4-4.1c-0.3-2.2-1.3-3.1-3.7-3.1c-1.8,0-3.8-0.1-4.9-2.1c-0.4-0.2-0.7-0.3-1.1-0.5c-1.6-2.9,0.1-5.1,1.6-7.2l0,0
		v0h0c-2.2-4.9-1.7-6.5,2.8-9.3c1.4-0.9,2.5-2.1,2.6-4c0.2-2.4,5.3-6,7.2-4.9c3.9,2.2,5.9-0.3,8.2-2.6c0.7-0.1,1.2-0.1,1.7,0.5
		c0.7,2.4,1.8,3.3,4.5,1.8c3.5-1.9,6.8-0.2,6.1,3.1c-0.5,2.4,0.5,3.9,1.8,5.5c1.2,1.4,2.6,2.7,2.4,4.8c-1.4,0.7-1.1,1.4-0.3,2.5
		C205.1,216.8,204.9,218.4,200.9,220.9z"/>
	<polygon class="st58" points="165.3,215.6 165.3,215.6 165.3,215.6 	"/>
	<path class="st56" d="M202.6,210.5c0.2-2.1-1.2-3.4-2.4-4.8c-1.4-1.6-2.4-3-1.8-5.5c0.7-3.2-2.6-5-6.1-3.1
		c-2.6,1.5-3.7,0.6-4.5-1.8c1.2-0.3,2.4,2.2,3.7,0.1c1.2-0.4,1.6-1.5,1.6-2.6c0-1.2,0.3-2.1,1.5-2.6c1.6-0.7,1.7-2,1.3-3.5
		c-0.4-1.5-0.7-3.1,0.2-4.6c1.5-2.3,2.1-5,3-7.6c3.6,1.4,7.1,2.9,10.9,0.8c0.6-0.3,1.4-0.1,1.9,0.3c2.8,2.5,5.8,2.7,9.1,0.8
		c0.4,1.8,1.5,3.3,2.2,5c0.8,2,3.4,1.3,5.1,2.2c1.3,3.1,2.1,6.2,0,9.3c-0.5,0.7-0.3,1.4,0.1,2.2c1.7,3.1,1.1,5.6-2.1,7
		c-2,0.9-2.3,1.9-1.8,3.8c0.4,1.8,0.5,4.1-1.3,5.1c-2.5,1.4-5.3,2.7-8.4,2.1c-0.7-0.1-1.2-0.8-1.3-1.5c-0.4-2.7-1.4-2.9-3.7-1.6
		C207.6,211.3,205.1,211.4,202.6,210.5z"/>
	<path class="st42" d="M158.5,234.4c-4.6,1.6-6.8,0.5-7.7-4.2c-0.4-1.7-0.3-3.5-0.4-5.3c0.6-1.6,1.2-3.3,1.9-4.9
		c0.6-1.6,0.1-2.1-1.4-1.5c-1.8,0.7-3.6,1-5.5,0.4c-0.4-0.6-0.9-1.1-1.7-1.3c0,0-0.2-0.2-0.2-0.2c0-0.2-0.1-0.3-0.2-0.4
		c-0.2-0.8-0.4-1.5-0.6-2.3c2.9,0.9,5.7,1.6,8.6,0c0.9-0.5,2.1-0.5,2.8,0.2c3.6,3,7.3,2.2,11,0.6c0,0,0,0,0,0
		c-1.5,2.2-3.3,4.3-1.6,7.2C161.9,226.7,159.8,230.3,158.5,234.4z"/>
	<path class="st59" d="M242.1,211.8c0,0.5,0.1,1-0.5,1.2c-0.6,0.1-0.9-0.3-1.1-0.8c-0.7-1.8-1.4-3.7-2-5.5c-1.4-4.3-2.7-8.6-4-12.9
		c-0.2-0.7-0.3-1.5,0.3-1.9c0.8-0.5,1.1,0.3,1.2,0.8C238.4,198.9,240.2,205.4,242.1,211.8z"/>
	<path class="st59" d="M251,222.7c0.1,0.4,0,0.9-0.5,1.1c-0.9,0.4-1.3-0.4-1.5-1c-1.2-3.2-2.3-6.5-3.4-9.7c-0.6-1.8-1.1-3.6-1.7-5.4
		c-0.2-0.7-0.2-1.4,0.6-1.8c0.7-0.3,1.2,0.3,1.3,0.8C247.6,212.1,249.2,217.3,251,222.7z"/>
	<path class="st59" d="M242.4,215.8c0.6,1.1,1.3,2.2,1.7,3.4c0.3,0.8,0.2,1.8-0.6,2.4c-0.3,0.3-0.8,0.1-1-0.3
		c-0.8-1.5-1.2-3.1-1.2-4.7C241.4,216.1,241.7,215.9,242.4,215.8z"/>
	<polygon class="st60" points="165.3,215.6 165.3,215.6 165.3,215.6 	"/>
	<path class="st55" d="M239.4,188.2c0.2,0,0.4,0,0.6,0C239.9,188.2,239.7,188.2,239.4,188.2z"/>
	<path class="st46" d="M238,156.9c-0.5,0.7-0.8,1.5-0.6,2.5c0.6,3.2,1,6.3-2.4,8.3c-0.6,0.4-0.8,1.1-0.4,1.9
		c0.6,1.9,0.3,3.8-0.3,5.7c0.2,0.8-0.2,1.3-0.9,1.5c-0.9,1.9-2.5,1.4-4,1c-0.8,0.1-1.2-0.3-1.4-1.1c-0.1,0-0.2-0.1-0.3-0.2
		c-1.4-0.4-2.1-1.7-3-2.7c-1.7,0.3-2.5,1.6-3.4,2.7c-3.2,1.9-6.2,1.6-9.1-0.8c-0.5-0.5-1.4-0.6-2-0.3c-3.8,2.1-7.4,0.7-11-0.8
		c-0.5-0.7-1-1.5-1.5-2.2c-2.1-0.6-1.4-2.5-1.7-3.9c0.2-0.7,0.4-1.4,0.6-2.1c0.3,0,0.6-0.1,0.9-0.1c0-0.3,0-0.7,0.1-1
		c0.8-0.9,1.5-1.8,2.4-2.6c2.1-1.8,2.5-3.2,0.5-5.6c-3.2-3.8-2.4-8,1.6-11c1-0.7,1.9-1.4,2.3-2.6c1.3-4,6.2-6.5,10.1-5.7
		c0.7,0.1,1.4,0.3,1.8,0.9c1.6,2.4,3.6,1.7,5.8,1c3.3-1.1,5.7-0.1,7.2,3c0.8,1.6,1.9,2.4,3.6,2.7C238.6,146.5,241.1,152.1,238,156.9
		z"/>
	<path class="st61" d="M241.1,155.6c-0.2,0.5-0.6,1-1,1.4c-1.7,1.7-1.6,3.4-0.2,5.3c-0.6,0.4-0.6,0.7,0,1.1c-1.2,2.6-2.5,5-5.3,6.2
		c-0.3-0.7-0.2-1.5,0.4-1.9c3.4-2,3.1-5.2,2.4-8.3c-0.2-1,0.1-1.7,0.6-2.5c3.1-4.8,0.6-10.4-5.1-11.4c-1.7-0.3-2.8-1.1-3.6-2.7
		c-1.5-3.1-3.9-4.1-7.2-3c-2.1,0.7-4.2,1.4-5.8-1c-0.4-0.6-1.1-0.8-1.8-0.9c-3.9-0.8-8.8,1.7-10.1,5.7c-0.4,1.2-1.4,1.9-2.3,2.6
		c-4,2.9-4.8,7.2-1.6,11c2.1,2.4,1.6,3.9-0.5,5.6c-0.9,0.8-1.6,1.7-2.4,2.6c0,0.3,0,0.7-0.1,1c-0.3,0-0.6,0.1-0.9,0.1
		c-0.2-0.5-0.3-1-0.5-1.6c-0.8,0.1-1.6,0.2-2.4,0.3c-3.4,0.8-6.8,1.6-9.2-2.1c-0.2-0.4-0.8-0.7-1.2-0.7c-4.1-0.5-8.1-0.5-12.1,0.6
		c-0.4-2.5,1.5-1.7,2.6-1.8c3-0.3,6.3-3.3,6.3-6c-0.1-3.3-2.7-3.3-5.1-3.6c-2.1-0.2-2.6-1.7-1.1-3.3c1.4-1.6,2.2-3.1,1-5
		c-1.3-1.9-3.3-2-5.3-1.4c-1.3,0.3-2.6,0.6-3.5-0.7c-1.9-3-4.2-3.3-6.9-1.1c-0.3,0.2-0.9,0-1.4,0c0.1-0.6,0.8-1,0.6-1.7
		c1.3-0.7,3.1-0.3,4.2-1c2.1-1.3,3.9-3,6.5-3.4c0.2,0,0.4-0.4,0.5-0.7c1.6-2.8,4-3.9,7.1-3.5c1.3,2.4,2.7,2.8,4.8,0.7
		c1.8-1.8,4.1-2.7,6.7-2.5c3,0.2,5.2,1.5,5.6,4.6c0.3,2,1.3,2.2,2.9,1.8c2.3,0.8,5.3-1.1,6.9,1.9c1.3,2.4,2.8,2.4,5,1
		c2.6-1.7,6.6-1.3,9,0.7c0.8,0.7,1.6,1.7,2.8,0.9c1.2-0.8,2.7-0.7,3.9-1.2c3.1,0.8,5.1,3.2,7.4,5.1c0.1,1.5,1.1,1.6,2.3,1.7
		C238.4,144.9,242.5,151.4,241.1,155.6z"/>
	<path class="st53" d="M146.4,93.1c-4.3,0.2-7.8-1.2-10.1-4.6c-1.2-1.8-2.3-3.6-3.9-5.1c-0.5-0.5-1-1.1-0.5-1.8
		c0.4-0.5,1.1-0.3,1.6-0.2c1.4,0.4,2.7,0.9,3,2.5c0.9,4.4,3.6,6.9,8,7.6C145.3,91.6,146.2,91.7,146.4,93.1z"/>
	<path class="st61" d="M160.7,169.8c-2.5,3.4-1.9,7.2,1.8,9.2c4,2.2,4.4,5.8,2.8,10.2c-1.4,3.6-1.5,3.5,2.1,4.5
		c0.8,0.2,1.3,0.8,2,1.1c2.1,1,4,3.5,6.7,1c0.5-0.5,1.4-0.2,2,0.2c3,2.2,5.1,0.6,6.9-1.7c0.5,0,1,0.1,1.3,0.7
		c-2.3,2.3-4.3,4.8-8.2,2.6c-1.9-1.1-7,2.5-7.2,4.9c-0.2,1.9-1.2,3.1-2.6,4c-4.5,2.8-5,4.3-2.8,9.3c-3.8,1.5-7.5,2.4-11-0.6
		c-0.8-0.6-1.9-0.6-2.8-0.2c-2.9,1.6-5.7,0.8-8.6,0c-0.8-1.6-2-2.9-3.4-4c-0.6-2.3-0.9-4.5-0.8-6.9c0.2-3.8,0-3.9-4-4.1
		c-1.1-1.5-3.1-2.3-3.2-4.4c-0.6-4.8,0.6-9.1,3.4-13c1.6-2.2,4-3.7,6.6-4.1c2.5-0.4,3.4-1.3,3.4-3.7c0-1,1.1-1.9,0.9-3
		c1.7-0.6,1.6-2.2,2-3.6c0.3,0.3,0.8,0.6,1,1c1.8,4.2,6.2,5,9.6,1.9C158.8,170.4,159.2,169,160.7,169.8z"/>
	<polygon class="st62" points="143.6,217.5 143.7,217.7 143.8,217.5 	"/>
	<path class="st63" d="M196.2,182.1c-1,1.4-0.6,3-0.2,4.6c0.4,1.5,0.3,2.8-1.3,3.5c-1.2,0.5-1.4,1.5-1.5,2.6c0,1.1-0.4,2.1-1.6,2.6
		c-1.3,2.1-2.4-0.4-3.7-0.1c-0.5-0.5-1.1-0.6-1.7-0.5c-0.2-0.6-0.7-0.7-1.3-0.6c-1.9,2.4-3.9,3.9-6.9,1.8c-0.5-0.4-1.4-0.7-2-0.2
		c-2.7,2.5-4.6,0-6.7-1c-0.7-0.3-1.2-0.9-2-1.1c-3.6-1-3.5-0.9-2.1-4.5c1.6-4.3,1.3-7.9-2.8-10.2c-3.7-2-4.2-5.8-1.8-9.2
		c0.3,0,0.7,0,1.1,0c0.4,0.3,0.8,0.6,1.2,0.8c0.1,0.1,0.1,0.3,0.1,0.4c0.8,2.3,2.8,2.2,4.6,1.8c2.4-0.5,3.3-2.5,3.5-4.7
		c0-1.7,0.1-3.4,0.1-5.1c4-1.1,8.1-1.1,12.1-0.6c0.4,0,1,0.3,1.2,0.7c2.4,3.7,5.8,2.9,9.2,2.1c0.8-0.1,1.6-0.2,2.4-0.3
		c0.2,0.5,0.3,1,0.5,1.6c-0.2,0.7-0.4,1.4-0.6,2.1c-0.3,0.1-0.5,0.1-0.8,0.2c0.3,0,0.5-0.1,0.8-0.1c0.3,1.4-0.4,3.3,1.7,3.9
		c0.5,0.7,1,1.4,1.5,2.2C198.2,177.1,197.7,179.8,196.2,182.1z"/>
	<path class="st22" d="M220.5,69.1l6.4,3.5l-6.4,3.5c-1.9,1.1-3.5,2.7-4.6,4.6l-3.5,10.8l-3.5-10.8c-1.1-1.9-2.7-3.5-4.6-4.6
		l-6.4-3.5l6.4-3.5c1.9-1.1,3.5-2.7,4.6-4.6l3.5-10.8l3.5,10.8C216.9,66.4,218.5,68,220.5,69.1z"/>
	<path class="st22" d="M32.6,143.3l5.7,3.1l-5.7,3.1c-1.7,0.9-3.1,2.4-4.1,4.1l-3.1,9.6l-3.1-9.6c-0.9-1.7-2.4-3.1-4.1-4.1l-5.7-3.1
		l5.7-3.1c1.7-0.9,3.1-2.4,4.1-4.1l3.1-9.6l3.1,9.6C29.5,140.9,30.9,142.4,32.6,143.3z"/>
	<path class="st22" d="M281.7,224.3l3.2,1.8l-3.2,1.8c-1,0.5-1.8,1.3-2.3,2.3l-1.8,5.5l-1.8-5.5c-0.5-1-1.3-1.8-2.3-2.3l-3.2-1.8
		l3.2-1.8c1-0.5,1.8-1.3,2.3-2.3l1.8-5.5l1.8,5.5C279.9,223,280.7,223.8,281.7,224.3z"/>
</g>
<g id="zadzwoń">
</g>
<g id="zapłać">
</g>
</svg>
