<?xml version="1.0" encoding="utf-8"?>
<!-- Generator: Adobe Illustrator 26.0.2, SVG Export Plug-In . SVG Version: 6.00 Build 0)  -->
<svg version="1.1" xmlns="http://www.w3.org/2000/svg" xmlns:xlink="http://www.w3.org/1999/xlink" x="0px" y="0px"
	 viewBox="0 0 348.5 357.1" style="enable-background:new 0 0 348.5 357.1;" xml:space="preserve">
<style type="text/css">
	.st0{fill:#EEE8E3;}
	.st1{fill:#F7313B;}
	.st2{fill:#F9ADB5;}
	.st3{fill:#F8A48A;}
	.st4{fill:#FABB95;}
	.st5{fill:#065C51;}
	.st6{fill:#6C90BD;}
	.st7{fill:#7AA5D3;}
	.st8{fill:none;stroke:#136A37;stroke-width:0.6745;stroke-miterlimit:10;}
	.st9{fill:#E62917;}
	.st10{fill:none;stroke:#FFFFFF;stroke-width:0.6745;stroke-miterlimit:10;}
	.st11{fill:none;stroke:#FFFFFF;stroke-width:0.5699;stroke-miterlimit:10;}
	.st12{fill:none;stroke:#FFFFFF;stroke-width:0.6458;stroke-miterlimit:10;}
	.st13{fill:#CF6B4B;}
	.st14{fill:#054C42;}
	.st15{fill-rule:evenodd;clip-rule:evenodd;fill:#E5A1AB;}
	.st16{fill-rule:evenodd;clip-rule:evenodd;fill:#E47F62;}
	.st17{fill-rule:evenodd;clip-rule:evenodd;fill:#065C51;}
	.st18{fill-rule:evenodd;clip-rule:evenodd;fill:#F9ADB5;}
	.st19{fill-rule:evenodd;clip-rule:evenodd;fill:#FFFFFF;}
	.st20{fill-rule:evenodd;clip-rule:evenodd;fill:#6C90BD;}
	.st21{fill-rule:evenodd;clip-rule:evenodd;fill:#7AA5D3;}
	.st22{fill:#FFFFFF;}
	.st23{fill:#FEFEFE;}
	.st24{fill:#C8A38A;}
	.st25{fill:#DBA183;}
	.st26{fill:#D2B8A8;}
	.st27{fill:#E82E41;}
	.st28{fill:#2A372D;}
	.st29{fill:#E5A889;}
	.st30{fill-rule:evenodd;clip-rule:evenodd;fill:#FFC7D2;}
	.st31{fill:#EFA3AE;}
	.st32{fill:#DBA184;}
	.st33{fill:#6A90BD;}
	.st34{fill-rule:evenodd;clip-rule:evenodd;fill:#D6253F;}
	.st35{fill-rule:evenodd;clip-rule:evenodd;fill:#F7313B;}
	.st36{fill-rule:evenodd;clip-rule:evenodd;fill:#DBA184;}
	.st37{fill:#F1E1C9;}
	.st38{fill:#FDFBF9;}
	.st39{fill:#046857;}
	.st40{fill:#074C42;}
	.st41{fill:#8C5A51;}
	.st42{fill:#085C51;}
	.st43{fill:#E57F5D;}
	.st44{fill:#D36B4F;}
	.st45{fill:#1C1C1C;}
	.st46{fill:#E73143;}
	.st47{fill:#F5ABB6;}
	.st48{fill-rule:evenodd;clip-rule:evenodd;fill:#6A90BD;}
	.st49{fill:#D6253F;}
	.st50{fill:#C6A18A;}
	.st51{fill:#29372B;}
	.st52{fill:#012E60;}
	.st53{fill:#78391A;}
	.st54{fill:#F09880;}
	.st55{fill:#1C9697;}
	.st56{fill:#CE2E45;}
	.st57{fill:#ED3550;}
	.st58{fill:#D8013A;}
	.st59{fill:#F3F4F4;}
	.st60{fill:#911C36;}
	.st61{fill:#F42237;}
	.st62{fill:#D8A85D;}
	.st63{fill:#E52033;}
	.st64{fill:#434543;}
	.st65{fill:#E9E9E9;}
	.st66{opacity:0.31;}
	.st67{fill:#C6CAC6;}
	.st68{fill:#FFD2A8;}
	.st69{fill:#E08D77;}
	.st70{fill:#037C65;}
</style>
<g id="bg">
</g>
<g id="GŁOWNE_KOLORY">
</g>
<g id="COLOR_1">
</g>
<g id="COLOR_2">
</g>
<g id="insp">
</g>
<g id="Kosz_kwiatów">
</g>
<g id="Las_w_szkle">
</g>
<g id="Rośliny">
</g>
<g id="Pogrzebowe">
</g>
<g id="Różne">
	<g id="asparagus_00000026860606421967806950000016870634615805464504_">
		<path class="st47" d="M154.3,174.6c-2.2-4.4-3.1-7.4-3.8-11.9c-0.2-1.6-3-6.1-5.7-9.7c-5.8-13.1-4.7-19.8-3.5-30.2
			c0.4-3,5.3-8.4,6.4-14c1.6-7.6-1.3-16.1-8-24.5c-1.4-2.8-2.6-5.7-3.3-8.7c-0.6-2.7-0.9-5.6-0.6-8.6c0-0.3-0.5-0.3-0.7,0.1
			c-3.9,5.3-3.4,13.8-1.1,21.5c0.8,2.7,4.4,5.6,4.6,7.9c0.6,6.8-4.8,11.4-6.7,17.8c-1.9,6.3-0.4,14.5,1.3,21.3
			c-11.7-7.3-7.3-19.3-7.3-30.5c0-5.5-3.8-10.2-6-15.3c-1.6-3.5-1.3-8.7-3.1-11.8c-1.9-3.3-5.7-4.9-6.4-9.1c0-0.2-0.4,0.2-0.6,0.6
			c-2.4,7.3,2.8,12.9,5.8,19c1.6,4.4-2.3,8.3-2.9,12.8c-0.6,4.9,2.1,10.6,4.4,15.3c0.4,1,1.3,3.5-0.7,2.3
			c-12.7-10.2-9.6-19-11.3-28.7c-0.7-4.1-1.1-10.3-4.5-15c-1.7-2.3-5.6-3.1-8.8-5.6c-2.5-1.9-4.3-5.8-5.4-5.5
			c-2.7,0.8,3.8,12.9,5.7,18.7c2.3,6.6,6.7,12.7,8.4,21.5c-19.5-13.7-7.1-25-30.3-46.9c-0.9,6.1,5.7,8.7,7.5,13.8
			c2,6.3,3,12.3,5.2,18.7c-3.7-3.2-6.4-6.8-9.1-10.7c-2.1-3-5.5-13.5-8-16.7c-2.6-3.3-10.7-10.6-6.9-3.4c4.2,3.1,6.3,17,9.6,20.7
			c1.1,1.3-3.2-1-9.2-4.5c-5-2.8-8.7-10.1-14-13.2c-7.3-4.2-15.5-3.7-14.2-2.2c-1.1-0.3,5.7,2.6,9.6,6.5c1.6,1.6-1.8,3.6,0.8,5.3
			c4.7,3.2,15.6,4.7,20.3,6.9c1.9,0.9,9.2,5.4,8.2,5.2c-2.9-0.5-9.1-1.2-9.8-1.3c-7.8-1.1-14,5.4-21.8,3.3c-6.2-0.1,0.3,3.2,3,3.5
			c5.6,0.5,16.3-3.7,21.5-1.2c7.3,4.9,16.8,3,23.5,8.4c0.4,0.6-3.7-0.7-4.3-0.8c-3.4-0.5-9.9,1-10.6,0.9c-7.9-0.5-9.2,4.2-17.2,2
			c-5-1.4-13.8-4.5-17.7-0.5c12.7,4.3,21.8,7.8,28.8,7.1c15.3-1.5,21.1-11.5,35.1,3.1c-4.6-0.4-11.3,0.3-15.2,2.3
			c-5.3,2.7-7.6,6.9-13.7,5.1c-20.4-3.9-7.3,2.2,4.3,4.6c6.3,0.2,12.3,0.9,16.9-0.9c4.4-1.7,6.1-6.4,9.9-6.6
			c4.2-0.2,10.6,4.6,15.9,12.5c-8.8-2.6-17.9-1.7-24.9,4.5c-4.6,2.8-11.3,2.2-17.4,2.5c-5.6,0.2-10.8,1.1-13.5,5.9
			c-0.2,0.4,0.1,1.2,0.4,1.1c8.1-2,12.3-3.3,21.8-0.9c6.6-0.1,14.2,0.2,20.2-2.3c10.6-4.5,18.9-11.1,27.9,5.1
			c-8.9-4.2-17.7-2.2-24.9,1.6c-3.7,2-5.3,7.2-9.7,6.5c-3.2-0.2-7.1,0.4-10.4,2c-2.8,1.3-5.2,3.2-6.5,5.7c-0.2,0.4,0.3,1.4,0.7,1.4
			c4.2-0.2,9.3-3.1,13.9-3.3c9.9,1.8,17.9-3.5,24.8-7.2c9.3-5,16.7-7.2,24.5,13.9c-5.6-2.5-10.1-5.4-14.2-4.5
			c-4.1,0.9-7.7,5.5-11,4.6c-2.6-0.7-13.7,0.4-20.1,2.4c-9.4,3-13.8,7.6-7.2,7.6c6.4-3.3,10.2-0.7,16.7-0.3c2.2,0.1,5.4-2.4,8.2-3
			c2.9-0.6,5.5,0.7,7.5-0.2c15.2-6.6,21.4-8.2,26.9,11.3C154.4,188.2,156.4,179.7,154.3,174.6z M85.2,93.3
			C85.2,93.3,85.2,93.3,85.2,93.3C85.2,93.3,85.3,93.3,85.2,93.3C85.3,93.3,85.2,93.3,85.2,93.3z M155.9,140.7
			C155.9,140.7,155.9,140.7,155.9,140.7C155.9,140.7,155.9,140.7,155.9,140.7L155.9,140.7z"/>
	</g>
	<g id="asparagus_00000135657432338604967580000007446799688062732208_">
		<path class="st47" d="M171.7,193.1c11.1-16.9,9.5-11.6,12-15.1c13.8-17.8,20.2-13.4,27.5-5.8c5.5,5.7,11.5,13.2,21.5,14.4
			c4.3,1.6,8.3,5.9,12.2,7.4c0.4,0.2,1.2-0.6,1.1-1.1c-0.5-2.8-2.2-5.3-4.5-7.4c-2.7-2.5-6.2-4.3-9.3-5c-4.4-0.7-4.3-6.2-7.2-9.2
			c-5.7-5.8-13.5-10.3-23.2-9.1c13.4-12.7,19.4-3.9,28.1,3.6c4.9,4.3,12.3,6.2,18.5,8.3c9.8,0.5,13.4,3,20.5,7.4
			c0.3,0.2,0.8-0.4,0.7-0.9c-1.1-5.4-5.8-7.8-11-9.7c-5.7-2.1-12.2-3.6-15.8-7.6c-4.8-8.1-13.2-11.7-22.3-11.8c7.5-6,15-8.6,19-7.1
			c3.6,1.3,3.8,6.3,7.5,9.3c3.9,3.1,9.8,4.3,15.8,6c11.8,1.3,26.1-0.6,5.5-3c-6.4-0.1-7.3-4.8-11.5-9c-3.1-3.1-9.3-5.8-13.8-6.8
			c17.8-9.7,20.3,1.6,34.4,7.6c6.5,2.8,16.2,2.2,29.6,1.9c-2.5-4.9-11.8-4.7-17-4.8c-8.3-0.3-8.1-5.1-15.8-7.1
			c-0.6-0.2-6.4-3.5-9.8-4.1c-0.6-0.1-4.9-0.1-4.3-0.6c8.1-3.1,16.5,1.6,25-0.9c5.6-0.8,14.6,6.4,20.1,7.6c2.7,0.6,9.8-0.6,3.9-2.4
			c-8.1-0.3-12-8.5-19.7-9.7c-0.6-0.1-6.8-1.3-9.7-1.7c-1-0.1,7.3-2.2,9.4-2.5c5.2-0.7,16,1.2,21.5-0.4c3-0.9,0.3-3.8,2.4-4.9
			c5-2.6,12.3-3.2,11.2-3.3c1.7-1.1-6-4-14.2-2.2c-6,1.3-11.7,7.1-17.3,8.3c-6.8,1.5-11.6,2.4-10.2,1.5c4.3-2.6,10.5-15.1,15.4-16.8
			c5.8-5.7-4.1-1.1-7.6,1.2c-3.4,2.3-9.8,11.3-12.7,13.5c-3.8,2.9-7.4,5.6-11.9,7.5c4.1-5.4,6.9-10.8,10.6-16.2
			c3.4-4.4,10.4-4.8,11.4-10.9c-28.8,13.8-20.4,28.3-43.1,35.5c4.3-7.9,10.4-12.4,14.6-18c3.6-4.8,13.4-14.5,11.1-16
			c-1-0.7-3.9,2.5-6.8,3.6c-3.8,1.4-7.8,1-10.1,2.6c-4.6,3.4-6.9,9.2-8.8,12.9c-4.6,8.8-4.3,18.1-19.5,24c-2.3,0.5-0.6-1.6,0-2.4
			c3.6-3.8,7.9-8.4,8.8-13.2c0.8-4.5-1.8-9.4,1.1-13.1c4.8-4.9,11.4-8.7,11.3-16.4c0-0.4-0.3-0.9-0.4-0.7c-2,3.8-6,4.1-8.9,6.8
			c-2.7,2.5-3.9,7.4-6.6,10.3c-3.7,4.2-8.7,7.5-10.4,12.8c-3.4,10.6-2.8,23.4-16.2,26.9c3.7-6,7.6-13.3,7.7-19.9
			c0.1-6.6-3.6-12.6-1-19c0.9-2.1,5.2-3.7,6.8-6.1c4.5-6.6,7.5-14.6,5.4-20.8c-0.1-0.4-0.6-0.6-0.7-0.3c-0.6,3-1.8,5.6-3.2,8
			c-1.6,2.6-3.6,5-5.8,7.3c-8.9,6-14.2,13.3-15,21c-0.6,5.7,2.5,12.3,1.9,15.3c-2,10.3-3,17-12.5,27.7c-3.7,2.6-7.7,6.1-8.4,7.5
			c-2,4.1-3.8,6.7-7.3,10.2C168.3,192,167.6,200.8,171.7,193.1z M262.2,131.2c0,0,0.1,0,0.1,0C262.3,131.2,262.3,131.2,262.2,131.2
			C262.3,131.3,262.2,131.3,262.2,131.2z M180.5,155C180.5,155,180.5,155,180.5,155C180.5,155.1,180.5,155.1,180.5,155L180.5,155z"
			/>
	</g>
	<g>
		<path class="st17" d="M140.8,238.9c-33.4-12-0.9-27.2-23.1-36.7c-25-10.6,2.6-28.5-25.6-47c-12.7-8.3-3.2-22.6-13.5-36.1
			c-5.3-6.8,10.6-39.9,26.5-1.2c8.2,20,13.6,4.2,21.2,37.7c4.6,20,13.5,8.1,18.9,24c4.3,12.5,13,8.6,17.3,18.5
			c2.9,6.8,4.6,26-2.8,38.1C158.4,238.3,140.9,239,140.8,238.9L140.8,238.9z"/>
	</g>
	<g>
		<path class="st1" d="M152.5,133.4c9,11.3,18.5,23.5,19.5,37.9c0.2,2.6,0.1,5.2-1,7.6c-1.1,2.3-3.3,4.3-5.9,4.4
			c-2.2,0.1-4.5-1.1-6.7-0.4c-3.3,1.1-4.2,6.1-7.6,7c-2.5,0.7-4.9-1.3-6.5-3.3c-1.7-2-3.4-4.3-5.9-4.7c-2.5-0.4-4.9,1.3-7.3,0.9
			c-2.2-0.3-3.9-2.1-4.7-4.2c-0.7-2.1-0.7-4.3-0.5-6.5C127.5,156,137.3,141.1,152.5,133.4z"/>
		<path class="st1" d="M150.3,137.1c-7.9,12.1-16.6,24.8-30,30.2c-2.4,1-5,1.7-7.5,1.3s-5.1-1.8-6-4.2c-0.8-2.1-0.3-4.7-1.7-6.5
			c-2.1-2.8-7.1-2.1-8.9-5c-1.4-2.2-0.2-5.1,1.1-7.2c1.4-2.2,3.1-4.5,2.6-7.1c-0.4-2.4-2.7-4.2-3.1-6.7c-0.4-2.2,0.8-4.4,2.5-5.7
			c1.7-1.4,3.9-2,6-2.4C121.1,120.4,138.4,125.1,150.3,137.1z"/>
		<path class="st1" d="M146.2,136.3c-13.9-3.8-28.8-8.1-38-19.2c-1.7-2-3.1-4.2-3.6-6.7c-0.5-2.5,0.2-5.4,2.2-7
			c1.8-1.4,4.3-1.8,5.7-3.6c2.1-2.8-0.2-7.4,2-10.1c1.6-2,4.7-1.8,7.2-1.2c2.5,0.6,5.3,1.5,7.6,0.3c2.2-1.2,3.2-3.9,5.4-5.1
			c1.9-1,4.4-0.6,6.2,0.7c1.8,1.2,3.1,3.1,4.2,5C153.1,103.3,153.9,121.2,146.2,136.3z"/>
		<path class="st1" d="M145.7,132c-0.7-14.4-1.1-29.9,6.5-42.1c1.4-2.2,3-4.3,5.3-5.5c2.3-1.2,5.2-1.5,7.3-0.1
			c1.9,1.2,3,3.6,5.2,4.3c3.3,1.1,6.9-2.5,10.2-1.2c2.4,0.9,3.2,3.9,3.3,6.5c0.2,2.6,0.2,5.5,2,7.3c1.8,1.7,4.7,1.8,6.5,3.6
			c1.6,1.5,1.9,4,1.3,6.1c-0.6,2.1-2,3.9-3.5,5.5C179.2,128.4,162.4,134.8,145.7,132z"/>
		<path class="st1" d="M149.6,130.3c13.5-5.1,28.1-10.3,42.1-6.8c2.5,0.6,5,1.6,6.9,3.3s3,4.5,2.4,7c-0.6,2.2-2.5,4-2.5,6.2
			c0,3.5,4.5,5.8,4.3,9.3c-0.1,2.6-2.8,4.2-5.2,5.2c-2.4,1-5.2,1.9-6.3,4.2c-1.1,2.2-0.3,5-1.4,7.2c-1,2-3.2,3.1-5.4,3.1
			c-2.2,0.1-4.3-0.7-6.3-1.6C163.4,161,152.2,147,149.6,130.3z"/>
	</g>
	<g>
		<g>
			<path class="st47" d="M148.3,131.9c-9.3-10.1-18.8-20.1-28.1-30.3c-0.1-0.1-0.2,0-0.1,0.1c3.9,5.7,7.7,11.5,11.9,17.1
				c4.2,5.6,8.6,11,13.6,15.8C146.9,135.8,149.5,133.2,148.3,131.9z"/>
		</g>
		<g>
			<path class="st47" d="M149,132c-3.5-8.8-9-16.7-15.5-23.4c0,0-0.2,0.1-0.1,0.1c2.5,4,4.5,8.2,6.4,12.5c1.9,4.2,3.7,8.4,5.8,12.5
				C146,134.6,149.4,133.1,149,132z"/>
		</g>
		<g>
			<path class="st47" d="M151.4,129.7c-0.4-5.6-1.9-11.2-4.2-16.4c-2.3-5.2-5.4-10-9.1-14.1c0-0.1-0.2,0.1-0.2,0.1
				c2.9,4.8,4.9,10,6.3,15.2c1.4,5.2,2.4,10.5,3.3,15.7C147.8,131.5,151.5,131.1,151.4,129.7z"/>
		</g>
		<g>
			<path class="st47" d="M150.1,135.1c1-6.2,2.4-12.4,4.4-18.4c1.9-6,4.3-11.9,7.3-17.6c0-0.1-0.1-0.2-0.2-0.1
				c-3.8,5.1-7.3,10.7-10,16.6c-2.7,6-4.7,12.4-5.3,18.9C146.1,136.3,149.9,136.6,150.1,135.1z"/>
		</g>
		<g>
			<path class="st47" d="M151.9,133.9c6.3-10.1,12.3-20.3,18.7-30.4c0-0.1-0.1-0.2-0.1-0.1c-4,4.5-8.1,8.9-11.8,13.6
				c-3.8,4.7-7.3,9.6-10.1,15C147.9,133.3,151.1,135.1,151.9,133.9z"/>
		</g>
		<g>
			<path class="st47" d="M150.8,134.3c5.4-2.4,10.5-5.8,14.8-10c4.3-4.1,7.9-9,10.6-14.2c0-0.1-0.1-0.2-0.2-0.1
				c-3.5,4.7-7.9,8.6-12.5,12c-4.6,3.4-9.5,6.2-14.4,8.8C147.9,131.5,149.4,134.9,150.8,134.3z"/>
		</g>
		<g>
			<path class="st47" d="M152.2,133.9c3.3,5.4,7.6,10.3,12.4,14.5c4.9,4.1,10.3,7.5,16.1,10c0.1,0,0.2-0.1,0.1-0.2
				c-5.3-3.4-10-7.6-14.1-12.1c-4.1-4.6-7.8-9.4-11.3-14.3C154.6,130.5,151.4,132.5,152.2,133.9z"/>
		</g>
		<g>
			<path class="st47" d="M153.5,133c3.5,3.3,7.6,6,11.9,8.1c4.3,2.1,8.9,3.6,13.6,4.5c0.1,0,0.1-0.2,0.1-0.2
				c-4.4-1.8-8.4-4.4-12.1-7.1c-3.8-2.7-7.3-5.6-10.9-8.3C155.1,129.4,152.6,132.2,153.5,133z"/>
		</g>
		<g>
			<path class="st47" d="M155.9,134.9c5.1,0.1,10.2,0.5,15.2,1.4c5,0.9,10,2.3,14.8,4.2c0.1,0,0.1-0.1,0.1-0.2
				c-4.4-2.8-9.1-5.4-14.2-7.1c-5.1-1.7-10.6-2.7-16-2.2C154.4,131.1,154.6,134.9,155.9,134.9z"/>
		</g>
		<g>
			<path class="st47" d="M152.9,133.5c5-0.9,10.2-1.4,15.3-1.6c5.1-0.1,10.3,0.1,15.5,1c0.1,0,0.1-0.2,0-0.2
				c-4.9-1.8-10.1-3.2-15.5-3.9c-5.4-0.7-10.9-0.5-16.2,0.9C150.7,130.1,151.6,133.7,152.9,133.5z"/>
		</g>
		<g>
			<path class="st47" d="M149.2,132.8c-3.6,5.8-6.5,12.1-8.6,18.7c-2.1,6.5-3.5,13.3-4.2,20.1c0,0.1,0.2,0.1,0.2,0
				c1.6-6.6,4.1-12.9,6.9-19c2.8-6.1,6-11.9,9.1-17.8C153.3,133.3,150.1,131.3,149.2,132.8z"/>
		</g>
		<g>
			<path class="st47" d="M149.2,132.9c-0.8,11.5-0.5,23.1,0.2,34.6c0,0.1,0.2,0.1,0.2,0c1.3-11.5,3.6-23,3.4-34.5
				C153.1,131.5,149.3,131.4,149.2,132.9z"/>
		</g>
		<g>
			<path class="st47" d="M150.2,134.1c2.1,5.9,3.8,12,5.1,18.2c1.2,6.2,2,12.5,2.1,18.9c0,0.1,0.2,0.1,0.2,0
				c0.9-6.3,1.3-12.9,0.8-19.4c-0.5-6.5-1.9-13.1-4.6-19.1C153.1,131.1,149.7,132.6,150.2,134.1z"/>
		</g>
		<g>
			<path class="st47" d="M151.3,135.4c3.3,4.7,6,9.8,8,15.3c1.9,5.5,3.1,11.2,3.4,17.1c0,0.1,0.2,0.1,0.2,0c0.8-5.9,0.7-12-0.6-18.1
				c-1.3-6-3.9-11.9-7.9-16.7C153.4,131.8,150.5,134.2,151.3,135.4z"/>
		</g>
		<g>
			<path class="st47" d="M148.3,130c-4.4-2-9.1-3.4-13.8-4.1c-4.8-0.7-9.6-0.7-14.3-0.1c-0.1,0-0.1,0.2,0,0.2
				c4.7,0.4,9.4,1.6,13.8,3c4.4,1.4,8.7,3.1,13,4.6C147.9,134,149.4,130.6,148.3,130z"/>
		</g>
		<g>
			<path class="st47" d="M149.9,133.4c-11.2,0.4-22.4,3.6-32.3,8.6c-0.1,0,0,0.2,0.1,0.2c5.3-1.6,10.9-2.5,16.3-3.2
				c5.5-0.7,10.9-1.1,16.3-1.7C151.6,137.1,151.3,133.4,149.9,133.4z"/>
		</g>
		<g>
			<path class="st47" d="M148.2,134.5c-5,3.5-10.4,6.6-16,9.2c-5.6,2.5-11.6,4.5-17.7,5.8c-0.1,0-0.1,0.2,0,0.2
				c6.3-0.3,12.7-1.2,18.8-3.1c6.2-1.9,12.2-4.8,17.2-9C151.8,136.5,149.5,133.6,148.2,134.5z"/>
		</g>
		<g>
			<path class="st47" d="M150.9,131.1c-6.8-1.4-13.9-1.8-20.9-1.2c-7,0.6-13.9,2.3-20.3,4.8c-0.1,0,0,0.2,0.1,0.2
				c6.7-1.5,13.7-2,20.4-1.8c6.8,0.2,13.5,0.9,20.1,1.9C151.9,135.2,152.7,131.5,150.9,131.1z"/>
		</g>
	</g>
	<path class="st17" d="M146.1,195.6c-12.9-46.2,29.3-22.2,22.3-54.1c-7.9-35.8,33.4-19.4,31.7-64.9c-0.8-20.5,22.4-21.2,29.1-43.1
		c3.4-11.1,52.2-19.5,22,28.2c-15.6,24.6,6,18.2-24.8,52.8c-18.4,20.7,1.6,21.2-11.7,39.5c-10.4,14.4,0.7,21.1-6.9,33.5
		c-5.2,8.6-25,25.4-44.1,26.7C160.5,214.5,146.1,195.7,146.1,195.6L146.1,195.6z"/>
	<path class="st19" d="M231.9,67.3c-8-5.4-48.1,79.6-56.3,116.6c-10.9,49.7,12.3-23.1,13-24.7c10.3-22.9,16.1-48.2,26-62.8
		C218.4,91.1,228.6,76.4,231.9,67.3L231.9,67.3z"/>
	<path class="st48" d="M82.1,332.1c107.7,0,20.7,0,142.5,0c20.7-61.6,11.7-107.3,68.4-136.9c2.3-1.2-0.9-14-4.8-14.4
		c-65.5,31.9-76.8,92.9-76.8,92.9s0,0-6.6-69.9c-20.1,1.6-97.2,0.1-97.4,1c-0.6,2.2-1.3,4.7-2.1,7.3c-5.6-10.9-13-20.9-16.2-24.7
		c-14.3-16.8-29.7-19.7-40.7-17.5c-12.7,2.5-21.7,15.1-23.7,31.2c-4.9,39.6,37.2,90,51.1,110.1c-5.5,21-5.5,21-5.5,21H82.1z
		 M101.2,226.5c-22.2,70.1,0,0-22.2,70.1c-10-13.7-21.6-26.5-34-49.2c-21.3-39.2-11.1-75.9,21.5-64.1
		C80.8,188.5,91.4,210.8,101.2,226.5L101.2,226.5z"/>
	<path class="st21" d="M152.6,266.7c-6.5-17.6-12.7-17-15.9-11.6c-8.2,13.9,14.3,39.1,14.5,38.9c2.1-1.5,3.6-4,8.6-12.5
		C181.1,246,159.7,247,152.6,266.7L152.6,266.7z"/>
	<path class="st22" d="M261.2,59.6l6.1,3.3l-6.1,3.3c-1.8,1-3.4,2.5-4.4,4.4L253.5,81l-3.3-10.3c-1-1.8-2.5-3.4-4.4-4.4l-6.1-3.3
		l6.1-3.3c1.8-1,3.4-2.5,4.4-4.4l3.3-10.3l3.3,10.3C257.8,57.1,259.3,58.6,261.2,59.6z"/>
	<path class="st22" d="M276.4,211.8l4.4,2.4l-4.4,2.4c-1.3,0.7-2.4,1.8-3.1,3.1l-2.4,7.4l-2.4-7.4c-0.7-1.3-1.8-2.4-3.1-3.1
		l-4.4-2.4l4.4-2.4c1.3-0.7,2.4-1.8,3.1-3.1l2.4-7.4l2.4,7.4C274,210,275.1,211.1,276.4,211.8z"/>
	<path class="st22" d="M90.3,270.7l4,2.2l-4,2.2c-1.2,0.7-2.2,1.7-2.9,2.9l-2.2,6.8l-2.2-6.8c-0.7-1.2-1.7-2.2-2.9-2.9l-4-2.2l4-2.2
		c1.2-0.7,2.2-1.7,2.9-2.9l2.2-6.8l2.2,6.8C88.1,269,89.1,270,90.3,270.7z"/>
</g>
<g id="Flower_box">
</g>
<g id="Bukiet">
</g>
<g id="Ślubne">
</g>
<g id="Siedząca_z_kwiatami">
</g>
<g id="zadzwoń">
</g>
<g id="zapłać">
</g>
</svg>
