<?xml version="1.0" encoding="utf-8"?>
<!-- Generator: Adobe Illustrator 26.0.2, SVG Export Plug-In . SVG Version: 6.00 Build 0)  -->
<svg version="1.1" xmlns="http://www.w3.org/2000/svg" xmlns:xlink="http://www.w3.org/1999/xlink" x="0px" y="0px"
	 viewBox="0 0 342.9 343" style="enable-background:new 0 0 342.9 343;" xml:space="preserve">
<style type="text/css">
	.st0{fill:#EEE8E3;}
	.st1{fill:#F7313B;}
	.st2{fill:#F9ADB5;}
	.st3{fill:#F8A48A;}
	.st4{fill:#FABB95;}
	.st5{fill:#065C51;}
	.st6{fill:#6C90BD;}
	.st7{fill:#7AA5D3;}
	.st8{fill:none;stroke:#136A37;stroke-width:0.6745;stroke-miterlimit:10;}
	.st9{fill:#E62917;}
	.st10{fill:none;stroke:#FFFFFF;stroke-width:0.6745;stroke-miterlimit:10;}
	.st11{fill:none;stroke:#FFFFFF;stroke-width:0.5699;stroke-miterlimit:10;}
	.st12{fill:none;stroke:#FFFFFF;stroke-width:0.6458;stroke-miterlimit:10;}
	.st13{fill:#CF6B4B;}
	.st14{fill:#054C42;}
	.st15{fill-rule:evenodd;clip-rule:evenodd;fill:#E5A1AB;}
	.st16{fill-rule:evenodd;clip-rule:evenodd;fill:#E47F62;}
	.st17{fill-rule:evenodd;clip-rule:evenodd;fill:#065C51;}
	.st18{fill-rule:evenodd;clip-rule:evenodd;fill:#F9ADB5;}
	.st19{fill-rule:evenodd;clip-rule:evenodd;fill:#FFFFFF;}
	.st20{fill-rule:evenodd;clip-rule:evenodd;fill:#6C90BD;}
	.st21{fill-rule:evenodd;clip-rule:evenodd;fill:#7AA5D3;}
	.st22{fill:#FFFFFF;}
	.st23{fill:#FEFEFE;}
	.st24{fill:#C8A38A;}
	.st25{fill:#DBA183;}
	.st26{fill:#D2B8A8;}
	.st27{fill:#E82E41;}
	.st28{fill:#2A372D;}
	.st29{fill:#E5A889;}
	.st30{fill-rule:evenodd;clip-rule:evenodd;fill:#FFC7D2;}
	.st31{fill:#EFA3AE;}
	.st32{fill:#DBA184;}
	.st33{fill:#6A90BD;}
	.st34{fill-rule:evenodd;clip-rule:evenodd;fill:#D6253F;}
	.st35{fill-rule:evenodd;clip-rule:evenodd;fill:#F7313B;}
	.st36{fill-rule:evenodd;clip-rule:evenodd;fill:#DBA184;}
	.st37{fill:#F1E1C9;}
	.st38{fill:#FDFBF9;}
	.st39{fill:#046857;}
	.st40{fill:#074C42;}
	.st41{fill:#8C5A51;}
	.st42{fill:#085C51;}
	.st43{fill:#E57F5D;}
	.st44{fill:#D36B4F;}
	.st45{fill:#1C1C1C;}
	.st46{fill:#E73143;}
	.st47{fill:#F5ABB6;}
	.st48{fill-rule:evenodd;clip-rule:evenodd;fill:#6A90BD;}
	.st49{fill:#D6253F;}
	.st50{fill:#C6A18A;}
	.st51{fill:#29372B;}
	.st52{fill:#012E60;}
	.st53{fill:#78391A;}
	.st54{fill:#F09880;}
	.st55{fill:#1C9697;}
	.st56{fill:#CE2E45;}
	.st57{fill:#ED3550;}
	.st58{fill:#D8013A;}
	.st59{fill:#F3F4F4;}
	.st60{fill:#911C36;}
	.st61{fill:#F42237;}
	.st62{fill:#D8A85D;}
	.st63{fill:#E52033;}
	.st64{fill:#434543;}
	.st65{fill:#E9E9E9;}
	.st66{opacity:0.31;}
	.st67{fill:#C6CAC6;}
	.st68{fill:#FFD2A8;}
	.st69{fill:#E08D77;}
	.st70{fill:#037C65;}
</style>
<g id="bg">
</g>
<g id="GŁOWNE_KOLORY">
</g>
<g id="COLOR_1">
</g>
<g id="COLOR_2">
</g>
<g id="insp">
</g>
<g id="Kosz_kwiatów">
	<path class="st32" d="M207.3,131.1c-7.8-16.7-20.8-26.1-38.7-24.3c-24.7,2.4-44,25.6-49.4,49l-14.5,53.8l-15.3,1.8l26-69.8
		c10.3-24.6,39.2-40.3,66.5-37.6c15.8,1.6,30.2,8.9,37.7,21.9"/>
	<g id="asparagus_00000011022346087092375500000016457384480920451471_">
		<path class="st33" d="M166.3,210.7c-3.4-3.6-5.1-6.2-7-10.3c-0.7-1.5-4.6-5-8.2-7.7c-9.2-10.9-10.1-17.7-11.9-28
			c-0.5-3,2.7-9.5,2.2-15.3c-0.7-7.7-5.8-15.1-14.6-21.3c-2.1-2.3-4.1-4.7-5.6-7.4c-1.4-2.4-2.5-5.1-3-8c-0.1-0.3-0.5-0.1-0.7,0.3
			c-2.3,6.2,0.7,14.2,5,20.9c1.5,2.4,5.8,4.1,6.7,6.2c2.5,6.4-1.3,12.3-1.4,18.9s3.7,14,7.3,20.1c-13.3-3.7-12.5-16.5-15.7-27.2
			c-1.6-5.3-6.5-8.7-10.1-13c-2.6-2.9-3.7-7.9-6.4-10.4c-2.8-2.7-6.8-3.1-8.7-6.9c-0.1-0.2-0.4,0.3-0.4,0.7
			c-0.2,7.7,6.3,11.6,11,16.6c2.8,3.8,0.1,8.6,0.9,13.1c0.8,4.9,5,9.5,8.5,13.4c0.7,0.8,2.3,3,0,2.4c-15-6.2-14.6-15.5-19-24.4
			c-1.9-3.7-4-9.6-8.6-13.1c-2.3-1.7-6.3-1.4-10-2.8c-2.9-1.1-5.7-4.4-6.8-3.7c-2.3,1.5,7.3,11.3,10.8,16.3
			c4.1,5.7,10,10.3,14.2,18.3c-22.6-7.6-13.9-22-42.4-36.4c0.8,6.1,7.9,6.7,11.2,11.1c3.7,5.5,6.3,10.9,10.3,16.4
			c-4.4-2-8.1-4.7-11.8-7.7c-2.8-2.3-9.1-11.4-12.4-13.7c-3.5-2.4-13.2-7.1-7.6-1.3c4.9,1.8,10.8,14.5,15.1,17.1
			c1.4,0.9-3.3-0.1-10.1-1.7c-5.6-1.3-11.2-7.2-17.1-8.7c-8.2-2-15.9,0.8-14.3,1.9c-1.2,0,6.2,0.9,11.1,3.5c2,1.1-0.7,4,2.3,4.9
			c5.4,1.7,16.2,0,21.5,0.9c2.1,0.3,10.4,2.6,9.4,2.7c-2.9,0.4-9.1,1.4-9.7,1.5c-7.8,1.1-11.8,9.2-19.9,9.4c-5.9,1.6,1.2,3,3.9,2.5
			c5.5-1.1,14.6-8.1,20.2-7.2c8.4,2.7,17-1.9,24.9,1.4c0.5,0.5-3.8,0.4-4.3,0.5c-3.4,0.5-9.2,3.7-9.9,3.9c-7.7,1.8-7.6,6.6-15.9,6.8
			c-5.2,0.1-14.5-0.4-17.1,4.5c13.4,0.5,23.1,1.3,29.6-1.4c14.2-5.8,17-17,34.6-7c-4.5,0.9-10.8,3.5-14,6.5
			c-4.3,4.1-5.3,8.8-11.7,8.8c-20.6,2-6.4,4.2,5.4,3.1c6.1-1.6,12-2.6,15.9-5.6c3.8-2.9,4-7.9,7.7-9.1c4-1.4,11.5,1.4,18.8,7.5
			c-9.2-0.1-17.6,3.4-22.6,11.4c-3.7,4-10.2,5.3-16,7.3c-5.3,1.8-10,4.1-11.2,9.5c-0.1,0.5,0.4,1.1,0.7,0.9c7.2-4.2,10.8-6.7,20.6-7
			c6.3-2,13.7-3.8,18.7-8c8.9-7.3,15-16,28.2-3c-9.7-1.5-17.6,2.9-23.4,8.6c-3,2.9-3,8.4-7.4,9c-3.1,0.7-6.6,2.4-9.4,4.8
			c-2.3,2-4.1,4.6-4.6,7.3c-0.1,0.5,0.7,1.3,1.1,1.2c4-1.4,8.1-5.6,12.4-7.1c10-1.1,16.2-8.4,21.8-14c7.5-7.4,14-11.7,27.4,6.4
			c-6.1-0.9-11.2-2.3-14.9-0.3c-3.7,2-5.9,7.4-9.2,7.5c-2.7,0.1-13.1,4.2-18.6,8c-8.2,5.5-11,11.2-4.7,9.3c5.2-5,9.6-3.5,16-5
			c2.1-0.5,4.5-3.8,7-5.2c2.6-1.4,5.4-0.8,7.2-2.3c12.7-10.7,18.2-13.9,29,3.2C170.2,223.8,169.8,214.9,166.3,210.7z M77,152.3
			C77,152.3,77,152.3,77,152.3C77,152.3,77,152.3,77,152.3C77,152.3,77,152.3,77,152.3z M158.2,177.8
			C158.2,177.7,158.2,177.7,158.2,177.8C158.2,177.7,158.2,177.7,158.2,177.8L158.2,177.8z"/>
	</g>
	<g id="asparagus_00000057834089994422501980000010560353670884408750_">
		<path class="st33" d="M175,211.6c11.1-16.9,9.5-11.6,12-15.1c13.8-17.8,20.2-13.4,27.5-5.8c5.5,5.7,11.5,13.2,21.5,14.4
			c4.3,1.6,8.3,5.9,12.2,7.4c0.4,0.2,1.2-0.6,1.1-1.1c-0.5-2.8-2.2-5.3-4.5-7.4c-2.7-2.5-6.2-4.3-9.3-5c-4.4-0.7-4.3-6.2-7.2-9.2
			c-5.7-5.8-13.5-10.3-23.2-9.1c13.4-12.7,19.4-3.9,28.1,3.6c4.9,4.3,12.3,6.2,18.5,8.3c9.8,0.5,13.4,3,20.5,7.4
			c0.3,0.2,0.8-0.4,0.7-0.9c-1.1-5.4-5.8-7.8-11-9.7c-5.7-2.1-12.2-3.6-15.8-7.6c-4.8-8.1-13.2-11.7-22.3-11.8c7.5-6,15-8.6,19-7.1
			c3.6,1.3,3.8,6.3,7.5,9.3c3.9,3.1,9.8,4.3,15.8,6c11.8,1.3,26.1-0.6,5.5-3c-6.4-0.1-7.3-4.8-11.5-9c-3.1-3.1-9.3-5.8-13.8-6.8
			c17.8-9.7,20.3,1.6,34.4,7.6c6.5,2.8,16.2,2.2,29.6,1.9c-2.5-4.9-11.8-4.7-17-4.8c-8.3-0.3-8.1-5.1-15.8-7.1
			c-0.6-0.2-6.4-3.5-9.8-4.1c-0.6-0.1-4.9-0.1-4.3-0.6c8.1-3.1,16.5,1.6,25-0.9c5.6-0.8,14.6,6.4,20.1,7.6c2.7,0.6,9.8-0.6,3.9-2.4
			c-8.1-0.3-12-8.5-19.7-9.7c-0.6-0.1-6.8-1.3-9.7-1.7c-1-0.1,7.3-2.2,9.4-2.5c5.2-0.7,16,1.2,21.5-0.4c3-0.9,0.3-3.8,2.4-4.9
			c5-2.6,12.3-3.2,11.2-3.3c1.7-1.1-6-4-14.2-2.2c-6,1.3-11.7,7.1-17.3,8.3c-6.8,1.5-11.6,2.4-10.2,1.5c4.3-2.6,10.5-15.1,15.4-16.8
			c5.8-5.7-4.1-1.1-7.6,1.2c-3.4,2.3-9.8,11.3-12.7,13.5c-3.8,2.9-7.4,5.6-11.9,7.5c4.1-5.4,6.9-10.8,10.6-16.2
			c3.4-4.4,10.4-4.8,11.4-10.9c-28.8,13.8-20.4,28.3-43.1,35.5c4.3-7.9,10.4-12.4,14.6-18c3.6-4.8,13.4-14.5,11.1-16
			c-1-0.7-3.9,2.5-6.8,3.6c-3.8,1.4-7.8,1-10.1,2.6c-4.6,3.4-6.9,9.2-8.8,12.9c-4.6,8.8-4.3,18.1-19.5,24c-2.3,0.5-0.6-1.6,0-2.4
			c3.6-3.8,7.9-8.4,8.8-13.2c0.8-4.5-1.8-9.4,1.1-13.1c4.8-4.9,11.4-8.7,11.3-16.4c0-0.4-0.3-0.9-0.4-0.7c-2,3.8-6,4.1-8.9,6.8
			c-2.7,2.5-3.9,7.4-6.6,10.3c-3.7,4.2-8.7,7.5-10.4,12.8c-3.4,10.6-2.8,23.4-16.2,26.9c3.7-6,7.6-13.3,7.7-19.9
			c0.1-6.6-3.6-12.6-1-19c0.9-2.1,5.2-3.7,6.8-6.1c4.5-6.6,7.5-14.6,5.4-20.8c-0.1-0.4-0.6-0.6-0.7-0.3c-0.6,3-1.8,5.6-3.2,8
			c-1.6,2.6-3.6,5-5.8,7.3c-8.9,6-14.2,13.3-15,21c-0.6,5.7,2.5,12.3,1.9,15.3c-2,10.3-3,17-12.5,27.7c-3.7,2.6-7.7,6.1-8.4,7.5
			c-2,4.1-3.8,6.7-7.3,10.2C171.6,210.5,170.9,219.3,175,211.6z M265.5,149.8c0,0,0.1,0,0.1,0C265.6,149.8,265.6,149.8,265.5,149.8
			C265.6,149.8,265.5,149.8,265.5,149.8z M183.8,173.6C183.8,173.6,183.8,173.6,183.8,173.6C183.8,173.6,183.8,173.6,183.8,173.6
			L183.8,173.6z"/>
	</g>
	<path class="st17" d="M122.5,231.3c-4.1-47.7,32.9-16.5,31.9-49c-1.2-36.6,36.4-12.9,43.1-58c3-20.3,26-16.7,36.5-37
		c5.4-10.3,54.9-9.5,16.5,31.8c-19.9,21.3,2.6,19-34.1,47.3c-21.9,16.9-2.3,21.1-18.7,36.7c-12.9,12.3-3.2,20.9-12.9,31.6
		c-6.7,7.5-29.2,20.3-48.3,18.1C133.2,252.5,122.5,231.4,122.5,231.3L122.5,231.3z"/>
	<g>
		<path class="st34" d="M206.2,69.6c-13.1-7.8-13.5-25.3-12.1-34.2c0.6-3.8,7.9-20.9,14.9-16.6c11.5,7,4.7,23.2,7.7,18.7
			c6.2-9.3,19.6,1.5,17,14.5c0,0,8.1-5.7,10.8-1c1.9,3.2-0.6,12.5-12.8,17.5C223.2,72,212.3,73.3,206.2,69.6L206.2,69.6z"/>
		<path class="st16" d="M239.6,43.8c-0.1-0.1-1.2,1.1-4.2,4.5c-2.6,2.9-13.1,15.7-12.3,15.7C223.9,64,240.4,44.9,239.6,43.8
			L239.6,43.8z M223.1,21.8c0.1,0.1-0.7,1.7-2.8,5.9c-1.8,3.6-9.9,18.3-10,17.2C210.3,43.8,222.3,20.7,223.1,21.8L223.1,21.8z
			 M226.2,15.4c-4.8,2.4-1.6,5-1,4.8C226.7,19.9,230,16,226.2,15.4L226.2,15.4z M229.9,28.5c0.1,1.2-0.8,1.7-3.1,5.7
			c-2,3.5-10.8,17.8-10.7,16.8C216.2,49.9,229.7,26.7,229.9,28.5L229.9,28.5z M232.7,22.2c-4.8,2.3-1.6,5-1,4.8
			C233.2,26.7,236.5,22.8,232.7,22.2L232.7,22.2z M237.2,33.5c-0.8,0.1-1.2,1.1-4.3,4.4c-2.6,2.9-13.5,15.3-12.8,15.2
			C220.8,53.1,238.7,33.3,237.2,33.5L237.2,33.5z M243.1,28.9c-0.5,5.3-4.1,3.3-4.1,2.6C238.8,30,241.2,25.6,243.1,28.9L243.1,28.9z
			 M244.8,39.6c-0.5,5.3-4.1,3.3-4.1,2.7C240.4,40.7,242.9,36.2,244.8,39.6L244.8,39.6z"/>
		<path class="st17" d="M193,86.7c9.4-14.8-4.4-7.9-5.5-5.4c-5.6,13.6-37.3,17.9-43.4,68.6c-2.2,18-11.1,22.3-0.5,22.9
			c0.7,0,7.9-24.9,13.2-45.5C163.1,103.2,186.2,97.4,193,86.7L193,86.7z"/>
		<path class="st35" d="M195.1,88.2c-15.9-8.7-14.7-31-11.9-42.6c1.2-5,10.8-31.4,20-28.4c8.9,2.9,3.6,26.9,8.5,21.4
			c8.1-9.1,21.4,3.5,16.8,20.3c2.2,2.2,25.4-7.1,17.1,7.6C239.9,76.5,209,95.7,195.1,88.2L195.1,88.2z"/>
		<path class="st17" d="M149.1,133.6c-1.6-14.1-3.9-16.3-3.6-22.2c0.7-14.9,15.8-29,22.9-45.5c1.4-3.3,4.7,8,2.5,18.5
			c-1.3,6-6.5,10.4-9.4,15c-2.6,4.1-3.2,14.4-6.6,20.5C153.4,122.7,152.6,132.6,149.1,133.6L149.1,133.6z"/>
	</g>
	<g>
		<path class="st34" d="M140.1,133.3c-11.3,10.3-28.1,5.7-36.2,1.7c-3.5-1.7-17.7-13.5-11.6-19.1c10-9,23.6,2.1,20.2-2
			c-7.1-8.6,7.1-18.3,18.7-12.2c0,0-3.1-9.4,2.1-10.7c3.7-0.9,11.8,4.1,13.1,17.3C147.3,117.7,145.3,128.5,140.1,133.3L140.1,133.3z
			"/>
		<path class="st16" d="M124.9,93.9c-0.1,0.1,0.7,1.5,3.1,5.3c2.1,3.3,11.3,17,11.5,16.3C139.7,114.7,126.2,93.4,124.9,93.9
			L124.9,93.9z M99.1,103.4c0.2,0,1.5,1.1,4.8,4.4c2.9,2.8,14.7,14.8,13.6,14.5C116.5,122,97.8,103.8,99.1,103.4L99.1,103.4z
			 M93.9,98.6c0.9,5.3,4.3,3,4.3,2.3C98.3,99.4,95.6,95.1,93.9,98.6L93.9,98.6z M107.5,98.8c1.1,0.2,1.4,1.2,4.6,4.6
			c2.8,2.9,14,15.4,13,15.1C124,118.1,105.7,98.4,107.5,98.8L107.5,98.8z M102.3,94.3c0.9,5.3,4.3,3,4.3,2.3
			C106.7,95.1,103.9,90.8,102.3,94.3L102.3,94.3z M114.4,93.3c-0.1,0.8,0.7,1.5,3,5.4c2,3.3,10.7,17.3,10.9,16.7
			C128.4,114.6,114.6,91.7,114.4,93.3L114.4,93.3z M111.7,86.2c5,2,2,4.8,1.3,4.7C111.5,90.7,107.9,87.1,111.7,86.2L111.7,86.2z
			 M122.4,87.7c5,2,2,4.8,1.4,4.7C122.2,92.2,118.6,88.6,122.4,87.7L122.4,87.7z"/>
		<path class="st17" d="M152.6,150.9c-11.4-13.3-8.9,2-6.7,3.7c11.4,9.2,6.4,40.9,53.2,61.3c16.6,7.2,18.1,17.1,21.8,7
			c0.2-0.7-21.6-14.7-39.7-25.8C159.8,184.2,160.9,160.5,152.6,150.9L152.6,150.9z"/>
		<path class="st35" d="M154.7,149.3c-12.9,12.8-33.9,5.1-44.2-0.8c-4.4-2.6-27-19.4-21.4-27.3c5.4-7.7,26.8,4.3,22.9-2
			c-6.4-10.3,9.5-19.5,24.3-10.3c2.8-1.5,0.5-26.3,12.2-14.2C156.4,103,165.9,138.2,154.7,149.3L154.7,149.3z"/>
		<path class="st17" d="M185,206.4c-14-2.6-16.7-1-22.3-3c-14.1-4.9-23.2-23.5-37-35c-2.8-2.3,9-2.2,18.5,2.9
			c5.4,2.9,8.1,9.2,11.7,13.3c3.2,3.7,12.8,7.2,17.7,12.2C175.7,199.1,184.9,202.7,185,206.4L185,206.4z"/>
	</g>
	<path class="st4" d="M303.2,223.3c-1.6,13.7-4.6,27.1-9.1,40.3c-3.5,10.3-7.7,20.3-13,29.8c-7,12.4-18.1,19.1-32.1,21.8
		c-8.8,1.7-17.6,3.5-26.5,4.9c-7,1.1-14.1,1.8-21.1,2.2c-8.7,0.5-17.5,1.1-26.2,0.8c-15-0.4-30-1.4-44.8-3.8
		c-11.6-1.9-23.1-4.1-34.4-7.2c-13.5-3.7-24.7-10.5-31.1-23.2c-4.6-9-6.8-18.6-9-28.3c-2.2-10-4.4-20-6.6-29.9L303.2,223.3z"/>
	<path class="st32" d="M46.5,234.5c-4.1,0.5-4.1-2.7-4.4-5.4c-0.4-3.8-0.5-7.6-1-11.4c-0.2-1.4,0.2-2.4,1-3.2c0.9-1,2.2-1.5,3.6-1.7
		c19.8-1.9,244.7-14.5,255.5-12.3c5.7,1.1,9.1,4.9,9.8,9.9c0.9,6.7-1,10.4-6.4,13.6C302.7,225.1,47.2,234.5,46.5,234.5z"/>
	<polygon class="st36" points="54.5,254.8 299.3,245.4 296.9,254.8 55.8,260.7 	"/>
	<polygon class="st36" points="57.5,268.2 294.1,263.6 291.2,271.6 58.9,273.5 	"/>
	<polygon class="st36" points="62.6,284.2 288.3,278.7 285.7,284.2 64.8,289 	"/>
	<polygon class="st36" points="69.5,296.4 281,293.4 276.9,299.4 73.8,300.9 	"/>
	<path class="st22" d="M93.5,306.2l6.1,3.3l-6.1,3.3c-1.8,1-3.4,2.5-4.4,4.4l-3.3,10.3l-3.3-10.3c-1-1.8-2.5-3.4-4.4-4.4l-6.1-3.3
		l6.1-3.3c1.8-1,3.4-2.5,4.4-4.4l3.3-10.3l3.3,10.3C90.1,303.7,91.6,305.2,93.5,306.2z"/>
	<path class="st22" d="M304.8,179.3l4.4,2.4l-4.4,2.4c-1.3,0.7-2.4,1.8-3.1,3.1l-2.4,7.4l-2.4-7.4c-0.7-1.3-1.8-2.4-3.1-3.1
		l-4.4-2.4l4.4-2.4c1.3-0.7,2.4-1.8,3.1-3.1l2.4-7.4l2.4,7.4C302.4,177.5,303.5,178.6,304.8,179.3z"/>
	<path class="st22" d="M81.8,101.4l4,2.2l-4,2.2c-1.2,0.7-2.2,1.7-2.9,2.9l-2.2,6.8l-2.2-6.8c-0.7-1.2-1.7-2.2-2.9-2.9l-4-2.2l4-2.2
		c1.2-0.7,2.2-1.7,2.9-2.9l2.2-6.8l2.2,6.8C79.6,99.7,80.6,100.7,81.8,101.4z"/>
	<path class="st32" d="M182,103.9c15.8,1.6,30.2,8.9,37.7,21.9l30.2,81.3h-22.4l-20.1-76c-7.8-16.7-20.8-26.1-38.7-24.3"/>
	<path class="st34" d="M185.2,183.9c-13.1-7.8-13.5-25.3-12.1-34.2c0.6-3.8,7.9-20.9,14.9-16.6c11.5,7,4.7,23.2,7.7,18.7
		c6.2-9.3,19.6,1.5,17,14.5c0,0,8.1-5.7,10.8-1c1.9,3.2-0.6,12.5-12.8,17.5C202.2,186.3,191.3,187.6,185.2,183.9L185.2,183.9z"/>
	<path class="st16" d="M218.5,158.1c-0.1-0.1-1.2,1.1-4.2,4.5c-2.6,2.9-13.1,15.7-12.3,15.7C202.9,178.3,219.4,159.2,218.5,158.1
		L218.5,158.1z M202.1,136.1c0.1,0.1-0.7,1.7-2.8,5.9c-1.8,3.6-9.9,18.3-10,17.2C189.3,158.1,201.2,135,202.1,136.1L202.1,136.1z
		 M205.2,129.7c-4.8,2.4-1.6,5-1,4.8C205.7,134.2,209,130.3,205.2,129.7L205.2,129.7z M208.9,142.8c0.1,1.2-0.8,1.7-3.1,5.7
		c-2,3.5-10.8,17.8-10.7,16.8C195.1,164.2,208.7,141,208.9,142.8L208.9,142.8z M211.6,136.5c-4.8,2.3-1.6,5-1,4.8
		C212.2,141,215.5,137.1,211.6,136.5L211.6,136.5z M216.1,147.8c-0.8,0.1-1.2,1.1-4.3,4.4c-2.6,2.9-13.5,15.3-12.8,15.2
		C199.7,167.4,217.7,147.6,216.1,147.8L216.1,147.8z M222.1,143.2c-0.5,5.3-4.1,3.3-4.1,2.6C217.8,144.3,220.1,139.8,222.1,143.2
		L222.1,143.2z M223.7,153.9c-0.5,5.3-4.1,3.3-4.1,2.7C219.4,155,221.8,150.5,223.7,153.9L223.7,153.9z"/>
	<path class="st35" d="M174.1,202.5c-15.9-8.7-14.7-31-11.9-42.6c1.2-5,10.8-31.4,20-28.4c8.9,2.9,3.6,26.9,8.5,21.4
		c8.1-9.1,21.4,3.5,16.8,20.3c2.2,2.2,25.4-7.1,17.1,7.6C218.9,190.8,187.9,210,174.1,202.5L174.1,202.5z"/>
</g>
<g id="Las_w_szkle">
</g>
<g id="Rośliny">
</g>
<g id="Pogrzebowe">
</g>
<g id="Różne">
</g>
<g id="Flower_box">
</g>
<g id="Bukiet">
</g>
<g id="Ślubne">
</g>
<g id="Siedząca_z_kwiatami">
</g>
<g id="zadzwoń">
</g>
<g id="zapłać">
</g>
</svg>
