<?xml version="1.0" encoding="utf-8"?>
<!-- Generator: Adobe Illustrator 26.0.3, SVG Export Plug-In . SVG Version: 6.00 Build 0)  -->
<svg version="1.1" id="Layer_1" xmlns="http://www.w3.org/2000/svg" xmlns:xlink="http://www.w3.org/1999/xlink" x="0px" y="0px"
	 viewBox="0 0 340.5 422.2" style="enable-background:new 0 0 340.5 422.2;" xml:space="preserve">
<style type="text/css">
	.st0{fill:#8C5A51;}
	.st1{fill:#074C42;}
	.st2{fill:#085C51;}
	.st3{fill:#E57F5D;}
	.st4{fill:#FFFFFF;}
	.st5{fill:#D36B4F;}
</style>
<path class="st0" d="M180.5,208.6c-81.3,37.2-88.3,47.1-88.3,47.1c35.6-5.5,67.7-15.7,94.1-34.3c4.1,7.4,91.7-41.4,87.5-48.8
	C273.8,172.5,261.7,171.4,180.5,208.6z"/>
<path class="st1" d="M118.4,251.4c0,0-29.9-11.9-39.9-31.9c-14.5-28.5-3.7-19.7,2.5-17.3c13.4,5.2,26.3,5.7,29,6.5
	c14.4,4.7,46.7,21.7,67.5,20.7s13.5,25.6,13.5,25.6L118.4,251.4z"/>
<path class="st1" d="M116,168.7c0,0-22-20-28.2-37s-5.6-14.8-5.6-14.8s-4.2-15.3,10.9-6.5s14.5,14.1,18.8,17
	c4.3,2.9,12.7,6.8,15.9,9.7c3.2,2.9,14,17.3,15.4,21c1.5,3.7,77.3,74,78.4,78.1c1.1,4.1-26.5,32-26.5,32L116,168.7z"/>
<path class="st2" d="M116.1,137c0,0-7-24.1-7.2-26.2c-0.2-2.1-1.6-16.8,11.3-5.2s25.1,28.7,26.7,32.2c1.7,3.6,50.4,104.6,50.4,104.6
	l-21.5,12.8L116.1,137z"/>
<path class="st2" d="M153.2,285.3c0,0-11.4-158.7-12.6-166.1c-1.2-7.4-2.2-25-2.8-28c-0.6-3.1-3.9-15.1,6.6-5s19.4,22.9,27.8,26.9
	c8.3,3.9,20.2,22.9,18.3,29.2c-1.9,6.3,7.2,95.1,2.1,92.8S153.2,285.3,153.2,285.3z"/>
<path class="st2" d="M184.5,161c0,0,10.5-40.9,9.3-52.7c-1.1-12,0.3-20.2-0.8-24.1c-1.1-3.9-0.6-7.2,4.2-2.7
	c4.8,4.5,13.1,15,14.2,24.9c1.1,9.9,5,20.8,0.3,39c-1.8,7-8.6,86.1-18.2,108.4c-15.2,35.4-35,17.1-35,17.1L184.5,161z"/>
<path class="st1" d="M210.2,210.9c0,0,19-54.6,22.1-64.1c2.2-6.7,5.8-12.3,5.8-12.3s5.6-13.7,7-1.3c1.3,12.5,2.3,31,0.2,40.9
	c-2,9.9-3.2,37.9-7.5,40.4C233.4,216.9,210.2,210.9,210.2,210.9z"/>
<path class="st1" d="M142.5,270.5c0,0,24.3-120,28-133s5.9-22.9,1.5-36.3C167.7,87.7,161,72.4,160,70.8c-1-1.6-3.4-23.1,10.6-7.8
	c13.6,15,24,32,24.6,33.5s13.8,38,14.5,44.8c0.7,6.9-31.1,111.5-31.1,111.5L142.5,270.5z"/>
<path class="st2" d="M71.6,142.4c0,0-33.7-32.2-15.4,10.4c9.8,22.9,33.7,38.7,53.6,48.5c17.1,8.5,39.4,38.4,39.4,38.4l-12.3,27.1
	l77.5-29.3c0,0-39.8-64.6-79.1-72C96.1,158.2,95.9,163,71.6,142.4"/>
<path class="st2" d="M158.8,230.5c0,0,56-89.3,58.4-105.3c2.5-16.1,2.1-13.1,2.1-13.1s1.2-13.3,4.9-2c3.6,11.3,11,37.3,1.6,71
	c-9.4,33.7-10,46.5-10,46.5L158.8,230.5z"/>
<path class="st3" d="M273.8,172.5c12.1,29,13.8,54.6,17.8,76.8c9.9,55.7-8.2,89.4-44.4,105.2c-35.5,17.1-72.9,8.8-108.6-35.2
	c-14.2-17.4-32.4-35.5-46.5-63.6C155.6,238.5,215.9,210.3,273.8,172.5z"/>
<path class="st4" d="M39.6,117.5l8.1,0.5l-4.9,6.5c-1.4,1.9-2.4,4.3-2.5,6.8l1.5,12.6l-8.5-9.3c-1.9-1.4-4.3-2.4-6.8-2.5l-8.1-0.5
	l4.9-6.5c1.4-1.9,2.4-4.3,2.5-6.8l-1.5-12.6l8.5,9.3C34.8,116.5,37.1,117.4,39.6,117.5z"/>
<path class="st4" d="M310.2,198.8l5.8,0.4l-3.5,4.7c-1,1.4-1.7,3.1-1.8,4.8l1,9l-6.2-6.7c-1.4-1-3.1-1.7-4.8-1.8l-5.8-0.4l3.5-4.7
	c1-1.4,1.7-3.1,1.8-4.8l-1-9l6.2,6.7C306.8,197.9,308.5,198.5,310.2,198.8z"/>
<path class="st4" d="M200.3,358.2l5.3,0.4l-3.2,4.3c-0.9,1.3-1.5,2.9-1.7,4.5l1,8.3l-5.6-6.2c-1.3-0.9-2.9-1.5-4.5-1.7l-5.3-0.4
	l3.2-4.3c0.9-1.3,1.5-2.9,1.7-4.5l-1-8.3l5.6,6.2C197.1,357.4,198.6,358,200.3,358.2z"/>
<polygon class="st5" points="108.3,282.2 283.3,202.1 286.6,217.8 113.1,288.6 "/>
<polygon class="st5" points="122,299.6 288.5,229.6 290.2,240.6 127.4,306.1 "/>
<polygon class="st5" points="134.5,314.2 291.5,249.3 293.2,260.2 141.1,322.2 "/>
</svg>
