<?xml version="1.0" encoding="utf-8"?>
<!-- Generator: Adobe Illustrator 26.0.2, SVG Export Plug-In . SVG Version: 6.00 Build 0)  -->
<svg version="1.1" xmlns="http://www.w3.org/2000/svg" xmlns:xlink="http://www.w3.org/1999/xlink" x="0px" y="0px"
	 viewBox="0 0 292.2 285.9" style="enable-background:new 0 0 292.2 285.9;" xml:space="preserve">
<style type="text/css">
	.st0{fill:#EEE8E3;}
	.st1{fill:#F7313B;}
	.st2{fill:#F9ADB5;}
	.st3{fill:#F8A48A;}
	.st4{fill:#FABB95;}
	.st5{fill:#065C51;}
	.st6{fill:#6C90BD;}
	.st7{fill:#7AA5D3;}
	.st8{fill:none;stroke:#136A37;stroke-width:0.6745;stroke-miterlimit:10;}
	.st9{fill:#E62917;}
	.st10{fill:none;stroke:#FFFFFF;stroke-width:0.6745;stroke-miterlimit:10;}
	.st11{fill:none;stroke:#FFFFFF;stroke-width:0.5699;stroke-miterlimit:10;}
	.st12{fill:none;stroke:#FFFFFF;stroke-width:0.6458;stroke-miterlimit:10;}
	.st13{fill:#CF6B4B;}
	.st14{fill:#054C42;}
	.st15{fill-rule:evenodd;clip-rule:evenodd;fill:#E5A1AB;}
	.st16{fill-rule:evenodd;clip-rule:evenodd;fill:#E47F62;}
	.st17{fill-rule:evenodd;clip-rule:evenodd;fill:#065C51;}
	.st18{fill-rule:evenodd;clip-rule:evenodd;fill:#F9ADB5;}
	.st19{fill-rule:evenodd;clip-rule:evenodd;fill:#FFFFFF;}
	.st20{fill-rule:evenodd;clip-rule:evenodd;fill:#6C90BD;}
	.st21{fill-rule:evenodd;clip-rule:evenodd;fill:#7AA5D3;}
	.st22{fill:#FFFFFF;}
	.st23{fill:#FEFEFE;}
	.st24{fill:#C8A38A;}
	.st25{fill:#DBA183;}
	.st26{fill:#D2B8A8;}
	.st27{fill:#E82E41;}
	.st28{fill:#2A372D;}
	.st29{fill:#E5A889;}
	.st30{fill-rule:evenodd;clip-rule:evenodd;fill:#FFC7D2;}
	.st31{fill:#EFA3AE;}
	.st32{fill:#DBA184;}
	.st33{fill:#6A90BD;}
	.st34{fill-rule:evenodd;clip-rule:evenodd;fill:#D6253F;}
	.st35{fill-rule:evenodd;clip-rule:evenodd;fill:#F7313B;}
	.st36{fill-rule:evenodd;clip-rule:evenodd;fill:#DBA184;}
	.st37{fill:#F1E1C9;}
	.st38{fill:#FDFBF9;}
	.st39{fill:#046857;}
	.st40{fill:#074C42;}
	.st41{fill:#8C5A51;}
	.st42{fill:#085C51;}
	.st43{fill:#E57F5D;}
	.st44{fill:#D36B4F;}
	.st45{fill:#1C1C1C;}
	.st46{fill:#E73143;}
	.st47{fill:#F5ABB6;}
	.st48{fill-rule:evenodd;clip-rule:evenodd;fill:#6A90BD;}
	.st49{fill:#D6253F;}
	.st50{fill:#C6A18A;}
	.st51{fill:#29372B;}
	.st52{fill:#012E60;}
	.st53{fill:#78391A;}
	.st54{fill:#F09880;}
	.st55{fill:#1C9697;}
	.st56{fill:#CE2E45;}
	.st57{fill:#ED3550;}
	.st58{fill:#D8013A;}
	.st59{fill:#F3F4F4;}
	.st60{fill:#911C36;}
	.st61{fill:#F42237;}
	.st62{fill:#D8A85D;}
	.st63{fill:#E52033;}
	.st64{fill:#434543;}
	.st65{fill:#E9E9E9;}
	.st66{opacity:0.31;}
	.st67{fill:#C6CAC6;}
	.st68{fill:#FFD2A8;}
	.st69{fill:#E08D77;}
	.st70{fill:#037C65;}
</style>
<g id="bg">
</g>
<g id="GŁOWNE_KOLORY">
</g>
<g id="COLOR_1">
</g>
<g id="COLOR_2">
</g>
<g id="insp">
</g>
<g id="Kosz_kwiatów">
</g>
<g id="Las_w_szkle">
</g>
<g id="Rośliny">
</g>
<g id="Pogrzebowe">
</g>
<g id="Różne">
</g>
<g id="Flower_box">
	<path class="st1" d="M63.5,160.6c0,0,0,75.7-0.2,90.8c0,4.9,1.2,7.4,6.8,7.4c55.4-0.1,110.8-0.1,166.1,0c5,0,7.4-1.4,7.4-6.9
		c-0.2-28.1-0.2-56.2,0-84.2c0-4.9-2.1-6.8-6.8-6.7L63.5,160.6z"/>
	<rect x="147.6" y="160.6" class="st49" width="14" height="98.1"/>
	<path class="st4" d="M200,151c-2.1-3.4-4.7-5.9-8.9-6.3c-1.1-0.1-1.5-0.8-1.7-1.7c-0.6-3.7-2.4-6.8-5.5-9c-1.7-1.2-0.7-2.5-0.1-3.4
		c1.4-2.1,1.4-4,0.5-6.4c-1.8-4.9,0.7-8.8,5.9-9.8c1.8-0.3,1.8-1.9,2.4-3.1c1-2,2.6-3.4,4.5-4.6c4.2-1.8,7.6-0.1,11,2.3
		c0.9,1,1.8,0.8,2.8,0.2c7.8-4.8,15.4-1.3,18.8,6.7c3.7,8.9,2.7,16.8-3.8,23.9c-1.4,1.5-1.1,3.4-1.9,5c0,0-0.2,0.1-0.2,0.1l0.1,0.2
		c-0.8,0.9-1.5,1.7-2.3,2.6c-3.8,2.5-7.6,4.5-12.3,3.1c-1-0.7-1.8-2-3.4-1.2C204,150.5,202,150.6,200,151z"/>
	<path class="st47" d="M95.3,187.8c-2.1-3.4-4.7-5.9-8.9-6.3c-1.1-0.1-1.5-0.8-1.7-1.7c-0.6-3.7-2.4-6.8-5.5-9
		c-1.7-1.2-0.7-2.5-0.1-3.4c1.4-2.1,1.4-4,0.5-6.4c-1.8-4.9,0.7-8.8,5.9-9.8c1.8-0.3,1.8-1.9,2.4-3.1c1-2,2.6-3.4,4.5-4.6
		c4.2-1.8,7.6-0.1,11,2.3c0.9,1,1.8,0.8,2.8,0.2c7.8-4.8,15.4-1.3,18.8,6.7c3.7,8.9,2.7,16.8-3.8,23.9c-1.4,1.5-1.1,3.4-1.9,5
		c0,0-0.2,0.1-0.2,0.1l0.1,0.2c-0.8,0.9-1.5,1.7-2.3,2.6c-3.8,2.5-7.6,4.5-12.3,3.1c-1-0.7-1.8-2-3.4-1.2
		C99.3,187.3,97.3,187.4,95.3,187.8z"/>
	<path class="st4" d="M162.2,163c-1.5,3.7-0.3,6.8,1.7,9.8c0.1,0.1,0.1,0.3,0.1,0.5c-0.6,0.8-0.9,1.5-0.6,2.6
		c2.2,8.1,0.5,12.2-6.9,15.9c-4.8,2.4-9.7,3.4-14.1-1.1c-0.8-0.8-1.6-0.4-2.4-0.2c-8.1,2-12.6-0.8-14.2-9.1c-0.3-1.8-0.9-3.3-2-4.7
		c-3.1-4-2.9-9.1,0.4-12.8c0.8-0.9,1.1-1.7,0.8-2.8c5.9-3,9.9-7.2,9.1-14.4c7-2.1,12.6-0.2,17.6,5.9c1,1.2,1.8,2.4,3.6,1.8
		c1.3,3.1,2.8,6,6.3,7.4C162.1,162,162.5,162.4,162.2,163z"/>
	<path class="st42" d="M230,161.2c1.7,0.5,3.2,1.4,4.1,3c1.8,3.2,1.6,6.2-0.6,7.9c-2.8,2.2-7,2.1-9.7-0.4c-1-0.9-1.8-1.9-2.9-3
		c-0.8,4.6-3,7.6-7.7,8.6c-2.7,0.6-4.6-0.5-6.4-2.1c-0.5-0.5-0.8-1.2-1.7-0.9c0.6-2.1-0.8-4.3,0.1-6.2c1.2-2.5,0.5-3.9-1.8-4.9
		c-2.5-3.8-5.5-6.5-4.1-11.2c-0.9-2.2,2.9-2.1,3.3-2.4c1.9-1,0.2-5,3.3-7c0,0,1.3-1.2,5.1-1.2l4.3,3.3l0.2-0.1
		c0.7-0.4,1.5-0.6,2.1-1.1c6.1-4.1,12.3-1.5,13.7,5.7c0.7,3.6,0.5,7-1.9,10C228.6,160.3,228.8,160.8,230,161.2z"/>
	<path class="st4" d="M111.4,149.9c1.7,0.5,3.2,1.4,4.1,3c1.8,3.2,1.6,6.2-0.6,7.9c-2.8,2.2-7,2.1-9.7-0.4c-1-0.9-1.8-1.9-2.9-3
		c-0.8,4.6-3,7.6-7.7,8.6c-2.7,0.6-4.6-0.5-6.4-2.1c-0.5-0.5-0.8-1.2-1.7-0.9c0.6-2.1-0.8-4.3,0.1-6.2c1.2-2.5,0.5-3.9-1.8-4.9
		c-2.5-3.8-5.5-6.5-4.1-11.2c-0.9-2.2,2.9-2.1,3.3-2.4c1.9-1,0.2-5,3.3-7c0,0,1.3-1.2,5.1-1.2l4.3,3.3l0.2-0.1
		c0.7-0.4,1.5-0.6,2.1-1.1c6.1-4.1,12.3-1.5,13.7,5.7c0.7,3.6,0.5,7-1.9,10C110,149.1,110.2,149.6,111.4,149.9z"/>
	<path class="st33" d="M136.3,141.6c3.6,6.3,1.5,11.8-2.7,16.8c-2.7,2.6-5.7,4.7-8.8,6.6c-0.5,0.3-1.3,0.8-1.6,0.6
		c-0.8-0.3-0.4-1.2-0.3-1.9c0.1-1.9,0.2-3.9,0.5-5.8c0.2-1.7-0.3-2.2-2-1.9c-2.1,0.3-4.2,1-6.7,0.7c0.9-2.1,1.8-4,2.7-5.9
		c0.7-1.4,0.4-2.1-1.1-2.4c-1.6-0.3-3.1-0.7-4.6-1c-1.1-0.2-1.7-0.6-0.6-1.7c4.3-4.2,9-7.7,15-8.8
		C130.3,136.1,133.7,138.3,136.3,141.6z"/>
	<path class="st33" d="M208.2,109c-3.3-2.4-6.8-4.1-11-2.3c-4.4-4.9-6.5-10.7-7.4-17.1c-0.3-2,0.3-2.1,1.9-1.3
		c1.8,0.9,3.7,1.7,5.4,2.7c1.4,0.8,2.1,0.3,2.3-1.2c0.3-1.6,0.7-3.1,1-4.6c0.3-1.6,0.9-2,2.1-0.7c1.1,1.2,2.2,2.2,3.3,3.4
		c1,1.2,1.8,1.2,2.6-0.2c0.6-1,1.2-1.9,1.9-2.8c0.5-0.6,0.7-1.9,1.8-1.7c0.9,0.2,1,1.4,1.3,2.1c1.3,3.1,2,6.3,2.4,9.7
		C216.6,101.5,214.5,106.4,208.2,109z"/>
	<path class="st33" d="M196.3,180.9c-0.7-1.1-1.3-2.1-2-3.2c1.5-7.8,1.5-7.8,7.4-15.7c3.6-0.8,6.9,0.1,10.2,1.3
		c2.3,1,2.9,2.4,1.8,4.9c-0.9,1.9,0.5,4.1-0.1,6.2c0.6,1.7,1.2,3.5,1.8,5.2c0.4,1.2,0.1,1.7-1.2,1.6c-0.1,0-0.2,0-0.3,0
		c-5.1,0.3-5.1,0.3-3.9,5.4c0.1,0.5,0.2,1,0.3,1.5c0.4,1.7-0.3,1.8-1.6,1.2C204.1,187.3,199.6,185.1,196.3,180.9z"/>
	<path class="st1" d="M61.2,188.7c-2.8,2.7-7.2,2.6-10-0.1c-6.7-6.6-14.8-15.1-20.4-20.3c-4-3.8-4.4-6.4-0.1-10.4
		c9.4-8.9,18.2-18.5,27.7-27.3c3.9-3.7,70-69.5,74.6-74.6c8.1-9,17.2-17.2,25.6-25.9c3.6-3.8,6.3-4,10-0.1
		c6.9,7.2,13.8,14.4,21.2,21.2c4.9,4.5,4,7.4-0.4,11.8c-28.4,28.1-56.6,56.4-84.8,84.7L61.2,188.7z"/>
	
		<rect x="101.3" y="90.1" transform="matrix(0.7071 -0.7071 0.7071 0.7071 -47.6487 109.4735)" class="st49" width="14" height="44.4"/>
	<path class="st47" d="M192,105c0.4,2.1-0.1,4.2,0.7,6.2c-0.6,1.1-0.6,2.7-2.4,3.1c-5.2,1-7.6,4.9-5.9,9.8c0.9,2.4,0.9,4.3-0.5,6.3
		c-0.6,0.9-1.6,2.2,0.1,3.4c3,2.2,4.8,5.3,5.5,9c0.2,1,0.6,1.6,1.7,1.7c4.2,0.4,6.8,2.9,8.9,6.3c1.3,3.5,1.9,7.2,1.7,11
		c-5.9,7.9-5.9,7.9-7.4,15.7c-2.8,2.5-5.6,5-9.3,6.1c-5.6,1.7-10.9,3.1-15.7-3.6c-0.9-1.2-1.9-1-3.1-0.7c-1.5-0.6-3-1.2-4.4-1.8
		c0-0.2,0-0.4-0.1-0.5c-2-3-3.3-6.2-1.7-9.8c0.3-0.6-0.1-1-0.7-1.2c-3.4-1.3-5-4.2-6.3-7.4c-1.1-1.9-0.8-4.2-1.5-6.2
		c1.4-3.5,2.9-6.8,6.4-8.7c0.3-0.2,0.6-0.7,0.7-1.1c1.2-3.7,3.5-6.4,6.9-8.2c1.4-0.7,1.4-1.6,0.6-3c-1.5-2.9-3.3-1.3-5-0.6
		c-2.8,1.1-5.5,1.1-7.8-1.2c-2.2-2.3-3.1-5.6-1.6-8.5c1-2,0.4-2.6-1.4-3.3c-6.1-2.4-8.5-7.4-6.7-13.8c0.2-0.9,1.1-1.7,0.3-2.7
		c1.7-1.6,3-3.6,5.2-4.7c0.6-0.3,0.8-1.1,0.9-1.8c0.8-5.4,3.7-8.8,9.1-10.1c0.6-0.1,1.1-0.5,1.7-0.7c3.3,0.1,6.7-0.3,9.8,1.4
		c1.9,1.1,3.4,2.6,4.3,4.5c0.7,1.5,1.5,2,3.2,2.1C186.9,92.7,190.5,96.1,192,105z"/>
	<path class="st22" d="M207.9,226.4l4,2.2l-4,2.2c-1.2,0.7-2.2,1.7-2.9,2.9l-2.2,6.8l-2.2-6.8c-0.7-1.2-1.7-2.2-2.9-2.9l-4-2.2
		l4-2.2c1.2-0.7,2.2-1.7,2.9-2.9l2.2-6.8l2.2,6.8C205.7,224.7,206.7,225.7,207.9,226.4z"/>
	<g>
		<path class="st22" d="M258.9,70.4l5.7,3.1l-5.7,3.1c-1.7,0.9-3.1,2.4-4.1,4.1l-3.1,9.6l-3.1-9.6c-0.9-1.7-2.4-3.1-4.1-4.1
			l-5.7-3.1l5.7-3.1c1.7-0.9,3.1-2.4,4.1-4.1l3.1-9.6l3.1,9.6C255.7,68.1,257.1,69.5,258.9,70.4z"/>
	</g>
	<g>
		<path class="st22" d="M61.6,42l5.7,3.1l-5.7,3.1c-1.7,0.9-3.1,2.4-4.1,4.1l-3.1,9.6l-3.1-9.6c-0.9-1.7-2.4-3.1-4.1-4.1l-5.7-3.1
			l5.7-3.1c1.7-0.9,3.1-2.4,4.1-4.1l3.1-9.6l3.1,9.6C58.4,39.7,59.9,41.1,61.6,42z"/>
	</g>
	<path class="st42" d="M132,121.6c-0.4,2.5-1.6,4.6-3.2,6.5c-1,1.2-1.1,1.9,0.7,2.3c1.1,0.2,2.1,0.8,3.2,1.2c0.3,0.5,0.6,1.1,1,1.5
		c2.6,2.8,2.9,5.9,1.6,9.3c-1.1,0.5-2.3,0.8-3.4,1.4c-3.4,1.9-6.4,0.9-9.2-1.4c-1.2-1.1-2-1.5-2.2,0.7c-0.4,3.6-3.5,4.2-6.1,4.9
		c-2.4,0.6-4.1-0.8-5.1-2.8c-1.2-2.2-2.6-4.4-1.5-7.2c0.6-1.4,1.7-2.1,3.3-3c-6.5-1.6-8-6.5-8.3-11.9c-0.3-5.7,4.8-10.1,9.5-8.7
		c2.7,0.9,3.8,3.5,5.7,5.6c0.7-3.1,2.2-5.1,5-6.5c2.7-1.3,5-0.8,6.7,0.9S132.4,118.8,132,121.6z"/>
	<path class="st4" d="M166.2,131.6c-1.5-2.9-3.3-1.3-5-0.6c-2.8,1.1-5.5,1.1-7.8-1.2c-2.2-2.3-3.1-5.6-1.6-8.5c1-2,0.4-2.6-1.4-3.3
		c-6.2-2.4-8.5-7.4-6.7-13.8c0.2-0.9,1.1-1.7,0.3-2.7c-1,0.2-2.1,0.4-3.1,0.5c-4.7,0.6-8.8,2.3-11.4,6.6c-0.9,1.8-1.4,3.6-1.4,5.6
		c0,6-0.3,7-3.8,12.1c0.3,0.5,0.6,1.1,1,1.5c2.6,2.8,2.9,5.9,1.5,9.4c1.8,1.1,3.1,2.4,2.4,4.9c-0.1,0.4,0.2,1,0.4,1.5
		c1.3,3.7,4.8,5.4,9.7,4.8c1.4-0.2,2.4,0.1,3.5,1.1c2.4,2.4,5.3,4,8.9,3.3c1.4-3.5,2.9-6.8,6.4-8.7c0.3-0.2,0.5-0.7,0.7-1.1
		c1.2-3.7,3.5-6.4,6.9-8.2C166.9,133.8,166.9,133,166.2,131.6z M145.3,133.3L145.3,133.3L145.3,133.3
		C145.3,133.3,145.3,133.3,145.3,133.3C145.3,133.3,145.3,133.3,145.3,133.3z"/>
	<g>
		<path class="st34" d="M88.9,177.5c9.4-6.8,12.8,3.7,20.6,3.6c0.6,0-9.4-24.2-13.7-32c-7.9-14.5-6.9-26-7.2-42.8
			c0-3.1,1.9-18.2-2.9-8.7C68.8,123.3,82.4,155.3,88.9,177.5L88.9,177.5z"/>
		<path class="st34" d="M150.4,114.5c2.4,1.4,1.6,0.6,8.7,4.4c-7,9.7-0.4,19.3-1.1,27.8c-0.1,0.7-11.3-14.1-18-19.5
			c-12.4-10-29-29.7-43.6-34.2c-2.8-0.9-13,3.8-3.8-0.8C113.1,78.9,126,100.3,150.4,114.5L150.4,114.5z"/>
		<path class="st34" d="M83.6,92.8c-8.6,0.2-34.9,11.5-39,14c-6.1,3.9-8.7,7-4.7,13.7c2.3,3.8,7.9,6,14.1,12.2
			c4.4,4.4,5.5,7.5,6.5,7.4c6.1-0.7,8.5-4.1,9.2-8c0.9-4.5,7.9-23.3,11.9-29.6c0.6-0.9,7.9-6.2,6.4-5.7
			C87.2,97.2,84.5,92.8,83.6,92.8L83.6,92.8z"/>
		<path class="st34" d="M88.7,86.9c0-0.1,3.1-13.2,2.6-17.4c-1.1-9.9,1.5-25.2,7.2-33.5c10.2-14.5,29.7,27.4,29.5,27.5
			c-0.1,0.1,2.5,6.7-1.1,12.5c-2.2,3.5-13.5,8.8-17.3,9.5c-5.1,0.9-8,0-17.6,4.7C91.2,90.6,89.4,87.6,88.7,86.9L88.7,86.9z"/>
		<path class="st34" d="M81.3,90.4c1.3-1.6,5.7-6.1,7.3-4.6c1.1,1.1,8.5,6.2,7.1,7.6c-1.4,1.5-6,8.4-8.1,6.2
			C85.7,97.7,77.8,94.6,81.3,90.4L81.3,90.4z"/>
	</g>
</g>
<g id="Bukiet">
</g>
<g id="Ślubne">
</g>
<g id="Siedząca_z_kwiatami">
</g>
<g id="zadzwoń">
</g>
<g id="zapłać">
</g>
</svg>
