<?xml version="1.0" encoding="utf-8"?>
<!-- Generator: Adobe Illustrator 26.0.3, SVG Export Plug-In . SVG Version: 6.00 Build 0)  -->
<svg version="1.1" id="Layer_1" xmlns="http://www.w3.org/2000/svg" xmlns:xlink="http://www.w3.org/1999/xlink" x="0px" y="0px"
	 viewBox="0 0 340.5 422.2" style="enable-background:new 0 0 340.5 422.2;" xml:space="preserve">
<style type="text/css">
	.st0{fill:#F7313B;}
	.st1{fill:#D6253F;}
	.st2{fill:#FABB95;}
	.st3{fill:#F5ABB6;}
	.st4{fill:#085C51;}
	.st5{fill:#6A90BD;}
	.st6{fill:#FFFFFF;}
	.st7{fill-rule:evenodd;clip-rule:evenodd;fill:#D6253F;}
</style>
<path class="st0" d="M90.2,247.3c0,0,18.7,73.4,22.2,88c1.2,4.7,3,6.9,8.4,5.5c53.7-13.8,107.4-27.4,161-40.9
	c4.8-1.2,6.8-3.2,5.5-8.5c-7.1-27.2-14-54.4-20.8-81.6c-1.2-4.7-3.7-6.1-8.2-4.8L90.2,247.3z"/>
<rect x="183.6" y="223.3" transform="matrix(0.9691 -0.2465 0.2465 0.9691 -61.2481 55.3844)" class="st1" width="14" height="98.1"/>
<path class="st2" d="M220.2,204.3c-2.9-2.8-6-4.6-10.2-3.9c-1.1,0.2-1.7-0.4-2.1-1.2c-1.5-3.4-4-6-7.5-7.4c-1.9-0.7-1.3-2.3-0.9-3.3
	c0.8-2.4,0.4-4.2-1.1-6.3c-3-4.3-1.5-8.7,3.3-11c1.7-0.7,1.3-2.3,1.6-3.6c0.5-2.2,1.7-3.9,3.2-5.6c3.6-2.8,7.3-2,11.2-0.5
	c1.1,0.7,1.9,0.3,2.8-0.5c6.4-6.6,14.6-5.1,19.9,1.9c5.8,7.7,6.8,15.6,2.2,24.1c-1,1.8-0.2,3.6-0.6,5.3l-0.2,0.1l0.1,0.2
	c-0.6,1.1-1,2-1.6,3.1c-3.1,3.4-6.3,6.2-11.2,6c-1.1-0.4-2.2-1.5-3.6-0.3C223.9,202.9,222,203.4,220.2,204.3z"/>
<path class="st3" d="M127.8,265.8c-2.9-2.8-6-4.6-10.2-3.9c-1.1,0.2-1.7-0.4-2.1-1.2c-1.5-3.4-4-6-7.5-7.4c-1.9-0.7-1.3-2.3-0.9-3.3
	c0.8-2.4,0.4-4.2-1.1-6.3c-3-4.3-1.5-8.7,3.3-11c1.7-0.7,1.3-2.3,1.6-3.6c0.5-2.2,1.7-3.9,3.2-5.6c3.6-2.8,7.3-2,11.2-0.5
	c1.1,0.7,1.9,0.3,2.8-0.5c6.4-6.6,14.6-5.1,19.9,1.9c5.8,7.7,6.8,15.6,2.2,24.1c-1,1.8-0.2,3.6-0.6,5.3l-0.2,0.1l0.1,0.2
	c-0.6,1.1-1,2-1.6,3.1c-3.1,3.4-6.3,6.2-11.2,6c-1.1-0.4-2.2-1.5-3.6-0.3C131.5,264.3,129.6,264.9,127.8,265.8z"/>
<path class="st2" d="M186.5,225.3c-0.5,4,1.4,6.7,4.1,9.1c0.1,0.1,0.2,0.3,0.2,0.5c-0.4,0.9-0.5,1.7,0.1,2.7
	c4.1,7.3,3.5,11.7-2.8,17.1c-4.1,3.5-8.6,5.7-13.9,2.4c-1-0.6-1.6,0-2.4,0.4c-7.4,3.9-12.4,2.3-16-5.3c-0.7-1.7-1.7-3-3.1-4.1
	c-4-3.1-5.1-8.1-2.8-12.5c0.6-1.1,0.6-1.9,0.1-2.9c5-4.4,7.8-9.4,5.3-16.2c6.3-3.8,12.2-3.3,18.5,1.4c1.3,0.9,2.3,1.9,3.9,0.9
	c2,2.7,4.2,5.1,7.9,5.6C186.1,224.3,186.6,224.6,186.5,225.3z"/>
<path class="st4" d="M251.7,206.8c1.8,0.1,3.4,0.6,4.7,1.9c2.5,2.7,3.1,5.6,1.4,7.8c-2.2,2.8-6.3,3.8-9.5,2
	c-1.2-0.6-2.2-1.4-3.5-2.2c0.4,4.7-1,8.1-5.3,10.2c-2.5,1.2-4.6,0.6-6.7-0.5c-0.6-0.4-1.1-1-1.9-0.5c0.1-2.2-1.8-4-1.4-6
	c0.5-2.7-0.5-3.9-3-4.3c-3.4-3.1-6.9-4.9-6.7-9.8c-1.4-1.9,2.3-2.8,2.6-3.1c1.6-1.4-1-4.9,1.5-7.6c0,0,1-1.5,4.6-2.4l5,2.1l0.2-0.1
	c0.6-0.6,1.3-1,1.8-1.6c4.9-5.5,11.6-4.5,14.7,2.1c1.6,3.3,2.2,6.7,0.6,10.2C250.2,206.3,250.5,206.7,251.7,206.8z"/>
<path class="st2" d="M134,225.1c1.8,0.1,3.4,0.6,4.7,1.9c2.5,2.7,3.1,5.6,1.4,7.8c-2.2,2.8-6.3,3.8-9.5,2c-1.2-0.6-2.2-1.4-3.5-2.2
	c0.4,4.7-1,8.1-5.3,10.2c-2.5,1.2-4.6,0.6-6.7-0.5c-0.6-0.4-1.1-1-1.9-0.5c0.1-2.2-1.8-4-1.4-6c0.5-2.7-0.5-3.9-3-4.3
	c-3.4-3.1-6.9-4.9-6.7-9.8c-1.4-1.9,2.3-2.8,2.6-3.1c1.6-1.4-1-4.9,1.5-7.6c0,0,1-1.5,4.6-2.4l5,2.1l0.2-0.1c0.6-0.6,1.3-1,1.8-1.6
	c4.9-5.5,11.6-4.5,14.7,2.1c1.6,3.3,2.2,6.7,0.6,10.2C132.5,224.7,132.8,225.1,134,225.1z"/>
<path class="st5" d="M156.1,210.9c5,5.2,4.4,11.1,1.5,16.9c-2,3.2-4.4,6-6.9,8.6c-0.4,0.4-1.1,1.1-1.4,1c-0.8-0.1-0.7-1.1-0.8-1.8
	c-0.4-1.9-0.8-3.8-0.9-5.7c-0.2-1.7-0.8-2.1-2.4-1.3c-2,0.8-3.8,2-6.3,2.3c0.4-2.3,0.8-4.3,1.2-6.4c0.3-1.5-0.1-2.1-1.7-2.1
	c-1.6,0.1-3.2,0.1-4.7,0.2c-1.1,0.1-1.8-0.2-1-1.5c3.1-5.1,6.8-9.7,12.4-12.2C148.9,207.1,152.8,208.4,156.1,210.9z"/>
<path class="st5" d="M217.8,161.6c-3.8-1.5-7.6-2.3-11.2,0.5c-5.5-3.7-8.9-8.8-11.4-14.7c-0.8-1.9-0.2-2.1,1.5-1.7
	c2,0.4,4,0.7,5.9,1.3c1.6,0.4,2.1-0.2,1.9-1.7c-0.1-1.6-0.1-3.2-0.2-4.7c-0.1-1.6,0.4-2.2,1.9-1.2c1.4,0.9,2.7,1.6,4,2.5
	c1.3,0.9,2,0.7,2.5-0.8c0.3-1.1,0.7-2.1,1.2-3.2c0.3-0.7,0.2-2,1.3-2.1c0.9,0,1.3,1.1,1.8,1.7c2,2.7,3.5,5.6,4.7,8.8
	C224,152.3,223.2,157.5,217.8,161.6z"/>
<path class="st5" d="M223.9,234.2c-0.9-0.9-1.8-1.7-2.7-2.6c-0.5-7.9-0.5-7.9,3.3-17c3.3-1.7,6.7-1.6,10.2-1.3
	c2.5,0.4,3.4,1.6,3,4.3c-0.4,2.1,1.5,3.9,1.4,6c1,1.5,2,3.1,3,4.6c0.7,1.1,0.5,1.6-0.8,1.8c-0.1,0-0.2,0-0.3,0.1
	c-4.9,1.5-4.9,1.5-2.4,6.2c0.2,0.5,0.4,0.9,0.7,1.4c0.8,1.5,0.2,1.8-1.3,1.6C233.1,238.5,228.2,237.5,223.9,234.2z"/>
<path class="st0" d="M94.9,275.1c-2,3.3-6.3,4.3-9.7,2.4c-8.1-4.7-18.1-11-24.8-14.6c-4.8-2.7-5.8-5.1-2.7-10.1
	c6.9-10.9,13.1-22.4,20.1-33.3c2.9-4.5,50.7-84.6,53.9-90.7c5.6-10.7,12.4-20.9,18.4-31.4c2.6-4.6,5.1-5.4,9.7-2.6
	c8.5,5.3,16.9,10.6,25.8,15.3c5.9,3.2,5.7,6.2,2.5,11.5c-20.6,34.2-41,68.6-61.3,103L94.9,275.1z"/>
<rect x="114.8" y="167.2" transform="matrix(0.511 -0.8596 0.8596 0.511 -103.261 197.3031)" class="st1" width="14" height="44.4"/>
<path class="st3" d="M201.1,161.7c0.9,1.9,0.9,4.1,2.2,5.8c-0.3,1.2,0.1,2.8-1.6,3.6c-4.8,2.3-6.2,6.6-3.3,11
	c1.5,2.1,1.9,3.9,1.1,6.2c-0.4,1-1,2.5,0.9,3.3c3.4,1.4,6,4,7.5,7.4c0.4,0.9,1,1.4,2.1,1.2c4.2-0.6,7.3,1.1,10.2,3.9
	c2.1,3.1,3.6,6.5,4.4,10.2c-3.8,9.1-3.8,9.1-3.3,17c-2.1,3.1-4.2,6.2-7.5,8.2c-5,3-9.8,5.7-16.1,0.4c-1.2-0.9-2.1-0.5-3.2,0.1
	c-1.6-0.2-3.2-0.4-4.7-0.7c0-0.2-0.1-0.4-0.2-0.5c-2.7-2.4-4.7-5.2-4.1-9.1c0.1-0.7-0.3-0.9-1-1c-3.6-0.4-5.9-2.8-7.9-5.6
	c-1.5-1.6-1.8-3.9-3-5.6c0.5-3.7,1.1-7.3,4.1-10c0.2-0.3,0.4-0.8,0.4-1.2c0.3-3.9,1.8-7.1,4.7-9.6c1.2-1,1-1.9-0.2-3.1
	c-2.2-2.4-3.5-0.4-5,0.7c-2.4,1.8-5.1,2.4-7.9,0.8c-2.7-1.7-4.4-4.7-3.6-7.8c0.5-2.2-0.3-2.6-2.2-2.9c-6.5-0.8-10.1-5.1-9.9-11.7
	c0-0.9,0.6-1.9-0.4-2.7c1.3-2,2-4.2,3.9-5.8c0.5-0.4,0.5-1.3,0.4-2c-0.6-5.4,1.4-9.4,6.3-12c0.6-0.2,0.9-0.8,1.5-1.1
	c3.2-0.7,6.4-1.9,9.8-1.1c2.1,0.6,3.9,1.7,5.3,3.3c1,1.3,1.9,1.6,3.6,1.2C193.1,151,197.4,153.5,201.1,161.7z"/>
<path class="st6" d="M246.4,275.4l4.4,1.1l-3.3,3.1c-1,1-1.7,2.2-2.1,3.5l-0.5,7.1l-3.8-6c-1-1-2.2-1.7-3.5-2.1l-4.4-1.1l3.3-3.1
	c1-1,1.7-2.2,2.1-3.5l0.5-7.1l3.8,6C243.8,274.3,245.1,275.1,246.4,275.4z"/>
<path class="st6" d="M257.4,111.7l6.3,1.6l-4.8,4.4c-1.4,1.3-2.4,3.1-3,5l-0.6,10.1l-5.4-8.5c-1.3-1.4-3.1-2.4-5-3l-6.3-1.6l4.8-4.4
	c1.4-1.3,2.4-3.1,3-5l0.6-10.1l5.4,8.5C253.7,110.3,255.4,111.3,257.4,111.7z"/>
<path class="st6" d="M59.2,132.8l6.3,1.6l-4.8,4.4c-1.4,1.3-2.4,3.1-3,5l-0.6,10.1l-5.4-8.5c-1.3-1.4-3.1-2.4-5-3l-6.3-1.6l4.8-4.4
	c1.4-1.3,2.4-3.1,3-5l0.6-10.1l5.4,8.5C55.5,131.4,57.3,132.3,59.2,132.8z"/>
<path class="st4" d="M147,192.6c0.2,2.5-0.4,4.9-1.5,7.1c-0.7,1.4-0.6,2.1,1.2,2.1c1.1-0.1,2.2,0.3,3.4,0.4c0.4,0.4,0.9,0.9,1.3,1.2
	c3.2,2.1,4.3,5,3.8,8.6c-0.9,0.8-2,1.3-3,2.2c-2.8,2.7-6,2.4-9.3,0.9c-1.4-0.8-2.3-1-2,1.2c0.5,3.6-2.4,4.9-4.7,6.3
	c-2.2,1.2-4.2,0.2-5.6-1.5c-1.7-1.8-3.6-3.6-3.2-6.6c0.2-1.5,1.1-2.5,2.5-3.7c-6.7,0.1-9.4-4.3-11-9.5c-1.7-5.5,2.2-11,7.1-10.8
	c2.8,0.2,4.5,2.5,6.9,4c-0.1-3.2,0.9-5.5,3.2-7.5c2.3-1.9,4.6-2,6.7-0.8S146.7,189.8,147,192.6z"/>
<path class="st2" d="M182.6,193.9c-2.2-2.4-3.5-0.4-5,0.7c-2.4,1.8-5.1,2.4-7.9,0.8c-2.7-1.7-4.4-4.7-3.6-7.8
	c0.5-2.2-0.3-2.6-2.2-2.9c-6.6-0.8-10.1-5.1-9.9-11.7c0-0.9,0.6-1.9-0.4-2.7c-0.9,0.4-1.9,0.9-2.9,1.2c-4.4,1.7-8,4.4-9.4,9.2
	c-0.4,2-0.5,3.8,0,5.8c1.5,5.8,1.4,6.9-0.7,12.7c0.4,0.4,0.9,0.9,1.3,1.2c3.2,2.1,4.3,5,3.8,8.7c2,0.6,3.6,1.6,3.5,4.2
	c0,0.4,0.4,0.9,0.8,1.4c2.2,3.3,6,4.1,10.6,2.3c1.3-0.5,2.4-0.5,3.7,0.2c2.9,1.7,6.1,2.6,9.4,1c0.5-3.7,1.1-7.3,4.1-10
	c0.2-0.3,0.3-0.8,0.4-1.2c0.3-3.9,1.8-7.1,4.7-9.6C183.8,195.8,183.6,195,182.6,193.9z M162.8,200.6L162.8,200.6L162.8,200.6
	L162.8,200.6L162.8,200.6z"/>
<path class="st7" d="M119,257.4c7.4-8.9,13.3,0.4,20.9-1.6c0.6-0.1-15.1-21.1-21.2-27.6c-11.2-12.1-13.1-23.5-17.5-39.7
	c-0.8-3-2.6-18.1-5-7.7C86.2,209.8,107.2,237.5,119,257.4L119,257.4z"/>
<path class="st7" d="M163.1,181.2c2.7,0.8,1.7,0.2,9.5,2.1c-4.4,11.1,4.4,18.8,5.8,27.2c0.1,0.7-14.4-10.9-22.3-14.5
	c-14.5-6.6-35.4-21.6-50.7-22.4c-2.9-0.2-11.7,6.9-3.9,0.2C118.2,155.9,135.9,173.4,163.1,181.2L163.1,181.2z"/>
<path class="st7" d="M93,176.6c-8.3,2.3-31,19.7-34.3,23.2c-5,5.3-6.7,8.9-1.2,14.4c3.2,3.1,9.1,3.9,16.7,8.3
	c5.3,3.2,7.2,5.9,8.1,5.6c5.7-2.2,7.2-6.1,6.9-10c-0.2-4.6,1.9-24.5,4.2-31.6c0.4-1,6.1-8,4.8-7.1C97.6,180,93.9,176.4,93,176.6
	L93,176.6z"/>
<path class="st7" d="M96.5,169.6c0-0.1-0.2-13.6-1.8-17.5c-3.5-9.3-4.8-24.8-1.3-34.2c6.3-16.6,35.5,19.2,35.4,19.4
	c-0.1,0.1,4.1,5.9,2,12.4c-1.3,3.9-10.9,11.9-14.4,13.5c-4.7,2.1-7.8,2-15.9,8.9C99.8,172.6,97.3,170.1,96.5,169.6L96.5,169.6z"/>
<path class="st7" d="M90.2,174.8c0.9-1.9,4-7.3,5.9-6.3c1.3,0.8,9.8,3.9,8.8,5.6c-1,1.8-3.7,9.6-6.3,8
	C96.2,180.8,87.8,179.8,90.2,174.8L90.2,174.8z"/>
</svg>
