<?xml version="1.0" encoding="utf-8"?>
<!-- Generator: Adobe Illustrator 26.0.2, SVG Export Plug-In . SVG Version: 6.00 Build 0)  -->
<svg version="1.1" xmlns="http://www.w3.org/2000/svg" xmlns:xlink="http://www.w3.org/1999/xlink" x="0px" y="0px"
	 viewBox="0 0 343 644.5" style="enable-background:new 0 0 343 644.5;" xml:space="preserve">
<style type="text/css">
	.st0{fill:#EEE8E3;}
	.st1{fill:#F7313B;}
	.st2{fill:#F9ADB5;}
	.st3{fill:#F8A48A;}
	.st4{fill:#FABB95;}
	.st5{fill:#065C51;}
	.st6{fill:#6C90BD;}
	.st7{fill:#7AA5D3;}
	.st8{fill:none;stroke:#136A37;stroke-width:0.6745;stroke-miterlimit:10;}
	.st9{fill:#E62917;}
	.st10{fill:none;stroke:#FFFFFF;stroke-width:0.6745;stroke-miterlimit:10;}
	.st11{fill:none;stroke:#FFFFFF;stroke-width:0.5699;stroke-miterlimit:10;}
	.st12{fill:none;stroke:#FFFFFF;stroke-width:0.6458;stroke-miterlimit:10;}
	.st13{fill:#CF6B4B;}
	.st14{fill:#054C42;}
	.st15{fill-rule:evenodd;clip-rule:evenodd;fill:#E5A1AB;}
	.st16{fill-rule:evenodd;clip-rule:evenodd;fill:#E47F62;}
	.st17{fill-rule:evenodd;clip-rule:evenodd;fill:#065C51;}
	.st18{fill-rule:evenodd;clip-rule:evenodd;fill:#F9ADB5;}
	.st19{fill-rule:evenodd;clip-rule:evenodd;fill:#FFFFFF;}
	.st20{fill-rule:evenodd;clip-rule:evenodd;fill:#6C90BD;}
	.st21{fill-rule:evenodd;clip-rule:evenodd;fill:#7AA5D3;}
	.st22{fill:#FFFFFF;}
	.st23{fill:#FEFEFE;}
	.st24{fill:#C8A38A;}
	.st25{fill:#DBA183;}
	.st26{fill:#D2B8A8;}
	.st27{fill:#E82E41;}
	.st28{fill:#2A372D;}
	.st29{fill:#E5A889;}
	.st30{fill-rule:evenodd;clip-rule:evenodd;fill:#FFC7D2;}
	.st31{fill:#EFA3AE;}
	.st32{fill:#DBA184;}
	.st33{fill:#6A90BD;}
	.st34{fill-rule:evenodd;clip-rule:evenodd;fill:#D6253F;}
	.st35{fill-rule:evenodd;clip-rule:evenodd;fill:#F7313B;}
	.st36{fill-rule:evenodd;clip-rule:evenodd;fill:#DBA184;}
	.st37{fill:#F1E1C9;}
	.st38{fill:#FDFBF9;}
	.st39{fill:#046857;}
	.st40{fill:#074C42;}
	.st41{fill:#8C5A51;}
	.st42{fill:#085C51;}
	.st43{fill:#E57F5D;}
	.st44{fill:#D36B4F;}
	.st45{fill:#1C1C1C;}
	.st46{fill:#E73143;}
	.st47{fill:#F5ABB6;}
	.st48{fill-rule:evenodd;clip-rule:evenodd;fill:#6A90BD;}
	.st49{fill:#D6253F;}
	.st50{fill:#C6A18A;}
	.st51{fill:#29372B;}
	.st52{fill:#012E60;}
	.st53{fill:#78391A;}
	.st54{fill:#F09880;}
	.st55{fill:#1C9697;}
	.st56{fill:#CE2E45;}
	.st57{fill:#ED3550;}
	.st58{fill:#D8013A;}
	.st59{fill:#F3F4F4;}
	.st60{fill:#911C36;}
	.st61{fill:#F42237;}
	.st62{fill:#D8A85D;}
	.st63{fill:#E52033;}
	.st64{fill:#434543;}
	.st65{fill:#E9E9E9;}
	.st66{opacity:0.31;}
	.st67{fill:#C6CAC6;}
	.st68{fill:#FFD2A8;}
	.st69{fill:#E08D77;}
	.st70{fill:#037C65;}
</style>
<g id="bg">
</g>
<g id="GŁOWNE_KOLORY">
</g>
<g id="COLOR_1">
</g>
<g id="COLOR_2">
</g>
<g id="insp">
</g>
<g id="Kosz_kwiatów">
</g>
<g id="Las_w_szkle">
</g>
<g id="Rośliny">
</g>
<g id="Pogrzebowe">
</g>
<g id="Różne">
</g>
<g id="Flower_box">
</g>
<g id="Bukiet">
</g>
<g id="Ślubne">
	<g>
		<path class="st22" d="M239,375.3c6.4,11.3,12.7,22.6,19,34c6.4,11.4,12.5,22.9,18.4,34.6c10.4,20.7,19.8,41.8,27,63.9
			c5,15.5,9.1,31.2,11.9,47.2c1.8,10.3,3.1,20.7,4.2,31.2c0.4,4.2,0.6,8.5,0.9,12.7c0.1,1.1-2.9,3.2-3.6,3.2c-98,0-192.6,0-290.6,0
			c-0.7,0-3.7-2.2-3.6-3.2c0.4-5.4,0.7-10.7,1.3-16.1c0.9-7.8,1.8-15.6,3.1-23.4c1.2-7.6,2.7-15.2,4.5-22.7
			c2.7-11.5,6-22.8,9.8-33.9c6.3-18.2,13.9-35.9,22.5-53.1c9.2-18.6,19.1-36.8,29.3-54.8c3-5.4,6-10.8,9-16.2
			c3.7-5.8,7.5-11.6,11.1-17.6c2-3.3,4.2-6.5,5.2-10.4c1.1-0.7,1.4-1.9,1.8-3c1.7-4.2,3.3-8.4,4.6-12.8c3.8-12.5,4-25.8,0.9-38.4
			c-1.7-6.8-3.5-13.5-5.3-20.3c-0.5-1.8-0.7-3.8-1.7-5.4c-0.1-0.8-0.1-1.7-0.3-2.5c-2.3-8.4-4.6-16.8-7.5-25.1
			c-1.3-3.5-2.6-7.1-4.8-10.2c-4.8-6.9-11.9-9.2-19.8-9.8c-0.6-0.3-0.8-0.9-0.9-1.6c-0.4-9.4,1.3-18.1,8-25.2
			c5.4-5.7,12.3-8.7,19.9-10.4c3.9-0.9,7.9-1,11.8-0.8c-0.1,6.8,0.6,13.5,2,20.1c3.2,15.6,8.4,30.7,14.1,45.5
			c8.5,22.1,17.3,74,26.6,95.9c0.8,1.9,1.6,4.1,3.8,4.1c2.2,0,3-2.3,3.8-4.1c4.1-8.9,30.3-103.6,37.3-127.8
			c3.2-11,5.4-22.2,5.3-33.7c9.2-0.5,17.8,1.4,25.6,6.2c7.8,4.8,12.3,11.9,13.6,21.1c0.5,3.5,0.8,7,0,10.5
			c-6.1,0.1-11.9,1.7-16.7,5.5c-8.5,6.8-14.9,15.4-18.1,25.8c-3.9,12.2-7.2,24.6-10.4,37c-3.7,14.1-2.7,29.1,3.1,42.5
			C223.8,353.8,238.4,374.1,239,375.3z"/>
	</g>
	<path class="st3" d="M218,191.3c0,14.2-2.1,28-5.3,41.6c-7,29.8-16.7,58.4-26.2,87.2c-3.7,11.2-7,22.6-11.1,33.5
		c-0.8,2.3-1.6,5.1-3.8,5.1c-2.2,0-3-2.8-3.8-5.1c-9.3-26.9-18.1-54.1-26.6-81.4c-5.7-18.3-10.8-36.9-14.1-56.1
		c-1.4-8.1-2-16.4-2-24.8c6-0.4,11.8-1.5,17.4-4.5c5.4-2.9,8.4-8.3,10.3-14.9c1.3-4.5,1.8-9.1,2.1-13.8c2.1,1.8,4.1,3.8,6.5,4.9
		c9.6,4.3,18.5,2.9,26.7-5c0.4,5.1,1,10.2,2.5,15c2.6,8.5,7.6,13.6,14.7,15.9C209.4,190.2,213.6,191.1,218,191.3z"/>
	<path class="st4" d="M188.1,293.8c-8.1,14-17,16.5-26.7,8.9c-2.4-1.9-4.4-5.4-6.5-8.6c-4.9-10.6-5.6-23.1-3.9-37.2
		c2.4-19.6,1.2-25.1-7.1-34.8c-8.9-10.5-15.2-25.4-16.9-47.7c-1.3-16.2-1.1-32.2,4.2-45.2c2.5-6.2,3.1-12.1,2.8-19.8
		c-0.7-18.7,3.3-33.8,10.5-40.9c2.6-2.5,5.3-3.5,8.1-3.3c1.8,0.1,3-0.9,4.2-3.9c13.2-32.4,42.4-22,50.5,24.4
		c1.1,6.4,1.6,13.2,0.9,20.1c-0.8,8.1,0.2,14.4,2.6,20.9c12.4,34.7,3.2,79.6-10,93.6c-1.5,1.6-3,2.6-4.5,4.2
		c-3,3.4-4.6,8.9-4.8,16.3c-0.1,5.6-0.1,11.2,0.6,16.6C193.7,271.1,192.7,283.4,188.1,293.8z"/>
	<path class="st3" d="M228.2,225.2c3.3-10.4,33.1-19.3,28.4-4.1c-3.5,11.4-20.4,110.4-20.5,117.4c0,2.5-0.6,4.9-0.4,7.4
		c-0.5,8.2-0.7,16.3-0.4,24.5c0.5,12.6,1,25.2,2,37.8c0.2,2.5,0.1,5.1,0.3,7.7c0.2,2-0.4,3.9-1.7,5.6c-0.5,0-1,0.1-1.5,0
		c-4.4-0.7-7.7,0.9-9.9,4.8c-0.3,0.5-0.6,1.1-1.2,1.1c-2,0.1-3.6,1.2-5.3,1.9c-0.8-0.2-1.7-0.4-2.5-0.6c-3.7-1-7.3-1-10.5,1.4
		c-0.1-0.6-0.4-1-0.8-1.4c-1.3-1.2-1.7-2.6-0.9-4.2c0.6-1.2,0.3-2.2-0.7-3c-1.2-0.9-1.6-2.1-1.1-3.6c0.3-1,0-1.7-0.7-2.5
		c-1.9-2-1.8-3.3,0.1-5.2c4.9-4.9,9.5-10.2,14.4-15c3.9-3.8,4.2-78.7,2.6-90.1C216.8,296.3,228.2,225.2,228.2,225.2z"/>
	<path class="st3" d="M86.3,223c7.9,0.6,15,2.9,19.8,9.8c2.2,3.1,3.5,6.7,4.8,10.2c2.9,8.2,5.2,16.6,7.5,25.1
		c0.2,0.8,0.2,1.7,0.3,2.5c-0.5,7.8-0.9,15.5-1.4,23.3c-0.3,4.3-0.8,8.6-1.2,12.9c-0.2,3-0.5,5.9-0.4,8.9c0.4,6.5,1.1,13,1.6,19.4
		c0.4,5.1,0.7,10.3,1,15.5c-1,3.8-3.2,7.1-5.2,10.4c-3.6,5.9-7.4,11.7-11.1,17.6c-2.4-11.4-3.9-22.9-5.4-34.4
		c-1.1-8.3-2.1-16.6-2.8-24.9c-0.6-7.3-1.7-14.6-2.4-21.9c-0.6-6.2-0.9-12.4-1.4-18.6c-0.5-6.7-1.1-13.4-1.6-20.1
		c-0.2-2.6-0.2-5.2-0.4-7.8c-0.7-8.6-1.2-17.2-1.7-25.8C86.2,224.3,86.3,223.6,86.3,223z"/>
	<path class="st47" d="M252.9,446.7c-0.4,1.7-1.4,3.1-1.4,4.9c-0.8,0.7-1.3,1.9-2.7,1.6c-4.2-0.9-7.2,1.3-7.4,5.5
		c-0.1,2-0.6,3.4-2.3,4.6c-0.8,0.5-1.8,1.1-1,2.6c1.6,2.6,2,5.4,1.3,8.4c-0.2,0.8-0.1,1.4,0.7,1.8c3,1.6,4.2,4.3,4.7,7.5
		c-0.1,3.1-0.8,6-2.2,8.7c-6.8,4.1-6.8,4.1-10.4,9.4c-2.9,1-5.7,2-8.8,1.7c-4.7-0.5-9.1-1.1-10.6-7.5c-0.3-1.2-1.1-1.3-2.1-1.5
		c-0.9-0.9-1.8-1.8-2.8-2.7c0-0.1,0.1-0.3,0.1-0.4c-0.6-2.9-0.5-5.6,1.7-7.9c0.4-0.4,0.2-0.8-0.1-1.1c-2.2-2-2.4-4.7-2.4-7.4
		c-0.2-1.8,0.7-3.4,0.8-5.1c2.1-2.2,4.3-4.2,7.5-4.5c0.3,0,0.6-0.3,0.8-0.6c2-2.4,4.6-3.7,7.7-4c1.3-0.1,1.5-0.8,1.4-2
		c-0.2-2.6-2-2-3.6-2c-2.5,0-4.4-0.8-5.4-3.3c-1-2.4-0.6-5.1,1.4-6.8c1.4-1.2,1.1-1.8,0-2.9c-3.8-3.7-4-8.1-0.8-12.3
		c0.4-0.6,1.3-0.9,1.1-1.9c1.8-0.7,3.3-1.8,5.3-1.9c0.6,0,0.9-0.6,1.2-1.1c2.2-3.8,5.5-5.4,9.9-4.8c0.5,0.1,1,0,1.5,0
		c2.4,1.1,5.1,1.8,6.8,4.1c1.1,1.4,1.8,3,1.8,4.7c0,1.3,0.5,2,1.7,2.6C252.8,435.9,254.5,439.6,252.9,446.7z"/>
	<path class="st1" d="M244.7,483.5c-0.5-3.2-1.7-5.9-4.7-7.5c-0.8-0.4-0.9-1-0.7-1.8c0.7-3,0.3-5.8-1.3-8.4c-0.9-1.4,0.2-2.1,1-2.6
		c1.7-1.1,2.2-2.5,2.3-4.6c0.2-4.2,3.2-6.4,7.4-5.5c1.5,0.3,1.9-0.9,2.7-1.6c1.4-1.2,3-1.7,4.7-2c3.7-0.1,5.7,2.3,7.5,5.1
		c0.4,1,1.1,1.1,2,1c7.3-1.2,11.9,3.8,11.9,10.8c0,7.8-3.2,13.4-10.2,16.6c-1.5,0.7-1.9,2.2-3,3.2c0,0-0.2,0-0.2,0l0,0.2
		c-0.8,0.4-1.7,0.8-2.5,1.2c-3.6,0.7-7.1,1-10.2-1.5c-0.5-0.8-0.7-2-2.2-1.9C247.8,484.3,246.3,483.8,244.7,483.5z"/>
	<path class="st1" d="M209.7,483.3c-2.3,2.3-2.3,5-1.7,7.9c0,0.1,0,0.3-0.1,0.4c-0.7,0.4-1.1,0.9-1.2,1.8c-0.8,6.8-3.3,9.2-10.1,9.7
		c-4.3,0.3-8.3-0.5-10.2-5.1c-0.4-0.8-1.1-0.8-1.8-0.9c-6.7-1-9.2-4.5-7.8-11.2c0.3-1.4,0.3-2.7,0-4.1c-1.1-3.9,0.7-7.7,4.3-9.4
		c0.9-0.4,1.3-1,1.5-1.9c5.3-0.4,9.6-2.3,11.2-8c5.9,0.6,9.5,3.7,11.3,9.8c0.4,1.2,0.6,2.3,2.2,2.4c0,2.7,0.3,5.4,2.4,7.4
		C209.9,482.5,210.1,483,209.7,483.3z"/>
	<path class="st1" d="M225.4,458.5c-0.2-2.6-2-2-3.6-2c-2.5,0-4.4-0.8-5.4-3.3c-1-2.4-0.6-5.1,1.4-6.8c1.4-1.2,1.1-1.8,0-2.9
		c-3.9-3.7-4.1-8.1-0.8-12.3c0.4-0.6,1.3-0.9,1.1-1.9c-0.8-0.2-1.7-0.4-2.5-0.6c-3.7-1-7.3-1-10.5,1.4c-1.2,1.1-2.1,2.3-2.7,3.7
		c-1.9,4.5-2.4,5.1-6.5,7.8c0.1,0.5,0.1,1,0.2,1.4c1.1,2.9,0.4,5.3-1.7,7.5c1,1.4,1.6,2.8,0.3,4.4c-0.2,0.3-0.2,0.8-0.2,1.2
		c-0.2,3.1,1.9,5.5,5.8,6.5c1.1,0.3,1.8,0.8,2.2,1.9c1.1,2.5,2.7,4.6,5.6,5.2c2.1-2.2,4.3-4.1,7.4-4.5c0.3,0,0.6-0.4,0.8-0.6
		c2-2.4,4.6-3.7,7.7-4C225.2,460.5,225.5,459.8,225.4,458.5z M209.3,453.4L209.3,453.4L209.3,453.4
		C209.3,453.4,209.3,453.4,209.3,453.4C209.3,453.4,209.3,453.4,209.3,453.4z"/>
	<path class="st5" d="M270.2,502.9c1.1,0.9,2,2,2.2,3.5c0.4,2.9-0.7,5.1-2.9,5.7c-2.8,0.8-5.9-0.6-7.1-3.3c-0.4-1-0.8-2-1.3-3.1
		c-2,3.2-4.6,4.8-8.4,4.1c-2.2-0.4-3.3-1.8-4.1-3.6c-0.2-0.5-0.2-1.1-1-1.2c1.1-1.4,0.7-3.4,2-4.6c1.6-1.5,1.6-2.7,0.2-4.2
		c-0.7-3.6-0.6-7.1,1.8-10.1c3.1,2.5,6.6,2.2,10.2,1.5v2.4c0.8-1.3,2.5-1.9,2.5-3.6l0-0.2l0.2,0c0.6-0.1,1.3,0,1.9-0.2
		c5.8-1.1,9.6,2.6,8.4,8.4c-0.6,2.9-1.8,5.4-4.5,6.9C269.4,501.9,269.4,502.3,270.2,502.9z"/>
	<path class="st5" d="M198.4,433.9c-1.1,1.8-2.6,3-4.4,3.9c-1.1,0.6-1.4,1.1-0.2,1.9c0.7,0.5,1.3,1.2,2,1.9c0.1,0.5,0.1,1,0.2,1.4
		c1.1,2.9,0.4,5.3-1.7,7.5c-1,0-2-0.1-3,0c-3.2,0.3-5.1-1.3-6.4-3.9c-0.6-1.2-1-1.7-1.9-0.1c-1.4,2.6-3.9,2-6.1,1.8
		c-2-0.3-2.8-1.8-3-3.7c-0.2-2-0.6-4.1,1.1-5.8c0.9-0.9,1.9-1,3.4-1.2c-4.4-3.2-4-7.3-2.5-11.4c1.5-4.3,6.7-6.1,9.7-3.5
		c1.7,1.5,1.8,3.8,2.5,6c1.4-2.1,3.2-3.1,5.7-3.3c2.4-0.2,4,1,4.7,2.8S199.6,431.9,198.4,433.9z"/>
	<path class="st5" d="M232.7,504.6c-1,0.2-0.9,1.2-1.2,1.9c-0.7,2-1.6,3.8-3.5,4.9c-1.5,0.8-1.5,1.4-0.1,2.4c1.8,1.3,2.4,4,1.7,6
		c-0.7,2-2.4,2.7-4.3,3c-2.1,0.3-5.3-2.2-6.3-4.7c-0.2-0.6-0.1-1.3-0.7-1.8c-2.1,3-4.7,4.7-8.6,3.7c-5-1.3-5-7-2.6-9.5
		c1.4-1.4,2.1-2.3,0.5-4.1c-2.5-2.8-0.8-8.2,1.8-10.8c0.4-0.5,0.9-0.9,1.3-1.3c0.9,0.1,1.8,0.3,2.1,1.5c1.5,6.5,5.9,7.1,10.6,7.5
		c3.1,0.3,6-0.7,8.8-1.7C232.3,502.6,232.5,503.6,232.7,504.6z"/>
	<path class="st33" d="M193.7,462.5c-1.6,5.6-5.9,7.5-11.2,8c-3-0.1-5.9-0.6-8.8-1.3c-0.5-0.1-1.2-0.3-1.3-0.6
		c-0.2-0.6,0.5-0.9,0.9-1.3c1.2-1,2.3-2.1,3.6-3c1.1-0.8,1.1-1.4,0-2.3c-1.4-1-3-1.9-4.2-3.5c1.7-0.6,3.3-1.3,4.9-1.8
		c1.2-0.4,1.4-1,0.7-2c-0.7-1.1-1.4-2.2-2-3.2c-0.5-0.7-0.6-1.3,0.6-1.3c4.8,0.1,9.5,0.8,13.6,3.6
		C193.4,455.9,194.1,459.1,193.7,462.5z"/>
	<path class="st33" d="M263.7,454.6c-1.8-2.8-3.8-5.1-7.5-5.1c-1.8-5-1.5-10-0.2-15.1c0.4-1.6,0.9-1.5,1.8-0.4
		c1,1.2,2.2,2.4,3.2,3.7c0.8,1,1.4,0.9,2.1-0.2c0.7-1.1,1.5-2.1,2.2-3.1c0.7-1.1,1.3-1.2,1.8,0.1c0.4,1.2,1,2.4,1.4,3.6
		c0.4,1.2,1,1.4,2,0.7c0.7-0.6,1.5-1,2.3-1.5c0.6-0.3,1.1-1.2,1.8-0.7c0.6,0.4,0.3,1.3,0.3,2c0,2.7-0.4,5.3-1.2,8
		C272.3,451.7,269.2,454.6,263.7,454.6z"/>
	<path class="st33" d="M232.7,504.6c-0.2-1-0.3-2-0.5-3c3.6-5.4,3.6-5.4,10.4-9.4c2.9,0.5,5.1,2.2,7.2,4.1c1.4,1.4,1.5,2.7-0.2,4.2
		c-1.2,1.1-0.9,3.2-2,4.6c-0.1,1.5-0.2,3-0.2,4.5c0,1-0.5,1.3-1.4,0.8c-0.1,0-0.1-0.1-0.2-0.1c-3.9-1.3-3.9-1.3-4.6,2.9
		c-0.1,0.4-0.2,0.8-0.2,1.2c-0.2,1.4-0.8,1.3-1.6,0.4C236.5,511.8,233.8,508.7,232.7,504.6z"/>
	<path class="st22" d="M249.8,496.3c-2.1-1.9-4.3-3.6-7.2-4.1c1.4-2.7,2-5.7,2.1-8.7c1.6,0.3,3.1,0.8,4.8,0.7
		c1.4-0.1,1.6,1.1,2.2,1.9C249.1,489.2,249.1,492.7,249.8,496.3z"/>
	<path class="st22" d="M264.3,486.4c0,1.7-1.7,2.3-2.5,3.6c0-0.8,0-1.6,0-2.4C262.6,487.2,263.4,486.8,264.3,486.4z"/>
	<g>
		<path class="st22" d="M255.1,299l6.4,3.5l-6.4,3.5c-1.9,1.1-3.5,2.7-4.6,4.6l-3.5,10.8l-3.5-10.8c-1.1-1.9-2.7-3.5-4.6-4.6
			l-6.4-3.5l6.4-3.5c1.9-1.1,3.5-2.7,4.6-4.6l3.5-10.8l3.5,10.8C251.6,296.3,253.2,297.9,255.1,299z"/>
	</g>
	<g>
		<path class="st22" d="M80.1,378.9l5.7,3.1l-5.7,3.1c-1.7,0.9-3.1,2.4-4.1,4.1l-3.1,9.6l-3.1-9.6c-0.9-1.7-2.4-3.1-4.1-4.1
			l-5.7-3.1l5.7-3.1c1.7-0.9,3.1-2.4,4.1-4.1l3.1-9.6l3.1,9.6C77,376.5,78.4,377.9,80.1,378.9z"/>
	</g>
	<g>
		<path class="st22" d="M236.7,475.5l3.2,1.8l-3.2,1.8c-1,0.5-1.8,1.3-2.3,2.3l-1.8,5.5l-1.8-5.5c-0.5-1-1.3-1.8-2.3-2.3l-3.2-1.8
			l3.2-1.8c1-0.5,1.8-1.3,2.3-2.3l1.8-5.5l1.8,5.5C235,474.2,235.8,475,236.7,475.5z"/>
	</g>
</g>
<g id="Siedząca_z_kwiatami">
</g>
<g id="zadzwoń">
</g>
<g id="zapłać">
</g>
</svg>
