<?xml version="1.0" encoding="utf-8"?>
<!-- Generator: Adobe Illustrator 26.0.3, SVG Export Plug-In . SVG Version: 6.00 Build 0)  -->
<svg version="1.1" id="Layer_1" xmlns="http://www.w3.org/2000/svg" xmlns:xlink="http://www.w3.org/1999/xlink" x="0px" y="0px"
	 viewBox="0 0 340.5 422.2" style="enable-background:new 0 0 340.5 422.2;" xml:space="preserve">
<style type="text/css">
	.st0{fill:#F8A48A;}
	.st1{fill:#6A90BD;}
	.st2{fill:#7AA5D3;}
	.st3{fill:#065C51;}
	.st4{fill:#FABB95;}
	.st5{fill:#C6A18A;}
	.st6{fill:#DBA184;}
	.st7{fill:#D2B8A8;}
	.st8{fill:#085C51;}
	.st9{fill:#E73143;}
	.st10{fill:#F7313B;}
	.st11{fill:#FFFFFF;}
</style>
<path class="st0" d="M228.1,245.4c-2.1,1.2-5.4,3.7-7.7,4.6c-2.8,1.1-14,8-16.6,9.3c-1.5,0.7-3.8-26.2-4-26.7
	c0.2-0.1,5.8-3.3,9.1-5.9c1-0.5,1.7-1.6,2.7-2.1C212.2,224.6,227.8,245.5,228.1,245.4z"/>
<path class="st1" d="M325.7,185.1c-0.5,0.4-0.9,0.7-1.4,1.1c-0.2,0.2-0.6,0.5-0.8,0.7c-0.8,0.7-1.6,1.3-2.4,2
	c-0.2,0.1-0.2,0.2-0.4,0.3l0,0c-0.6,0.5-1.1,0.9-1.7,1.4l0,0c-0.8,0.7-1.6,1.3-2.5,2c-0.8,0.7-1.6,1.3-2.4,2l0,0
	c-1.3,1.1-2.6,2.1-3.8,3.1c-0.8,0.7-1.6,1.3-2.4,2c-1,0.7-2,1.6-2.9,2.3c-0.9,0.7-1.8,1.4-2.7,2.1c-1.1,0.9-2.3,1.8-3.5,2.6
	c-0.9,0.7-1.7,1.4-2.6,1.9c-1.1,0.9-2.4,1.8-3.6,2.7c-0.3,0.2-0.6,0.5-0.9,0.7l0,0c-0.2,0.2-0.5,0.4-0.8,0.6l-0.1,0
	c-0.1,0.2-0.4,0.3-0.6,0.5c-0.9,0.6-1.8,1.3-2.6,1.8c-0.8,0.6-1.8,1.3-2.7,1.9c-1.3,0.8-2.6,1.8-3.9,2.7c-0.9,0.6-1.8,1.2-2.7,1.8
	c-1.3,0.8-2.5,1.7-3.9,2.6c-0.8,0.5-1.5,0.9-2.2,1.5c-1.2,0.7-2.3,1.5-3.5,2.2c-0.8,0.4-1.5,0.9-2.3,1.4c-1.3,0.8-2.7,1.6-4,2.3
	c-0.9,0.5-1.7,1-2.7,1.6c-1.3,0.8-2.6,1.4-3.9,2.1c-0.9,0.5-1.7,0.9-2.6,1.4c-0.8,0.4-1.7,0.9-2.5,1.3c-0.5,0.2-0.9,0.5-1.4,0.7
	c-0.2,0.1-0.6,0.1-1.2,0.3c-1.4,0.3-3.5,0.7-4,0.9c-6.3,3.1-9.7,5.7-16.6,8.6c-0.2,0.1-1-0.3-1-0.3l-0.5-0.7l-15.3-21.4l-0.3-0.5
	c0,0,0.1-0.4,0.3-0.4c4.9-4.7,9.8-9.5,14.9-14.2c0.1,0,0.1-0.2,0.2-0.2c0.6-0.5,1.6-1.5,2-1.9c0.1,0,0.1,0,0.1-0.2
	c1.1-1,2.3-2.1,3.5-3.2c0.7-0.6,1.4-1.2,2-1.9c1.2-1,2.4-2.2,3.6-3.2c0.7-0.6,1.4-1.2,2-1.9c0.7-0.6,1.3-1.2,2.1-1.8
	c0.6-0.6,1.2-1,1.8-1.6l0,0c1-1,2.1-1.8,3.1-2.8c0.6-0.5,1.2-1,1.8-1.5c1.3-1.1,2.4-2.2,3.7-3.3l2.3-2c1-0.8,2-1.7,3-2.5
	c0.8-0.7,1.5-1.3,2.3-1.9c1-0.8,1.9-1.5,2.8-2.4c0.8-0.7,1.6-1.3,2.4-2c1.3-1.1,2.6-2.1,3.9-3.1c0.7-0.6,1.5-1.1,2.2-1.8
	c0.8-0.7,1.6-1.3,2.4-2l0,0c0.7-0.5,1.3-1,1.9-1.4l0,0c1.3-1,2.5-2,3.9-2.9c0.6-0.5,1.2-0.9,1.8-1.4c1.1-0.8,2.1-1.6,3.2-2.4
	c0.3-0.2,0.6-0.5,0.9-0.7c0.3-0.2,0.6-0.5,0.9-0.7c0,0,0,0,0.1,0c0.2-0.2,0.5-0.3,0.8-0.5c1.2-0.9,2.5-1.8,3.8-2.8
	c0.9-0.6,1.8-1.3,2.7-1.9c1.3-1,2.6-1.8,4-2.7c0.5-0.3,1-0.6,1.5-1.1l0,0c0.4-0.3,0.8-0.6,1.2-0.8c2.2,1.9,4.4,3.9,6.4,6
	c0.9,0.9,4.4,4.2,8,9.4C318.3,171.9,323.1,180.3,325.7,185.1z"/>
<path class="st2" d="M298.7,206.7c-0.9,0.7-1.7,1.4-2.6,1.9c-0.4-0.4-0.7-1-1-1.6c-1.2-3.8-3.2-7.3-5.2-10.7
	c-1.5-2.6-3.3-5.2-5.4-7.6c-1.6-1.7-2.9-3.7-4.6-5.4c-1.6-1.5-3.2-3-4.8-4.5c-1.8-1.7-3.9-3.2-6-4.8c-0.3-0.3-0.6-0.6-0.7-1
	c0.7-0.6,1.5-1.1,2.2-1.8c0.3,0.7,1.1,0.9,1.7,1.3c3.4,2.2,6,5,8.8,7.6c3.4,3.3,6.3,7,9,10.9c2.7,3.9,5,7.9,7,12
	C297.5,204,298.1,205.4,298.7,206.7z"/>
<path class="st2" d="M292.5,211.3c-0.3,0.2-0.6,0.5-0.9,0.7l0,0c-0.2,0.2-0.5,0.4-0.8,0.6l-0.1,0c-0.1,0.2-0.4,0.3-0.6,0.5
	c-1-1.6-1.9-3.6-2.5-5.1c-0.7-1.8-1.5-3.5-2.6-5c-1.3-1.8-2-4-3.3-5.7c-1.8-2.4-3.5-4.7-5.4-7.1c-1.3-1.5-2.7-2.8-4-4.3
	c-1.6-1.7-3.7-3-5.6-4.4c-1.4-1.1-3-2.2-4.7-3.3c0.8-0.7,1.6-1.3,2.4-2c2.7,1.7,5.4,3.6,7.8,5.6c2.6,2.2,5,4.6,7.1,7.2
	c2.9,3.6,5.8,7,7.8,11.1c1.4,3,3,5.9,4.4,8.8C291.8,209.5,292.2,210.4,292.5,211.3z"/>
<path class="st2" d="M287.4,214.9c-0.8,0.6-1.8,1.3-2.7,1.9c-1.6-3-3.4-6.7-5.4-9.5c-2.2-3-4.6-5.9-6.7-8.9
	c-1.3-1.8-2.7-3.4-4.1-5.1c-1.1-1.4-2.4-2.6-3.7-3.9c-2.6-2.4-5.1-4.8-8.1-6.8l0,0c0.8-0.7,1.5-1.3,2.3-1.9c0.5,0.1,0.9,0.5,1.2,0.8
	c3.3,2.8,6.5,5.6,9.4,8.9c1.2,1.3,2.3,2.7,3.4,4c1.9,2.2,3.6,4.3,5.2,6.6c1.6,2.4,3.3,4.8,4.9,7.2c0.8,1.3,2,2.3,2.6,3.8
	C286.3,212.6,287.1,213.8,287.4,214.9z"/>
<path class="st2" d="M310.2,197.6c-0.8,0.7-1.6,1.3-2.4,2c-0.5-0.1-0.7-0.5-0.8-1.1c-0.4-2.5-2.3-4.2-3.5-6.4
	c-1.4-2.4-3.1-4.8-4.8-7c-1.9-2.5-3.9-4.8-5.9-7c-1.4-1.5-2.8-2.9-4.3-4.4c-1.9-1.8-4.1-3.4-5.9-5.4c-0.8-0.8-1.8-1.1-2.6-1.8
	c-0.5-0.4-0.9-0.9-1.1-1.5c0.6-0.5,1.2-0.9,1.8-1.4c2.2,1.4,4,3.1,6,4.7c2.7,2,4.8,4.5,7.2,6.7c1.5,1.3,2.7,3,4.1,4.5
	c3.2,3.5,5.7,7.3,8.2,11.1C307.8,192.7,308.9,195.2,310.2,197.6z"/>
<path class="st2" d="M314,194.6c-0.2-1.5-1.4-2.6-2.1-3.9c-2.2-3.6-4.6-7.3-7.3-10.7c-1.1-1.5-2.2-3.1-3.6-4.6
	c-1.7-2-3.4-3.9-5.4-5.6c-3-2.5-5.6-5-8.9-7.2c-0.3-0.2-0.7-0.4-1-0.5s-1.1-0.5-1.8-1.1c0.3-0.2,0.6-0.5,0.9-0.7s0.6-0.5,0.9-0.7
	c0,0,0,0,0.1,0c0.2-0.2,0.5-0.3,0.8-0.5c0.5,0.2,0.9,0.5,1.1,0.6c4,2.3,7,5.4,10.3,8.2c4.3,3.7,7.6,8.1,11,12.5
	c2.4,3.1,4.3,6.5,6.3,9.7c0.4,0.8,0.9,1.5,1.3,2.2C315.7,193.3,314.9,193.9,314,194.6z"/>
<path class="st2" d="M304.8,201.9c-0.9,0.7-1.8,1.4-2.7,2.1c-0.4-0.7-0.7-1.5-0.8-1.9c-0.8-3-2.7-5.5-4.4-8
	c-1.6-2.5-3.3-4.9-5.3-7.2c-1.7-2-3.6-3.9-5.4-5.9c-1.8-1.8-3.7-3.5-5.6-5.4c-2.1-2-7.7-6.1-7.7-6.3l0,0c0.7-0.5,1.3-1,1.9-1.4l0,0
	c0.5-0.1,1,0.1,1.5,0.6c1.9,1.4,3.6,3,5.5,4.6c1.9,1.6,3.7,3.2,5.5,4.9c1.6,1.4,2.8,2.9,4.3,4.4c1.2,1.3,2,2.8,3.5,4
	c0.8,0.5,1.1,1.5,1.5,2.2C299.6,192.1,302.6,197.3,304.8,201.9z"/>
<path class="st2" d="M321.1,188.9c-0.2,0.1-0.2,0.2-0.4,0.3l0,0c-0.6,0.5-1.1,0.9-1.7,1.4l0,0c-0.7-0.5-0.9-1.2-1.4-2
	c-1.5-3.2-3.3-6.2-5.1-9.3c-2.1-3.5-4.8-6.6-7.3-9.6c-1.7-2.1-3.7-4.2-5.9-6.1c-1.5-1.2-2.8-2.8-4.5-3.8c-1.5-0.9-2.6-1.9-4-2.9
	c-0.1-0.1-0.3-0.2-0.4-0.3c0.9-0.6,1.8-1.3,2.7-1.9c0.1,0.1,0.1,0.1,0.2,0.1c1.8,1.3,3.7,2.5,5.3,3.9c2,1.8,4.1,3.5,5.8,5.6
	c1.1,1.5,2.6,2.7,4,4.1c5.2,5.9,9.3,12.3,12.5,19.3C320.7,188.1,320.9,188.5,321.1,188.9z"/>
<path class="st2" d="M280.8,219.4c-0.9,0.6-1.8,1.2-2.7,1.8c-1.5-2.1-1.2-4.9-2.9-6.9c-2.6-3.2-4.3-7-6.7-10.2
	c-1.4-1.9-3.1-3.6-4.5-5.4c-1.7-2.1-3.8-4-6-5.9c-1.8-1.5-3.6-3-5.3-4.7c-0.4-0.4-1.1-0.6-1.4-1.1l2.3-2c1.3,1.5,2.9,2.7,4.4,3.9
	c2.4,2.1,4.7,4.2,7,6.4c1.7,1.6,2.8,3.5,4.5,5.2c1.5,1.5,2.8,3.3,3.9,5.1C276.4,210,278.4,214.8,280.8,219.4z"/>
<path class="st2" d="M274.2,223.7c-0.8,0.5-1.5,0.9-2.2,1.5c-0.3-0.3-0.6-0.9-1-1.6c-0.5-1.1-1-2.3-1.7-3.3
	c-2.2-2.8-3.6-6.1-5.9-8.7c-0.6-0.6-1.2-1.3-1.6-2c-2.3-4.1-5.7-7.6-8.9-11.1c-1.5-1.6-3.3-3.3-5.3-4.5c-0.8-0.4-1.2-1.3-1.5-2.1
	c0.6-0.5,1.2-1,1.8-1.5c2.7,1.6,5,3.6,7,5.8c1.4,1.6,2.9,3.1,4.2,4.7c1.6,2,3.1,3.9,4.8,5.8c0.7,0.8,1,1.7,1.7,2.5
	c1.8,2,3.1,4.4,4.5,6.6C271.4,218,272.9,221.2,274.2,223.7z"/>
<path class="st2" d="M325.7,185.1c-0.5,0.4-0.9,0.7-1.4,1.1c-0.2,0.2-0.6,0.5-0.8,0.7l0-0.1c-1.2-2.6-6.3-11.6-11.5-18.6
	c-3.8-5.3-8-9.4-8.6-10c-1.8-2-3.9-3.7-5.9-5.6c-0.2-0.2-0.5-0.4-0.8-0.5c0.5-0.3,1-0.6,1.5-1.1l0,0c0.4-0.3,0.8-0.6,1.2-0.8
	c2.2,1.9,4.4,3.9,6.4,6c0.9,0.9,4.4,4.2,8,9.4C318.3,171.9,323.1,180.3,325.7,185.1z"/>
<path class="st2" d="M268.4,227.4c-0.8,0.4-1.5,0.9-2.3,1.4c-0.3-0.4-0.6-0.8-0.7-1.2c-1.5-3.1-2.8-6.1-4.9-8.9
	c-2.5-3.5-4.9-7.1-7.5-10.5c-1.5-2-3.3-3.6-4.9-5.4c-1.7-1.9-3.9-3.5-5.9-5.2c-0.3-0.2-0.8-0.8-1.2-1.4c0.6-0.6,1.2-1,1.8-1.6l0,0
	c0.6,0.4,1.2,0.8,1.5,1.1c1.9,1.4,3.7,2.9,5.4,4.5c1.3,1.2,2.6,2.5,3.7,3.8c1.7,2.1,3.5,4.2,5.1,6.3c2.6,3.5,5.1,7,7,10.9
	C266.2,222.8,267.4,225.4,268.4,227.4z"/>
<path class="st2" d="M262,231.2c-0.9,0.5-1.7,1-2.7,1.6c-0.5-0.8-1-1.6-1.2-2.1c-2-5-5.4-9.2-8.1-13.8c-1.3-2.2-3.2-4-4.9-6
	c-0.2-0.1-6.5-8.5-8.4-10.8c0.7-0.6,1.4-1.2,2-1.9c2.9,3.1,8.6,10.6,9.5,11.5c1,1.2,2,2.5,3,3.8c2.2,3.1,4.5,6.2,6.5,9.4
	C259.2,225.1,260.8,228.6,262,231.2z"/>
<path class="st2" d="M255.5,234.7c-0.9,0.5-1.7,0.9-2.6,1.4c-0.3-0.3-0.6-0.7-0.7-1c-0.3-0.7-0.7-1.3-1.1-2.1
	c-2.6-5.2-5.8-10.1-9.5-14.6c-0.5-0.7-9.4-12.3-10.5-13.5c0.7-0.6,1.4-1.2,2-1.9c2.6,2.1,11.6,14.3,12.8,15.8
	c2.9,4,5.8,8.1,7.9,12.5C254.3,232.3,255.1,233.6,255.5,234.7z"/>
<path class="st2" d="M250.2,236.6c0.1,0.3,0.2,0.6,0.2,0.8c-0.5,0.2-0.9,0.5-1.4,0.7c-0.2,0.1-0.6,0.1-1.2,0.3
	c-0.1-0.1-0.2-0.2-0.3-0.4c-1.6-2.7-3.8-6.2-5.5-8.9c-1.4-2.1-3-4.3-4.9-6.2c-0.4-0.4-11.3-12.1-11.9-12.6l0,0
	c0.1,0,0.1-0.1,0.2-0.2c0.6-0.5,1.6-1.5,2-1.9c0.1,0,0.1-0.1,0.1-0.2l0,0c1.4,1.5,12.6,13.5,13.8,15.1c1.7,2.3,3.7,4.7,5,7.2
	C247.5,232.2,249.4,234.6,250.2,236.6z"/>
<path class="st3" d="M87,116l-29.6,81.7l120.5,30.8l35.8-105.2l-21-21.8c-4.7,6.7-5-15.9,4.1-36.4c0.8-1.8,0.5-4.9-0.7-4.4
	c-9.8,4-27.4,19.3-31.2,21c0,0,3.8-10.9,4.6-12c2-2.7,2.3-3.9-1.5-2.1c-0.8,0.4-1.8,0.9-2.9,1.5L87,116z"/>
<path class="st4" d="M232.1,113c6.4,32.5-16,72.7-11.6,78.1c5.3,6.7-6.6,14.3-12.9,17.8c-8.8,5-8,1.7,1.1,37.2
	c-17.1,21.5-9.6-21-16.7-30.3c-0.7,15.7-18.9,14.4-26.2,23.3c-1.8,1.6-1.9,15.2-10.6,15.1c-4.3,0.4-3.8,1.5-4.7-2.9
	c1.2-5-1.9-8.2-3.6-11.3c4.9-3.3,1.4-13.2,9-13.6c13.4-17.9,32.2-23.5,52.8-30.2c5.2-7.1-6.4-14.5-8.1-19.8
	c4.1-5.7,2.3-17.8,4.9-32.1C211.7,110.1,220.5,68.9,232.1,113z"/>
<path class="st5" d="M150.3,245.9c-0.2-1.2-0.5-2.4-1.2-3.3C149.9,243.4,150.5,244.4,150.3,245.9z"/>
<path class="st6" d="M170.3,246.8c-5.7,9-20.4,22.1-17.4,33.4c0-0.1-10.2-12.5-10.4-12.1c-8.6-9.3-9.8-9.8,0.8-18.9
	c0.4-0.4-0.5-0.8,0.8-5.1c2.2-7,10.6-16.5,14.6-13.8C160.3,228,167.4,245.9,170.3,246.8z"/>
<path class="st5" d="M144.9,259.1c-0.6-0.4-0.9-1.5-1-2.5C144,257.5,144.3,258.5,144.9,259.1z"/>
<path class="st5" d="M149.3,258.4c-0.5,0-1,0-1.4-0.1C148.3,258.3,148.8,258.2,149.3,258.4z"/>
<path class="st6" d="M143.8,226.6c-5,6-3.6,35.1,5.5,31.8c3.9-1.2,0.7-12.1-0.4-15.9c-4.2-2.3-0.9-3,0.2-5.9
	c1.6-4,0.8-10.3,6.8-10.4c11.4-15.5,27.5-19.9,46-24.9c17.9-6.8,12.6-10.6,1.2-22.8c10.7-21-5.1-47.3,26.2-51.1
	c-9.7-9.9-26.9-42.2-35.6-22.4c-0.5,5.1,7.7,7.6,6.5,18.4c-11.5,24.2-1.7,16.1-10.9,44.1c-0.9,4.3,0.6,4.5-1.5,2.8
	c-5.4-4.2-25.2-4.8-20.5,1.3c16.4,21.1-14,44.4-20,50.5C146,223.4,144.6,225.7,143.8,226.6z"/>
<path class="st7" d="M147.9,258.5c0.5-0.2,1-0.2,1.4,0.1C148.8,258.4,148.4,258.4,147.9,258.5z"/>
<path class="st4" d="M32.8,162.8c2.6,0.5,30.2-11.7,44.2-2.3l16.2,12.8c12,8,17.8,43.8,34.9,44.3c23-18.8,16.4-22.2,18.7-22.9
	c3.9-1.9,19.1-3.7,23.7-4.4c6.2-1,3.3,14,1.4,15.2c-16.4,10-27.4,19.3-28,21.2c-0.2,0.4-0.8,4.8-1.7,8.8c-1,5.3,2,11.3,0.1,16.3
	c-2.8,7.6-5.3,10-5.2,10.2c0-0.1-3.5-5.4-4.5-10.5c-0.6-3.1-7.7-6.1-10.3-7.3c-16.4-7.5-19.1-16.8-27-21.7s-42.5-8.8-46.3-12.9
	C46.1,206.3,27.6,165.4,32.8,162.8z"/>
<path class="st3" d="M158.8,100.1c-5.1,1.5,11.3-47.5,5.5-52.2c-4.3,7.5-18.1,32.4-23.5,37.7c-7,8.2-6.1,16.1-10.7,16.7"/>
<path class="st6" d="M196.1,220.2c3.7,12.7,5.7,39.7,0.6,55.1c-0.8,2.5-8.6-0.1-10.2,2.1c-5.7,8.3-20.3,10.8-34.4,2.1
	c-3.9-2.5-3.6-5.2-8.1-9.7c-7.4-7.2,9.7-6.4,11.1-15.7c3-18.9,16.9-36.4,19.8-24.3C176.7,237.6,191,193.1,196.1,220.2z"/>
<path class="st3" d="M36.1,121.6c-26.1-22.9,28.7,0.1,35.3,3.5c-13.5,7-7.7,26.5-12.2,36.4c-10.6,7.7-24.9-4.5-34.9-9.5
	c-1.9-1.2-9.2-2.6-4.7-4.3C39.4,140.3,53.5,149.7,36.1,121.6z"/>
<path class="st3" d="M120.4,70.5c5.8,7,11.1,15.4,16.6,22.2c-2.2,1.9-5.2,3-5.5,6.3c-3.7,3.8-23.9,9.8-28.2,7.9
	c-4.5-7.1-2.3-17.4,4.5-14.8c5.3,2,7.7-5.8,6.2-15.3c-0.5-2.7,1.2-7.5-0.4-9.9c-3-4.3-2.6-6.5,1.9-1.7
	C117.2,67.2,119.2,69.4,120.4,70.5z"/>
<path class="st8" d="M179.4,75.8c-0.7,18.5-4.1,48.3-28,39C151.9,100.7,171.2,79.4,179.4,75.8z"/>
<path class="st8" d="M259.3,365.1c0,0,3.8-0.2,2.6-2.3c-12.7-22.8-28.4-44.1-42.6-64.4c-1.2-1.6-22.6-26.8-19.7-26.6
	c-1.7-1.8,10.4,13.4,13,16.3c1.7,0.3,26.1,32.9,27,34.2c1.8,2.9,4.2,5,6,8.2l2.2-1.7c-3.3-3.3-10.2-14.2-11.3-15.7
	c-4.7-5.9-15.4-19.2-14.7-19.6c0.2-0.1,17.6,19.4,18,19.4c1.9-0.4,5-0.5,3.2-2.5c-6-4.4-36.1-41.9-51.8-52.4
	c-0.9-0.6-1.8-1.1-2.6-1.5c0,0-0.2-0.1-0.3-0.1c-5.8-2.9-8.7-0.2-5.5,12.9c0,0.1,0.2,1.1,0.3,1.2c4.1,11.7,11.2,23.4,12.9,35.7
	c1.3,3.1,2.8,10.6,2.7,12.2c-6.3-12.6-10.2-27.5-17.5-39c-1,4.5-4.5,8.1-5.8,12.2c-0.1,0.1,0.4,2.8,0.4,2.9
	c1.4,14.7,1.2,39.7,1.5,55c2.5,1.1,1.5-1.4,5.1,2c0.4-15.1-0.7-28.7-1.5-43.5c0-0.8,0-7.1,0.2-9c1.2,1.7,1.6,11.1,1.7,12.3
	c0.6-0.7,0.5,0.4,1.1-0.3c0.2,0.5-0.3-3.2-0.1-2.8c3,7.3,1.5,16.9,7.9,22.3c-0.9-11.5-5.9-22.3-7.4-34.2
	c6.7,18.6,11.9,37.1,14.7,56.4c2,12.9,2.5,17,6.1,29.7c0.5,1.8,2.6-0.5,1.8-2.8c-3-8.1-3.1-12.2-5.2-27.5
	c-2.7-19.6-7.6-35.4-3.3-27.5c0.6,1.2,2.1,5.4,2.4,8.3c0.2,2,0.1,1.8,1.6,1.6c-0.1-1.6-2.4-9.9-2.2-11.9c0-0.7,1.8,6.1,1.6,5.4
	c0.7,3.2,1.3,6.4,2,9.4c1.9,8.2,1.5,11.6,3.7,14.4c0.2,0.3,2.3,0.5,1.9-0.9c-1.1-4.7-1.6-7.6-1.7-9l0.1-2.4c0.6,1.2,2.1,5.8,3,9.1
	c1.3,4.3,4.7,18.5,8.5,24.2c1.7,2.6,2.7-0.1,5,0c-6.1-20.3-13-33.7-17.2-52.4c0.7-0.5,0.7-0.5,0.7-0.5c3,5,6.9,14.9,8.8,20.2
	c1.9,5.5,3.8,10.3,4.8,16.3c0.6,1.9,1.9,4.9,3.9,5c0.7-3.8-11.9-36-15.2-45.4c0,0,1.7-0.1,2.1,0.8c3.1,7.8,25.8,52.3,26.4,58.3
	c2,0.1,4.3,1.3,3.5-0.6c-14.5-33.1-32.3-64.9-44.4-98.7C220.4,304,241.1,333.8,259.3,365.1z M207.9,310c-8.5-15-14.3-30.5-21.7-46.3
	c0.2,0.3,0.5,0.5,0.8,0.8C195.8,277.9,202.7,294.8,207.9,310z"/>
<path class="st3" d="M112.1,85.5c0.1,9.2-12.5,19-19.1,22.1c-9.1,4.3-12.3-1.2-14.5-6.6c-1.9-4.5-3-0.5-4.9-6.3
	c-1.5-4.4-1.7-11.1-1.4-13.7c0.2-3-1.5-11.1-0.1-11.6c2.4-1.1,5.2,6.9,6.5,11.4c0.9,3.2,2.6,6.4,0.7,11.8
	c6.2,2.5,7.6,10.6,12.9,13.2c6.2-0.1,4.3-8.8-0.8-9.4C98.6,90.1,100.8,101.6,112.1,85.5z"/>
<path class="st4" d="M114,90.2c-3.7,5.3-14.6,15-19.1,17.6c-3.9,2.3-7.9,0.2-10.3-0.9c-3.2-1.6-5.6-7.9-6.7-11.6
	c-0.9-3.3,3.2-9.5,4.6-13.2C89.9,82.3,117.8,81.9,114,90.2z"/>
<path class="st4" d="M204,270.4c-2.6,8.1-26.9,30.2-34.2,14.6c1.1,0.1,3.6-3.4,6.7-8.5c2.6-4.2,1.1-13.4,4.1-18.6
	c2.5-4.2,9.5-4.3,11.8-7.6c5.2-7.1,9.4-10,10.4-1.3C203.1,252.5,211.6,251.2,204,270.4z"/>
<path class="st4" d="M154.6,205.3c29.3-26.2,47.6-37.1,27.4,8.8C175.9,217.2,164.1,203.6,154.6,205.3z"/>
<path class="st3" d="M78.3,120.9c-7.1,7.5-23.9,7.1-20.4-0.6c0.7-1.6-3.2-5.4-7.2-10.3c-1.4-1.9-12.9-8.7-12.6-8.9
	c0.7-0.5,9.1-0.8,12.9,0.5c5.2,1.9,12.7,5.9,13.3,5.5c5.4-5.3-7.9-30.6,5.3-20c4.2,5.6,9.8,7.3,14.8,11c1.9,3.5,6.4,13,10.9,8.1
	c8.6-1.4-5.8,9.5-9.7,7.8C81.2,114.3,80.6,118.5,78.3,120.9z"/>
<path class="st3" d="M197.2,97.4c-8.6-33.7-12.9,25.6-12.9,33c12.3-8.8-16.6,59.2-5.8,59.7c11.6-5.9,51.1-78.1,51.1-89.4
	c-0.2-2.2,1.9-9.3-1.7-6.2C212.5,108.8,214.3,125.6,197.2,97.4z"/>
<path class="st4" d="M184.6,102.3c3.5,1.5,10.9,3.1,12.6,6.1c1.9,3.4,4.6,9.6,3.4,13c-0.8,2.5-2.3,6.8-6.7,7.9
	c-5.1,1.3-19.7,2.1-26,1C167.1,125.3,179.5,107.7,184.6,102.3z"/>
<path class="st8" d="M169.2,142.3c13.4,0.4,28.5-15.3,18.2-19.4c-2.2-0.8-2-7.9-2.9-16.3c-0.4-3.1,3.8-20.1,3.4-20
	c-1,0.1-9.1,7.6-11.3,12.4c-3.2,6.5-6.3,17.4-7.1,17.3C165.3,115.9,173.1,141.6,169.2,142.3z"/>
<path class="st3" d="M37,174.7c5,2.9,13.4,7.8,11.8,13.5c-6.7,1.4-14.1-7.8-20.2-10.6c-6.3-2.8-5.3-5.9,1.8-5.4
	C32,172.4,34.2,173.4,37,174.7z"/>
<path class="st3" d="M41.7,189.1c5.7,1,20.7,5.3,15.8,8.6c-5.3,3.6-11.5-1.9-18.2-2.6c-12.5-1.5-21.3-1.6-4.9-6
	C36.1,188.7,38.5,188.8,41.7,189.1z"/>
<path class="st3" d="M42.3,166.9c3.6,4.6,12,16.3,6,16.9c-6.1,0.7-6.1-5.5-13.2-12.7c-1.6-1.6-4.2-6.3-5-7.2
	c-3.2-3.8-0.8-3.2,7.7-1.1C39.2,163.1,40.5,165.1,42.3,166.9z"/>
<path class="st9" d="M88.7,164.1c-8.3,0.1-14.3-3.3-20.1-8.5c-0.3-0.8-0.9-0.6-1.5-0.3c-2,1.2-2.9-1.4-4.8-1.3c-0.7-2-3.1-0.2-4.4,0
	c-0.7-1-1.8-1.3-3-1.3c-0.3-0.9-1.5-0.3-1.7-1.2c0-2.5-2-3.3-3.8-3.8c-1.7-3.7,1.5-6.9,0.8-10.4c-1.9-4-0.1-7.4,2.1-10.6
	c2.8-2.1,0.5-6.2,3.2-7.9c3.3-2.9,6-6,10.5-6.9c1.3-0.2,2.7-0.5,3.3-2c1.7-0.8,3.9-0.7,4.3-2.9c6.2-7.5,5.4-2,11.2-3.8
	c4.7-1.6,8.8-7.5,14.1-5.1c0.6,0.3,1.4,0.8,2.2,0.4c0,0.1,0.2,0.1,0.2,0c1,0.6,2.1,0.8,3.1,0.9l0,0c4.9,2.3,4.2,7.9,7,10.3
	c0.9-0.1,1.3-0.7,1.5-1.5c3.8-9.4,8.9,7.1,10.1,10.2c-3.3,3.3-8.3,1.8-10.8,5.4c-0.9,1.8-6.1-1.1-7.8-0.5c-2.1,0.9,1.4,8.2,0,9.9
	c-2,2.5-9.3-1.3-9.2,2.2c1.3,7.1-3.3,14.2,0.6,21.3c0.6,1.4,0.8,2.8-0.1,4.2c-2.6,7.3-6.2-1.1-7-0.7c-0.6,0.1,5.8,2.6,2.4,3.2
	C90.2,162.9,89.6,164.2,88.7,164.1z"/>
<path class="st10" d="M50,165.1c1.3-5.7,9.9-5.9,11.3-10.6c1.9-6.2,15.4-0.8,20.9,0.7c0.3,0.1-0.7,0.8,0.2,0.9
	c5.3,0.3,8.7,3.6,11.5,7.6c2.8,4.1,2,6.4,5.5,8.7c1.7,1.2,4.3,1.7,4.7,4.5c-0.3,10.1-3,22.2-13.9,25.6c-5.7,1.2-10.9,0.3-16.4-1.5
	c-7.3-1.1-14.7-0.5-22-2.3c-12.1-1.2-3-12.4-5.6-19.2C43.5,174,49.5,170.3,50,165.1z"/>
<path class="st10" d="M172.3,121.6c2.6,1.2,6.4,0.8,9.7,1c1.5,1.8,3.4,1.7,5.5,1.3c0.6,1.3,1.5,0.2,2.2,0.1
	c7.5,4.4,7.4-7.3,11.2,8.8c-1.1,1.8,1.2,4.6,0.9,6.8c-5.7,3.5-7.2,12.3-7.1,18.6c-2.1,0.4-2.1,2.9-4.3,3.6
	c-4.4,2.5-9.2,1.2-14.1,3.1c-1.4-3.4-7-0.6-8.1-3.4c1.4-4.5,0.1-10.6-5.2-9.8c-2-6,1.6-10.4,1.5-16c0.8-0.3,0.5-0.7,0.1-1.2
	c-2.4-3.4-1.3-6.9,0-10C167.5,123.4,169.7,122.1,172.3,121.6z"/>
<path class="st9" d="M150.5,191.8c2.7-11-3.7-5.5-6.2-11.9c-1.3-6.2-13.4-0.8-10.8-8.3c-0.4-1.9-2.6-4.1-1.4-6
	c0.6-0.3,1.3-0.4,1.4-1.4c1.3-0.5,2.4,0.8,3.3,0.5c0.3-0.2,0.8-0.6,0.2-1.1c-3.3-5.1,3.8-8.6,6-12.8c2.6-0.4,4.9-1.3,7-3.1
	c4.6-4.9,9.9,1,15.5-0.2c2.3-0.2,3,3.9,5.7,2.9c1.1-0.1,1.5,1.1,2.5,0.9c2.5,2.3,3.3,10.9,7.7,7.4c3.7,0.1,4.1,0.5,5.1,4.9
	c-1.7,1.9-0.5,3.9,0.5,6c-0.5,0.2-0.9,0.5-0.1,0.8c0.4,2.5-1.9,5.1-1.7,7.3c-0.2,0.5-0.8,0.7-0.3,1.3
	C181.5,194.2,162.8,197.6,150.5,191.8z"/>
<path class="st10" d="M156.1,194.8c0.1,0.2,0.2,0.4,0.3,0.6c-1.1,1.1,0.8,1.4,0.5,2.7c-2,1.5,0,2.2-0.1,3.7c-1.7,0.8,0.4,2-0.7,3
	c-1.2,0.3-1.3,0.8-0.9,1.7c-1,0.2-1.6,0.9-1.3,1.7l-0.1-0.1c-1,0.9-1.8,3.1-3.6,4.2c-0.4,0.1-0.8,0.1-0.7,0.6
	c-2.4,0.9-3.6,2.9-6.2,3.2c-5.4-1.5-12.7,8.4-16.6,2.7c-3.3-3.9-12.3-3.5-13.7-9.3c-1.6-1.5-3.6-3-4.9-4.8c-1-0.8,0.2-2.6-1.4-3.3
	c-2.8-1.8-0.9-6.2-2.2-9c0-2.4,0.9-3.9,3.5-5c2.8-0.7,2-3.8,4.2-5.3c3.5-2.3,6.8-3.1,10.9-1.9c0.6-1.3,2.7-1.2,3.5-2.6
	c0.5-1.1,1.7-1.7,3.1-2.1c1.1-0.3,2.7-0.3,2.9-1.7c4.7-1.3,14.4-1.4,16.2,4c0.1,2,1.4,2.8,3.2,3.5c5.1,2.3,2.4,5.1,1.2,8.4
	c-1,0.3-1.9,0.7-1.2,1.7c0.1,1.1,0.2,1.6,1.5,1.1C154.8,192.8,154,195,156.1,194.8z"/>
<path class="st9" d="M130.6,89.3c0.4-2,3.7-2.1,5.3-2.8c1.4,1.3,3.3,0.9,4.9-0.8c2.9-1.5,6.2-1.8,9.2-2.6c0.4-0.3,1.5,1,1.4-0.6
	c1-0.6,2.4,0.5,3.1-0.8c12.6-3.9,3.7,6.6,13.4,3.9c3.9-0.6,2.4,3.7,3.9,5.2c0.3,0.4,0.5,0.9,0.5,1.4c-1.2,1.1,0.7,2.4-0.3,3.7
	c-0.9,0.5-0.1,1.7-0.3,2.5c-0.9,1,0.2,2,0.2,3.1c-1,1.9-0.5,4,2.4,3.9c3.3,1,3.3,3.2,3,6.2c-1.6,10.3-9.9,15.6-20.1,16
	c-0.2-0.4-0.4-0.8-0.3-1.1c1-2.1-0.6,2.1,0,0c0.2-0.8-6.5-1.9-7.2-2.2c-1.8-0.8,1-3.2-1.3-3.1c-0.6,0-3.3,0.8-3.8,0.4
	c-1.7-1.7-1.8-1.3-4-2c-2.2-0.7-5.3-3.1-7.7-2.9c-2.5,0.2-1.5-4.9-4.2-5.4c-1-2.2-2.8-3.5-4-5.5c1.1-0.5,0.4-1.8,1.5-2.1
	c1.2,0,0.8-0.6,0.5-1.2c-0.6-0.9-0.3-3.2-2-2.5c-1.3-1.9,1.1-3.1,0.6-5.2c0-0.5,0.4-0.8,0.8-1.1C128,93,131.2,92,130.6,89.3z"/>
<path class="st10" d="M115.7,177.6c0.2,0.3,6.1-0.1,5.4-1.8c-0.3-0.7-0.2-1.4,0.5-1.7c5.7-3.3,1.9-2.2,3.2-5.6
	c0.9-0.8,2.1-1.5,3.6-0.6c3.6,0.7,7.6-2,10.8-3.7c-2-3.3,1.9-4.7,1.8-7.8c-0.1-1.3,1-1.7,2.1-2c0.4-0.8,0.8-1.7,1.8-2
	c-0.2-0.9,0.2-1.5,1-1.7l0,0c2.1-6.9,9.8-12.8,9-20.5c1-2.3-0.1-4.7,0.6-7c0.3-3-4.7-4.1-7.2-4.3c-8.2-5.5-14.1-6.7-24.1-5.4
	c0.1,0.9-0.8,1.1-1.4,1.3c-5.3,0.1-9.6,3-14.2,5.1c-2.5,1.5-5.6,2.3-6.9,5.4c-1.6,3.7-6,4-7.9,7.6c-5.1,5-1.4,11.1-2.5,17.1
	c-2.2,5.1,4.6,18.9,2.4,14.5c-0.3-0.5,2.2,5.6,3.7,7.9c0.9,1.4,2.7,1.7,4.1,2.2c2.7-2.7,5,3.1,5.1,1c0.2-1.2,1.1,0.8,2,0.3
	c0.9-0.4,1.5-0.1,1.8,1.2c0.2-0.1,1.8-2.2,1.3,0.5c0.1,0.3,1.7-0.6,1.8-0.4L115.7,177.6z"/>
<path class="st11" d="M233.9,162.7l5.1,0.5l-3.2,3.9c-1,1.2-1.6,2.7-1.7,4.2l0.7,7.9l-5.1-6.1c-1.2-1-2.7-1.6-4.2-1.7l-5.1-0.5
	l3.2-3.9c1-1.2,1.6-2.7,1.7-4.2l-0.7-7.9l5.1,6.1C230.8,161.9,232.3,162.5,233.9,162.7z"/>
<path class="st11" d="M30.3,131.4l5.9,0.6l-3.7,4.6c-1.1,1.4-1.8,3.1-2,4.8l0.8,9.2l-6-6.9c-1.4-1.1-3.1-1.8-4.8-2l-5.9-0.6l3.7-4.6
	c1.1-1.4,1.8-3.1,2-4.8l-0.8-9.2l5.9,7.1C26.8,130.6,28.5,131.3,30.3,131.4z"/>
<path class="st11" d="M161.6,298.6l5.3,0.6l-3.4,4.2c-1,1.3-1.6,2.8-1.8,4.4l0.7,8.5l-5.5-6.5c-1.3-1-2.8-1.6-4.4-1.8l-5.3-0.6
	l3.4-4.2c1-1.3,1.6-2.8,1.8-4.4l-0.7-8.5l5.5,6.5C158.4,297.8,160,298.4,161.6,298.6z"/>
</svg>
