<?xml version="1.0" encoding="utf-8"?>
<!-- Generator: Adobe Illustrator 26.0.2, SVG Export Plug-In . SVG Version: 6.00 Build 0)  -->
<svg version="1.1" xmlns="http://www.w3.org/2000/svg" xmlns:xlink="http://www.w3.org/1999/xlink" x="0px" y="0px"
	 viewBox="0 0 294.7 423.9" style="enable-background:new 0 0 294.7 423.9;" xml:space="preserve">
<style type="text/css">
	.st0{fill:#EEE8E3;}
	.st1{fill:#F7313B;}
	.st2{fill:#F9ADB5;}
	.st3{fill:#F8A48A;}
	.st4{fill:#FABB95;}
	.st5{fill:#065C51;}
	.st6{fill:#6C90BD;}
	.st7{fill:#7AA5D3;}
	.st8{fill:none;stroke:#136A37;stroke-width:0.6745;stroke-miterlimit:10;}
	.st9{fill:#E62917;}
	.st10{fill:none;stroke:#FFFFFF;stroke-width:0.6745;stroke-miterlimit:10;}
	.st11{fill:none;stroke:#FFFFFF;stroke-width:0.5699;stroke-miterlimit:10;}
	.st12{fill:none;stroke:#FFFFFF;stroke-width:0.6458;stroke-miterlimit:10;}
	.st13{fill:#CF6B4B;}
	.st14{fill:#054C42;}
	.st15{fill-rule:evenodd;clip-rule:evenodd;fill:#E5A1AB;}
	.st16{fill-rule:evenodd;clip-rule:evenodd;fill:#E47F62;}
	.st17{fill-rule:evenodd;clip-rule:evenodd;fill:#065C51;}
	.st18{fill-rule:evenodd;clip-rule:evenodd;fill:#F9ADB5;}
	.st19{fill-rule:evenodd;clip-rule:evenodd;fill:#FFFFFF;}
	.st20{fill-rule:evenodd;clip-rule:evenodd;fill:#6C90BD;}
	.st21{fill-rule:evenodd;clip-rule:evenodd;fill:#7AA5D3;}
	.st22{fill:#FFFFFF;}
	.st23{fill:#FEFEFE;}
	.st24{fill:#C8A38A;}
	.st25{fill:#DBA183;}
	.st26{fill:#D2B8A8;}
	.st27{fill:#E82E41;}
	.st28{fill:#2A372D;}
	.st29{fill:#E5A889;}
	.st30{fill-rule:evenodd;clip-rule:evenodd;fill:#FFC7D2;}
	.st31{fill:#EFA3AE;}
	.st32{fill:#DBA184;}
	.st33{fill:#6A90BD;}
	.st34{fill-rule:evenodd;clip-rule:evenodd;fill:#D6253F;}
	.st35{fill-rule:evenodd;clip-rule:evenodd;fill:#F7313B;}
	.st36{fill-rule:evenodd;clip-rule:evenodd;fill:#DBA184;}
	.st37{fill:#F1E1C9;}
	.st38{fill:#FDFBF9;}
	.st39{fill:#046857;}
	.st40{fill:#074C42;}
	.st41{fill:#8C5A51;}
	.st42{fill:#085C51;}
	.st43{fill:#E57F5D;}
	.st44{fill:#D36B4F;}
	.st45{fill:#1C1C1C;}
	.st46{fill:#E73143;}
	.st47{fill:#F5ABB6;}
	.st48{fill-rule:evenodd;clip-rule:evenodd;fill:#6A90BD;}
	.st49{fill:#D6253F;}
	.st50{fill:#C6A18A;}
	.st51{fill:#29372B;}
	.st52{fill:#012E60;}
	.st53{fill:#78391A;}
	.st54{fill:#F09880;}
	.st55{fill:#1C9697;}
	.st56{fill:#CE2E45;}
	.st57{fill:#ED3550;}
	.st58{fill:#D8013A;}
	.st59{fill:#F3F4F4;}
	.st60{fill:#911C36;}
	.st61{fill:#F42237;}
	.st62{fill:#D8A85D;}
	.st63{fill:#E52033;}
	.st64{fill:#434543;}
	.st65{fill:#E9E9E9;}
	.st66{opacity:0.31;}
	.st67{fill:#C6CAC6;}
	.st68{fill:#FFD2A8;}
	.st69{fill:#E08D77;}
	.st70{fill:#037C65;}
</style>
<g id="bg">
</g>
<g id="GŁOWNE_KOLORY">
</g>
<g id="COLOR_1">
</g>
<g id="COLOR_2">
</g>
<g id="insp">
</g>
<g id="Kosz_kwiatów">
</g>
<g id="Las_w_szkle">
</g>
<g id="Rośliny">
</g>
<g id="Pogrzebowe">
	<g>
		<polygon class="st32" points="141.2,223 151.4,223 156.2,360 136.4,360 		"/>
		<g>
			<polygon class="st4" points="111.1,226.7 128.7,226.7 90.3,388.4 72.7,388.4 			"/>
			<polygon class="st4" points="181.5,226.7 163.9,226.7 202.3,388.4 219.9,388.4 			"/>
		</g>
	</g>
	<g>
		<path class="st42" d="M261.4,139.3c-2.5-2.5-1-8.8-4.5-9.4c-4.9-0.6-2.5-11.8-9.9-13.6c-3.5-1.8,2.7-3.2-0.6-5.3
			c-9.4-4-20,3.1-27.5,4.2c1-16,0.7-41.8-17.2-48c-5.6,1.5-14.6-16.8-18.1-3.1c0.4-10.9-0.2-10.7-9.2-4.3c-8.7,4.3-9.5,15-18.1,19.5
			c-12.9,5.9,23.7-42.2-23.9-16.7C126,71,121.8,47.7,114.8,55c-6,15.6-27.3,19-30.6,35.5c0.7,2.5-1.4,2.5-2.9,1.3
			c-7.8-13.1-10.7-9.4-17,2.4c-6.4,2.5-1.1,16.2-8,15c-3.9-1.4-16.6-3.8-15.2,2.8c6.3,16.4-7.7,32.6,1.8,47.4
			c-17.8,1.2-6.2,8.8-6.9,21.4c1.3,3.1,6.9,8.4,6.3,10.9c-5.3,1.7-11.7,7-12.2,12c14.6,9.3,22.2,30.1,39.5,35.1
			c2,0.7,2.2,1.1,0.8,2.7c-4.1,5.7,8.1,7.8,11,11.6c25,2.8-0.6,17.5,17.1,19.3c15.3-3.6,31,3,45.3-2.7c11,5.4,23.8,9.9,36.6,9.7
			c7.8-5,18.6-6.9,24.2-14.2c0.1-5.5,9-2.7,7.4-6.9c-3.1-3.4-0.9-8.8,3.8-7.8c14.1-5.1,37.2-13.2,36.4-31.8
			c-1.3-4.6,7.8-15.8-2.6-16.3c13.5-5.2,1.8-8.5-4.3-15.3C254,174.9,265.9,156.2,261.4,139.3z M204.2,173.1
			c-8.6,14.8,4.6,24.5-18.3,23.6c-3.4,2.6,4,9.7-1.8,12.4c-10.7,6.3-12.5,17.6-23.7,4.3c-9.7-4.9-17.2,23-27,3.7
			c-4.8-11.4-7.1-0.9-16-7c-4.7,0.5-7.5,11.9-8.4,0.3c-0.3-2.7-0.6-3-2.9-1.9c-5.2-1.3,3.9-16.2-4.3-21.1
			c-3.6-3.8,0.8-11.1-4.2-14.9c-9.4,0.7-11.6,3.8-4.6-7.3c-3.5-7.1,11.6-10.4,8.5-18.7c4.5-8.5,12.9-10,0.5-17.7
			c9.7-6.6,24.9,1.9,33.8-6.5c21.6-5.1,9.2-2.6,13.4-12.7c11.1,3,4.9,15.3,13,15.8c8.4,2.1,20.5-1.7,26.1,6.5
			c1.4,10.8,20.1,16.6,3.7,24.3C183,164.8,203.9,164.6,204.2,173.1z"/>
		<path class="st45" d="M229.9,295.9c-49-40.3-5.2-28.8-62.2-21.7c-6-2.5-11-6.2-18.3-5.3c-3.1-0.8-5.5-5.9-9.3-4.2
			c-11.6,8.9-23.4-1.5-36.3,2c-13.9,6.1-20.5,26.1-32.8,36.5c-4,8.8,26.7,1.8,31.5-1c7.9-0.1,5.8,17.9,8,24.6
			c1.3,17.8,14.2-5,16.6-6.7c10-9.9,13.2-30.8,20.9-38.1c11,20.9,21.9,49.1,44.5,59.4c5.1-8.5-0.5-28.2,10.6-33.2
			C208.8,306.7,238.7,304.4,229.9,295.9z M135.7,302.4c0-0.1,0-0.2,0-0.3C135.8,302.3,135.8,302.5,135.7,302.4z M138.6,296.5
			C138.6,296.5,138.6,296.5,138.6,296.5C138.7,296.6,138.6,296.6,138.6,296.5z M142.4,286.1C142.4,286.2,142.4,286.2,142.4,286.1
			C142.4,286.1,142.4,286,142.4,286.1z M145.6,277c0-0.1,0-0.2,0-0.3C145.7,276.9,145.7,277,145.6,277z M224.9,295.1
			C224.9,295.1,224.9,295.1,224.9,295.1C225.1,295.1,225,295.2,224.9,295.1z"/>
	</g>
	<path class="st22" d="M78.2,50.3l6.1,3.3l-6.1,3.3c-1.8,1-3.4,2.5-4.4,4.4l-3.3,10.3l-3.3-10.3c-1-1.8-2.5-3.4-4.4-4.4l-6.1-3.3
		l6.1-3.3c1.8-1,3.4-2.5,4.4-4.4l3.3-10.3l3.3,10.3C74.9,47.7,76.4,49.2,78.2,50.3z"/>
	<path class="st22" d="M259.8,213.3l4.4,2.4l-4.4,2.4c-1.3,0.7-2.4,1.8-3.1,3.1l-2.4,7.4l-2.4-7.4c-0.7-1.3-1.8-2.4-3.1-3.1
		l-4.4-2.4l4.4-2.4c1.3-0.7,2.4-1.8,3.1-3.1l2.4-7.4l2.4,7.4C257.3,211.4,258.4,212.5,259.8,213.3z"/>
	<path class="st22" d="M226.9,306.2l4,2.2l-4,2.2c-1.2,0.7-2.2,1.7-2.9,2.9l-2.2,6.8l-2.2-6.8c-0.7-1.2-1.7-2.2-2.9-2.9l-4-2.2
		l4-2.2c1.2-0.7,2.2-1.7,2.9-2.9l2.2-6.8l2.2,6.8C224.7,304.6,225.7,305.6,226.9,306.2z"/>
	<g>
		<g>
			<g>
				<path class="st40" d="M63.1,224.3c-0.1-0.9-1.3-1.3-2.2-1.3c-3.7,0.1-7.3,1.6-9.9,4.2c-2.6,2.6-4.1,6.2-4.2,9.9
					c0,0.3,0,0.5,0.2,0.8c0.2,0.3,0.7,0.3,1.1,0.3c7.6-0.3,14.4-6.9,15.1-14.5c0-0.2,0-0.5-0.2-0.7c-0.2-0.1-0.5,0.3-0.3,0.3"/>
			</g>
		</g>
		<g>
			<path class="st40" d="M134.8,112.5c-6.7,2.9-11.1,10.5-10.4,17.8c0.1,0.9,0.4,2,1.2,2.3c3.1-2.6,6.2-5.3,8.4-8.7
				c2.2-3.4,3.2-7.8,1.9-11.6"/>
		</g>
		<g>
			<path class="st40" d="M145.3,115c-0.9,4.1,0.9,8.6,4,11.4c3.1,2.8,7.4,4.2,11.6,4.3c0.4-5.4-3.4-10.1-7.4-13.7
				c-1.9-1.7-4.3-3.5-6.8-2.8"/>
		</g>
		<g>
			<path class="st40" d="M96.8,143.2c-6.7-0.4-13.4,4.5-15,11c-0.1,0.5-0.2,1,0.1,1.4c0.4,0.6,1.4,0.4,2.1,0.2c2.8-1,5.6-2.1,8-3.9
				c2.3-1.8,4.2-4.5,4.3-7.5"/>
		</g>
		<g>
			<path class="st40" d="M89.3,116c-1.6,1.2-2.4,3.3-2.4,5.3c0,2,0.7,4,1.5,5.8c1.8,3.7,4.5,6.9,7.8,9.3c1.7-2.9,3.5-6,3.1-9.3
				c-0.2-1.3-0.7-2.5-1.4-3.7c-2.1-3.8-5.6-6.8-9.6-8.5"/>
		</g>
		<g>
			<path class="st40" d="M182.7,201.8c3.4,6.3,11,10.1,18.1,8.9c1.6-0.2,3.4-1.1,3.5-2.6c0-0.7-0.2-1.3-0.6-1.9
				c-1.9-3.5-5.4-6.1-9.3-6.9s-8.1,0-11.4,2.3"/>
		</g>
		<g>
			<path class="st40" d="M51.5,202.9c-2.8,1.4-5.8,2.9-7.4,5.6c-1.2,1.9-1.6,4.2-1.8,6.4c-0.2,2.7-0.3,5.4-0.1,8.1
				c6-1.5,10.7-7.4,10.9-13.6c0.1-2.1-0.5-4.6-2.5-5.6"/>
		</g>
		<g>
			<path class="st40" d="M50.3,203.1c-5.2,4-12.7,4.7-18.5,1.7c3.4-1.8,7-3,10.8-3.5c1.6-0.2,3.7,0,4,1.6"/>
		</g>
		<g>
			<path class="st40" d="M44.9,110.5c-2.4-2.2-6.2-2.4-9.3-1.1c-3.1,1.2-5.5,3.6-7.7,6.1c2.2,1.3,5,1.4,7.5,1.3
				c1.9,0,3.9-0.1,5.6-0.9c1.7-0.8,3.2-2.5,3.1-4.4"/>
		</g>
		<g>
			<path class="st40" d="M52.1,112.7c-1.8-0.4-3.3-1.8-4.5-3.3c-2.4-2.8-4.5-6.6-3.1-9.9c2.6,0.4,5.2,0.9,7.4,2.1
				c2.3,1.3,4.2,3.5,4.3,6.1c0.2,2.6-1.9,5.3-4.5,5.2"/>
		</g>
		<g>
			<path class="st40" d="M52.1,123.6c-3-1-6.3-1.9-9.2-0.8c-3.3,1.3-5.2,4.8-6.8,8c-0.3,0.5-0.5,1.2-0.2,1.7
				c0.2,0.3,0.6,0.5,0.9,0.6c4.6,1.9,10.4,0.3,13.4-3.6c1.2-1.5,1.9-3.3,2.6-5.1"/>
		</g>
		<g>
			<path class="st40" d="M186.1,69c-0.3-6.5,4-13,10.1-15.3c1.3,4.7-0.3,10.1-4,13.2c-1.7,1.5-3.9,2.5-5.7,4"/>
		</g>
		<g>
			<path class="st40" d="M191.4,69c3-1.1,6-2.2,9.1-2.5c3.2-0.3,6.5,0.2,9,2.1c-2.9,0.9-4.4,4.1-6.9,5.8c-2.4,1.6-5.4,1.8-8.2,1.7
				c-2.6-0.1-5.4-0.4-7.6-1.9"/>
		</g>
		<g>
			<path class="st40" d="M108.4,264.2c-2.6,2.4-4.1,5.8-4.3,9.3c-0.1,3.5,1.2,7,3.5,9.6c1.5-2.2,2.9-4.5,4.4-6.7
				c1.2-1.9,2.5-3.9,2.8-6.2c0.5-3.9-1.9-7.6-4.3-10.8"/>
		</g>
		<g>
			<path class="st40" d="M87,245.9c-5.3,5.2-7.5,13.5-5.4,20.6c0.3,1,1.1,2.3,2.1,2c0.5-0.2,0.9-0.7,1.2-1.2
				c1.4-2.3,3.6-3.9,5.2-6.1c3.3-4.6,3.3-11.3,0-15.8"/>
		</g>
		<g>
			<path class="st40" d="M87.8,86.1c-2-3.1-3.9-6.2-5.1-9.7s-1.4-7.4,0-10.8c4.4,3.2,9.1,6.6,10.9,11.7c1.4,3.9,1,8.3-0.3,12.2"/>
		</g>
		<g>
			<path class="st40" d="M95,82c-1.1-1.4-1.1-3.3-0.9-5.1c0.7-6,3.4-11.7,7.5-16c4.8,8.8,2.9,20.8-4.4,27.6"/>
		</g>
		<g>
			<path class="st40" d="M213.4,98.6c1.4-3.4,2.7-6.8,4.9-9.8c2.1-3,5.2-5.5,8.7-6.3c0,5.4-0.1,11.2-3.1,15.7
				c-2.3,3.4-6.1,5.6-10.1,6.9"/>
		</g>
		<g>
			<path class="st40" d="M221,102.1c0.5-1.7,2.1-2.8,3.6-3.7c5.3-2.9,11.4-4.1,17.4-3.3c-4.3,9.1-15.1,14.5-25,12.5"/>
		</g>
		<g>
			<path class="st40" d="M70.3,96.3c-3.8-0.5-7.4-2.5-9.8-5.4c-2.4-3-3.7-6.9-3.4-10.7c4.1,0.6,8.2,2,11.2,4.8
				c3,2.8,4.8,7.1,3.9,11.2"/>
		</g>
		<g>
			<path class="st40" d="M45.3,151.2c-2.7-3-7.1-4.3-11.1-3.5s-7.5,3.4-9.5,6.9c2.1-0.7,4.2,1.1,6.1,2.3c4.9,3.1,12,2.2,15.9-2.1"/>
		</g>
		<g>
			<path class="st40" d="M242.4,189c2.7,3,7.1,4.3,11.1,3.5c4-0.8,7.5-3.4,9.5-6.9c-2.1,0.7-4.2-1.1-6.1-2.3
				c-4.9-3.1-12-2.2-15.9,2.1"/>
		</g>
		<g>
			<path class="st40" d="M180.8,264.4c0.2,3.7,1.2,7.4,3.3,10.5c2.1,3.1,5.3,5.4,8.9,6.1c-0.1-3.9-0.7-7.7-1.9-11.4
				c-0.5-1.7-1.2-3.3-2.5-4.5c-1.9-1.7-4.8-2-6.7-3.8"/>
		</g>
		<g>
			<path class="st40" d="M140.1,69c-0.9-0.5-1.2-1.5-1.6-2.4c-0.6-1.7-1.1-3.5-1.1-5.3c0-4.9,3.9-8.8,7.5-12.1
				c1.5,3.5,2.8,7.4,2.4,11.2c-0.4,3.8-2.8,7.7-6.4,8.8"/>
		</g>
		<g>
			<path class="st40" d="M43.7,195.5c-4-0.2-7.6-2.9-10-6.2c-2.4-3.3-3.7-7.2-5-11c5.8-1.3,12.2,1.1,15.7,5.8c1.5,2,2.5,4.5,2.2,7
				c-0.3,2.5-2.3,4.8-4.8,4.9"/>
		</g>
		<g>
			<path class="st40" d="M247.2,141.6c2.8-1.4,5.8-2.9,7.4-5.6c1.2-1.9,1.6-4.2,1.8-6.4c0.2-2.7,0.3-5.4,0.1-8.1
				c-6,1.5-10.7,7.4-10.9,13.6c-0.1,2.1,0.5,4.6,2.5,5.6"/>
		</g>
		<g>
			<path class="st40" d="M235.6,120.1c0.1,0.9,1.3,1.3,2.2,1.3c3.7-0.1,7.3-1.6,9.9-4.2c2.6-2.6,4.1-6.2,4.2-9.9
				c0-0.3,0-0.5-0.2-0.8c-0.2-0.3-0.7-0.3-1.1-0.3c-7.6,0.3-14.4,6.9-15.1,14.5c0,0.2,0,0.5,0.2,0.7c0.2,0.1,0.5-0.3,0.3-0.3"/>
		</g>
		<g>
			<path class="st40" d="M248.4,141.4c5.2-4,12.7-4.7,18.5-1.7c-3.4,1.8-7,3-10.8,3.5c-1.6,0.2-3.7,0-4-1.6"/>
		</g>
		<g>
			<path class="st40" d="M255.1,149c4,0.2,7.6,2.9,10,6.2s3.7,7.2,5,11c-5.8,1.3-12.2-1.1-15.7-5.8c-1.5-2-2.5-4.5-2.2-7
				c0.3-2.5,2.3-4.8,4.8-4.9"/>
		</g>
		<g>
			<path class="st40" d="M223.7,239.8c2.5,1.9,5.2,3.9,8.3,4.2c2.2,0.2,4.5-0.4,6.5-1.2c2.5-1,5-2.1,7.3-3.5c-4-4.7-11.3-6.4-17-3.8
				c-2,0.9-3.9,2.5-3.9,4.7"/>
		</g>
		<g>
			<path class="st40" d="M224.4,240.8c5.9,2.9,9.8,9.3,9.6,15.9c-3.1-2.2-5.8-5-7.9-8.1c-0.9-1.3-1.6-3.3-0.4-4.3"/>
		</g>
		<g>
			<path class="st40" d="M220.5,250.1c1.6,3.7,0.8,8.1-1.1,11.7c-1.9,3.6-4.8,6.5-7.7,9.3c-3.7-4.6-4.4-11.4-1.7-16.7
				c1.1-2.2,2.9-4.3,5.3-5c2.4-0.8,5.3,0,6.6,2.2"/>
		</g>
		<g>
			<path class="st40" d="M204.4,97.2c-4.6,4.1-5.8,11.6-2.6,16.9c0.2,0.4,0.5,0.8,1,0.8c0.7,0.1,1.2-0.6,1.5-1.2
				c1.2-2.5,2.3-5,2.7-7.7c0.3-2.7-0.2-5.6-2-7.7"/>
		</g>
		<g>
			<path class="st40" d="M212.8,156.3c-5.2,1.9-9.2,6.9-9.7,12.4c-0.4,3.8,0.8,7.7,0.3,11.5c4.3-1,7.4-4.9,8.8-9.1
				c1.3-4.2,1.1-8.7,0.9-13.1"/>
		</g>
		<g>
			<path class="st40" d="M215.9,158.1c0.1,3.8,1.7,7.6,4.5,10.3c2.8,2.7,6.6,4.2,10.4,4.1c0.6-3.6-1.7-7-4.4-9.5
				c-2.7-2.4-6-4.2-8.4-7"/>
		</g>
		<g>
			<path class="st40" d="M164.7,101.5c0.2,3.5,1.1,6.9,3,9.8c1.9,2.9,4.9,5.1,8.3,5.7c-0.1-3.6-0.7-7.2-1.8-10.6
				c-0.5-1.5-1.1-3.1-2.4-4.2c-1.8-1.6-4.5-1.9-6.2-3.6"/>
		</g>
		<g>
			<path class="st40" d="M188.2,125.5c-6.3-2.5-14.1-0.4-18.4,4.8c-0.5,0.7-1.1,1.5-0.7,2.3c3.7,0.3,7.5,0.6,11.1-0.2
				c3.6-0.8,7.2-2.9,8.8-6.3"/>
		</g>
		<g>
			<path class="st40" d="M190.7,135.7c-3.2,2.1-5,6.2-4.8,10.1c0.2,3.9,2.1,7.6,4.8,10.3c3.8-3.2,4.3-8.8,4.1-13.8
				c-0.1-2.4-0.5-5.1-2.6-6.3"/>
		</g>
		<g>
			<path class="st40" d="M181.9,84.4c-0.2,1.8,0.6,3.7,1.9,5c1.3,1.3,3,2.2,4.8,2.8c3.6,1.2,7.4,1.6,11.1,1c-0.7-3-1.6-6.2-4.1-8
				c-1-0.7-2.1-1.2-3.3-1.5c-3.9-1.1-8.1-0.8-11.8,0.7"/>
		</g>
		<g>
			<path class="st40" d="M212.5,125.8c-5.8,3.1-9.2,10.1-8.2,16.6c0.2,1.4,1,3.1,2.4,3.2c0.6,0,1.2-0.2,1.7-0.5
				c3.2-1.8,5.6-5,6.4-8.5c0.8-3.6,0-7.5-2.1-10.4"/>
		</g>
		<g>
			<path class="st40" d="M85.4,236.1c5-4.5,6.3-12.6,2.8-18.4c-0.2-0.4-0.6-0.8-1-0.9c-0.7-0.1-1.3,0.7-1.6,1.4
				c-1.3,2.7-2.5,5.4-2.9,8.4c-0.4,2.9,0.2,6.1,2.2,8.3"/>
		</g>
		<g>
			<path class="st40" d="M76.2,171.9c5.7-2,10-7.5,10.5-13.5c0.4-4.2-0.8-8.4-0.3-12.5c-4.7,1-8.1,5.3-9.5,9.8
				c-1.4,4.6-1.2,9.5-1,14.2"/>
		</g>
		<g>
			<path class="st40" d="M72.8,169.9c-0.1-4.2-1.9-8.3-4.9-11.2c-3-2.9-7.2-4.5-11.3-4.4c-0.6,3.9,1.8,7.7,4.8,10.3
				c2.9,2.6,6.5,4.6,9.1,7.6"/>
		</g>
		<g>
			<path class="st40" d="M128.5,231.5c-0.2-3.8-1.2-7.5-3.3-10.6c-2.1-3.1-5.4-5.5-9.1-6.2c0.1,3.9,0.8,7.8,2,11.6
				c0.5,1.7,1.2,3.4,2.6,4.6c1.9,1.7,4.9,2.1,6.8,3.9"/>
		</g>
		<g>
			<path class="st40" d="M103,205.4c6.8,2.7,15.3,0.5,20-5.2c0.6-0.7,1.1-1.7,0.8-2.5c-4-0.3-8.1-0.6-12.1,0.3
				c-4,0.9-7.8,3.2-9.5,6.8"/>
		</g>
		<g>
			<path class="st40" d="M100.2,194.3c3.5-2.3,5.4-6.7,5.2-10.9c-0.2-4.2-2.3-8.2-5.2-11.2c-4.1,3.5-4.7,9.6-4.5,15
				c0.1,2.6,0.6,5.5,2.8,6.8"/>
		</g>
		<g>
			<path class="st40" d="M109.9,250c0.3-2-0.6-4-2.1-5.5c-1.4-1.4-3.3-2.3-5.2-3c-3.9-1.3-8-1.7-12.1-1.1c0.8,3.2,1.8,6.7,4.4,8.7
				c1.1,0.8,2.3,1.3,3.6,1.6c4.2,1.2,8.8,0.9,12.8-0.8"/>
		</g>
		<g>
			<path class="st40" d="M76.5,205c6.3-3.4,10.1-11,8.9-18.1c-0.2-1.6-1.1-3.4-2.6-3.5c-0.7,0-1.3,0.2-1.9,0.6
				c-3.5,1.9-6.1,5.4-6.9,9.3c-0.9,3.9,0,8.1,2.3,11.4"/>
		</g>
		<g>
			<path class="st40" d="M151.6,210.6c4.5,5,12.6,6.3,18.4,2.8c0.4-0.2,0.8-0.6,0.9-1c0.1-0.7-0.7-1.3-1.4-1.6
				c-2.7-1.3-5.4-2.5-8.4-2.9c-2.9-0.4-6.1,0.2-8.3,2.2"/>
		</g>
		<g>
			<path class="st40" d="M215.9,201.4c2,5.7,7.5,10,13.5,10.5c4.2,0.4,8.4-0.8,12.5-0.3c-1-4.7-5.3-8.1-9.8-9.5
				c-4.6-1.4-9.5-1.2-14.2-1"/>
		</g>
		<g>
			<path class="st40" d="M217.8,198.1c4.2-0.1,8.3-1.9,11.2-4.9s4.5-7.2,4.4-11.3c-3.9-0.6-7.7,1.8-10.3,4.8
				c-2.6,2.9-4.6,6.5-7.6,9.1"/>
		</g>
		<g>
			<path class="st40" d="M156.2,253.8c3.8-0.2,7.5-1.2,10.6-3.3c3.1-2.1,5.5-5.4,6.2-9.1c-3.9,0.1-7.8,0.8-11.6,2
				c-1.7,0.5-3.4,1.2-4.6,2.6c-1.7,1.9-2.1,4.9-3.9,6.8"/>
		</g>
		<g>
			<path class="st40" d="M182.3,228.3c-2.7,6.8-0.5,15.3,5.2,20c0.7,0.6,1.7,1.1,2.5,0.8c0.3-4,0.6-8.1-0.3-12.1
				c-0.9-4-3.2-7.8-6.8-9.5"/>
		</g>
		<g>
			<path class="st40" d="M193.4,225.5c2.3,3.5,6.7,5.4,10.9,5.2c4.2-0.2,8.2-2.3,11.2-5.2c-3.5-4.1-9.6-4.7-15-4.5
				c-2.6,0.1-5.5,0.6-6.8,2.8"/>
		</g>
		<g>
			<path class="st40" d="M137.7,235.1c2,0.3,4-0.6,5.5-2.1c1.4-1.4,2.3-3.3,3-5.2c1.3-3.9,1.7-8,1.1-12.1c-3.2,0.8-6.7,1.8-8.7,4.4
				c-0.8,1.1-1.3,2.3-1.6,3.6c-1.2,4.2-0.9,8.8,0.8,12.8"/>
		</g>
		<g>
			<path class="st40" d="M109.4,97c2.8,2.5,6.2,4.5,9.9,5.2c3.7,0.7,7.7,0.1,10.8-2c-2.8-2.7-6.1-5-9.6-6.8c-1.6-0.8-3.3-1.5-5-1.4
				c-2.6,0.1-4.9,2-7.5,2"/>
		</g>
	</g>
	<g>
		<path class="st1" d="M68.7,128.7c0.1-1.6-1.4-1-2.1-1.2c-2.5-3.3-0.7-4.6-2.7-6.9c1.8-4.9,2.7-11.1,6.1-14.2
			c3.7-7,6.8-6.2,11.9-7.4c5.9-0.7,3-4.6,8.9-0.6c4.2-1.4,7.4-1.8,10.3,2.5c2.1,2.1,0.2,17.7-1.7,19.6c-0.8,1-4.8,3.8-5.8,4.7
			C92,126.3,72.8,132.4,68.7,128.7z"/>
		<path class="st1" d="M74.5,209.6c2.3-3.3,7.9-1.2,10-3.7c2.4-3.4,11.9,3.9,13,6.5c6.9,3.8,4.7,12.9,8.3,18.9
			c-7.4,21.8-25.8,8-38.9,0.2c-7.4-3.9,1.3-8.6,1.4-13.7C68.1,213.6,72.8,212.8,74.5,209.6z"/>
		<path class="st46" d="M226.7,149.8c3.7,2,7.9,5.7,11.7,6.7c4.1,5.3,5,13.1,4.1,14.6c-7.6,0.7-7.9,11.5-14.5,12.4
			c-26.4-3.3-7.4-11.3-16.5-15.1c0.3-4.8,4.2-6.9,5.7-10.9C217.4,152.2,220.3,147.9,226.7,149.8z"/>
		<path class="st1" d="M199.8,235.2c5.1-7-1-5-0.9-10.3c-1.4-7.7-9.2-1.4-4.4-13.7c1.6-0.6,8.1-5,12.1-7.3c9.4-0.3,8.6-1,16.8,4.2
			c1.7,0.5,1,3.6,3.2,3.8c0.9,0.2,0.6,10,4.8,8.9c5.4,1.4-0.1,7,0.5,9.8C226,244,209.3,246.1,199.8,235.2z"/>
		<path class="st46" d="M167.9,248.7c-0.4,0.9-4.9,7.7-5.4,8.6c-2.5,1.3-6.2,3-9.5,2.5c-3.2-2.5-11,2.1-12.1-2.8
			c-3.6-4.6-7.6-8.8-8.7-14.8c0-3.6-1-11.5,4.8-11.8c8.2-5.7,8.4,0,15.4-1.5c9.4-2.4,13.8,1,16.2,9.6c3.6,3.8-1.6,5-2.8,6.9
			C165.6,246,166.4,248.2,167.9,248.7z"/>
		<path class="st46" d="M80,182.1c-1.1,0.2-2.1,0.9-2.6,1.8c-2.6,1.4-6.4,3.1-9.8,2.6c-3.3-2.6-11.4,2.2-12.5-2.9
			c-3.8-4.8-7.8-9.1-9.1-15.4c0-3.7-1-12,4.9-12.3c8.5-5.9,8.7,0,16-1.5c9.7-2.5,14.3,1,16.8,9.9c3.8,4-3.2,8.3-2.2,8.3
			C82.6,173.2,81.1,181.7,80,182.1z"/>
		<path class="st1" d="M187.1,95.6c2.9-2.6,5.2,1.9,8.3,0.3c4.1-0.3,7.5,1.5,10.8,1.1c10,0.9,0.7,5.8,8.3,6.7
			c2.9,0.7,0.6,3.3,1.2,4.9c0.3,2.9-6.8,9.2-2.5,11c6.2,10.6-17.6,15-18.5,9.9c0.4-0.5-4-3.2-4.5-3.7c-1.1-1.1-2.6-2.9-2.8-3.3
			c-1.7-2.5-4.3-5.2-6.8-6.9c-1.9-0.6,0.4-3.9-1.4-5.1c0-2.4,1.7-9.5,0.4-9.2C180.9,95.3,186,99,187.1,95.6z"/>
		<path class="st46" d="M131.7,74.3c2.9-2.6,5.2,1.9,8.3,0.3c4.1-0.3,7.5,1.5,10.8,1.1c10,0.9,0.7,5.8,8.3,6.7
			c2.9,0.7,0.6,3.3,1.2,4.9c0.3,2.9-6.8,9.2-2.5,11c6.2,10.6-17.6,15-18.5,9.9c0.4-0.5-4-3.2-4.5-3.7c-1.1-1.1-2.6-2.9-2.8-3.3
			c-1.7-2.5-4.3-5.2-6.8-6.9c-1.9-0.6,0.4-3.9-1.4-5.1c0-2.4,1.7-9.5,0.4-9.2C125.5,74,130.6,77.7,131.7,74.3z"/>
	</g>
</g>
<g id="Różne">
</g>
<g id="Flower_box">
</g>
<g id="Bukiet">
</g>
<g id="Ślubne">
</g>
<g id="Siedząca_z_kwiatami">
</g>
<g id="zadzwoń">
</g>
<g id="zapłać">
</g>
</svg>
