<?xml version="1.0" encoding="utf-8"?>
<!-- Generator: Adobe Illustrator 26.0.2, SVG Export Plug-In . SVG Version: 6.00 Build 0)  -->
<svg version="1.1" id="Layer_1" xmlns="http://www.w3.org/2000/svg" xmlns:xlink="http://www.w3.org/1999/xlink" x="0px" y="0px"
	 viewBox="0 0 365.9 252.4" style="enable-background:new 0 0 365.9 252.4;" xml:space="preserve">
<style type="text/css">
	.st0{fill:#F8A48A;}
	.st1{fill:#FFD2A8;}
	.st2{fill:#065C51;}
	.st3{fill:#E08D77;}
	.st4{fill:#037C65;}
	.st5{fill:#FFFFFF;}
	.st6{fill:#7AA5D3;}
</style>
<g id="bg">
</g>
<g id="GŁOWNE_KOLORY">
</g>
<g id="COLOR_1">
</g>
<g id="COLOR_2">
</g>
<g id="insp">
</g>
<g id="Kosz_kwiatów">
</g>
<g id="Las_w_szkle">
</g>
<g id="Rośliny">
</g>
<g id="Pogrzebowe">
</g>
<g id="Różne">
</g>
<g id="Flower_box">
</g>
<g id="Bukiet">
</g>
<g id="Ślubne">
</g>
<g id="Siedząca_z_kwiatami">
</g>
<g id="zadzwoń">
</g>
<g id="zapłać">
	<g>
		<path class="st0" d="M124.3,113.8l29.7,6.4l2.2,0.3c5.8-8.4,12-15.4,24.4-17.6c18-3.2,58.1-18,80.2,34.1c0,0-24.5,6.6-37.6,11
			c0,0,1,6,0.4,13.3c21.9-8.4,51.3-17,59.6-27.2c8.4-10.2,22.8-18.7,35-21.8c12.2-3.1,12.2-7.9,12.2-7.9s-6.4-24.8-14.1-57.7
			c0,0-36.9,12.7-48.8,21.9c-11.2,8.7-28.5,9.6-46.5,17.4c-2.2,1-4.7,1.7-7.1,1.9c-25.7,3.2-28.7-0.1-38.3,1.3
			c-10.1,1.7-21.8,9.2-30.6,11.5C142.2,101.5,133.7,106.3,124.3,113.8z"/>
		<path class="st0" d="M198.6,99.5c0,0-38.6,1.3-48,20.1C170.4,125.3,192,107.9,198.6,99.5z"/>
		<path class="st1" d="M190.7,149.4c0,0,0.1,0,0.2,0c0-0.2,0-0.3,0-0.5C190.8,149.1,190.8,149.3,190.7,149.4z"/>
		<path class="st0" d="M98.9,183.6c7.5,8.1,18.6,17.3,23.1,11.7c2.6-2.9,4-6.8,2.6-10.8c-0.4-1.1-1-2-1.8-3.1
			c-0.3,0-0.6,0.1-0.8,0.1C114.5,182.3,106.7,183,98.9,183.6z"/>
		<path class="st1" d="M190.7,149.4c0,0,0.1,0,0.2,0c0-0.2,0-0.3,0-0.5C190.8,149.1,190.8,149.3,190.7,149.4z"/>
		<path class="st0" d="M184.1,191.9c0.2,0.2,0.4,0.4,0.7,0.6c2.5,2,7.4,5.4,12.2,4.9c4.6-0.5,9.4-4.1,14.3-9.8
			c2.7-2.5,3.6-3.5,4.7-4.3c1.5-1.1,5.1-5.9,7-16.1l0,0c0.3-1.8,0.6-3.7,0.8-5.7c0,0,0,0,0.1,0c0.6-7.3-0.4-13.3-0.4-13.3
			c-1.1,0.4-2,0.7-2.9,1.1c-2.1,0.8-4.7,1.3-7.3,1.6c-2.1,6.9-7.9,24.7-11.9,28.8C198.7,182.1,191.9,187.2,184.1,191.9z"/>
		<path class="st1" d="M223.6,161.3c-0.2,2-0.5,4-0.8,5.7C223.3,165.1,223.5,163.2,223.6,161.3C223.7,161.3,223.7,161.3,223.6,161.3
			z"/>
		<path class="st0" d="M184.1,191.9c0.2,0.2,0.4,0.4,0.7,0.6c2.5,2,7.4,5.4,12.2,4.9c4.6-0.5,9.4-4.1,14.3-9.8
			c2.7-2.5,3.6-3.5,4.7-4.3c1.5-1.1,5.1-5.9,7-16.1l0,0c0.4-1.9,0.7-3.9,0.9-5.7c21.9-8.4,51.3-17,59.6-27.2
			c8.4-10.2,22.8-18.7,35-21.8c12.2-3.1,12.2-7.9,12.2-7.9s-2.7-2.2-3.3-6.5c-6.5,2.8-2.3,7-10,9c-12.2,3.1-26.7,11.7-35,21.8
			c-8.3,10.1-37.8,18.8-59.6,27.2c-0.2,1.8-0.4,3.8-0.9,5.7l0,0c-1.8,10.1-5.5,15-7,16.1c-1.1,0.8-1.9,1.8-4.7,4.3
			c-5,5.7-9.7,9.3-14.3,9.8c-2.8,0.3-5.7-0.8-8.1-2.1C186.4,190.4,185.2,191.2,184.1,191.9z"/>
		<path class="st0" d="M158.8,200.2c0.2,0.2,0.5,0.4,0.8,0.5c0.6,0.2,1.3,0.3,2.2,0.2c3.8-0.4,8.5-1.9,13.1-4.2l0,0
			c1.9-0.9,3.9-1.8,5.7-2.9c1.1-0.6,2.2-1.3,3.3-1.9c4.4-2.5,8.4-5.4,11.6-7.7c0.4-0.3,0.8-0.6,1.2-0.9c0.3-0.2,0.5-0.4,0.8-0.6
			c1.7-1.3,2.9-2.4,3.8-3.3c4-4.1,9.7-21.9,11.9-28.8c-0.7,0.1-1.4,0.2-2.1,0.2c-0.5,0-1.1,0.1-1.7,0.1c-6.2,0.3-13-0.5-18.6-1.5
			c-0.4,6.4-2.5,12.7-6.2,17.7c-1.1,1.5-3.2,2.8-6.4,4.1c0,3.3-3.1,6.4-7.3,10.2c-3.7,3.3-7.1,9-12,12.7c-0.7,0.5-1.4,1-2.1,1.5
			c-0.3,0.2-0.4,0.3-0.4,0.9C156.5,198.1,158,199.3,158.8,200.2z"/>
		<path class="st1" d="M190.7,149.4c0,0,0.1,0,0.2,0c0-0.2,0-0.3,0-0.5C190.8,149.1,190.8,149.3,190.7,149.4z"/>
		<path class="st1" d="M190.7,149.4c0,0,0.1,0,0.2,0c0-0.2,0-0.3,0-0.5C190.8,149.1,190.8,149.3,190.7,149.4z"/>
		<path class="st0" d="M124.6,184.5c4.6,5.1,12.3,12,20.7,13.3c1.8,0.3,3.6,0.3,5.3,0.1l0,0c0.6-0.1,1.3-0.2,1.8-0.4l0,0
			c1.7-0.4,3.1-1.1,4.5-1.9c0.8-0.5,1.5-1,2.1-1.5c4.9-3.8,8.3-9.4,12-12.7c4.2-3.8,7.3-6.9,7.3-10.2c0-0.7-0.1-1.3-0.4-1.9
			c-0.4-1.2-1.2-2.3-2.4-3.6c-5.7-5.9-15.7-0.2-15.7-0.2c-4.7,1.8-14.4,11.8-16,13.2c-0.1,0.1-0.4,0.2-0.9,0.3h-0.1
			c-0.3,0.1-0.7,0.1-1.2,0.2c-0.1,0-0.1,0-0.2,0c-5.9,0.8-12.2,1.6-18.7,2.2h-0.1C123.6,182.5,124.2,183.5,124.6,184.5z"/>
		<path class="st0" d="M177.8,169.2c0.2,0.7,0.4,1.4,0.4,1.9c0,3.3-3.1,6.4-7.3,10.2c-3.7,3.3-7.1,9-12,12.7c-0.7,0.5-1.4,1-2.1,1.5
			c-1.4,0.9-2.8,1.5-4.5,1.9l0,0c-0.6,0.2-1.2,0.3-1.8,0.4l0,0c-1.6,0.2-3.3,0.2-5.3-0.1c-8.5-1.4-16.2-8.3-20.7-13.3
			c-0.3-0.8-0.6-1.5-1.1-2.2c4.7,5,12,11.2,19.9,12.5c1.8,0.3,3.6,0.3,5.3,0.1l0,0c0.7-0.1,1.3-0.2,1.8-0.4l0,0
			c1.7-0.4,3.1-1.1,4.5-1.9c0.8-0.5,1.5-1,2.1-1.5c4.9-3.8,8.3-9.4,12-12.7c4.2-3.8,7.3-6.9,7.3-10.2c0-0.7-0.1-1.3-0.4-1.9
			C176.9,167.3,177.5,168.3,177.8,169.2z"/>
		<path class="st2" d="M19.4,182.4c-0.7,1.8,0.5,3.9,2.5,3.9c19.9,0.8,43-0.2,77-2.7c7.9-0.6,15.7-1.3,23.2-2c0.3,0,0.6-0.1,0.8-0.1
			c0.1,0,0.1,0,0.1,0c6.5-0.7,12.7-1.5,18.7-2.2c0.1,0,0.1,0,0.2,0c0.4-0.1,0.8-0.1,1.2-0.2h0.1c0.4-0.1,0.7-0.2,0.9-0.3
			c1.6-1.5,11.2-11.3,16-13.2c0,0,10-5.7,15.7,0.2c1.3,1.3,1.9,2.4,2.4,3.6c0.2,0.7,0.4,1.4,0.4,1.9c3.1-1.3,5.4-2.6,6.4-4.1
			c3.7-5,5.8-11.3,6.2-17.7c-0.1,0-0.1,0-0.2,0c-4-0.8-7.4-1.7-9.4-2.4c-6.8-2.6-12.6-1.8-18.5,4.7c-6,6.5-24.9,21.5-42.8,20.3
			c-17.8-1.1-19.4-12.2-17-15s3.8-6.3,19.7-9.1c9-2.4,15.9-3,25.7-15.9c3-3.9,5.5-7.9,8.1-11.5c-2.2-0.3-2.2-0.3-2.2-0.3l-29.7-6.4
			L31.8,90.9c-1-0.2-1.9,0.5-1.9,1.6C29.9,103.2,30,155.6,19.4,182.4z"/>
		<path class="st0" d="M158.8,200.2c0.2,0.2,0.5,0.4,0.8,0.5c0.6,0.2,1.3,0.3,2.2,0.2c3.8-0.4,8.5-1.9,13.1-4.2l0,0
			c6.9-3.4,14.7-8.3,20.6-12.6c0.4-0.3,0.8-0.6,1.2-0.9c0.3-0.2,0.5-0.4,0.8-0.6c11.2-9.3,13.4-30.9,13.5-31.8l0,0l-1.7,0.1
			C209.6,187.6,158.8,200.2,158.8,200.2z"/>
		<path class="st3" d="M147.9,174.8c0,0-6.4,6-5.7,9.2c-3.1-4.5-3.1-4.5-3.1-4.5l4.8-0.9L147.9,174.8z"/>
		<path class="st0" d="M118.7,181.9c0,0,6.2,2.4,5.7,9.5c2.4-4.5-1.6-9.9-1.6-9.9L118.7,181.9z"/>
		<path class="st4" d="M29.8,177.6c48.6,0.3,89.5-0.8,118.7-3.4c3.6-3.4,8.4-7.6,11.3-8.8c0,0,10-5.7,15.7,0.2l0.1,0.1
			c4.4-5,8-11.9,8.6-17.8c-1.2-0.3-2.1-0.7-2.9-1c-6.8-2.6-12.6-1.8-18.5,4.7c-6,6.5-24.9,21.5-42.8,20.3c-17.8-1.1-19.4-12.2-17-15
			s3.8-6.3,19.7-9.1c9-2.4,15.9-3,25.7-15.9c1.4-1.8,2.6-3.6,3.9-5.4l-115-26.2C37.1,100.4,39.2,142.9,29.8,177.6z"/>
		<path class="st0" d="M119.9,172.1c17.8,1.1,36.8-13.9,42.8-20.3c6-6.5,11.7-7.3,18.5-4.7c2,0.8,5.5,1.8,9.4,2.4
			c0.1-0.2,0.1-0.3,0.2-0.4c0,0.2,0,0.3,0,0.5c5.5,1.1,12.3,1.8,18.6,1.5c1.3-0.1,2.5-0.1,3.7-0.3c2.6-0.3,5.1-0.8,7.3-1.6
			c0.9-0.3,1.8-0.7,2.9-1.1c13-4.4,37.6-11,37.6-11c-22.1-52.1-62.2-37.3-80.2-34.1c-12.6,2.2-18.6,9.2-24.4,17.6
			c-2.5,3.7-5.1,7.6-8.1,11.5c-9.8,12.8-16.7,13.4-25.7,15.9c-15.9,2.8-17.3,6.2-19.7,9.1C100.6,159.9,102.1,171,119.9,172.1z"/>
		<path class="st3" d="M246.9,131c0,0-16.8,18-30.2,19.1c-13.3,1.1-27.1,0-36.8-3.5C208.5,147.5,205.5,155.3,246.9,131z"/>
		<path class="st2" d="M102.9,157c-1.6,1.9-1.4,7.7,4.6,11.5c-15.3-0.6-27.5-9.8-27.5-21.1c0-11.7,12.9-21.2,29-21.2
			c13.8,0,25.3,7,28.2,16.4c-4.9,3-9.4,3.8-14.6,5.3C106.7,150.6,105.2,154,102.9,157z"/>
		<path class="st5" d="M314,39.1c-2.1,0.9-4.4,1.8-6.5,2.8c-2.2,1-4.5,1.9-6.6,3c-3.8,1.7-7.5,3.3-11.2,5c-2.2,1-4.5,2-6.6,3
			c-3.7,1.7-7.3,3.3-10.9,5c-0.2,0.1-0.3,0.1-0.5,0.2c-1.4,0.7-4.9,2.3-6.6,3.1c-0.2,0.1-0.5,0.2-0.7,0.3
			c-16.2,7.5-13.2,9.3-29.1,17c-0.3,0.2-0.9,1-0.9,1l0.5,1.6l20.6,64.9l0.6,1.9c0,0,1.7,1.8,2.1,1.8c19.5-1.4,10.7,0.7,28.8-1.9
			c1.1-0.2,6.7,0.7,10.3,1c1.5,0.2,2.6,0.3,3,0.2c1.4-0.2,2.7-0.4,4-0.6c2.4-0.4,4.8-0.8,7.2-1.2s4.9-0.8,7.4-1.3
			c3.8-0.7,7.5-1.4,11.3-2c2.6-0.5,5.3-1.1,7.8-1.6c4-0.8,4.1-0.4,7.9-1.7C352.3,138.5,319.8,36.8,314,39.1z"/>
		<path class="st6" d="M338,142.2c-2.6,0.6-5.2,1.1-7.8,1.6c-0.7-2.2-1.2-4.8-1.3-6.2c-0.9-13.9-6-27-9-40.5
			c-1.4-6.4-4.7-12.5-7-18.7c-0.2-0.6-9.1-26.2-12.2-33.4c2.2-1.1,4.5-2,6.6-3c4.7,10.1,12.7,33,14.1,36.1c1.7,3.8,2.9,7.8,4.2,11.7
			c2.9,9.4,6,18.8,8.4,28.4C335.9,125,336.8,135.1,338,142.2z"/>
		<path class="st6" d="M319,145.9c-2.4,0.5-4.9,0.9-7.4,1.3c-0.6-1-1-2.1-1.1-3c-0.3-2-0.6-4-0.9-5.9c-2.2-14.9-6-29.4-11.6-43.5
			c-0.8-2-13.3-38.1-15.1-41.8c2.2-1,4.5-2,6.6-3c4.8,7.1,17.3,44.6,18.8,49.1c4,12.2,7.8,24.5,9.2,37.3
			C317.9,139,319,142.7,319,145.9z"/>
		<path class="st6" d="M304.5,146.3c0.1,0.9,0.1,1.6-0.1,2.1c-1.4,0.2-2.6,0.4-4,0.6c-0.4,0.1-1.6,0-3-0.2c-0.2-0.4-0.3-0.8-0.4-1.3
			c-1.9-7.9-4.2-18.4-6.3-26.3c-1.8-6.4-4-12.9-7.2-19.1c-0.6-1.2-18-38.9-19.2-40.5l0,0c0.2-0.1,0.4-0.2,0.7-0.3
			c1.7-0.8,5.3-2.4,6.6-3.1c0.2-0.1,0.4-0.2,0.5-0.2l0,0c2.3,4.7,20.2,43.5,21.9,48.2c2.4,7.2,5.2,14.3,6.5,21.8
			C301.3,133.2,304,140.8,304.5,146.3z"/>
		<path class="st5" d="M127.6,40.7l6.5,3.6l-6.5,3.6c-1.9,1.1-3.6,2.7-4.7,4.7l-3.6,11.1l-3.5-11.2c-1.1-1.9-2.7-3.6-4.7-4.7
			l-6.5-3.6l6.5-3.6c1.9-1.1,3.6-2.7,4.7-4.7l3.6-11.1l3.6,11.1C124,37.9,125.7,39.6,127.6,40.7z"/>
		<path class="st5" d="M249.8,160l4.7,2.5l-4.7,2.5c-1.5,0.8-2.6,1.9-3.4,3.4l-2.5,8l-2.5-8c-0.8-1.5-1.9-2.6-3.4-3.4l-4.7-2.5
			l4.7-2.5c1.5-0.8,2.6-1.9,3.4-3.4l2.5-8l2.5,8C247.1,158,248.3,159.2,249.8,160z"/>
		<path class="st5" d="M106.2,224.6l4.3,2.3l-4.3,2.3c-1.3,0.7-2.3,1.8-3.1,3.1l-2.3,7.3l-2.3-7.3c-0.7-1.3-1.8-2.3-3.1-3.1
			l-4.3-2.3l4.3-2.3c1.3-0.7,2.3-1.8,3.1-3.1l2.3-7.3l2.3,7.3C103.8,222.9,104.9,223.9,106.2,224.6z"/>
		<g>
			<g>
				<path class="st0" d="M182,250.2v-4.4V250.2L182,250.2z"/>
			</g>
		</g>
	</g>
</g>
</svg>
