<?xml version="1.0" encoding="utf-8"?>
<!-- Generator: Adobe Illustrator 26.0.2, SVG Export Plug-In . SVG Version: 6.00 Build 0)  -->
<svg version="1.1" id="Layer_1" xmlns="http://www.w3.org/2000/svg" xmlns:xlink="http://www.w3.org/1999/xlink" x="0px" y="0px"
	 viewBox="0 0 348.5 357.1" style="enable-background:new 0 0 348.5 357.1;" xml:space="preserve">
<style type="text/css">
	.st0{fill:#FFFFFF;}
	.st1{fill-rule:evenodd;clip-rule:evenodd;fill:#065C51;}
	.st2{fill:#F7313B;}
	.st3{fill:#F5ABB6;}
	.st4{fill-rule:evenodd;clip-rule:evenodd;fill:#FFFFFF;}
	.st5{fill-rule:evenodd;clip-rule:evenodd;fill:#F9ADB5;}
	.st6{fill-rule:evenodd;clip-rule:evenodd;fill:#FFC7D2;}
</style>
<g id="bg">
</g>
<g id="GŁOWNE_KOLORY">
</g>
<g id="COLOR_1">
</g>
<g id="COLOR_2">
</g>
<g id="insp">
</g>
<g id="Kosz_kwiatów">
</g>
<g id="Las_w_szkle">
</g>
<g id="Rośliny">
</g>
<g id="Pogrzebowe">
</g>
<g id="Różne">
	<g id="asparagus_00000001662853907498169490000012437850414105003924_">
		<path class="st0" d="M171.4,174.5c-2.3-4.6-3.2-7.7-3.9-12.3c-0.2-1.7-3.1-6.3-5.9-10c-6-13.6-4.9-20.5-3.6-31.3
			c0.4-3.1,5.5-8.7,6.6-14.5c1.7-7.9-1.3-16.7-8.3-25.4c-1.4-2.9-2.7-5.9-3.4-9c-0.6-2.8-0.9-5.8-0.6-8.9c0-0.3-0.5-0.3-0.7,0.1
			c-4,5.5-3.5,14.3-1.1,22.3c0.8,2.8,4.6,5.8,4.8,8.2c0.6,7-5,11.8-6.9,18.4c-2,6.5-0.4,15,1.3,22.1c-12.1-7.6-7.6-20-7.6-31.6
			c0-5.7-3.9-10.6-6.2-15.8c-1.7-3.6-1.3-9-3.2-12.2c-2-3.4-5.9-5.1-6.6-9.4c0-0.2-0.4,0.2-0.6,0.6c-2.5,7.6,2.9,13.4,6,19.7
			c1.7,4.6-2.4,8.6-3,13.3c-0.6,5.1,2.2,11,4.6,15.8c0.4,1,1.3,3.6-0.7,2.4c-13.2-10.6-9.9-19.7-11.7-29.7
			c-0.7-4.2-1.1-10.7-4.7-15.5c-1.8-2.4-5.8-3.2-9.1-5.8c-2.6-2-4.5-6-5.6-5.7c-2.8,0.8,3.9,13.4,5.9,19.4
			c2.4,6.8,6.9,13.2,8.7,22.3c-20.2-14.2-7.4-25.9-31.4-48.6c-0.9,6.3,5.9,9,7.8,14.3c2.1,6.5,3.1,12.7,5.4,19.4
			c-3.8-3.3-6.6-7-9.4-11.1c-2.2-3.1-5.7-14-8.3-17.3c-2.7-3.4-11.1-11-7.1-3.5c4.3,3.2,6.5,17.6,9.9,21.4c1.1,1.3-3.3-1-9.5-4.7
			c-5.2-2.9-9-10.5-14.5-13.7c-7.6-4.3-16.1-3.8-14.7-2.3c-1.1-0.3,5.9,2.7,9.9,6.7c1.7,1.7-1.9,3.7,0.8,5.5
			c4.9,3.3,16.2,4.9,21,7.1c2,0.9,9.5,5.6,8.5,5.4c-3-0.5-9.4-1.2-10.1-1.3c-8.1-1.1-14.5,5.6-22.6,3.4c-6.4-0.1,0.3,3.3,3.1,3.6
			c5.8,0.5,16.9-3.8,22.3-1.2c7.6,5.1,17.4,3.1,24.3,8.7c0.4,0.6-3.8-0.7-4.5-0.8c-3.5-0.5-10.3,1-11,0.9c-8.2-0.5-9.5,4.3-17.8,2.1
			c-5.2-1.4-14.3-4.7-18.3-0.5c13.2,4.5,22.6,8.1,29.8,7.4c15.8-1.6,21.8-11.9,36.3,3.2c-4.8-0.4-11.7,0.3-15.7,2.4
			c-5.5,2.8-7.9,7.1-14.2,5.3c-21.1-4-7.6,2.3,4.5,4.8c6.5,0.2,12.7,0.9,17.5-0.9c4.6-1.8,6.3-6.6,10.3-6.8
			c4.3-0.2,11,4.8,16.5,12.9c-9.1-2.7-18.5-1.8-25.8,4.7c-4.8,2.9-11.7,2.3-18,2.6c-5.8,0.2-11.2,1.1-14,6.1
			c-0.2,0.4,0.1,1.2,0.4,1.1c8.4-2.1,12.7-3.4,22.6-0.9c6.8-0.1,14.7,0.2,20.9-2.4c11-4.7,19.6-11.5,28.9,5.3
			c-9.2-4.3-18.3-2.3-25.8,1.7c-3.8,2.1-5.5,7.5-10,6.7c-3.3-0.2-7.4,0.4-10.8,2.1c-2.9,1.3-5.4,3.3-6.7,5.9
			c-0.2,0.4,0.3,1.4,0.7,1.4c4.3-0.2,9.6-3.2,14.4-3.4c10.3,1.9,18.5-3.6,25.7-7.5c9.6-5.2,17.3-7.5,25.4,14.4
			c-5.8-2.6-10.5-5.6-14.7-4.7c-4.2,0.9-8,5.7-11.4,4.8c-2.7-0.7-14.2,0.4-20.8,2.5c-9.7,3.1-14.3,7.9-7.5,7.9
			c6.6-3.4,10.6-0.7,17.3-0.3c2.3,0.1,5.6-2.5,8.5-3.1c3-0.6,5.7,0.7,7.8-0.2c15.7-6.8,22.2-8.5,27.9,11.7
			C171.5,188.5,173.6,179.7,171.4,174.5z M99.9,90.3L99.9,90.3C99.9,90.3,100,90.3,99.9,90.3C100,90.3,99.9,90.3,99.9,90.3z
			 M173.1,139.4L173.1,139.4L173.1,139.4L173.1,139.4z"/>
	</g>
	<g id="asparagus_00000114063029024666458390000010430167000045739138_">
		<path class="st0" d="M189.5,193.6c11.5-17.5,9.8-12,12.4-15.6c14.3-18.4,20.9-13.9,28.5-6c5.7,5.9,11.9,13.7,22.3,14.9
			c4.5,1.7,8.6,6.1,12.6,7.7c0.4,0.2,1.2-0.6,1.1-1.1c-0.5-2.9-2.3-5.5-4.7-7.7c-2.8-2.6-6.4-4.5-9.6-5.2c-4.6-0.7-4.5-6.4-7.5-9.5
			c-5.9-6-14-10.7-24-9.4c13.9-13.2,20.1-4,29.1,3.7c5.1,4.5,12.7,6.4,19.2,8.6c10.1,0.5,13.9,3.1,21.2,7.7c0.3,0.2,0.8-0.4,0.7-0.9
			c-1.1-5.6-6-8.1-11.4-10c-5.9-2.2-12.6-3.7-16.4-7.9c-5-8.4-13.7-12.1-23.1-12.2c7.8-6.2,15.5-8.9,19.7-7.4
			c3.7,1.3,3.9,6.5,7.8,9.6c4,3.2,10.1,4.5,16.4,6.2c12.2,1.3,27-0.6,5.7-3.1c-6.6-0.1-7.6-5-11.9-9.3c-3.2-3.2-9.6-6-14.3-7
			c18.4-10,21,1.7,35.6,7.9c6.7,2.9,16.8,2.3,30.7,2c-2.6-5.1-12.2-4.9-17.6-5c-8.6-0.3-8.4-5.3-16.4-7.4c-0.6-0.2-6.6-3.6-10.1-4.2
			c-0.6-0.1-5.1-0.1-4.5-0.6c8.4-3.2,17.1,1.7,25.9-0.9c5.8-0.8,15.1,6.6,20.8,7.9c2.8,0.6,10.1-0.6,4-2.5
			c-8.4-0.3-12.4-8.8-20.4-10c-0.6-0.1-7-1.3-10-1.8c-1-0.1,7.6-2.3,9.7-2.6c5.4-0.7,16.6,1.2,22.3-0.4c3.1-0.9,0.3-3.9,2.5-5.1
			c5.2-2.7,12.7-3.3,11.6-3.4c1.8-1.1-6.2-4.1-14.7-2.3c-6.2,1.3-12.1,7.4-17.9,8.6c-7,1.6-12,2.5-10.6,1.6
			c4.5-2.7,10.9-15.6,15.9-17.4c6-5.9-4.2-1.1-7.9,1.2c-3.5,2.4-10.1,11.7-13.2,14c-3.9,3-7.7,5.8-12.3,7.8
			c4.2-5.6,7.1-11.2,11-16.8c3.5-4.6,10.8-5,11.8-11.3c-29.8,14.3-21.1,29.3-44.6,36.8c4.5-8.2,10.8-12.8,15.1-18.6
			c3.7-5,13.9-15,11.5-16.6c-1-0.7-4,2.6-7,3.7c-3.9,1.4-8.1,1-10.5,2.7c-4.8,3.5-7.1,9.5-9.1,13.4c-4.8,9.1-4.5,18.7-20.2,24.9
			c-2.4,0.5-0.6-1.7,0-2.5c3.7-3.9,8.2-8.7,9.1-13.7c0.8-4.7-1.9-9.7,1.1-13.6c5-5.1,11.8-9,11.7-17c0-0.4-0.3-0.9-0.4-0.7
			c-2.1,3.9-6.2,4.2-9.2,7c-2.8,2.6-4,7.7-6.8,10.7c-3.8,4.3-9,7.8-10.8,13.3c-3.5,11-2.9,24.2-16.8,27.9c3.8-6.2,7.9-13.8,8-20.6
			c0.1-6.8-3.7-13-1-19.7c0.9-2.2,5.4-3.8,7-6.3c4.7-6.8,7.8-15.1,5.6-21.5c-0.1-0.4-0.6-0.6-0.7-0.3c-0.6,3.1-1.9,5.8-3.3,8.3
			c-1.7,2.7-3.7,5.2-6,7.6c-9.2,6.2-14.7,13.8-15.5,21.7c-0.6,5.9,2.6,12.7,2,15.8c-2.1,10.7-3.1,17.6-12.9,28.7
			c-3.8,2.7-8,6.3-8.7,7.8c-2.1,4.2-3.9,6.9-7.6,10.6C185.9,192.5,185.2,201.6,189.5,193.6z M283.2,129.5h0.1
			C283.3,129.5,283.3,129.5,283.2,129.5C283.3,129.6,283.2,129.6,283.2,129.5z M198.6,154.2L198.6,154.2
			C198.6,154.3,198.6,154.3,198.6,154.2L198.6,154.2z"/>
	</g>
	<g>
		<path class="st1" d="M157.5,241c-34.6-12.4-0.9-28.2-23.9-38c-25.9-11,2.7-29.5-26.5-48.7c-13.2-8.6-3.3-23.4-14-37.4
			c-5.5-7,11-41.3,27.4-1.2c8.5,20.7,14.1,4.3,22,39c4.8,20.7,14,8.4,19.6,24.9c4.5,12.9,13.5,8.9,17.9,19.2c3,7,4.8,26.9-2.9,39.5
			C175.7,240.4,157.6,241.1,157.5,241L157.5,241z"/>
	</g>
	<g>
		<path class="st2" d="M169.6,131.8c9.3,11.7,19.2,24.3,20.2,39.2c0.2,2.7,0.1,5.4-1,7.9c-1.1,2.4-3.4,4.5-6.1,4.6
			c-2.3,0.1-4.7-1.1-6.9-0.4c-3.4,1.1-4.3,6.3-7.9,7.2c-2.6,0.7-5.1-1.3-6.7-3.4c-1.8-2.1-3.5-4.5-6.1-4.9c-2.6-0.4-5.1,1.3-7.6,0.9
			c-2.3-0.3-4-2.2-4.9-4.3c-0.7-2.2-0.7-4.5-0.5-6.7C143.7,155.2,153.8,139.8,169.6,131.8z"/>
		<path class="st2" d="M167.3,135.6c-8.2,12.5-17.2,25.7-31.1,31.3c-2.5,1-5.2,1.8-7.8,1.3c-2.6-0.4-5.3-1.9-6.2-4.3
			c-0.8-2.2-0.3-4.9-1.8-6.7c-2.2-2.9-7.4-2.2-9.2-5.2c-1.4-2.3-0.2-5.3,1.1-7.5c1.4-2.3,3.2-4.7,2.7-7.4c-0.4-2.5-2.8-4.3-3.2-6.9
			c-0.4-2.3,0.8-4.6,2.6-5.9c1.8-1.4,4-2.1,6.2-2.5C137.1,118.3,155,123.2,167.3,135.6z"/>
		<path class="st2" d="M163.1,134.8c-14.4-3.9-29.8-8.4-39.3-19.9c-1.8-2.1-3.2-4.3-3.7-6.9s0.2-5.6,2.3-7.2
			c1.9-1.4,4.5-1.9,5.9-3.7c2.2-2.9-0.2-7.7,2.1-10.5c1.7-2.1,4.9-1.9,7.5-1.2c2.6,0.6,5.5,1.6,7.9,0.3c2.3-1.2,3.3-4,5.6-5.3
			c2-1,4.6-0.6,6.4,0.7c1.9,1.2,3.2,3.2,4.3,5.2C170.2,100.6,171,119.2,163.1,134.8z"/>
		<path class="st2" d="M162.5,130.3c-0.7-14.9-1.1-31,6.7-43.6c1.4-2.3,3.1-4.5,5.5-5.7s5.4-1.6,7.6-0.1c2,1.2,3.1,3.7,5.4,4.5
			c3.4,1.1,7.1-2.6,10.6-1.2c2.5,0.9,3.3,4,3.4,6.7c0.2,2.7,0.2,5.7,2.1,7.6c1.9,1.8,4.9,1.9,6.7,3.7c1.7,1.6,2,4.1,1.3,6.3
			c-0.6,2.2-2.1,4-3.6,5.7C197.2,126.6,179.8,133.2,162.5,130.3z"/>
		<path class="st2" d="M166.6,128.6c14-5.3,29.1-10.7,43.6-7c2.6,0.6,5.2,1.7,7.1,3.4c2,1.8,3.1,4.7,2.5,7.2
			c-0.6,2.3-2.6,4.1-2.6,6.4c0,3.6,4.7,6,4.5,9.6c-0.1,2.7-2.9,4.3-5.4,5.4c-2.5,1-5.4,2-6.5,4.3c-1.1,2.3-0.3,5.2-1.4,7.5
			c-1,2.1-3.3,3.2-5.6,3.2c-2.3,0.1-4.5-0.7-6.5-1.7C180.9,160.4,169.3,145.9,166.6,128.6z"/>
	</g>
	<g>
		<g>
			<path class="st3" d="M165.2,130.2c-9.6-10.5-19.5-20.8-29.1-31.4c-0.1-0.1-0.2,0-0.1,0.1c4,5.9,8,11.9,12.3,17.7
				c4.3,5.8,8.9,11.4,14.1,16.4C163.8,134.3,166.5,131.6,165.2,130.2z"/>
		</g>
		<g>
			<path class="st3" d="M166,130.3c-3.6-9.1-9.3-17.3-16.1-24.2c0,0-0.2,0.1-0.1,0.1c2.6,4.1,4.7,8.5,6.6,12.9c2,4.3,3.8,8.7,6,12.9
				C162.9,133,166.4,131.5,166,130.3z"/>
		</g>
		<g>
			<path class="st3" d="M168.4,128c-0.4-5.8-2-11.6-4.3-17s-5.6-10.4-9.4-14.6c0-0.1-0.2,0.1-0.2,0.1c3,5,5.1,10.4,6.5,15.7
				c1.4,5.4,2.5,10.9,3.4,16.3C164.7,129.8,168.5,129.4,168.4,128z"/>
		</g>
		<g>
			<path class="st3" d="M167.1,133.6c1-6.4,2.5-12.8,4.6-19.1c2-6.2,4.5-12.3,7.6-18.2c0-0.1-0.1-0.2-0.2-0.1
				c-3.9,5.3-7.6,11.1-10.4,17.2c-2.8,6.2-4.9,12.8-5.5,19.6C163,134.8,166.9,135.1,167.1,133.6z"/>
		</g>
		<g>
			<path class="st3" d="M169,132.3c6.5-10.5,12.7-21,19.4-31.5c0-0.1-0.1-0.2-0.1-0.1c-4.1,4.7-8.4,9.2-12.2,14.1
				c-3.9,4.9-7.6,9.9-10.5,15.5C164.8,131.7,168.1,133.6,169,132.3z"/>
		</g>
		<g>
			<path class="st3" d="M167.8,132.7c5.6-2.5,10.9-6,15.3-10.4c4.5-4.2,8.2-9.3,11-14.7c0-0.1-0.1-0.2-0.2-0.1
				c-3.6,4.9-8.2,8.9-12.9,12.4c-4.8,3.5-9.8,6.4-14.9,9.1C164.8,129.8,166.4,133.3,167.8,132.7z"/>
		</g>
		<g>
			<path class="st3" d="M169.3,132.3c3.4,5.6,7.9,10.7,12.8,15c5.1,4.2,10.7,7.8,16.7,10.4c0.1,0,0.2-0.1,0.1-0.2
				c-5.5-3.5-10.4-7.9-14.6-12.5c-4.2-4.8-8.1-9.7-11.7-14.8C171.8,128.8,168.4,130.9,169.3,132.3z"/>
		</g>
		<g>
			<path class="st3" d="M170.6,131.4c3.6,3.4,7.9,6.2,12.3,8.4c4.5,2.2,9.2,3.7,14.1,4.7c0.1,0,0.1-0.2,0.1-0.2
				c-4.6-1.9-8.7-4.6-12.5-7.4c-3.9-2.8-7.6-5.8-11.3-8.6C172.3,127.7,169.7,130.6,170.6,131.4z"/>
		</g>
		<g>
			<path class="st3" d="M173.1,133.3c5.3,0.1,10.6,0.5,15.7,1.4c5.2,0.9,10.4,2.4,15.3,4.3c0.1,0,0.1-0.1,0.1-0.2
				c-4.6-2.9-9.4-5.6-14.7-7.4c-5.3-1.8-11-2.8-16.6-2.3C171.5,129.4,171.8,133.3,173.1,133.3z"/>
		</g>
		<g>
			<path class="st3" d="M170,131.9c5.2-0.9,10.6-1.4,15.8-1.7c5.3-0.1,10.7,0.1,16.1,1c0.1,0,0.1-0.2,0-0.2
				c-5.1-1.9-10.5-3.3-16.1-4c-5.6-0.7-11.3-0.5-16.8,0.9C167.7,128.4,168.6,132.1,170,131.9z"/>
		</g>
		<g>
			<path class="st3" d="M166.2,131.2c-3.7,6-6.7,12.5-8.9,19.4c-2.2,6.7-3.6,13.8-4.3,20.8c0,0.1,0.2,0.1,0.2,0
				c1.7-6.8,4.2-13.4,7.1-19.7c2.9-6.3,6.2-12.3,9.4-18.4C170.4,131.7,167.1,129.6,166.2,131.2z"/>
		</g>
		<g>
			<path class="st3" d="M166.2,131.3c-0.8,11.9-0.5,23.9,0.2,35.8c0,0.1,0.2,0.1,0.2,0c1.3-11.9,3.7-23.8,3.5-35.7
				C170.2,129.8,166.3,129.7,166.2,131.3z"/>
		</g>
		<g>
			<path class="st3" d="M167.2,132.5c2.2,6.1,3.9,12.4,5.3,18.8c1.2,6.4,2.1,12.9,2.2,19.6c0,0.1,0.2,0.1,0.2,0
				c0.9-6.5,1.3-13.4,0.8-20.1c-0.5-6.7-2-13.6-4.8-19.8C170.2,129.4,166.7,131,167.2,132.5z"/>
		</g>
		<g>
			<path class="st3" d="M168.3,133.9c3.4,4.9,6.2,10.1,8.3,15.8c2,5.7,3.2,11.6,3.5,17.7c0,0.1,0.2,0.1,0.2,0
				c0.8-6.1,0.7-12.4-0.6-18.7c-1.3-6.2-4-12.3-8.2-17.3C170.5,130.1,167.5,132.6,168.3,133.9z"/>
		</g>
		<g>
			<path class="st3" d="M165.2,128.3c-4.6-2.1-9.4-3.5-14.3-4.2c-5-0.7-9.9-0.7-14.8-0.1c-0.1,0-0.1,0.2,0,0.2
				c4.9,0.4,9.7,1.7,14.3,3.1c4.6,1.4,9,3.2,13.5,4.8C164.8,132.4,166.4,128.9,165.2,128.3z"/>
		</g>
		<g>
			<path class="st3" d="M166.9,131.8c-11.6,0.4-23.2,3.7-33.4,8.9c-0.1,0,0,0.2,0.1,0.2c5.5-1.7,11.3-2.6,16.9-3.3
				c5.7-0.7,11.3-1.1,16.9-1.8C168.6,135.6,168.3,131.8,166.9,131.8z"/>
		</g>
		<g>
			<path class="st3" d="M165.1,132.9c-5.2,3.6-10.8,6.8-16.6,9.5c-5.8,2.6-12,4.7-18.3,6c-0.1,0-0.1,0.2,0,0.2
				c6.5-0.3,13.2-1.2,19.5-3.2c6.4-2,12.6-5,17.8-9.3C168.9,135,166.5,132,165.1,132.9z"/>
		</g>
		<g>
			<path class="st3" d="M167.9,129.4c-7-1.4-14.4-1.9-21.6-1.2c-7.2,0.6-14.4,2.4-21,5c-0.1,0,0,0.2,0.1,0.2
				c6.9-1.6,14.2-2.1,21.1-1.9c7,0.2,14,0.9,20.8,2C169,133.7,169.8,129.8,167.9,129.4z"/>
		</g>
	</g>
	<path class="st1" d="M163,196.2c-13.4-47.8,30.3-23,23.1-56c-8.2-37.1,34.6-20.1,32.8-67.2C218,51.8,242.1,51,249,28.3
		c3.5-11.5,54.1-20.2,22.8,29.2c-16.2,25.5,6.2,18.8-25.7,54.7c-19.1,21.4,1.7,22-12.1,40.9c-10.8,14.9,0.7,21.8-7.1,34.7
		c-5.4,8.9-25.9,26.3-45.7,27.6C177.9,215.8,163,196.3,163,196.2L163,196.2z"/>
	<path class="st4" d="M251.8,63.3c-8.3-5.6-49.8,82.4-58.3,120.7c-11.3,51.5,12.7-23.9,13.5-25.6c10.7-23.7,16.7-49.9,26.9-65
		C237.8,88,248.4,72.8,251.8,63.3L251.8,63.3z"/>
	<path class="st5" d="M96.7,337.6c111.5,0,21.4,0,147.6,0c21.4-63.8,12.1-111.1,70.8-141.8c2.4-1.2-0.9-14.5-5-14.9
		c-67.8,33-79.5,96.2-79.5,96.2s0,0-6.8-72.4c-20.8,1.7-100.7,0.1-100.9,1c-0.6,2.3-1.3,4.9-2.2,7.6c-5.8-11.3-13.5-21.6-16.8-25.6
		c-14.8-17.4-30.8-20.4-42.1-18.1c-13.2,2.6-22.5,15.6-24.5,32.3c-5.1,41,38.5,93.2,52.9,114c-5.7,21.7-5.7,21.7-5.7,21.7h12.2
		V337.6z M116.5,228.2c-23,72.6,0,0-23,72.6c-10.4-14.2-22.4-27.4-35.2-50.9c-22.1-40.6-11.5-78.6,22.3-66.4
		C95.3,188.9,106.3,211.9,116.5,228.2L116.5,228.2z"/>
	<path class="st6" d="M169.7,269.8c-6.7-18.2-13.2-17.6-16.5-12c-8.5,14.4,14.8,40.5,15,40.3c2.2-1.6,3.7-4.1,8.9-12.9
		C199.2,248.4,177,249.4,169.7,269.8L169.7,269.8z"/>
	<path class="st0" d="M277.7,55.1l6.8,3.7l-6.8,3.7c-2.1,1.1-3.7,2.8-4.9,4.9L269.1,79l-3.7-11.6c-1.1-2.1-2.8-3.7-4.9-4.9l-6.8-3.7
		l6.8-3.7c2.1-1.1,3.7-2.8,4.9-4.9l3.7-11.6l3.7,11.6C274,52.3,275.6,53.9,277.7,55.1z"/>
	<path class="st0" d="M298.9,214.9l5.3,2.9l-5.3,2.9c-1.7,0.8-2.9,2.2-3.8,3.8l-2.9,9l-2.9-9c-0.8-1.7-2.2-2.9-3.8-3.8l-5.3-2.9
		l5.3-2.9c1.7-0.8,2.9-2.2,3.8-3.8l2.9-9l2.9,9C295.9,212.7,297.3,214,298.9,214.9z"/>
	<path class="st0" d="M106.4,270.8l5.1,2.8l-5.1,2.8c-1.6,0.8-2.8,2.1-3.6,3.6l-2.8,8.6l-2.8-8.6c-0.8-1.6-2.1-2.8-3.6-3.6l-5.1-2.8
		l5.1-2.8c1.6-0.8,2.8-2.1,3.6-3.6l2.8-8.6l2.8,8.6C103.6,268.7,104.9,269.9,106.4,270.8z"/>
</g>
<g id="Flower_box">
</g>
<g id="Bukiet">
</g>
<g id="Ślubne">
</g>
<g id="Siedząca_z_kwiatami">
</g>
<g id="zadzwoń">
</g>
<g id="zapłać">
</g>
</svg>
