<?xml version="1.0" encoding="utf-8"?>
<!-- Generator: Adobe Illustrator 26.0.3, SVG Export Plug-In . SVG Version: 6.00 Build 0)  -->
<svg version="1.1" id="Layer_1" xmlns="http://www.w3.org/2000/svg" xmlns:xlink="http://www.w3.org/1999/xlink" x="0px" y="0px"
	 viewBox="0 0 340.5 422.2" style="enable-background:new 0 0 340.5 422.2;" xml:space="preserve">
<style type="text/css">
	.st0{fill:#DBA184;}
	.st1{fill:#FABB95;}
	.st2{fill:#085C51;}
	.st3{fill:#1C1C1C;}
	.st4{fill:#FFFFFF;}
	.st5{fill:#074C42;}
	.st6{fill:#F7313B;}
	.st7{fill:#E73143;}
</style>
<g>
	<polygon class="st0" points="179.1,218.1 187.3,214 245.4,322.2 229.5,330 	"/>
	<g>
		<polygon class="st1" points="156.4,233 170.5,226 203.8,371.1 189.6,378.1 		"/>
		<polygon class="st1" points="212.9,205.1 198.8,212.1 293.7,326.7 307.9,319.7 		"/>
	</g>
</g>
<g>
	<path class="st2" d="M242.5,103.2c-3-1-4.3-6.7-7.3-5.8c-4.2,1.5-6.7-8.5-13.3-7c-3.5-0.1,0.9-3.6-2.6-4
		c-9.1,0.5-14.8,10.4-20.4,14.3c-5.5-13.2-16-33.9-32.8-31.7c-3.9,3.4-18.4-7.7-15.8,4.7c-4-8.9-4.4-8.5-9.1,0.2
		c-5.3,6.9-1.7,15.8-6.8,22.8c-8,9.9,2.3-43.3-25.8-3.9C106.6,102,94,85,91.3,93.6c1.4,14.9-14.4,26.1-10.5,40.6
		c1.6,1.7-0.1,2.6-1.8,2.2c-11.5-7.4-12.3-3.3-12.7,8.7c-4.1,4.5,5.5,13.4-0.5,15.2c-3.7,0.4-14.8,3.5-11.1,8.3
		c11.6,10.7,6.7,29.2,20.2,37.4c-13.8,8-1.5,9.5,2.9,19.9c2.3,2,8.9,4,9.4,6.3c-3.6,3.5-6.6,10.3-5,14.5
		c15.4,1.7,29.8,15.4,45.6,12.5c1.9-0.2,2.2,0,1.7,1.9c-1,6.2,9.6,3.1,13.4,5c21.2-7.7,6.5,14.3,21.4,8.7c10.9-9,26.1-9.9,35.3-20.1
		c11,0,23-1.5,33.2-6.7c4.3-7.1,12.2-12.9,13.8-21c-2.1-4.5,6.2-5.7,3.2-8.5c-3.8-1.5-4.2-6.7,0-7.8c9.3-9.7,24.6-25.3,16.6-40
		c-2.9-3.2,0-15.8-8.5-12.1c8.8-9.5-1.9-7.5-9.5-10.6C250.6,134.7,252.8,115,242.5,103.2z M209.9,153c-1,15.3,13.4,17.9-5.3,26.2
		c-1.7,3.4,7.1,6.2,3.5,10.7c-6.1,9.3-3.1,19.1-17.3,12.8c-9.7-0.1-4.7,25.3-20.2,13.7c-8.4-7.3-6.1,2.1-15.6,0.7
		c-3.6,2.3-1.3,12.5-6.6,3.6c-1.3-2-1.7-2.2-3.1-0.4c-4.7,1-3.3-14.6-11.8-15.2c-4.4-1.6-3.8-9.2-9.3-10.3c-7.3,4.3-7.8,7.7-6.6-4
		c-5.6-4.3,5.2-13-0.6-18.4c0.2-8.6,6.4-13.1-6.6-14.4c5.2-9.1,20.8-8.3,24.6-18.6c15.3-12.7,6.4-5.7,5.7-15.5
		c10.1-2,10,10.3,16.7,7.5c7.6-1.6,15.8-9.5,23.5-5.1c5.4,8.1,22.7,5.4,12.6,18.1C189.6,154.8,206.3,146.3,209.9,153z"/>
	<path class="st3" d="M279.2,241.5c-55.3-12.9-15.6-21.1-58.6,7.2c-5.8,0.4-11.3-0.6-16.8,3c-2.8,0.6-6.8-2.6-9.1,0.3
		c-5.8,11.7-19.4,8.1-28.4,16c-8.7,10.4-6.1,29.1-11.9,42.3c0.3,8.7,22.2-9.1,24.9-13.3c6.3-3.2,11.8,12.1,16.2,16.6
		c8.1,13.8,9.4-9.6,10.7-12c4.1-11.9-1.6-30,1.7-38.9c17.1,12.4,37.1,30.8,59.3,30.1c0.7-8.8-11.6-22.5-4.6-30.9
		C266.6,258.5,289.7,244.8,279.2,241.5z M206.1,284c0-0.1-0.1-0.2-0.1-0.2C206.2,283.9,206.3,284.1,206.1,284z M206.1,278.2
		L206.1,278.2C206.3,278.2,206.2,278.2,206.1,278.2z M205.1,268.3C205.1,268.4,205.1,268.4,205.1,268.3
		C205.1,268.3,205,268.2,205.1,268.3z M204,259.7c0-0.1-0.1-0.2-0.1-0.2C204.1,259.6,204.1,259.7,204,259.7z M274.9,242.8
		L274.9,242.8C275.1,242.7,275,242.9,274.9,242.8z"/>
</g>
<path class="st4" d="M60,104.3l6.2,0.2l-3.6,5.1c-1,1.5-1.7,3.4-1.8,5.3l1.4,9.6l-6.7-7c-1.5-1-3.4-1.7-5.3-1.8l-6.2-0.2l3.6-5.1
	c1-1.5,1.7-3.4,1.8-5.3L48,95.6l6.7,7C56.4,103.6,58.2,104.2,60,104.3z"/>
<path class="st4" d="M270.5,163.3l4.5,0.2l-2.6,3.7c-0.8,1.1-1.2,2.4-1.3,3.7l1,6.9l-4.9-5c-1.1-0.8-2.4-1.2-3.7-1.3l-4.5-0.2
	l2.6-3.7c0.8-1.1,1.2-2.4,1.3-3.7l-1-6.9l4.9,5C267.8,162.7,269.1,163.2,270.5,163.3z"/>
<path class="st4" d="M280.9,250.9l4.1,0.2l-2.3,3.4c-0.7,1-1.1,2.2-1.2,3.5l0.9,6.3l-4.5-4.6c-1-0.7-2.2-1.1-3.5-1.2l-4.1-0.2
	l2.3-3.4c0.7-1,1.1-2.2,1.2-3.5l-0.9-6.3l4.5,4.6C278.5,250.5,279.7,250.9,280.9,250.9z"/>
<g>
	<g>
		<g>
			<path class="st5" d="M116.9,250.1c-0.4-0.7-1.6-0.5-2.3-0.2c-2.9,1.5-5.2,4.2-6.3,7.3s-0.8,6.6,0.6,9.6c0.1,0.2,0.2,0.4,0.5,0.6
				s0.7,0,1-0.2c6-3.3,8.8-11.3,6.4-17.6c-0.1-0.2-0.2-0.4-0.4-0.5c-0.2,0-0.3,0.4-0.1,0.4"/>
		</g>
	</g>
	<g>
		<path class="st5" d="M130.2,131.9c-4.2,5-4.8,12.8-1.3,18.4c0.4,0.7,1.1,1.4,1.9,1.4c1.5-3.3,2.9-6.7,3.3-10.3
			c0.4-3.6-0.5-7.5-3.1-10.1"/>
	</g>
	<g>
		<path class="st5" d="M139.6,129.7c0.9,3.7,4.1,6.6,7.7,7.6c3.6,1,7.6,0.4,11-1.1c-1.8-4.5-6.7-6.8-11.4-8.1
			c-2.2-0.6-4.8-1.1-6.6,0.4"/>
	</g>
	<g>
		<path class="st5" d="M111.8,171.6c-5.5,2.3-9,8.9-7.7,14.8c0.1,0.4,0.2,0.9,0.6,1.1c0.6,0.3,1.3-0.2,1.8-0.7
			c1.9-1.9,3.7-3.9,4.9-6.3c1.1-2.4,1.6-5.3,0.5-7.7"/>
	</g>
	<g>
		<path class="st5" d="M95,152.7c-0.8,1.6-0.6,3.6,0.2,5.2c0.8,1.6,2.1,2.9,3.5,4.1c2.9,2.3,6.3,3.8,10,4.4c0.2-3,0.4-6.2-1.2-8.7
			c-0.7-1-1.6-1.7-2.6-2.4c-3.2-2.2-7.2-3.2-11.1-3"/>
	</g>
	<g>
		<path class="st5" d="M204,184.6c5.2,3.7,12.8,3.8,18.1,0c1.2-0.8,2.3-2.2,1.8-3.5c-0.3-0.6-0.7-1-1.2-1.3
			c-2.9-2.1-6.8-2.8-10.2-1.9c-3.4,0.9-6.5,3.2-8.2,6.4"/>
	</g>
	<g>
		<path class="st5" d="M99.1,237.5c-1.7,2.2-3.5,4.6-3.7,7.4c-0.2,2,0.4,4,1.1,5.9c0.9,2.2,1.9,4.5,3.1,6.5
			c4.2-3.6,5.7-10.2,3.4-15.2c-0.8-1.7-2.2-3.5-4.2-3.5"/>
	</g>
	<g>
		<path class="st5" d="M98.2,238.1c-2.6,5.3-8.3,8.8-14.2,8.7c2-2.8,4.4-5.2,7.3-7.1c1.2-0.8,3-1.5,3.8-0.3"/>
	</g>
	<g>
		<path class="st5" d="M57.1,165.9c-2.8-0.8-5.9,0.5-7.9,2.8c-2,2.2-3,5.1-3.8,8c2.3,0.2,4.6-0.9,6.5-1.9c1.5-0.8,3.1-1.6,4.1-2.9
			c1-1.3,1.6-3.3,0.7-4.8"/>
	</g>
	<g>
		<path class="st5" d="M63.8,164.8c-1.6,0.4-3.4-0.1-4.9-0.9c-3-1.3-6.2-3.5-6.4-6.7c2.2-0.7,4.5-1.3,6.8-1.2
			c2.4,0.1,4.8,1.1,5.9,3.2c1.2,2,0.6,5-1.6,6"/>
	</g>
	<g>
		<path class="st5" d="M68.1,173.6c-2.8,0.4-5.8,1-7.7,3c-2.1,2.4-2.3,5.9-2.3,9.1c0,0.5,0.1,1.2,0.5,1.4c0.3,0.2,0.7,0.2,1,0.1
			c4.4-0.3,8.5-3.9,9.3-8.2c0.4-1.7,0.2-3.4,0.1-5.1"/>
	</g>
	<g>
		<path class="st5" d="M154.1,76.6c-2.8-5.1-1.9-12,2-16.3c2.9,3.3,3.8,8.2,2,12.2c-0.8,1.9-2.1,3.6-3,5.5"/>
	</g>
	<g>
		<path class="st5" d="M158.4,74.5c2-2.1,3.9-4.1,6.3-5.6c2.5-1.5,5.3-2.4,8.1-1.9c-2,1.9-1.9,5-3.2,7.4c-1.3,2.2-3.6,3.6-5.9,4.6
			c-2.1,1-4.5,1.8-6.9,1.5"/>
	</g>
	<g>
		<path class="st5" d="M169.1,264.2c-1.1,3-1,6.3,0.2,9.2c1.3,2.9,3.7,5.1,6.6,6.3c0.3-2.4,0.5-4.8,0.9-7.1c0.2-2,0.5-4.1-0.2-6.1
			c-1.1-3.3-4.5-5.4-7.7-7"/>
	</g>
	<g>
		<path class="st5" d="M144.6,258c-2.2,6.3-0.7,13.8,3.8,18.7c0.6,0.7,1.8,1.4,2.5,0.8c0.3-0.4,0.4-0.9,0.5-1.4
			c0.2-2.4,1.3-4.6,1.8-7c0.8-5-1.8-10.4-6.3-12.7"/>
	</g>
	<g>
		<path class="st5" d="M81.9,129.3c-2.8-1.7-5.6-3.4-7.9-5.8c-2.4-2.3-4.1-5.4-4.3-8.7c4.8,0.8,9.9,1.7,13.4,5.1
			c2.7,2.6,4.1,6.3,4.6,9.9"/>
	</g>
	<g>
		<path class="st5" d="M86.1,123.1c-1.4-0.7-2.2-2.2-2.7-3.7c-1.8-5.1-1.9-10.7-0.3-15.8c7.3,5.2,10.6,15.6,7.4,23.9"/>
	</g>
	<g>
		<path class="st5" d="M187.8,89.5c-0.2-3.3-0.5-6.5,0.1-9.8c0.5-3.2,2-6.5,4.5-8.5c2.1,4.3,4.4,9,3.7,13.8
			c-0.5,3.6-2.7,6.9-5.4,9.5"/>
	</g>
	<g>
		<path class="st5" d="M195.3,89.3c-0.3-1.6,0.6-3.1,1.4-4.4c3.1-4.4,7.5-7.8,12.7-9.5c0.2,9-6.4,17.6-15.1,20"/>
	</g>
	<g>
		<path class="st5" d="M71.9,144.4c-3.3,1.1-6.9,0.9-10-0.5c-3.1-1.5-5.7-4.1-7-7.2c3.5-1.1,7.4-1.6,10.9-0.6
			c3.5,1.1,6.7,3.8,7.6,7.5"/>
	</g>
	<g>
		<path class="st5" d="M73.6,198.4c-3.4-1.3-7.4-0.6-10.3,1.6s-4.7,5.7-4.9,9.3c1.4-1.4,3.8-0.8,5.8-0.6c5.2,0.5,10.5-3,11.9-8"/>
	</g>
	<g>
		<path class="st5" d="M246.9,150.7c3.4,1.3,7.4,0.6,10.3-1.6c2.9-2.2,4.7-5.7,4.9-9.3c-1.4,1.4-3.8,0.8-5.8,0.6
			c-5.2-0.5-10.5,3-11.9,8"/>
	</g>
	<g>
		<path class="st5" d="M227.3,235.6c1.6,2.9,3.9,5.5,6.8,7.1c2.9,1.7,6.4,2.2,9.6,1.4c-1.6-3.1-3.6-5.9-6-8.4
			c-1.1-1.2-2.3-2.2-3.8-2.6c-2.2-0.6-4.6,0.3-6.9-0.4"/>
	</g>
	<g>
		<path class="st5" d="M117.2,94.8c-0.9,0-1.6-0.7-2.2-1.3c-1.2-1.1-2.3-2.4-3-3.8c-1.9-3.9-0.4-8.6,1.2-12.7c2.6,2.2,5.2,4.8,6.4,8
			c1.2,3.2,0.8,7.3-1.7,9.6"/>
	</g>
	<g>
		<path class="st5" d="M89.9,234.6c-3.3,1.4-7.3,0.7-10.5-1c-3.2-1.7-5.8-4.3-8.4-6.9c4.1-3.3,10.2-4,14.9-1.6c2,1,3.8,2.6,4.5,4.8
			c0.7,2.1,0.1,4.8-1.9,5.8"/>
	</g>
	<g>
		<path class="st5" d="M232,110.7c1.7-2.2,3.5-4.6,3.7-7.4c0.2-2-0.4-4-1.1-5.9c-0.9-2.2-1.9-4.5-3.1-6.5
			c-4.2,3.6-5.7,10.2-3.4,15.2c0.8,1.7,2.2,3.5,4.2,3.5"/>
	</g>
	<g>
		<path class="st5" d="M214.1,98c0.4,0.7,1.6,0.5,2.3,0.2c2.9-1.5,5.2-4.2,6.3-7.3c1.1-3.1,0.8-6.6-0.6-9.6
			c-0.1-0.2-0.2-0.4-0.5-0.6c-0.3-0.2-0.7,0-1,0.2c-6,3.3-8.8,11.3-6.4,17.6c0.1,0.2,0.2,0.4,0.4,0.5c0.2,0,0.3-0.4,0.1-0.4"/>
	</g>
	<g>
		<path class="st5" d="M232.9,110c2.6-5.3,8.3-8.8,14.2-8.7c-2,2.8-4.4,5.2-7.3,7.1c-1.2,0.8-3,1.5-3.8,0.3"/>
	</g>
	<g>
		<path class="st5" d="M241.3,113.5c3.3-1.4,7.3-0.7,10.5,1s5.8,4.3,8.4,6.9c-4.1,3.3-10.2,4-14.9,1.6c-2-1-3.8-2.6-4.5-4.8
			s-0.1-4.8,1.9-5.8"/>
	</g>
	<g>
		<path class="st5" d="M252,198.9c2.8,0.5,5.7,1.1,8.3,0.1c1.8-0.7,3.5-2.1,4.7-3.5c1.6-1.8,3.2-3.7,4.5-5.7
			c-5.1-2.2-11.6-0.7-15.2,3.7c-1.2,1.5-2.1,3.6-1.3,5.3"/>
	</g>
	<g>
		<path class="st5" d="M253,199.4c5.9,0,11.6,3.6,14,9c-3.4-0.5-6.6-1.7-9.6-3.4c-1.2-0.7-2.6-2-2-3.3"/>
	</g>
	<g>
		<path class="st5" d="M253.5,208.4c2.8,2.3,3.9,6.2,3.8,9.8s-1.3,7.1-2.5,10.5c-4.8-2.2-8.1-7.4-8-12.7c0-2.2,0.6-4.6,2.3-6.1
			c1.6-1.6,4.3-2.1,6.2-0.8"/>
	</g>
	<g>
		<path class="st5" d="M180,92c-2.1,5.1-0.1,11.6,4.6,14.6c0.3,0.2,0.7,0.4,1.1,0.2c0.6-0.2,0.7-1,0.7-1.6c0-2.5-0.1-4.9-0.9-7.3
			c-0.8-2.3-2.4-4.4-4.7-5.4"/>
	</g>
	<g>
		<path class="st5" d="M210.2,136.1c-3.4,3.6-4.7,9.2-2.9,13.8c1.2,3.2,3.7,5.9,4.8,9.1c3.1-2.5,4-6.9,3.5-10.8
			c-0.6-3.9-2.6-7.4-4.5-10.9"/>
	</g>
	<g>
		<path class="st5" d="M213.4,136.3c1.6,3,4.4,5.4,7.7,6.5c3.3,1.1,7,0.8,10-0.8c-0.9-3.1-4.1-4.9-7.3-5.9c-3.1-0.9-6.5-1-9.5-2.3"
			/>
	</g>
	<g>
		<path class="st5" d="M149.8,111.2c1.5,2.7,3.6,5.1,6.3,6.7c2.7,1.6,6,2.2,8.9,1.3c-1.5-2.9-3.4-5.5-5.6-7.8c-1-1-2.1-2.1-3.6-2.4
			c-2.1-0.6-4.4,0.3-6.4-0.4"/>
	</g>
	<g>
		<path class="st5" d="M178.2,121.1c-6.1,0.5-11.5,5.3-12.9,11.1c-0.1,0.8-0.3,1.6,0.3,2.1c3.1-1.2,6.3-2.5,8.8-4.6
			c2.6-2.1,4.6-5.2,4.6-8.5"/>
	</g>
	<g>
		<path class="st5" d="M184.3,128.3c-1.7,3-1.6,7,0.1,10s4.7,5.3,7.9,6.4c1.8-4.1,0-8.8-2.2-12.7c-1-1.9-2.4-3.9-4.6-4"/>
	</g>
	<g>
		<path class="st5" d="M156.8,90.6c0.6,1.5,1.9,2.7,3.5,3.3c1.6,0.5,3.3,0.6,5,0.3c3.4-0.5,6.6-1.6,9.3-3.6
			c-1.8-2.1-3.7-4.3-6.5-4.8c-1.1-0.2-2.2-0.1-3.2,0.1c-3.6,0.7-6.8,2.6-9.2,5.2"/>
	</g>
	<g>
		<path class="st5" d="M197.8,111.7c-3.4,4.8-3.4,11.8,0,16.6c0.7,1,2,2.1,3.2,1.6c0.5-0.2,0.9-0.6,1.2-1.1c1.9-2.7,2.5-6.2,1.8-9.4
			c-0.8-3.2-3-6-5.8-7.5"/>
	</g>
	<g>
		<path class="st5" d="M139.5,250.7c2.2-5.6,0.1-12.6-5-15.9c-0.3-0.2-0.8-0.4-1.2-0.3c-0.6,0.2-0.8,1.1-0.7,1.8
			c0,2.7,0.1,5.3,1,7.9c0.8,2.5,2.6,4.8,5.1,5.8"/>
	</g>
	<g>
		<path class="st5" d="M106.6,202.8c3.8-3.9,5.1-10,3.1-15c-1.3-3.5-4-6.4-5.2-9.9c-3.4,2.7-4.4,7.5-3.7,11.6
			c0.7,4.2,2.8,8.1,4.8,11.8"/>
	</g>
	<g>
		<path class="st5" d="M103.1,202.5c-1.7-3.3-4.8-5.9-8.4-7.1c-3.6-1.1-7.6-0.8-10.8,0.9c1.1,3.4,4.5,5.5,7.9,6.4
			c3.4,0.9,7,1.1,10.3,2.5"/>
	</g>
	<g>
		<path class="st5" d="M172.3,229.9c-1.7-3-3.9-5.5-6.9-7.2c-2.9-1.7-6.5-2.3-9.8-1.4c1.6,3.1,3.7,5.9,6.2,8.5
			c1.1,1.2,2.3,2.3,3.9,2.7c2.2,0.6,4.8-0.3,7,0.4"/>
	</g>
	<g>
		<path class="st5" d="M141.4,219.1c6.5-0.5,12.5-5.7,14-12.1c0.2-0.8,0.2-1.8-0.3-2.3c-3.3,1.3-6.7,2.7-9.6,5
			c-2.9,2.3-5,5.7-4.9,9.2"/>
	</g>
	<g>
		<path class="st5" d="M134.8,211.3c1.9-3.2,1.7-7.5-0.1-10.8c-1.8-3.3-5.1-5.7-8.6-6.9c-1.9,4.4,0,9.6,2.3,13.8
			c1.1,2,2.7,4.2,4.9,4.4"/>
	</g>
	<g>
		<path class="st5" d="M164.7,252.2c-0.6-1.7-2.1-3-3.9-3.6c-1.7-0.6-3.6-0.5-5.4-0.3c-3.6,0.5-7.1,1.8-10.2,3.9
			c1.9,2.3,4.1,4.7,7,5.2c1.2,0.2,2.4,0.1,3.5-0.1c3.8-0.7,7.4-2.8,10-5.7"/>
	</g>
	<g>
		<path class="st5" d="M120,229.3c3.7-5.2,3.8-12.8,0-18.1c-0.8-1.2-2.2-2.3-3.5-1.8c-0.6,0.3-1,0.7-1.3,1.2
			c-2.1,2.9-2.8,6.8-1.9,10.2c0.8,3.5,3.2,6.5,6.4,8.2"/>
	</g>
	<g>
		<path class="st5" d="M182.5,204c5.6,2.2,12.6,0.1,15.9-5c0.2-0.3,0.4-0.8,0.3-1.2c-0.2-0.6-1.1-0.8-1.8-0.7c-2.7,0-5.3,0.1-7.9,1
			c-2.5,0.8-4.8,2.6-5.8,5.1"/>
	</g>
	<g>
		<path class="st5" d="M230.5,171.1c3.9,3.8,10,5.1,15,3.1c3.5-1.3,6.4-4,9.9-5.2c-2.7-3.4-7.5-4.4-11.6-3.7
			c-4.2,0.7-8.1,2.8-11.8,4.8"/>
	</g>
	<g>
		<path class="st5" d="M230.8,167.7c3.3-1.7,5.9-4.8,7.1-8.4c1.1-3.6,0.8-7.6-0.9-10.8c-3.4,1.1-5.5,4.5-6.4,7.9
			c-0.9,3.4-1.1,7-2.5,10.3"/>
	</g>
	<g>
		<path class="st5" d="M203.4,236.9c3-1.7,5.5-3.9,7.2-6.9c1.7-2.9,2.3-6.5,1.4-9.8c-3.1,1.6-5.9,3.7-8.5,6.2
			c-1.2,1.1-2.3,2.3-2.7,3.9c-0.6,2.2,0.3,4.8-0.4,7"/>
	</g>
	<g>
		<path class="st5" d="M214.2,206c0.5,6.5,5.7,12.5,12.1,14c0.8,0.2,1.8,0.2,2.3-0.3c-1.3-3.3-2.7-6.7-5-9.6c-2.3-2.9-5.7-5-9.2-4.9
			"/>
	</g>
	<g>
		<path class="st5" d="M222,199.4c3.2,1.9,7.5,1.7,10.8-0.1c3.3-1.8,5.7-5.1,6.9-8.6c-4.4-1.9-9.6,0-13.8,2.3
			c-2,1.1-4.2,2.7-4.4,4.9"/>
	</g>
	<g>
		<path class="st5" d="M181.1,229.2c1.7-0.6,3-2.1,3.6-3.9c0.6-1.7,0.5-3.6,0.3-5.4c-0.5-3.6-1.8-7.1-3.9-10.2
			c-2.3,1.9-4.7,4.1-5.2,7c-0.2,1.2-0.1,2.4,0.1,3.5c0.7,3.8,2.8,7.4,5.7,10"/>
	</g>
	<g>
		<path class="st5" d="M103.6,129.5c3.2,0.9,6.8,1.2,10,0.3s6.2-3,7.9-5.9c-3.3-1.1-6.9-1.6-10.4-1.7c-1.6,0-3.2,0.1-4.6,0.9
			c-2,1.1-3.1,3.5-5.2,4.6"/>
	</g>
</g>
<g>
	<path class="st6" d="M83.5,171.1c-0.6-1.3-1.5-0.2-2.2-0.1c-3.3-1.7-2.4-3.4-4.9-4.5c-0.5-4.6-2.2-10-0.7-13.8
		c0.2-7.1,3-7.7,6.6-10.7c4.5-2.9,0.6-4.9,6.9-4c2.8-2.8,5.2-4.4,9.3-2.1c2.5,0.9,7.2,14.1,6.4,16.4c-0.2,1.1-2.3,5-2.8,6.1
		C101.2,159.9,88.2,172.4,83.5,171.1z"/>
	<path class="st6" d="M120.2,233.8c0.5-3.6,5.9-4.1,6.6-6.9c0.6-3.7,11.1-1.6,13,0.1c7,0.3,8.9,8.5,14.2,11.9
		c2.7,20.4-17.6,16.7-31.2,15.6c-7.5-0.2-2.4-7.4-4.3-11.6C116.7,239.5,120.1,237,120.2,233.8z"/>
	<path class="st7" d="M218.8,125.4c3.8,0.1,8.6,1.4,12.1,0.7c5.4,2.6,9.2,8.5,9.1,10.1c-5.8,3.6-1.8,12.4-6.7,15.7
		c-22.5,7.8-10.4-6.1-19.2-5.6c-1.7-4,0.6-7.2,0.3-11C212.2,131,212.9,126.4,218.8,125.4z"/>
	<path class="st6" d="M231,204.7c1.3-7.6-2.8-3.6-4.8-7.9c-4.2-5.6-7.9,2.5-9-9.3c1-1.1,4.5-7.2,6.8-10.7c7.4-4,6.5-4.2,15.2-3.3
		c1.6-0.3,2.2,2.5,4.1,1.8c0.8-0.2,4.4,7.8,7.4,5.2c4.9-1,2.7,5.7,4.3,7.7C255.5,201.3,243,209.6,231,204.7z"/>
	<path class="st7" d="M210.7,228.1c0,0.9-0.9,8.1-0.9,9c-1.5,2-3.8,4.9-6.6,5.8c-3.6-0.7-8,6-10.8,2.5c-4.7-2.3-9.6-4.1-12.9-8.4
		c-1.4-2.9-5.4-8.8-0.8-11.4c4.3-7.8,6.7-3.3,11.8-7.3c6.6-5.7,11.5-4.7,16.8,1.3c4.4,1.6,0.7,4.7,0.5,6.7
		C207.8,226.9,209.3,228.3,210.7,228.1z"/>
	<path class="st7" d="M113.7,209.5c-0.8,0.6-1.3,1.6-1.4,2.5c-1.5,2.2-3.9,5-6.8,6c-3.7-0.8-8.3,6.3-11.2,2.6
		c-5-2.3-9.9-4.2-13.4-8.8c-1.5-3-5.6-9.2-0.9-11.8c4.5-8.1,7-3.4,12.3-7.5c6.8-5.9,11.9-4.9,17.4,1.3c4.6,1.7,0.7,7.9,1.5,7.5
		C112.3,201.3,114.4,208.7,113.7,209.5z"/>
	<path class="st6" d="M165.5,97.6c1.3-3.2,4.9-0.5,6.8-3c3.2-1.9,6.6-1.8,9.1-3.4c8.4-3.2,2.9,4.4,9.3,2.1c2.6-0.6,1.8,2.4,2.9,3.5
		c1.4,2.2-1.8,10.1,2.4,9.8c9.2,6.1-8.2,19-10.9,15.3c0.1-0.6-4.5-1-5.1-1.2c-1.3-0.4-3.2-1.3-3.6-1.5c-2.4-1.3-5.5-2.5-8.2-2.8
		c-1.8,0.3-1.2-3.3-3.1-3.5c-1-1.9-2.4-8.3-3.3-7.5C160.4,99.8,165.9,100.7,165.5,97.6z"/>
	<path class="st7" d="M112.5,102.4c1.3-3.2,4.9-0.5,6.8-3c3.2-1.9,6.6-1.8,9.1-3.4c8.4-3.2,2.9,4.4,9.3,2.1c2.6-0.6,1.8,2.4,2.9,3.5
		c1.4,2.2-1.8,10.1,2.4,9.8c9.2,6.1-8.2,19-10.9,15.3c0.1-0.6-4.5-1-5.1-1.2c-1.3-0.4-3.2-1.3-3.6-1.5c-2.4-1.3-5.5-2.5-8.2-2.8
		c-1.8,0.3-1.2-3.3-3.1-3.5c-1-1.9-2.4-8.3-3.3-7.5C107.4,104.6,113,105.6,112.5,102.4z"/>
</g>
</svg>
