<svg xmlns="http://www.w3.org/2000/svg" width="135.64" height="64.18">
  <linearGradient id="a" x1="67.82" y1="63.051" x2="67.82" y2="1.128" gradientUnits="userSpaceOnUse">
    <stop stop-color="#5a5a5a" offset="0" />
    <stop stop-color="#484848" offset="0.146" />
    <stop stop-color="#212121" offset="0.52" />
    <stop stop-color="#080808" offset="0.817" />
    <stop offset="1" />
  </linearGradient>
  <linearGradient id="o" x1="39.667" y1="19.898" x2="49.695" y2="9.87" gradientUnits="userSpaceOnUse">
    <stop stop-color="#e52f08" offset="0" />
    <stop stop-color="#e94f96" offset="1" />
  </linearGradient>
  <filter id="b" x="21.709" y="10.07" width="99.399" height="50.159" filterUnits="userSpaceOnUse">
    <feOffset dx="2.379" dy="2.973" />
    <feGaussianBlur result="blur" stdDeviation="0.743" />
    <feFlood flood-opacity="0.949" />
    <feComposite in2="blur" operator="in" result="result1" />
    <feComposite in="SourceGraphic" in2="result1" />
  </filter>
  <path fill="url(#a)" d="M 127.725,0.827 H 7.915 A 7.083,7.083 0 0 0 0.828,7.906 v 48.368 a 7.082,7.082 0 0 0 7.087,7.078 h 119.81 a 7.082,7.082 0 0 0 7.086,-7.078 V 7.906 a 7.083,7.083 0 0 0 -7.086,-7.079 z" />
  <path fill="url(#o)" d="m 51.769,14.884 a 7.088,7.088 0 0 1 -7.088,7.088 7.088,7.088 0 0 1 -7.088,-7.088 7.088,7.088 0 0 1 7.088,-7.088 7.088,7.088 0 0 1 7.088,7.088 z" />
  <path fill="#ffffff" filter="url(#b)" d="m 106.28,55.03 h 10.206 L 104.224,39.193 115.343,25.585 h -9.257 L 95.167,39.278 v -29.2 H 87.242 V 55.03 h 7.925 L 95.161,39.316 Z M 72.294,25.58 h 7.923 V 55.025 H 72.294 Z M 57.34,10.069 h 7.923 V 55.025 H 57.34 Z M 36.741,25.286 a 14.968,14.968 0 0 0 -7.108,1.784 v -17 H 21.709 V 40.312 A 15.03,15.03 0 1 0 36.741,25.286 Z m 0,22.26 a 7.233,7.233 0 1 1 7.233,-7.234 7.231,7.231 0 0 1 -7.233,7.234 z" />
</svg>