<?xml version="1.0" encoding="utf-8"?>
<!-- Generator: Adobe Illustrator 26.0.2, SVG Export Plug-In . SVG Version: 6.00 Build 0)  -->
<svg version="1.1" xmlns="http://www.w3.org/2000/svg" xmlns:xlink="http://www.w3.org/1999/xlink" x="0px" y="0px"
	 viewBox="0 0 774.1 208" style="enable-background:new 0 0 774.1 208;" xml:space="preserve">
<style type="text/css">
	.st0{display:none;}
	.st1{display:inline;}
	.st2{display:inline;fill:none;stroke:#E3101A;stroke-width:1.5899;stroke-miterlimit:10;}
	.st3{fill:none;stroke:#000000;stroke-width:1.5;stroke-miterlimit:10;}
	.st4{stroke:#000000;stroke-width:0.3;stroke-miterlimit:10;}
	.st5{fill:#F5AEB1;}
	.st6{stroke:#000000;stroke-width:1.2361;}
	.st7{stroke:#000000;stroke-width:1.3237;}
	.st8{fill:none;stroke:#F5AEB1;stroke-width:1.5;stroke-miterlimit:10;}
	.st9{stroke:#000000;stroke-width:0.3883;}
	.st10{stroke:#000000;stroke-width:0.4158;}
	.st11{display:inline;fill:#FFFFFF;}
	.st12{fill:#E7373F;}
	.st13{fill:none;stroke:#000000;stroke-width:1.3158;stroke-miterlimit:10;}
	.st14{display:inline;fill:#E7373F;}
	.st15{fill:#EFE8E3;}
	.st16{display:inline;fill:#EFE8E3;}
	.st17{fill:#E94B42;}
	.st18{display:inline;fill:#E94B42;}
	.st19{display:inline;fill:#F4A6AB;}
	.st20{display:inline;fill:#5D7265;}
	.st21{display:inline;fill:#6A90BD;}
	.st22{display:inline;fill:#C7B6A7;}
	.st23{display:inline;fill:#EDC4AE;}
	.st24{display:inline;fill:#F5ABB6;}
	.st25{display:inline;fill:#333C68;}
	.st26{display:inline;fill:#F5A38A;}
	.st27{display:inline;fill:#F5C4AD;}
	.st28{display:inline;fill:#304337;}
	.st29{display:inline;fill:#3E5350;}
	.st30{display:inline;fill:#FCFCF3;}
	.st31{fill:#FCFCF3;}
	.st32{display:inline;fill:#4E6BB2;}
	.st33{display:inline;fill:#BAB7AD;}
	.st34{clip-path:url(#SVGID_00000144318084985616399460000004464749500096157372_);}
	.st35{clip-path:url(#SVGID_00000000945092459183501470000003778693861109222040_);}
	.st36{display:inline;fill:none;stroke:#E7373F;stroke-width:5;stroke-miterlimit:10;}
	.st37{display:inline;fill-rule:evenodd;clip-rule:evenodd;fill:#EFE8E3;}
	.st38{clip-path:url(#SVGID_00000013876212043551030210000002493229116463467151_);}
	.st39{clip-path:url(#SVGID_00000152246947836673874170000003939384212983529356_);}
	.st40{fill:#E7373F;stroke:#E7373F;stroke-width:0.2202;stroke-miterlimit:10;}
	.st41{fill:#F7313B;}
	.st42{clip-path:url(#SVGID_00000019675792698290990490000007387231206996560540_);}
	.st43{fill:none;stroke:#000000;stroke-width:2.5;stroke-miterlimit:10;}
	.st44{fill:none;stroke:#FFFFFF;stroke-width:2.5;stroke-miterlimit:10;}
	.st45{fill:#FFFFFF;}
	.st46{fill:#EEE8E3;}
	.st47{opacity:0.75;}
	.st48{fill:none;stroke:#000000;stroke-width:0.6474;stroke-miterlimit:10;}
	.st49{fill:none;stroke:#000000;stroke-width:0.6474;stroke-miterlimit:10;stroke-dasharray:3.7017,4.6272;}
	.st50{fill:none;stroke:#000000;stroke-width:0.6579;stroke-miterlimit:10;}
	.st51{fill:none;stroke:#000000;stroke-width:0.6579;stroke-miterlimit:10;stroke-dasharray:3.759,4.6988;}
	.st52{opacity:0.3;}
	.st53{fill:none;stroke:#C4C4C4;stroke-width:0.6474;stroke-miterlimit:10;}
	.st54{fill:none;stroke:#C4C4C4;stroke-width:0.6474;stroke-miterlimit:10;stroke-dasharray:3.7017,4.6272;}
	.st55{fill:none;stroke:#C4C4C4;stroke-width:0.6579;stroke-miterlimit:10;}
	.st56{fill:none;stroke:#C4C4C4;stroke-width:0.6579;stroke-miterlimit:10;stroke-dasharray:3.759,4.6988;}
	.st57{display:none;fill:#F5AEB1;}
	.st58{fill:none;stroke:#F5AEB1;stroke-width:0.767;stroke-miterlimit:10;}
	.st59{fill:none;stroke:#F5AEB1;stroke-width:0.9749;stroke-miterlimit:10;}
	.st60{fill:none;stroke:#F7313B;stroke-width:2.119;stroke-miterlimit:10;}
	.st61{fill:#CC4C4A;}
	.st62{fill:#50529F;}
	.st63{fill:#F5ABB6;}
	.st64{fill:#FABB95;}
	.st65{fill:#F8A48A;}
	.st66{fill:#085C51;}
	.st67{fill:#6A90BD;}
	.st68{fill:#065C51;}
	.st69{fill:#6C90BD;}
	.st70{fill:#F9ADB5;}
	.st71{stroke:#000000;stroke-width:1.9234;}
	.st72{stroke:#000000;stroke-width:2.0596;}
	.st73{clip-path:url(#SVGID_00000066477620077377542390000008352451622311334027_);}
	.st74{clip-path:url(#SVGID_00000053537456020889359550000009860856849426441360_);}
	.st75{fill:none;stroke:#000000;stroke-width:0.5925;stroke-miterlimit:10;}
	.st76{fill:none;stroke:#000000;stroke-width:0.5925;stroke-miterlimit:10;stroke-dasharray:3.388,4.235;}
	.st77{fill:none;stroke:#000000;stroke-width:0.6021;stroke-miterlimit:10;}
	.st78{fill:none;stroke:#000000;stroke-width:0.6021;stroke-miterlimit:10;stroke-dasharray:3.4404,4.3006;}
	.st79{fill:none;stroke:#C4C4C4;stroke-width:0.5925;stroke-miterlimit:10;}
	.st80{fill:none;stroke:#C4C4C4;stroke-width:0.5925;stroke-miterlimit:10;stroke-dasharray:3.388,4.235;}
	.st81{fill:none;stroke:#C4C4C4;stroke-width:0.6021;stroke-miterlimit:10;}
	.st82{fill:none;stroke:#C4C4C4;stroke-width:0.6021;stroke-miterlimit:10;stroke-dasharray:3.4404,4.3006;}
	.st83{fill:none;stroke:#156A39;stroke-width:0.2007;stroke-miterlimit:10;}
	.st84{fill:#E02D3E;}
	.st85{fill:none;stroke:#FFFFFF;stroke-width:0.2007;stroke-miterlimit:10;}
	.st86{fill:none;stroke:#FFFFFF;stroke-width:0.1696;stroke-miterlimit:10;}
	.st87{fill:none;stroke:#FFFFFF;stroke-width:0.1921;stroke-miterlimit:10;}
	.st88{fill:#7AA5D3;}
	.st89{fill:#DD917F;}
	.st90{fill:#074C42;}
	.st91{fill-rule:evenodd;clip-rule:evenodd;fill:#E7A1AB;}
	.st92{fill-rule:evenodd;clip-rule:evenodd;fill:#F8A48A;}
	.st93{fill-rule:evenodd;clip-rule:evenodd;fill:#085C51;}
	.st94{fill-rule:evenodd;clip-rule:evenodd;fill:#F5ABB6;}
	.st95{fill-rule:evenodd;clip-rule:evenodd;fill:#065C51;}
	.st96{fill-rule:evenodd;clip-rule:evenodd;fill:#FFFFFF;}
	.st97{fill-rule:evenodd;clip-rule:evenodd;fill:#6A90BD;}
	.st98{fill-rule:evenodd;clip-rule:evenodd;fill:#7AA5D3;}
	.st99{fill:#C6A18A;}
	.st100{fill:#DBA184;}
	.st101{fill:#D2B8A8;}
	.st102{fill:#E73143;}
	.st103{fill:#29372B;}
	.st104{fill:#D8D3D0;}
	.st105{fill:#E29481;}
	.st106{fill-rule:evenodd;clip-rule:evenodd;fill:#D8D3D0;}
	.st107{fill-rule:evenodd;clip-rule:evenodd;fill:#EEE8E3;}
	.st108{fill-rule:evenodd;clip-rule:evenodd;fill:#F8C5D1;}
	.st109{fill:#F0A2AE;}
	.st110{clip-path:url(#SVGID_00000112614207296249934490000013725958513851694487_);fill:#EFE7DF;}
	.st111{fill:none;stroke:#000000;stroke-width:1.3849;stroke-miterlimit:10;}
	.st112{fill:none;stroke:#F7313B;stroke-width:3;stroke-miterlimit:10;}
	.st113{fill:none;stroke:#F7313B;stroke-width:1.5;stroke-miterlimit:10;}
	.st114{fill:#F7313B;stroke:#F7313B;stroke-width:0.3;stroke-miterlimit:10;}
	.st115{clip-path:url(#SVGID_00000149363226251268741210000005507988724647569300_);}
	.st116{fill:#1D1F1C;}
	.st117{fill:none;stroke:#F7313B;stroke-width:1.2;stroke-miterlimit:10;}
	.st118{fill-rule:evenodd;clip-rule:evenodd;fill:#F7313B;}
	.st119{display:none;fill-rule:evenodd;clip-rule:evenodd;fill:#E7373F;}
	.st120{clip-path:url(#SVGID_00000142888067075405257440000006423440308706945448_);}
	.st121{fill:none;}
	.st122{fill:none;stroke:#E7373F;stroke-width:1.2;stroke-miterlimit:10;}
	.st123{fill-rule:evenodd;clip-rule:evenodd;fill:#EFE8E3;}
	.st124{fill-rule:evenodd;clip-rule:evenodd;fill:#E7373F;}
	.st125{fill:none;stroke:#F7313B;stroke-width:1.075;stroke-miterlimit:10;}
	.st126{fill:none;stroke:#F7313B;stroke-width:1.075;stroke-miterlimit:10;stroke-dasharray:5.3751,4.4792;}
	.st127{stroke:#000000;stroke-width:0.3583;stroke-miterlimit:10;}
	.st128{clip-path:url(#SVGID_00000137098687817541035640000013891086124795477902_);}
	.st129{fill:none;stroke:#F7313B;stroke-width:0.7566;stroke-miterlimit:10;stroke-dasharray:3.7829,3.1524;}
	.st130{fill:#0C111B;}
	.st131{fill:#FFFFFF;stroke:#FFFFFF;stroke-width:0.3;stroke-miterlimit:10;}
	.st132{fill:none;stroke:#FFFFFF;stroke-width:0.7038;stroke-miterlimit:10;}
	.st133{fill:#E3E3E2;}
	.st134{fill:#3A3A3A;}
	.st135{fill:none;stroke:#EED0BB;stroke-width:0.3;stroke-miterlimit:10;}
	.st136{fill:none;stroke:#FFFFFF;stroke-width:0.4438;stroke-miterlimit:10;}
	.st137{opacity:0.3;clip-path:url(#SVGID_00000183955613415143723590000015103253330149233305_);}
	.st138{fill:#BBD5BB;}
	.st139{opacity:0.3;clip-path:url(#SVGID_00000183961719562328653710000007812152406403274924_);}
	.st140{fill:none;stroke:#287267;stroke-width:0.3688;stroke-miterlimit:10;}
	.st141{clip-path:url(#SVGID_00000128458526921033804780000016321679115738780347_);}
	.st142{fill:#F5A38A;}
	.st143{fill:#F8BC96;}
	.st144{opacity:0.3;clip-path:url(#SVGID_00000097466591703269609220000013392268238720363965_);}
	.st145{opacity:0.3;clip-path:url(#SVGID_00000103225234076427943490000004637799521452304768_);}
	.st146{clip-path:url(#SVGID_00000011748672174530448530000009857543187975521194_);}
	.st147{fill:#EEE8E3;stroke:#FFFFFF;stroke-width:3.4087;stroke-miterlimit:10;}
	.st148{fill:#FEFEFE;}
	.st149{fill:#2D2D2D;}
	.st150{fill:#1C1C1C;}
	.st151{fill:#2C272B;}
	.st152{fill:#EEE8E3;stroke:#FFFFFF;stroke-width:8.5043;stroke-miterlimit:10;}
	.st153{opacity:0.3;clip-path:url(#SVGID_00000029724517562962314610000011037626773767856008_);}
	.st154{fill:none;stroke:#287267;stroke-width:0.4922;stroke-miterlimit:10;}
	.st155{fill:url(#SVGID_00000147200898691098789930000001937751040626237343_);}
	.st156{stroke:#000000;stroke-width:0.6562;stroke-miterlimit:10;}
	.st157{opacity:0.3;clip-path:url(#SVGID_00000028319134407462859960000008857612075683353482_);}
</style>
<g id="ROBOCZE" class="st0">
</g>
<g id="tytułowa">
</g>
<g id="wstęp">
</g>
<g id="ogólny_zarys">
</g>
<g id="index">
</g>
<g id="logo_1_">
</g>
<g id="czarnobiałe_-_logo">
</g>
<g id="kolor_-_logo">
	<g>
		<g>
			<path class="st41" d="M199.1,193.1v13h-7.2v-29.4h7.2v12.9l9.8-12.9h8.4l-11.4,14.4l11.8,15H209L199.1,193.1z"/>
			<path class="st41" d="M229.6,176.7h7.7l4.2,21.4l5.2-21.4h7.9l5,21.4l4.3-21.4h7.7l-7.7,29.4h-8.7l-4.7-19.4l-4.9,19.4h-8.7
				L229.6,176.7z"/>
			<path class="st41" d="M285.4,176.7h7.2v29.4h-7.2V176.7z"/>
			<path class="st41" d="M326.2,200.9h-11l-1.8,5.2h-7.5l10.7-29.4h8.3l10.7,29.4h-7.6L326.2,200.9z M320.7,184.6l-3.6,10.8h7.3
				L320.7,184.6z"/>
			<path class="st41" d="M361.2,176.4c7,0,12.3,3.9,14,10.3h-7.9c-1.2-2.5-3.4-3.8-6.2-3.8c-4.4,0-7.4,3.3-7.4,8.5
				c0,5.2,3,8.5,7.4,8.5c2.7,0,4.9-1.3,6.2-3.8h7.9c-1.7,6.4-7,10.3-14,10.3c-8.7,0-14.8-6.2-14.8-15
				C346.4,182.6,352.5,176.4,361.2,176.4z"/>
			<path class="st41" d="M389.6,176.7h7.2v29.4h-7.2V176.7z"/>
			<path class="st41" d="M430.4,200.9h-11l-1.8,5.2h-7.5l10.7-29.4h8.3l10.7,29.4h-7.6L430.4,200.9z M424.9,184.6l-3.6,10.8h7.3
				L424.9,184.6z"/>
			<path class="st41" d="M465.1,176.7c7.2,0,10.8,4.2,10.8,9.3c0,3.7-2,7.2-6.5,8.5l6.8,11.7H468l-6.1-11.1h-1.7v11.1H453v-29.4
				H465.1z M464.7,182.6h-4.4v7.3h4.4c2.7,0,3.9-1.4,3.9-3.7C468.6,184.1,467.3,182.6,464.7,182.6z"/>
			<path class="st41" d="M516.8,176.7v29.4h-7.2l-12-18.2v18.2h-7.2v-29.4h7.2l12,18.2v-18.2H516.8z"/>
			<path class="st41" d="M532.1,176.7h7.2v29.4h-7.2V176.7z"/>
			<path class="st41" d="M572.8,200.9h-11l-1.8,5.2h-7.5l10.7-29.4h8.3l10.7,29.4h-7.6L572.8,200.9z M567.3,184.6l-3.6,10.8h7.3
				L567.3,184.6z"/>
		</g>
		<g>
			<path class="st41" d="M185.7,122c-0.7-7.4-0.7-16.5-0.7-25.3c0-11.7,0.7-25.1,1.3-31.9l-11.5-8.2c-0.7-0.6-0.9-5,0-5.2
				c2.4-0.6,10.4-1.7,18.6-2.4c10.2-1.1,22.5-1.5,22.5-1.5c1.1,5.8,1.1,23.2,1.1,31.2c0,19.7-0.6,35.3-0.9,44.2l-0.1,2.4l13.7,3
				c0.9,0.2,1.1,3.7,0.4,4.1c-3.2,3-18.8,9.1-28.6,9.1c-7.2,0-13.4-6.5-15-14.3"/>
			<path class="st41" d="M286,139.5h-48.7c-0.9,0-0.7-3.7,0-4.3l10-8.2c-0.2-13-0.7-34.7-0.7-53.7c0-18,0.7-44.6,1.3-55.7l-13.6-8.9
				c-0.7-0.6-0.9-4.6,0.2-4.8c4.8-0.7,28.8-3.7,41.4-3.9c1.5,5.4,1.9,13,1.9,28.6c0,26.2-0.2,48.3-0.4,65.7l32.5-33.8l-9.1-7.6
				c-1.3-1.3-1.1-5,0.2-5h41c1.5,0,1.3,4.5,0,5.2l-20.4,8.2l-13.6,11.9c4.5,9.1,10.4,20.2,14.3,27.3c5.9,11.3,12.1,22.1,15,26.4
				l12.1,8.4c0.9,0.6,0.9,4.3,0,4.3h-39.6c-2.8-3.7-9.8-16.7-15-26.6c-3.3-6.1-5.9-11.3-9.5-18.6l-8,7.6
				c-0.2,10.6-0.4,19.1-0.6,25.1l9.3,8.2C286.5,135.6,286.9,139.5,286,139.5z"/>
			<path class="st41" d="M398.6,87.6c0,17.5-0.6,31.8-0.7,39.4l10.2,8.2c0.6,0.4,0.9,4.3,0,4.3h-50.7c-0.9,0-0.9-3.5,0-4.3l10.4-8.2
				c-0.4-7.4-0.7-18-0.7-31.9s0.4-23.8,0.6-30.6l-12.4-9.7c-0.9-0.6-0.9-5,0.2-5.2c2.6-0.4,29.9-1.9,42.3-1.9
				C398.6,53.9,398.6,68.5,398.6,87.6z"/>
			<path class="st41" d="M382.2,0.6c4.1,1.4,12,10.4,15,16.1l-0.6,2.4c-2.4,5.5-11,13.6-14.8,16.1l-2.4,0.6
				c-5.7-3-12.4-10.8-15.2-16.1l0.6-2.4c3.9-6.3,11-13.2,15.5-16.1L382.2,0.6z"/>
			<path class="st41" d="M470.6,84.6c0-3.3,0.1-9,0-11.8c-0.6-13.5-3-20.4-11.2-20.4c-3,0-5.4,0.7-7.6,2.2
				c-3.1,4.7-5.4,24.1-5.6,37.9c0.4,21.7,6.5,33,23.8,33c11.3,0,19.3-2.4,25.5-6.1c0.7-0.6,3.5,3.5,2.2,5.3
				c-8.2,10.6-23.8,17.3-36.8,17.3c-26.2,0-47.4-12.8-47.4-46.9c0-33,23.5-49.9,48.1-49.9c24,0,38.1,19.5,36.9,42.5
				c-0.4,2.2-3,4.8-4.2,4.8l-38.8-0.1c0,0-5.3-0.3-5.3-2.5s5.9-2.9,5.9-2.9L470.6,84.6z"/>
			<path class="st41" d="M554.7,52.4c-3.7,0-6.9,0.9-9.3,2.6c-3.7,7.1-5.6,19.7-5.6,32.3c0,31.6,8.9,38.1,23.2,38.3
				c10,0.4,17.6-2.2,23.6-6.1c0.7-0.6,3.5,3.5,2.4,5.4c-8.4,10.8-22.5,17.3-34.9,17.3c-26.6,0-47.5-13-47.5-46.6
				c0-32.1,21.9-50.1,50.5-50.1c16.3,0,29,7.8,31.8,17.5c1.3,10-4.1,18.2-13.2,18.4c-3.5,0-5.8-0.6-7.1-1.3l-7.2-26.2
				C559.3,52.7,557.7,52.4,554.7,52.4z"/>
			<path class="st41" d="M641.9,87.6c0,17.5-0.6,31.8-0.7,39.4l10.2,8.2c0.6,0.4,0.9,4.3,0,4.3h-50.7c-0.9,0-0.9-3.5,0-4.3l10.4-8.2
				c-0.4-7.4-0.7-18-0.7-31.9s0.4-23.8,0.6-30.6l-12.4-9.7c-0.9-0.6-0.9-5,0.2-5.2c2.6-0.4,29.9-1.9,42.3-1.9
				C641.9,53.9,641.9,68.5,641.9,87.6z"/>
			<path class="st41" d="M625.5,0.6c4.1,1.4,12,10.4,15,16.1l-0.6,2.4c-2.4,5.5-11,13.6-14.8,16.1l-2.4,0.6
				c-5.7-3-12.4-10.8-15.2-16.1l0.6-2.4c3.9-6.3,11-13.2,15.5-16.1L625.5,0.6z"/>
			<path class="st41" d="M709.9,139.5h-48.7c-0.9,0-0.7-3.7,0-4.3l10-8.2c-0.2-13-0.7-34.7-0.7-53.7c0-18,0.7-44.6,1.3-55.7
				l-13.6-8.9c-0.7-0.6-0.9-4.6,0.2-4.8c4.8-0.7,28.8-3.7,41.4-3.9c1.5,5.4,1.9,13,1.9,28.6c0,26.2-0.2,48.3-0.4,65.7l32.5-33.8
				l-9.1-7.6c-1.3-1.3-1.1-5,0.2-5h41c1.5,0,1.3,4.5,0,5.2l-20.4,8.2L732,73.2c4.5,9.1,10.4,20.2,14.3,27.3
				c5.9,11.3,12.1,22.1,15,26.4l12.1,8.4c0.9,0.6,0.9,4.3,0,4.3h-39.6c-2.8-3.7-9.8-16.7-15-26.6c-3.3-6.1-5.9-11.3-9.5-18.6l-8,7.6
				c-0.2,10.6-0.4,19.1-0.6,25.1l9.3,8.2C710.4,135.6,710.8,139.5,709.9,139.5z"/>
			<path class="st41" d="M100.4,58.6c-0.6-0.7-1.3-1.3-1.9-1.9c-5.9-5.5-13.2-8.8-21.8-8.8c-5.8,0-11.6,1-16.2,3.1
				c0,0-0.1,0.1-0.1,0.1c-0.7,0.4-1.5,0.7-2.2,1.1c-0.2,0.1-0.4,0.2-0.6,0.4c-1.1,0.7-2.3,1.4-3.6,2.1c-0.1,0.1-0.3,0.2-0.4,0.3
				c-3.8,2.4-7.1,4.8-9.4,6.5c0-22.7-0.4-45.2-0.7-54.6c-0.3-2.6-0.6-4.8-1-6.5c0-0.1-0.1-0.3-0.1-0.4c-0.8,0-1.7,0-2.6,0.1
				c-0.3,0-0.5,0-0.8,0c-8.7,0.3-31.4,1.3-38,3.7c-1.3,0.2-1.1,4.3-0.2,4.8l9.2,6.1c0.9,0.6,1.7,1.1,2.3,1.6l1.2,0.8l0.6,0.4
				c0,0.7,0,1.5-0.1,2.4c0,0.4,0,0.9,0,1.5c0,0.3,0,0.6,0,1c0,3.3-0.1,7.4-0.3,11.8c0,0.7,0,1.5,0,2.2c0,0.7,0,1.3,0,2
				c-0.2,6-0.3,12.6-0.4,19.1c0,1.5,0,3.1,0,4.6c0,2.1,0,4.1-0.1,6c0,3.4,0,6.7,0,9.7c0,7.6-0.1,14.6-0.1,21.1
				c0,18.9-2,32.3-4.1,40.8l2.3,1.2c0.8-0.4,1.6-0.9,2.4-1.3c6.5-3.3,13.9-6,20-8.1c4.8,4.2,11.1,7.6,17.8,9.2
				c2.5,0.6,5.1,0.9,7.7,0.9c9.6,0,20.6-1.8,31.9-8.7c12.4-7.8,21-22.2,21-40.9C111.9,78.4,108.4,67,100.4,58.6z M73.1,117.6
				c0,0.1,0,0.1,0,0.2c-0.7,3-1.6,5.4-2.5,7.3c-1.1,2.4-2.7,5-4.7,7.4c-1.8,2.1-4,4-6.4,5.3c-3.3-0.5-6.5-2.4-8.7-5.4
				c-0.5-0.6-1-1.3-1.4-2c-2.2-4.3-3.3-8.9-3.9-25.3c-0.2-6-0.2-12.3-0.2-18.1V68.9c1.8-1.6,5.6-3.5,6.5-3.8
				c0.8-0.3,2.5-0.7,3.7-0.9c0.5,0.1,0.9,0.2,1.4,0.3c0.5,0.2,7.2,2.7,10.4,6.3c3.8,4.4,6.4,10.9,7.4,19.1v0c0,1.7,0.1,3.4,0.1,5.3
				C74.8,103.3,74.2,111.2,73.1,117.6z"/>
			<path class="st41" d="M180.7,126.5c-0.1,0.1-0.2,0.1-0.3,0.3c-2,1.9-9.5,8.1-15.4,11.3c-2.3,1.2-4.6,3.1-10.1,3.4
				c-17,0-26.5-7.3-28.2-30.3c-0.9-10.7,0-35.5,1-46.4l-11.3-8.5c-0.8-0.6-1.1-5,0-5.3c4.1-0.7,10.4-1.5,19.1-2
				c5.9-0.6,14.1-1,22.1-1.1c1.1,4.4,0.3,15.5,0.3,24.9c-0.1,10.6-0.1,17.1,0,27.5c0.1,14.7-0.1,21.6,5.8,23.8c0.1,0,0.1,0,0.1,0
				c6.9,1.2,12,0.6,16.1-1C180.4,122.7,181.6,125.5,180.7,126.5z"/>
		</g>
		<g>
			<path class="st41" d="M657.4,204.7c0,3.6-3.2,3.3-3.9,3.3c-0.6,0-3.9,0.4-3.9-3.3c0-2.7,1.9-8.6,2.9-11c0.3-0.8,0.7-0.9,1-0.9
				c0.3,0,0.7,0.2,1,0.9C655.6,196.1,657.4,202,657.4,204.7z"/>
			<path class="st41" d="M649.7,176.5c0-3.6,3.2-3.3,3.9-3.3s3.9-0.4,3.9,3.3c0,2.7-1.9,8.6-2.9,11c-0.3,0.8-0.7,0.9-1,0.9
				s-0.7-0.2-1-0.9C651.5,185.1,649.7,179.2,649.7,176.5z"/>
			<path class="st41" d="M667.7,186.7c3.6,0,3.3,3.2,3.3,3.9s0.4,3.9-3.3,3.9c-2.7,0-8.6-1.9-11-2.9c-0.8-0.3-0.9-0.7-0.9-1
				c0-0.3,0.2-0.7,0.9-1C659,188.6,665,186.7,667.7,186.7z"/>
			<path class="st41" d="M639.4,194.5c-3.6,0-3.3-3.2-3.3-3.9s-0.4-3.9,3.3-3.9c2.7,0,8.6,1.9,11,2.9c0.8,0.3,0.9,0.7,0.9,1
				c0,0.3-0.2,0.7-0.9,1C648.1,192.7,642.1,194.5,639.4,194.5z"/>
		</g>
		<g>
			<path class="st41" d="M117.8,204.7c0,3.6-3.2,3.3-3.9,3.3s-3.9,0.4-3.9-3.3c0-2.7,1.9-8.6,2.9-11c0.3-0.8,0.7-0.9,1-0.9
				s0.7,0.2,1,0.9C116,196.1,117.8,202,117.8,204.7z"/>
			<path class="st41" d="M110.1,176.5c0-3.6,3.2-3.3,3.9-3.3s3.9-0.4,3.9,3.3c0,2.7-1.9,8.6-2.9,11c-0.3,0.8-0.7,0.9-1,0.9
				s-0.7-0.2-1-0.9C111.9,185.1,110.1,179.2,110.1,176.5z"/>
			<path class="st41" d="M128.1,186.7c3.6,0,3.3,3.2,3.3,3.9s0.4,3.9-3.3,3.9c-2.7,0-8.6-1.9-11-2.9c-0.8-0.3-0.9-0.7-0.9-1
				c0-0.3,0.2-0.7,0.9-1C119.4,188.6,125.4,186.7,128.1,186.7z"/>
			<path class="st41" d="M99.8,194.5c-3.6,0-3.3-3.2-3.3-3.9s-0.4-3.9,3.3-3.9c2.7,0,8.6,1.9,11,2.9c0.8,0.3,0.9,0.7,0.9,1
				c0,0.3-0.2,0.7-0.9,1C108.5,192.7,102.5,194.5,99.8,194.5z"/>
		</g>
	</g>
</g>
<g id="budowa_-_logo">
</g>
<g id="pole_ochronne_-_znak_słowny">
</g>
<g id="nieprawidłowe_-_logo">
</g>
<g id="system_graficzny">
</g>
<g id="paleta_kolorów_-_sg">
</g>
<g id="info_o_kolorach_-sg">
</g>
<g id="warianty_kolor_logo_-_sg">
</g>
<g id="typografia_-_sg">
</g>
<g id="dodatkowa_typografia_-_sg">
</g>
<g id="dodatkowa_typografia_2_-_sg">
</g>
<g id="hierarchia_typo_-_sg">
</g>
<g id="pattern_-_sg">
</g>
<g id="ilustracje_-_sg">
</g>
<g id="layout_ilustracji_-sg">
</g>
<g id="fotografia_-_sg">
</g>
<g id="pieczątki_-_sg">
</g>
<g id="pieczątki_2_-_sg">
</g>
<g id="dossier">
</g>
<g id="wizytówki_-_druk">
</g>
<g id="naklejki_-_druk">
</g>
<g id="ROBOCZE_naklejki__x2F__wizytówki" class="st0">
</g>
<g id="etykiety_-_druk">
</g>
<g id="szyba_-_budynek">
</g>
<g id="kaseton_x5F_boczny_-_budynek">
</g>
<g id="kaseton_x5F_front_-_budynek">
</g>
<g id="neon_-_budynek">
</g>
<g id="facebook_-_online">
</g>
<g id="facebook_szablony_-_online">
</g>
<g id="facebook_szablony_2_-_online">
</g>
<g id="instagram_-_online">
</g>
<g id="instagram_szablony_-_online">
</g>
<g id="instagram_szablony_2_-_online">
</g>
<g id="instagram_icon_-_online">
</g>
<g id="instagram_edu_post_-_online">
</g>
<g id="końcowa">
</g>
</svg>
