<?xml version="1.0" encoding="utf-8"?>
<!-- Generator: Adobe Illustrator 26.0.3, SVG Export Plug-In . SVG Version: 6.00 Build 0)  -->
<svg version="1.1" id="Layer_1" xmlns="http://www.w3.org/2000/svg" xmlns:xlink="http://www.w3.org/1999/xlink" x="0px" y="0px"
	 viewBox="0 0 58.6 58.6" style="enable-background:new 0 0 58.6 58.6;" xml:space="preserve">
<style type="text/css">
	.st0{fill:#FFFFFF;}
</style>
<path class="st0" d="M33.7,27.5c0-0.4-0.1-0.7-0.2-1.1c-0.2-0.6-0.7-1.1-1.3-1.3c-0.3-0.1-0.7-0.2-1.1-0.2c-0.5,0-0.6,0-1.8,0
	c-1.2,0-1.3,0-1.8,0c-0.4,0-0.7,0.1-1.1,0.2c-0.6,0.2-1.1,0.7-1.3,1.3c-0.1,0.3-0.2,0.7-0.2,1.1c0,0.5,0,0.6,0,1.8
	c0,1.2,0,1.3,0,1.8c0,0.4,0.1,0.7,0.2,1.1c0.2,0.6,0.7,1.1,1.3,1.3c0.3,0.1,0.7,0.2,1.1,0.2c0.5,0,0.6,0,1.8,0c1.2,0,1.3,0,1.8,0
	c0.4,0,0.7-0.1,1.1-0.2c0.6-0.2,1.1-0.7,1.3-1.3c0.1-0.3,0.2-0.7,0.2-1.1c0-0.5,0-0.6,0-1.8C33.7,28.1,33.7,28,33.7,27.5z
	 M29.3,31.6c-1.2,0-2.3-1-2.3-2.3c0-1.2,1-2.3,2.3-2.3c1.2,0,2.3,1,2.3,2.3S30.5,31.6,29.3,31.6z M31.6,27.5c-0.3,0-0.5-0.2-0.5-0.5
	c0,0,0,0,0,0c0-0.3,0.2-0.5,0.5-0.5s0.5,0.2,0.5,0.5l0,0C32.2,27.2,31.9,27.5,31.6,27.5z"/>
<circle class="st0" cx="29.3" cy="29.3" r="1.5"/>
</svg>
