<?xml version="1.0" encoding="utf-8"?>
<!-- Generator: Adobe Illustrator 26.0.3, SVG Export Plug-In . SVG Version: 6.00 Build 0)  -->
<svg version="1.1" id="Layer_1" xmlns="http://www.w3.org/2000/svg" xmlns:xlink="http://www.w3.org/1999/xlink" x="0px" y="0px"
	 viewBox="0 0 58.6 58.6" style="enable-background:new 0 0 58.6 58.6;" xml:space="preserve">
<style type="text/css">
	.st0{fill:#FFFFFF;}
</style>
<path class="st0" d="M33.2,25h-7.8c-0.3,0-0.5,0.2-0.5,0.5v7.8c0,0.3,0.2,0.5,0.5,0.5h4.2v-3.4h-1.1v-1.3h1.1v-1
	c0-1.1,0.7-1.8,1.7-1.8c0.3,0,0.7,0,1,0.1v1.2h-0.7c-0.6,0-0.7,0.3-0.7,0.6v0.8h1.3l-0.2,1.3H31v3.4h2.2c0.3,0,0.5-0.2,0.5-0.5v-7.8
	C33.7,25.2,33.5,25,33.2,25z"/>
</svg>
