<?xml version="1.0" encoding="utf-8"?>
<!-- Generator: Adobe Illustrator 23.1.0, SVG Export Plug-In . SVG Version: 6.00 Build 0)  -->
<svg version="1.1" id="Warstwa_1" xmlns="http://www.w3.org/2000/svg" xmlns:xlink="http://www.w3.org/1999/xlink" x="0px" y="0px"
	 viewBox="0 0 98.9 30" style="enable-background:new 0 0 98.9 30;" xml:space="preserve">
<style type="text/css">
	.st0{fill:#231F20;}
	.st1{fill:#FF5F00;}
	.st2{fill:#EB001B;}
	.st3{fill:#F79E1B;}
	.st4{fill:#0D357F;}
</style>
<g id="Layer_2_1_">
	<g id="Layer_1-2_1_">
		<path class="st0" d="M70.4,28.8V27c0-0.6-0.4-1.1-1-1.1h-0.1c-0.4,0-0.8,0.2-1,0.5c-0.2-0.3-0.6-0.5-0.9-0.5s-0.7,0.1-0.8,0.4
			v-0.4H66v2.9h0.6v-1.6c-0.1-0.4,0.2-0.7,0.6-0.8h0.1c0.4,0,0.6,0.3,0.6,0.8v1.6h0.6v-1.6c0-0.4,0.2-0.7,0.6-0.8h0.1
			c0.4,0,0.6,0.3,0.6,0.8v1.6H70.4z M79.7,25.9h-1V25h-0.6v0.9h-0.6v0.6h0.6v1.3c0,0.7,0.3,1.1,1,1.1c0.3,0,0.5-0.1,0.8-0.2
			l-0.2-0.5c-0.2,0.1-0.4,0.2-0.6,0.2c-0.3,0-0.4-0.2-0.4-0.5v-1.3h1L79.7,25.9z M85,25.9c-0.3,0-0.6,0.2-0.8,0.4V26h-0.6v2.9h0.6
			v-1.6c0-0.5,0.2-0.7,0.6-0.7c0.1,0,0.3,0,0.4,0.1l0.2-0.6C85.3,25.9,85.2,25.9,85,25.9L85,25.9z M77,26.2
			c-0.4-0.2-0.8-0.3-1.2-0.3c-0.7,0-1.2,0.3-1.2,0.9c0,0.5,0.3,0.8,1,0.8h0.3c0.3,0,0.5,0.1,0.5,0.3c0,0.2-0.2,0.3-0.7,0.3
			c-0.3,0-0.7-0.1-1-0.3l-0.3,0.5c0.4,0.3,0.8,0.4,1.2,0.4c0.8,0,1.3-0.4,1.3-0.9s-0.4-0.8-1-0.9h-0.3c-0.3,0-0.5-0.1-0.5-0.3
			c0-0.2,0.2-0.3,0.5-0.3s0.6,0.1,0.9,0.2L77,26.2z M93.7,25.9c-0.3,0-0.6,0.2-0.8,0.4V26h-0.6v2.9h0.6v-1.6c0-0.5,0.2-0.7,0.6-0.7
			c0.1,0,0.3,0,0.4,0.1l0.2-0.6C94,25.9,93.8,25.9,93.7,25.9L93.7,25.9z M85.7,27.4c0,0.8,0.6,1.5,1.4,1.5h0.1c0.4,0,0.7-0.1,1-0.3
			L87.9,28c-0.2,0.2-0.5,0.3-0.7,0.3c-0.5,0-0.9-0.5-0.8-1c0-0.4,0.4-0.8,0.8-0.8c0.3,0,0.5,0.1,0.7,0.3l0.3-0.5
			c-0.3-0.2-0.7-0.4-1-0.3C86.4,26,85.7,26.6,85.7,27.4C85.7,27.3,85.7,27.3,85.7,27.4L85.7,27.4z M91.5,27.4V26h-0.6v0.3
			c-0.2-0.3-0.5-0.4-0.9-0.4c-0.8,0-1.5,0.7-1.5,1.5s0.7,1.5,1.5,1.5c0.3,0,0.7-0.1,0.9-0.4v0.3h0.6V27.4z M89.2,27.4
			c0-0.5,0.4-0.8,0.9-0.8s0.8,0.4,0.8,0.9s-0.4,0.8-0.9,0.8C89.6,28.3,89.2,27.9,89.2,27.4L89.2,27.4z M81.7,25.9
			c-0.8,0-1.5,0.7-1.5,1.5s0.7,1.5,1.5,1.5l0,0c0.4,0,0.9-0.1,1.2-0.4L82.6,28c-0.2,0.2-0.5,0.3-0.8,0.3c-0.4,0-0.8-0.3-0.9-0.7H83
			c0-0.1,0-0.2,0-0.2C83,26.5,82.5,25.9,81.7,25.9L81.7,25.9z M81.7,26.4c0.4,0,0.7,0.3,0.7,0.7l0,0h-1.5
			C80.9,26.7,81.3,26.4,81.7,26.4L81.7,26.4z M97.3,27.4v-2.6h-0.6v1.5c-0.2-0.3-0.5-0.4-0.9-0.4c-0.8,0-1.5,0.7-1.5,1.5
			s0.7,1.5,1.5,1.5c0.3,0,0.7-0.1,0.9-0.4v0.3h0.6V27.4z M98.3,28.4L98.3,28.4c0.1,0,0.2,0,0.2,0.1c0,0,0,0.1,0.1,0.1
			c0,0.1,0,0.2,0,0.2s0,0.1-0.1,0.1c0,0-0.1,0-0.1,0.1h-0.1c-0.1,0-0.2-0.1-0.3-0.2c0-0.1,0-0.2,0-0.2s0-0.1,0.1-0.1
			c0,0,0.1,0,0.1-0.1C98.2,28.4,98.3,28.4,98.3,28.4L98.3,28.4z M98.3,28.9L98.3,28.9c0.1,0,0.1,0,0.2-0.1s0.1-0.2,0-0.3
			c0,0,0,0-0.1,0h-0.1h-0.1h-0.1c-0.1,0.1-0.1,0.2,0,0.3C98.2,28.9,98.2,28.9,98.3,28.9C98.2,28.9,98.3,28.9,98.3,28.9L98.3,28.9z
			 M98.3,28.5C98.3,28.5,98.4,28.5,98.3,28.5c0.1,0,0.1,0.1,0.1,0.1s0,0,0,0.1c0,0,0,0-0.1,0l0.1,0.1h-0.1l-0.1-0.1l0,0v0.1h-0.1
			v-0.3L98.3,28.5z M98.2,28.6L98.2,28.6L98.2,28.6c0.1,0.1,0.1,0.1,0.1,0.1l0,0l0,0C98.3,28.6,98.3,28.6,98.2,28.6L98.2,28.6z
			 M95,27.4c0-0.5,0.4-0.8,0.9-0.8s0.8,0.4,0.8,0.9s-0.4,0.8-0.9,0.8S95,27.9,95,27.4L95,27.4z M74,27.4V26h-0.6v0.3
			c-0.2-0.3-0.5-0.4-0.9-0.4c-0.8,0-1.5,0.7-1.5,1.5s0.7,1.5,1.5,1.5c0.3,0,0.7-0.1,0.9-0.4v0.3H74V27.4z M71.6,27.4
			c0-0.5,0.4-0.8,0.9-0.8s0.8,0.4,0.8,0.9s-0.4,0.8-0.9,0.8C72,28.3,71.6,27.9,71.6,27.4L71.6,27.4L71.6,27.4z"/>
		<g id="_Group_">
			<rect x="76.8" y="4.2" class="st1" width="9.4" height="16.9"/>
			<path id="_Path_" class="st2" d="M77.4,12.6c0-3.3,1.5-6.4,4.1-8.5C76.9,0.5,70.1,1.3,66.4,6c-3.7,4.7-2.9,11.4,1.8,15.1
				c3.9,3.1,9.4,3.1,13.3,0C78.9,19.1,77.4,15.9,77.4,12.6z"/>
			<path class="st3" d="M98.9,12.6c0,5.9-4.8,10.8-10.8,10.8c-2.4,0-4.8-0.8-6.7-2.3c4.7-3.7,5.5-10.4,1.8-15.1
				c-0.5-0.7-1.1-1.3-1.8-1.8C86.1,0.5,92.8,1.3,96.5,6C98.1,7.9,98.9,10.2,98.9,12.6L98.9,12.6z"/>
			<path class="st3" d="M97.9,19.3V19H98v-0.1h-0.4V19h0.2L97.9,19.3L97.9,19.3z M98.6,19.3v-0.4h-0.1l-0.1,0.3l-0.1-0.3h-0.1v0.4
				h0.1V19l0.1,0.3H98.6V19V19.3L98.6,19.3z"/>
		</g>
	</g>
</g>
<path class="st4" d="M24.9,7.4l-3.3,15.5h-4l3.3-15.5C20.9,7.4,24.9,7.4,24.9,7.4z M41.7,17.3l2.1-5.8l1.2,5.8H41.7z M46.2,22.8h3.7
	L46.7,7.3h-3.4c-0.8,0-1.4,0.4-1.7,1.1l-6,14.3h4.2l0.8-2.3h5.1L46.2,22.8z M35.7,17.8c0-4.1-5.6-4.3-5.6-6.1c0-0.6,0.5-1.1,1.7-1.3
	c0.6-0.1,2.2-0.1,3.9,0.7l0.7-3.3c-1-0.3-2.2-0.7-3.7-0.7c-4,0-6.7,2.1-6.8,5.1c0,2.2,2,3.5,3.5,4.2c1.6,0.8,2.1,1.2,2.1,1.9
	c0,1-1.2,1.5-2.4,1.5c-2,0-3.2-0.5-4.1-1l-0.7,3.4c0.9,0.4,2.7,0.8,4.5,0.8C32.9,23.1,35.7,21,35.7,17.8z M19.1,7.4l-6.5,15.5H8.4
	L5.2,10.5c-0.2-0.8-0.4-1-1-1.4c-1-0.5-2.6-1-3.9-1.3l0.1-0.4h6.8C8.1,7.4,8.8,8,9,9l1.7,9l4.2-10.5L19.1,7.4L19.1,7.4z"/>
</svg>
